<?xml version="1.0" encoding="utf-8"?>
<!-- Generator: Adobe Illustrator 16.0.0, SVG Export Plug-In . SVG Version: 6.00 Build 0)  -->
<!DOCTYPE svg PUBLIC "-//W3C//DTD SVG 1.1//EN" "http://www.w3.org/Graphics/SVG/1.1/DTD/svg11.dtd">
<svg version="1.1" id="Layer_1" xmlns="http://www.w3.org/2000/svg" xmlns:xlink="http://www.w3.org/1999/xlink" x="0px" y="0px"
	 width="700px" height="700px" viewBox="0 0 700 700" enable-background="new 0 0 700 700" xml:space="preserve">
<g opacity="0.5">
	<path fill="#FFFFFF" fill-opacity="0.6" d="M348.6,43.5v2.8v7.1V69v5.5v6.2V114l0,0v11.8v192.5v1.1v3h-0.1
		c-0.1,2.7-0.2,5.3-0.4,7.8c-0.3,3.5-1.5,7.4-3.6,11.9c-1.5,3-2.6,6-3.3,8.9c-0.4,1.2-0.6,13.2-0.8,36c-0.2,22.1-0.2,34.5-0.1,37
		c-3,1.6-6.3,1.6-10,0l-1.3-73c-0.1-0.3-0.1-0.6-0.2-0.9l-2.6-6.9c-0.2-0.3-0.3-0.7-0.5-1c-2.2-4.5-3.4-8.4-3.6-11.9
		c-0.2-2.5-0.3-5.1-0.4-7.8l0,0v-2.3c0-0.3,0-0.5,0-0.8v-1.1V125.8V114l0,0V80.8v-6.2V69V53.4v-7.1v-2.8H348.6z"/>
</g>
</svg>
