<?xml version="1.0" encoding="utf-8"?>
<!-- Generator: Adobe Illustrator 16.0.0, SVG Export Plug-In . SVG Version: 6.00 Build 0)  -->
<!DOCTYPE svg PUBLIC "-//W3C//DTD SVG 1.1//EN" "http://www.w3.org/Graphics/SVG/1.1/DTD/svg11.dtd">
<svg version="1.1" id="Layer_1" xmlns="http://www.w3.org/2000/svg" xmlns:xlink="http://www.w3.org/1999/xlink" x="0px" y="0px"
	 width="700px" height="700px" viewBox="0 0 700 700" enable-background="new 0 0 700 700" xml:space="preserve">
<g>
	<g>
		<g>
			
				<radialGradient id="SVGID_1_" cx="334.6465" cy="381.25" r="14.7798" gradientTransform="matrix(1 0 0 0.2242 0 295.7752)" gradientUnits="userSpaceOnUse">
				<stop  offset="0" style="stop-color:#000000;stop-opacity:6.274509e-002"/>
				<stop  offset="0.9725" style="stop-color:#F6F6F6;stop-opacity:0.4824"/>
				<stop  offset="1" style="stop-color:#FFFFFF"/>
			</radialGradient>
			<path fill-rule="evenodd" clip-rule="evenodd" fill="url(#SVGID_1_)" d="M342.5,378.8c0.8,0.1,1.5,0.2,1.9,0.4
				c0.5,0.1,0.8,0.3,0.7,0.5c0.1,0.2-0.2,0.4-0.9,0.6c-0.5,0.2-1.3,0.3-2.3,0.4c-0.7,0.1-1.5,0.2-2.4,0.2h-0.8
				c-1.3,0.1-2.6,0.1-4.1,0.1c-3,0-5.4-0.1-7.3-0.3c-0.8-0.1-1.5-0.2-2.2-0.4c-0.7-0.2-1-0.4-0.9-0.6c-0.1-0.2,0-0.3,0.3-0.5
				c0.5-0.2,1.4-0.4,2.8-0.5c0.9-0.1,1.9-0.2,3-0.2c0.2,0,0.4,0,0.6-0.1c0.5,0,1.1,0,1.7,0c0.6,0,1.3,0,1.9,0c0.4,0,0.7,0,1.1,0
				c0.5,0,0.9,0,1.3,0c0.5,0,1,0,1.6,0.1c1.2,0,2.3,0.1,3.3,0.2C342.1,378.8,342.4,378.8,342.5,378.8z M338.6,378.9
				c-0.6,0-1.1-0.1-1.6-0.1c-0.8,0-1.5,0-2.4,0c-0.7,0-1.4,0-1.9,0c-0.6,0-1.2,0-1.7,0c-0.2,0-0.4,0.1-0.6,0.1h0
				c-1.1,0.1-2.1,0.1-3,0.3c-1.3,0.1-2.2,0.3-2.6,0.5l-0.2,0.1c0,0,0.2,0.1,0.7,0.2c0.7,0.2,1.4,0.3,2.1,0.4
				c1.9,0.2,4.3,0.3,7.3,0.3c1.5,0,2.8,0,4-0.1h0.9c0.9-0.1,1.6-0.1,2.4-0.3c1-0.2,1.8-0.3,2.3-0.4c0.4-0.1,0.6-0.2,0.6-0.2
				c0-0.1-0.1-0.1-0.4-0.2h-0.1c-0.4-0.2-1.2-0.3-2.4-0.4C340.9,379,339.8,379,338.6,378.9z"/>
			<radialGradient id="SVGID_2_" cx="334.2002" cy="379.5" r="10.7" gradientUnits="userSpaceOnUse">
				<stop  offset="0" style="stop-color:#FFFFFF;stop-opacity:0"/>
				<stop  offset="1" style="stop-color:#CCCCCC;stop-opacity:0.2824"/>
			</radialGradient>
			<path fill-rule="evenodd" clip-rule="evenodd" fill="url(#SVGID_2_)" d="M338.6,378.9c1.2,0.1,2.3,0.1,3.3,0.3
				c1.2,0.1,2,0.3,2.4,0.4h0.1c0.3,0,0.4,0.1,0.4,0.2c0,0-0.2,0.1-0.6,0.2c-0.5,0.1-1.3,0.2-2.3,0.4c-0.7,0.1-1.5,0.2-2.4,0.3h-0.9
				c-1.2,0-2.5,0.1-4,0.1c-3,0-5.4-0.1-7.3-0.3c-0.7-0.1-1.4-0.2-2.1-0.4c-0.5-0.1-0.7-0.2-0.7-0.2l0.2-0.1c0.5-0.2,1.3-0.4,2.6-0.5
				c0.9-0.1,1.9-0.2,3-0.3h0c0.2,0,0.4,0,0.6-0.1c0.5,0,1.1,0,1.7,0c0.6,0,1.3,0,1.9,0c0.8,0,1.6,0,2.4,0
				C337.5,378.8,338,378.9,338.6,378.9z"/>
			<radialGradient id="SVGID_3_" cx="334.8501" cy="451.2002" r="77.7375" gradientUnits="userSpaceOnUse">
				<stop  offset="0" style="stop-color:#000000;stop-opacity:6.274509e-002"/>
				<stop  offset="1" style="stop-color:#FFFFFF;stop-opacity:0.4627"/>
			</radialGradient>
			<path fill-rule="evenodd" clip-rule="evenodd" fill="url(#SVGID_3_)" d="M335.7,378.5c-0.6,0-1,0-1.3,0h-0.1v-0.1
				c-0.5,0-1.1,0-1.6,0.1c-0.2,0-0.4,0-0.6,0c-0.3,0-0.6,0-1,0c-1.2,0.1-2.7,0.1-4.5,0.3l-0.3,0c-0.3,0-0.5,0-0.7,0.1h-0.1
				c-0.4,0.1-1.1,0.3-2.1,0.6c-1.2,0.3-2.2,0.7-2.8,1.3c0,0,0,0.1,0,0.2l-0.2,0.1c0,0,0,0.1,0,0.3c0.1,0.3,0.2,0.7,0.5,1.2
				c0,0.1,0.1,0.2,0.2,0.3c0.2,0.1,0.4,0.2,0.7,0.3c0.3,0.1,0.6,0.2,0.9,0.2v0.1h0.1c0.1-0.1,0.1-0.1,0.3-0.1c0,0,0.1,0,0.1,0.2
				c0.1,0,0.3,0,0.5,0.1c0.8,0.1,1.7,0.2,2.7,0.3c3.8,0.3,7.1,0.4,10,0.2l0.1,0c0,0,0.1,0,0.1,0.1c0.9-0.1,1.8-0.1,2.8-0.2l1-0.1
				c1.1-0.1,2.1-0.2,3-0.4c0.1,0,0.2,0,0.3,0l2-0.4c0,0-0.1,0.1-0.1,0.1c0,0,0,0.1,0,0.2v0h0.1c0,0.1,0,0.1,0.1,0.1h-0.1l-1,0.2
				l-0.1,0l-0.9,0.2c-0.1,0-0.2,0-0.3,0c-1,0.2-2,0.3-3.1,0.4l-1,0c-1.1,0.1-2.1,0.1-3.1,0.2c-0.9,0-1.8,0-2.5,0
				c-2.7,0-5.2-0.1-7.3-0.3h0c-1-0.1-1.9-0.2-2.8-0.3h0c-0.2,0-0.3-0.1-0.4-0.1v-0.3c0,0,0-0.1,0-0.1c-0.1,0-0.1,0-0.1,0
				c-0.1,0-0.1,0-0.2,0v0.1c0,0,0,0,0,0l0,0.1v0l0,0c-0.4-0.1-0.7-0.2-1-0.3c-0.3-0.1-0.6-0.3-0.8-0.4c-0.1-0.1-0.2-0.2-0.3-0.3
				c-0.3-0.6-0.5-1.1-0.5-1.4c-0.1-0.3,0-0.6,0.1-0.7c0-0.1,0-0.2,0-0.3c0,0,0,0,0.1,0c0.7-0.6,1.6-1.1,3-1.4c1-0.2,1.7-0.4,2-0.6
				h0.1c0,0,0.1,0,0.1,0c0.1,0,0.3,0,0.5,0h0.3l0.3-0.1c0.1,0,0.2,0,0.4,0h0.1c0,0,0.1,0,0.1,0c2-0.1,3.7-0.2,5-0.3
				c0.2,0,0.4,0,0.6,0c0.6,0,1.2,0,1.9,0h0c0.1,0,0.1,0,0.2,0c1.5,0.1,4.8,0.3,9.8,0.6c1.4,0.2,2.4,0.4,3.1,0.7
				c0.3,0.1,0.5,0.2,0.8,0.3c0,0,0,0.1,0.1,0.1c0.2,0.1,0.3,0.2,0.3,0.4c0-0.1-0.1-0.1-0.1-0.1h0l-0.1,0.1v0.3
				c0-0.1-0.1-0.3-0.3-0.3l-0.1,0c-0.2-0.1-0.4-0.2-0.7-0.3c-0.6-0.2-1.6-0.4-3-0.6c-0.7-0.1-1.4-0.1-2-0.2
				c-0.2-0.1-0.4-0.1-0.6-0.1c-1-0.1-2.1-0.2-3.3-0.2c-0.6-0.1-1.1-0.1-1.6-0.1C336.6,378.5,336.2,378.5,335.7,378.5z M346.7,383
				c0.5-0.2,0.9-0.3,1.2-0.5c0.1,0,0.1,0,0.1,0c0.1-0.1,0.2-0.2,0.4-0.3h-0.1c0.2-0.1,0.3-0.2,0.3-0.3l0.1,0v0c-0.1,0-0.1,0-0.1,0.1
				c0,0,0,0.1,0.1,0.1c0,0,0,0.1,0,0.1h0.1c-0.1,0.1-0.1,0.2-0.3,0.3h0c-0.1,0.1-0.2,0.1-0.4,0.3l-0.1,0.1c-0.4,0.1-0.8,0.3-1.3,0.5
				v-0.1c0,0,0-0.1,0-0.1V383C346.9,383,346.8,383,346.7,383L346.7,383z M348.6,380.5l-0.1-0.1v0h0.1c0.1,0.2,0.3,0.4,0.4,0.5v0.1
				C348.7,380.6,348.6,380.5,348.6,380.5z"/>
			<radialGradient id="SVGID_4_" cx="335.0498" cy="381.3496" r="14.8125" gradientUnits="userSpaceOnUse">
				<stop  offset="0" style="stop-color:#FFFFFF;stop-opacity:0.5373"/>
				<stop  offset="0.4863" style="stop-color:#FFFFFF;stop-opacity:0.2627"/>
				<stop  offset="1" style="stop-color:#FFFFFF;stop-opacity:0.651"/>
			</radialGradient>
			<path fill-rule="evenodd" clip-rule="evenodd" fill="url(#SVGID_4_)" d="M348.8,381.8l-0.1,0c0,0.1-0.1,0.2-0.3,0.3h0.1
				c-0.2,0.1-0.3,0.1-0.4,0.3c0,0-0.1,0-0.1,0c-0.3,0.2-0.7,0.3-1.2,0.5h-0.2c-0.3,0-0.5,0.1-0.8,0.1c-0.1,0-0.1,0-0.1,0.1h-0.1
				l-2,0.4c-0.1,0-0.2,0-0.3,0c-0.9,0.1-1.9,0.3-3,0.4l-1,0.1c-1,0-1.9,0.1-2.8,0.2c0-0.1,0-0.1-0.1-0.1l-0.1,0
				c-2.9,0.2-6.2,0.2-10-0.2c-1-0.1-1.9-0.2-2.7-0.3c-0.2-0.1-0.3-0.1-0.5-0.1c-0.1-0.1-0.1-0.2-0.1-0.2c-0.1,0-0.2,0-0.3,0.1h-0.1
				v-0.1c-0.3,0-0.6-0.1-0.9-0.2c-0.3-0.1-0.5-0.2-0.7-0.3c-0.1-0.1-0.2-0.2-0.2-0.3c-0.3-0.5-0.4-0.9-0.5-1.2c0-0.2,0-0.3,0-0.3
				l0.2-0.1c0-0.1,0-0.1,0-0.2c0.6-0.6,1.6-1,2.8-1.3c1-0.3,1.7-0.5,2.1-0.6h0.1c0.2-0.1,0.4-0.1,0.7-0.1l0.3,0
				c1.8-0.1,3.3-0.2,4.5-0.3c0.4,0,0.8,0,1,0c0.2,0,0.4,0,0.6,0c0.6-0.1,1.1-0.1,1.6-0.1v0.1h0.1c0.3,0,0.7,0,1.3,0
				c-0.3,0-0.7,0-1.1,0c-0.7,0-1.4,0-1.9,0c-0.6,0-1.2,0-1.7,0c-0.2,0.1-0.5,0.1-0.6,0.1c-1.1,0-2.1,0.1-3,0.2
				c-1.4,0.2-2.3,0.3-2.8,0.5c-0.3,0.1-0.4,0.3-0.3,0.5c-0.1,0.2,0.3,0.4,0.9,0.6c0.7,0.2,1.4,0.3,2.2,0.4c1.9,0.2,4.3,0.3,7.3,0.3
				c1.5,0,2.8,0,4.1-0.1h0.8c0.9,0,1.7-0.1,2.4-0.2c1-0.1,1.8-0.2,2.3-0.4c0.7-0.2,1-0.4,0.9-0.6c0.1-0.3-0.2-0.5-0.7-0.5
				c-0.4-0.1-1-0.3-1.9-0.4c0.6,0,1.3,0.1,2,0.2c1.4,0.2,2.4,0.4,3,0.6c0.3,0.1,0.5,0.2,0.7,0.3l0.1,0c0.2,0.1,0.3,0.2,0.3,0.3V380
				l0.1-0.1c0,0.1,0,0.1,0,0.1v0.1l0.1,0.1c0,0,0.1,0.2,0.4,0.5l0.1,0c0.2,0.3,0.1,0.6-0.2,0.9c-0.1,0-0.1,0-0.1,0L348.8,381.8
				L348.8,381.8z M348.6,380.5c0,0,0.1,0.2,0.4,0.5v-0.1c-0.1-0.1-0.2-0.3-0.4-0.5h-0.1v0L348.6,380.5z"/>
			
				<radialGradient id="SVGID_5_" cx="334.7998" cy="401.5" r="47.4" gradientTransform="matrix(1 0 0 1.5467 0 -219.4909)" gradientUnits="userSpaceOnUse">
				<stop  offset="0" style="stop-color:#000000;stop-opacity:6.274509e-002"/>
				<stop  offset="1" style="stop-color:#FFFFFF;stop-opacity:0.4627"/>
			</radialGradient>
			<path fill-rule="evenodd" clip-rule="evenodd" fill="url(#SVGID_5_)" d="M344.5,378.6c-5.1-0.3-8.4-0.5-9.8-0.6c0,0-0.1,0-0.2,0
				c1.4,0,2.8,0,4.1,0.1c1.2,0,2.3,0.1,3.3,0.2C342.9,378.4,343.8,378.5,344.5,378.6z M327.1,378.3c0.1,0,0.2,0,0.2,0
				c1.5-0.1,3.1-0.2,4.8-0.3C330.8,378.1,329.1,378.2,327.1,378.3z M325.4,378.5c0,0,0.1,0,0.1,0c0.1,0,0.3,0,0.5,0
				c-0.2,0-0.3,0-0.5,0C325.4,378.5,325.4,378.5,325.4,378.5z"/>
			<radialGradient id="SVGID_6_" cx="335.7998" cy="476.2002" r="136.4625" gradientUnits="userSpaceOnUse">
				<stop  offset="0" style="stop-color:#FFFFFF;stop-opacity:0"/>
				<stop  offset="1" style="stop-color:#CCCCCC;stop-opacity:0.2824"/>
			</radialGradient>
			<path fill-rule="evenodd" clip-rule="evenodd" fill="url(#SVGID_6_)" d="M346.4,383.4v40.3c0,0.1,0,0.1,0.1,0.2
				c-0.2,3,0.6,6.1,2.5,9.5h-0.1l32.8,68.5c0,0.1,0,0.1,0,0.1c0.4,2.6,0.3,5-0.4,7.2c-2.1,6.5-9.1,10.6-20.9,12.4
				c-21.5,3.6-40.2,3.4-56.3-0.8c-0.1,0-0.2,0-0.3,0c-0.2-0.1-0.5-0.2-0.8-0.3v0.1c-7.8-2.2-12.5-6-14.3-11.3c-0.8-2.3-1-5-0.7-7.9
				c0,0,0-0.1,0-0.1l32.8-67.2c1.5-3.5,2.3-6.8,2.1-9.8l0-0.1v-40.3c0.1,0,0.2,0,0.4,0.1h0c0.9,0.1,1.8,0.2,2.8,0.3h0
				c2.1,0.2,4.6,0.3,7.3,0.3c0.8,0,1.6,0,2.5,0c1,0,2-0.1,3.1-0.2l1,0c1.1-0.1,2.1-0.2,3.1-0.4c0.1,0,0.2,0,0.3,0l0.9-0.2l0.1,0
				l1-0.2h0.1h0.1C346,383.5,346.2,383.4,346.4,383.4z"/>
			<radialGradient id="SVGID_7_" cx="334.8501" cy="451.2002" r="77.7375" gradientUnits="userSpaceOnUse">
				<stop  offset="0" style="stop-color:#000000;stop-opacity:6.274509e-002"/>
				<stop  offset="0.9725" style="stop-color:#F6F6F6;stop-opacity:0.4824"/>
				<stop  offset="1" style="stop-color:#FFFFFF"/>
			</radialGradient>
			<path fill-rule="evenodd" clip-rule="evenodd" fill="url(#SVGID_7_)" d="M323,383.6l0,0.1c-0.1,0-0.1,0-0.1,0c-0.1,0-0.1,0-0.2,0
				l0-0.1c0,0,0,0,0,0v-0.1c0.1,0,0.1,0,0.2,0c0,0,0.1,0,0.1,0C323,383.5,323,383.6,323,383.6z M346.7,383L346.7,383
				c0.1,0,0.1,0,0.1,0v0.1c0,0,0,0,0,0.1v0.1h-0.1c0,0-0.1,0-0.1,0c-0.1,0-0.2,0-0.2,0.1c-0.2,0-0.4,0.1-0.6,0.1h-0.1
				c0,0-0.1,0-0.1-0.1h-0.1v0c0-0.1,0-0.1,0-0.2c0,0,0-0.1,0.1-0.1h0.1c0,0,0-0.1,0.1-0.1c0.2-0.1,0.5-0.1,0.8-0.1H346.7z
				 M348.9,382.2h-0.1c0,0,0,0,0-0.1c-0.1-0.1-0.1-0.1-0.1-0.1c0-0.1,0-0.1,0.1-0.1v0l0-0.1h0.1c0,0,0.1,0,0.1,0c0,0,0.1,0,0.1,0.1
				c0,0,0,0.1,0,0.2c0,0-0.1,0.1-0.1,0.1L348.9,382.2L348.9,382.2L348.9,382.2z M348.9,380.2c0.1,0.1,0.2,0.2,0.3,0.3
				C349,380.4,348.9,380.3,348.9,380.2L348.9,380.2z"/>
			
				<radialGradient id="SVGID_8_" cx="308.6001" cy="445.75" r="78.2125" gradientTransform="matrix(1 0 0 1.5461 0 -243.4278)" gradientUnits="userSpaceOnUse">
				<stop  offset="0" style="stop-color:#595959"/>
				<stop  offset="1" style="stop-color:#FFFFFF;stop-opacity:0.5373"/>
			</radialGradient>
			<path fill-rule="evenodd" clip-rule="evenodd" fill="url(#SVGID_8_)" d="M323,383.8v40.3l0,0.1c0.1,3.1-0.6,6.4-2.1,9.8
				L288,501.2c0,0.1,0,0.1,0,0.1c-0.4,2.9-0.1,5.5,0.7,7.9c1.8,5.4,6.6,9.2,14.3,11.3v-0.1c0.3,0.1,0.5,0.1,0.8,0.3
				c0.1,0,0.2,0,0.3,0c16.1,4.2,34.8,4.5,56.3,0.8c11.8-1.8,18.8-5.9,20.9-12.4c0.7-2.1,0.8-4.5,0.4-7.2c0,0,0-0.1,0-0.1l-32.8-68.5
				h0.1c-1.9-3.4-2.7-6.5-2.5-9.5c0-0.1-0.1-0.1-0.1-0.2v-40.3c0-0.1,0.1-0.1,0.2-0.1c0.1,0,0.1,0,0.1,0v40.5
				c0.1,0.1,0.1,0.1,0.1,0.2c-0.3,2.9,0.5,6,2.4,9.3l32.8,68.5v0.1c0,0,0,0.1,0,0.2c0.4,2.7,0.3,5.1-0.5,7.3
				c-2.1,6.6-9.1,10.8-21.1,12.7c-21.6,3.6-40.4,3.3-56.5-0.8c-0.1,0-0.2-0.1-0.3-0.2c-0.3,0-0.5-0.1-0.7-0.2
				c-7.9-2.2-12.8-6-14.6-11.5c-0.8-2.4-1-5.1-0.7-8v-0.1c0-0.1,0-0.1,0.1-0.1l32.8-67.2c1.5-3.4,2.2-6.7,2.1-9.7c0,0,0-0.1,0-0.1
				v-40.3v0c0.1,0,0.1,0,0.2,0c0,0,0.1,0,0.1,0l0-0.1V383.8z"/>
		</g>
	</g>
	<g>
		<g>
			
				<radialGradient id="SVGID_9_" cx="346.1499" cy="381.7002" r="2.6125" fx="347.6252" fy="381.7002" gradientUnits="userSpaceOnUse">
				<stop  offset="0" style="stop-color:#FFFFFF"/>
				<stop  offset="1" style="stop-color:#FFFFFF;stop-opacity:0"/>
			</radialGradient>
			<path fill-rule="evenodd" clip-rule="evenodd" fill="url(#SVGID_9_)" d="M343.5,383c-0.1,0-0.1,0-0.2,0c-0.1,0-0.1,0-0.1-0.1
				v-0.1c0.1,0,0.1,0,0.1,0c1.9-0.3,3-0.7,3.5-1.1c0.2-0.2,0.3-0.4,0.3-0.6c-0.1-0.2-0.4-0.5-0.8-0.9l-0.1,0c0-0.1,0-0.1,0.1-0.1
				c0-0.1,0.1-0.1,0.1-0.1h0.1c0.5,0.4,0.8,0.7,0.9,1.1c0.2,0.3,0.1,0.6-0.3,0.9C346.6,382.3,345.4,382.7,343.5,383z"/>
			
				<radialGradient id="SVGID_10_" cx="337.2998" cy="406.3496" r="18.1125" gradientTransform="matrix(1 0 0 0.8703 0 52.7217)" gradientUnits="userSpaceOnUse">
				<stop  offset="0" style="stop-color:#FFFFFF;stop-opacity:0.498"/>
				<stop  offset="1" style="stop-color:#FFFFFF;stop-opacity:0"/>
			</radialGradient>
			<path fill-rule="evenodd" clip-rule="evenodd" fill="url(#SVGID_10_)" d="M336.9,390.6c0-0.1,0.1-0.2,0.1-0.3
				c0.1-0.1,0.2-0.1,0.3-0.1c0.1,0,0.2,0,0.3,0.1c0.1,0.1,0.1,0.2,0.1,0.3V422c0,0.1,0,0.2-0.1,0.3c-0.1,0-0.2,0.1-0.3,0.1
				c-0.1,0-0.2,0-0.3-0.1c-0.1-0.1-0.1-0.2-0.1-0.3V390.6z"/>
			
				<radialGradient id="SVGID_11_" cx="330.3999" cy="430.7998" r="12.0625" fx="337.2117" fy="430.7998" gradientUnits="userSpaceOnUse">
				<stop  offset="0" style="stop-color:#FFFFFF"/>
				<stop  offset="1" style="stop-color:#FFFFFF;stop-opacity:0"/>
			</radialGradient>
			<path fill-rule="evenodd" clip-rule="evenodd" fill="url(#SVGID_11_)" d="M323.3,429.5c-0.1-0.1-0.1-0.2,0-0.3
				c0-0.1,0.1-0.2,0.2-0.3c0.1,0,0.2,0,0.3,0c6.1,2.1,13.3,2.1,21.4,0.2c0.1,0,0.2,0,0.3,0c0,0.1,0.1,0.2,0.1,0.3
				c0,0.1,0,0.1-0.1,0.3c0,0.1-0.1,0.2-0.2,0.2c-8.3,2-15.6,1.9-21.9-0.2C323.4,429.6,323.3,429.6,323.3,429.5z"/>
			<radialGradient id="SVGID_12_" cx="335.3501" cy="500.1504" r="34.25" gradientUnits="userSpaceOnUse">
				<stop  offset="0" style="stop-color:#333333;stop-opacity:0.549"/>
				<stop  offset="1" style="stop-color:#000000;stop-opacity:0"/>
			</radialGradient>
			<path fill-rule="evenodd" clip-rule="evenodd" fill="url(#SVGID_12_)" d="M302,504.8L302,504.8L302,504.8c0,0.1,0,0.2,0,0.2
				c0,0,0,0.1-0.1,0.1c-0.5,0.1-1,0.3-1.4,0.5h-0.2l0-0.1c-0.1,0-0.1,0-0.1,0c0-0.1,0-0.1,0-0.2c0.1-0.1,0.1-0.1,0.1-0.1
				c0.5-0.1,1-0.3,1.5-0.5c0.1,0,0.1,0,0.1,0C302,504.7,302,504.7,302,504.8z M373.8,504.7c-0.6-0.2-1.3-0.4-2-0.6c0,0,0,0,0,0
				c-0.1-0.1-0.1-0.1-0.1-0.1c0-0.1,0-0.1,0.1-0.1v-0.1c0,0,0.1,0,0.2,0c1.8,0.4,3.3,0.9,4.5,1.4c0.1,0,0.1,0,0.1,0.1
				c0,0.1,0,0.1,0,0.1c0,0.1-0.1,0.1-0.1,0.2c0,0-0.1,0-0.2,0c-0.4-0.1-0.7-0.3-1.1-0.4l-0.1,0c-0.2-0.1-0.4-0.2-0.6-0.2
				C374.3,504.7,374,504.7,373.8,504.7z"/>
			
				<linearGradient id="SVGID_13_" gradientUnits="userSpaceOnUse" x1="292.0742" y1="518.2236" x2="379.8467" y2="518.2236" gradientTransform="matrix(0.9997 -2.248862e-002 0 1.0003 1.161098e-004 6.933510e-005)">
				<stop  offset="0" style="stop-color:#FFFFFF;stop-opacity:8.235294e-002"/>
				<stop  offset="1" style="stop-color:#FFFFFF;stop-opacity:0"/>
			</linearGradient>
			<path fill-rule="evenodd" clip-rule="evenodd" fill="url(#SVGID_13_)" d="M371.7,503.9c0,0,0,0.1,0.1,0.1c0,0,0,0,0,0
				c0.7,0.2,1.4,0.4,2,0.6c3.9,1.5,5.9,3.2,5.9,5.1c0,2.9-4.3,5.4-12.9,7.7c-8.5,2.3-18.9,3.5-31,3.8c-12.1,0.3-22.5-0.5-31.1-2.4
				c-8.5-1.8-12.8-4.2-12.8-7.2c0-0.3,0-0.6,0.1-0.9c0,0,0.1,0,0.1,0c0-0.1,0-0.1,0.1-0.1c0-0.1,0-0.1-0.1-0.2
				c0.8-1.8,3.5-3.5,8-5.1l0,0.1h0.2c0.5-0.2,0.9-0.3,1.4-0.5c0.1-0.1,0.1-0.1,0.1-0.1c0,0,0,0,0-0.1c0.9-0.2,1.8-0.5,2.8-0.8
				c8.6-2.3,18.9-3.5,31.1-3.8c12.1-0.3,22.5,0.5,31,2.4C368.7,503,370.3,503.5,371.7,503.9z"/>
			<linearGradient id="SVGID_14_" gradientUnits="userSpaceOnUse" x1="332.3799" y1="494.7598" x2="340.4739" y2="532.1111">
				<stop  offset="0" style="stop-color:#FFFFFF;stop-opacity:0.251"/>
				<stop  offset="0.4706" style="stop-color:#FFFFFF;stop-opacity:2.745098e-002"/>
				<stop  offset="1" style="stop-color:#FFFFFF;stop-opacity:0"/>
			</linearGradient>
			<path fill-rule="evenodd" clip-rule="evenodd" fill="url(#SVGID_14_)" d="M292.2,510.4c0.9-1.8,3.5-3.5,7.9-5c0,0,0,0,0.1,0
				c-4.5,1.6-7.1,3.3-8,5.1C292.3,510.5,292.3,510.5,292.2,510.4L292.2,510.4z M302,504.8c0.8-0.3,1.8-0.6,2.8-0.8
				c8.6-2.2,18.9-3.5,31.1-3.7c12.1-0.3,22.5,0.5,31,2.3c1.8,0.3,3.5,0.7,5,1.2c-0.1,0-0.1,0-0.1,0.1c-1.4-0.4-3-0.9-4.9-1.3
				c-8.5-1.9-18.9-2.7-31-2.4c-12.1,0.3-22.5,1.5-31.1,3.8C303.8,504.4,302.9,504.6,302,504.8L302,504.8L302,504.8z M373.8,504.7
				c0.2,0,0.4,0.1,0.6,0.1c0.2,0,0.4,0.1,0.6,0.2l0.1,0c3.1,1.4,4.6,2.9,4.6,4.8c0,2.9-4.3,5.5-13,7.8c-8.5,2.3-18.9,3.5-31,3.8
				c-12.1,0.2-22.5-0.6-31.1-2.5c-8.6-1.8-12.9-4.2-12.9-7.2c0-0.3,0.1-0.6,0.1-0.9h0.1c-0.1,0.3-0.1,0.6-0.1,0.9
				c0,2.9,4.3,5.3,12.8,7.2c8.6,1.9,18.9,2.7,31.1,2.4c12.1-0.3,22.5-1.6,31-3.8c8.6-2.2,12.9-4.8,12.9-7.7
				C379.8,507.8,377.8,506.1,373.8,504.7z"/>
			<radialGradient id="SVGID_15_" cx="299.7002" cy="509.5" r="12.0125" fx="306.4837" fy="509.5" gradientUnits="userSpaceOnUse">
				<stop  offset="0" style="stop-color:#FFFFFF"/>
				<stop  offset="1" style="stop-color:#FFFFFF;stop-opacity:0"/>
			</radialGradient>
			<path fill-rule="evenodd" clip-rule="evenodd" fill="url(#SVGID_15_)" d="M292.2,510.4L292.2,510.4c0.1,0,0.1,0.1,0.1,0.1
				c0,0,0.1,0.1,0.1,0.2c0,0-0.1,0.1-0.1,0.1c-0.1,0-0.1,0-0.1,0H292l0-0.1c-2-3.1-1.9-6.7,0.5-10.8c0-0.1,0-0.1,0.1-0.1
				c0,0,0.1,0,0.1,0c0,0.1,0,0.1,0,0.2c0.1,0.1,0.1,0.1,0,0.2C290.5,504,290.3,507.5,292.2,510.4z"/>
			<radialGradient id="SVGID_16_" cx="342.8496" cy="435.4502" r="4.3628" gradientUnits="userSpaceOnUse">
				<stop  offset="0" style="stop-color:#FFFFFF;stop-opacity:0.498"/>
				<stop  offset="1" style="stop-color:#FFFFFF;stop-opacity:0"/>
			</radialGradient>
			<path fill-rule="evenodd" clip-rule="evenodd" fill="url(#SVGID_16_)" d="M341,431.8c0.1,0,0.2,0,0.2,0.2l4.1,6.7
				c0,0,0,0.1,0,0.2c0,0.1,0,0.2-0.1,0.3c-0.1,0-0.2,0.1-0.3,0.1c-0.1,0-0.2-0.1-0.3-0.2l-4-6.7c-0.1-0.1-0.1-0.2,0-0.3
				c0-0.1,0-0.2,0.1-0.3C340.8,431.8,340.9,431.8,341,431.8z"/>
			<radialGradient id="SVGID_17_" cx="364.1504" cy="472.0498" r="39.4875" gradientUnits="userSpaceOnUse">
				<stop  offset="0" style="stop-color:#FFFFFF"/>
				<stop  offset="1" style="stop-color:#FFFFFF;stop-opacity:0"/>
			</radialGradient>
			<path fill-rule="evenodd" clip-rule="evenodd" fill="url(#SVGID_17_)" d="M346.3,435.5L346.3,435.5l31.5,69.7
				c0.1,0.1,0.1,0.1,0.1,0.1c-0.1,0.1-0.1,0.1-0.1,0.2c-0.1,0-0.1,0-0.2,0c-0.1,0-0.1-0.1-0.1-0.2L346,435.7c0,0,0-0.1,0-0.2
				c0,0,0.1,0,0.1,0C346.1,435.4,346.2,435.4,346.3,435.5z"/>
			<radialGradient id="SVGID_18_" cx="356.4502" cy="476.9502" r="16.2125" gradientUnits="userSpaceOnUse">
				<stop  offset="0" style="stop-color:#FFFFFF"/>
				<stop  offset="1" style="stop-color:#FFFFFF;stop-opacity:0"/>
			</radialGradient>
			<path fill-rule="evenodd" clip-rule="evenodd" fill="url(#SVGID_18_)" d="M362.3,492.2L362.3,492.2l-11.6-30.4c0,0,0,0,0,0l0.1,0
				l11.5,30.3V492.2z"/>
		</g>
	</g>
	<g>
		<g>
			<linearGradient id="SVGID_19_" gradientUnits="userSpaceOnUse" x1="334.8569" y1="329.1431" x2="326.3577" y2="427.0095">
				<stop  offset="0" style="stop-color:#FFFFFF"/>
				<stop  offset="1" style="stop-color:#FFFFFF;stop-opacity:0"/>
			</linearGradient>
			<rect x="326.6" y="384.8" fill-rule="evenodd" clip-rule="evenodd" fill="url(#SVGID_19_)" width="3.2" height="42"/>
			<linearGradient id="SVGID_20_" gradientUnits="userSpaceOnUse" x1="278.8267" y1="387.9424" x2="327.6151" y2="480.5353">
				<stop  offset="0" style="stop-color:#FFFFFF"/>
				<stop  offset="1" style="stop-color:#FFFFFF;stop-opacity:0"/>
			</linearGradient>
			<path fill-rule="evenodd" clip-rule="evenodd" fill="url(#SVGID_20_)" d="M295.7,492.3l28.2-62.5c3.3,0.7,6.4,1.2,9.3,1.4
				c-0.2,0.8-0.4,1.6-0.5,2.6l-12.6,58.1c-3.1,3.3-8.7,7.3-16.7,11.8h-8.7C294.4,501,294.7,497.3,295.7,492.3z M342.5,430.6
				c1.2-0.2,2.3-0.5,3.4-0.9c8.2,16.4,13.8,28.1,16.7,35c-0.9-1-1.7-1.8-2.3-2.6l-15.9-29.5C343.7,431.8,343,431.2,342.5,430.6z"/>
			<linearGradient id="SVGID_21_" gradientUnits="userSpaceOnUse" x1="337.0952" y1="542.3818" x2="336.6245" y2="514.6822">
				<stop  offset="0" style="stop-color:#FFFFFF"/>
				<stop  offset="1" style="stop-color:#FFFFFF;stop-opacity:0"/>
			</linearGradient>
			<path fill-rule="evenodd" clip-rule="evenodd" fill="url(#SVGID_21_)" d="M294.8,514.8c23.7,2.3,44.2,0.4,61.5-5.5
				c4.8-1.7,9.5-3.7,13.8-6c5.3,1.6,8.1,3.6,8.3,6c0.2,2.6-2.5,5.8-8.3,9.4c-24.4,5.6-44.3,6.5-59.6,2.8
				C303,519.7,297.8,517.4,294.8,514.8z"/>
		</g>
	</g>
	<g>
		<g>
			
				<radialGradient id="SVGID_22_" cx="344.7998" cy="407.0254" r="22.212" fx="357.343" fy="407.0254" gradientUnits="userSpaceOnUse">
				<stop  offset="0" style="stop-color:#FFFFFF"/>
				<stop  offset="1" style="stop-color:#FFFFFF;stop-opacity:0"/>
			</radialGradient>
			<path fill-rule="evenodd" clip-rule="evenodd" fill="url(#SVGID_22_)" d="M344.8,384.9c0.1,0,0.1,0,0.2,0c0.1,0,0.1,0,0.1,0.1v44
				c0,0.1,0,0.1-0.1,0.2c0,0-0.1,0-0.2,0h0c-0.1,0-0.1-0.1-0.1-0.2v-44C344.6,385,344.7,385,344.8,384.9
				C344.8,384.9,344.8,384.9,344.8,384.9z"/>
			
				<radialGradient id="SVGID_23_" cx="326.8413" cy="368.3662" r="4.8786" fx="329.5963" fy="368.3662" gradientTransform="matrix(0.9993 3.843312e-002 0 1.3093 -1.883507e-004 -113.659)" gradientUnits="userSpaceOnUse">
				<stop  offset="0" style="stop-color:#FFFFFF;stop-opacity:0.3569"/>
				<stop  offset="1" style="stop-color:#FFFFFF;stop-opacity:0"/>
			</radialGradient>
			<path fill-rule="evenodd" clip-rule="evenodd" fill="url(#SVGID_23_)" d="M325.1,378.8h0.1H325.1c-1.3,0.4-2.1,0.7-2.4,0.9
				c-0.2,0.2-0.2,0.3-0.1,0.4c0.1,0.1,0.3,0.2,0.6,0.3c1.3,0.4,4.6,0.7,10,0.9v0.2c-5.4-0.2-8.7-0.5-10-1c-0.4-0.1-0.6-0.2-0.7-0.4
				c-0.1-0.2,0-0.3,0.1-0.5C323,379.3,323.8,379,325.1,378.8z"/>
			
				<radialGradient id="SVGID_24_" cx="323.6001" cy="405.5996" r="19.9625" fx="334.873" fy="405.5996" gradientUnits="userSpaceOnUse">
				<stop  offset="0" style="stop-color:#FFFFFF"/>
				<stop  offset="1" style="stop-color:#FFFFFF;stop-opacity:0"/>
			</radialGradient>
			<path fill-rule="evenodd" clip-rule="evenodd" fill="url(#SVGID_24_)" d="M323.6,385.6c0,0,0.1,0,0.1,0.1c0,0.1,0,0.1,0,0.1v39.5
				c0,0,0,0.1,0,0.2c-0.1,0-0.1,0-0.1,0c-0.1,0-0.1,0-0.1,0c0-0.1,0-0.1,0-0.2v-39.5c0,0,0-0.1,0-0.1
				C323.5,385.6,323.5,385.6,323.6,385.6z"/>
			
				<radialGradient id="SVGID_25_" cx="303.7627" cy="471.3496" r="36.6196" fx="324.442" fy="471.3496" gradientUnits="userSpaceOnUse">
				<stop  offset="0" style="stop-color:#FFFFFF"/>
				<stop  offset="1" style="stop-color:#FFFFFF;stop-opacity:0"/>
			</radialGradient>
			<path fill-rule="evenodd" clip-rule="evenodd" fill="url(#SVGID_25_)" d="M319.3,438.3c0.1,0,0.1,0,0.1,0c0,0.1,0,0.1,0,0.2
				l-30.9,65.9c0,0.1,0,0.1-0.1,0.1c0,0-0.1,0-0.1,0l0-0.1c-0.1,0-0.1-0.1,0-0.2l30.8-66c0.1,0,0.1,0,0.1,0
				C319.2,438.2,319.2,438.2,319.3,438.3z"/>
			<radialGradient id="SVGID_26_" cx="319.9502" cy="509.3496" r="27.85" gradientUnits="userSpaceOnUse">
				<stop  offset="0" style="stop-color:#FFFFFF;stop-opacity:0.6314"/>
				<stop  offset="1" style="stop-color:#FFFFFF;stop-opacity:0"/>
			</radialGradient>
			<path fill-rule="evenodd" clip-rule="evenodd" fill="url(#SVGID_26_)" d="M292.6,512.3L292.6,512.3l-0.1,0v0
				c0.4-1.2,1.5-2.2,3.2-3.1c6.8-3.8,23.9-5.8,51.4-6h0v0.1h0c-27.5,0.2-44.6,2.2-51.4,5.9C294,510.2,293,511.2,292.6,512.3z"/>
			<radialGradient id="SVGID_27_" cx="361.1504" cy="467.0869" r="35.2864" gradientUnits="userSpaceOnUse">
				<stop  offset="0" style="stop-color:#FFFFFF"/>
				<stop  offset="1" style="stop-color:#FFFFFF;stop-opacity:0"/>
			</radialGradient>
			<path fill-rule="evenodd" clip-rule="evenodd" fill="url(#SVGID_27_)" d="M345.8,435.3C345.8,435.3,345.8,435.3,345.8,435.3
				l30.9,63.5v0h-0.1L345.8,435.3z"/>
			<radialGradient id="SVGID_28_" cx="374.6504" cy="509.4004" r="5.2125" gradientUnits="userSpaceOnUse">
				<stop  offset="0" style="stop-color:#FFFFFF"/>
				<stop  offset="1" style="stop-color:#FFFFFF;stop-opacity:0"/>
			</radialGradient>
			<path fill-rule="evenodd" clip-rule="evenodd" fill="url(#SVGID_28_)" d="M371.7,505.2L371.7,505.2L371.7,505.2
				c4.9,0.9,7.6,2.3,8.2,4.1c0.4,1.3-0.4,2.8-2.4,4.5h-0.1v0h0.1c1.9-1.7,2.7-3.2,2.3-4.5C379.2,507.5,376.5,506.2,371.7,505.2
				L371.7,505.2z"/>
		</g>
	</g>
</g>
</svg>
