<?xml version="1.0" encoding="utf-8"?>
<!-- Generator: Adobe Illustrator 16.0.0, SVG Export Plug-In . SVG Version: 6.00 Build 0)  -->
<!DOCTYPE svg PUBLIC "-//W3C//DTD SVG 1.1//EN" "http://www.w3.org/Graphics/SVG/1.1/DTD/svg11.dtd">
<svg version="1.1" xmlns="http://www.w3.org/2000/svg" xmlns:xlink="http://www.w3.org/1999/xlink" x="0px" y="0px" width="50.9px"
	 height="52px" viewBox="0 0 50.9 52" enable-background="new 0 0 50.9 52" xml:space="preserve">
<g id="Layer_1">
	<g>
		<g>
			
				<radialGradient id="SVGID_1_" cx="611.9854" cy="-243.3535" r="18.7516" fx="613.0149" fy="-243.3535" gradientTransform="matrix(0.4444 -2.579161e-003 -1.520463e-002 -1.0563 -266.7604 -203.0733)" gradientUnits="userSpaceOnUse">
				<stop  offset="2.745098e-002" style="stop-color:#72FDFF;stop-opacity:0.6706"/>
				<stop  offset="0.3373" style="stop-color:#6DFFFF;stop-opacity:0.1176"/>
				<stop  offset="0.4902" style="stop-color:#71FCFF;stop-opacity:0"/>
				<stop  offset="1" style="stop-color:#71FBFF;stop-opacity:0"/>
			</radialGradient>
			<path fill="url(#SVGID_1_)" d="M13.8,50.5c0.4,0.2-0.8,0.4-3.4,0.5c-2.7,0.1-4.4-0.1-5.2-0.5c-3.6-6.4-4.9-15.1-3.9-26.1
				c3.9-17.1,8.2-19.5,13-7C16.2,32,16,43,13.8,50.5z"/>
		</g>
		<g>
			
				<linearGradient id="SVGID_2_" gradientUnits="userSpaceOnUse" x1="624.0996" y1="-1128.6904" x2="624.0996" y2="-1191.9161" gradientTransform="matrix(0.4445 0 0 -0.2822 -268.4124 -287.2964)">
				<stop  offset="0" style="stop-color:#CFD9E9"/>
				<stop  offset="1" style="stop-color:#CFD9E9;stop-opacity:0"/>
			</linearGradient>
			<path fill="url(#SVGID_2_)" d="M9.1,42.8c-0.5-3.5-1-4.1-1.5-1.8c-0.3,1.3-0.7,3.6-1.4,6.7c-0.3,0.6-0.4,1.1-0.3,1.4H5.4
				c0.7-4,1.3-6.8,1.6-8.5c0.6-2.9,1.2-4.3,1.8-4.5c0.6,0,1.2,1.2,1.8,3.7c0.8,3.7,1.5,6.8,2,9.3h-0.4c-0.1-0.4-0.2-0.9-0.4-1.4
				c-0.4-1.7-0.9-4-1.5-7C9.9,38.6,9.5,39.3,9.1,42.8z"/>
		</g>
		<g>
			
				<radialGradient id="SVGID_3_" cx="600.7217" cy="-6.1597" r="19.0299" gradientTransform="matrix(0.4444 -5.010711e-003 -6.424841e-002 -2.2973 -258.3617 27.8446)" gradientUnits="userSpaceOnUse">
				<stop  offset="0.4471" style="stop-color:#3B66F1;stop-opacity:6.666667e-002"/>
				<stop  offset="0.6431" style="stop-color:#1D2975;stop-opacity:6.274509e-002"/>
				<stop  offset="0.9098" style="stop-color:#FFFFFF;stop-opacity:0"/>
			</radialGradient>
			<path fill="url(#SVGID_3_)" d="M15,10.3c1.9,18.5,1.2,31.5-2.1,38.9c-2,1.7-3.9,1.7-5.9,0.1C3,53,1.4,42.7,2.1,18.6
				C5.9-1.8,10.2-4.6,15,10.3z"/>
		</g>
		<g>
			<path fill="#B9C0D0" d="M11.2,4.6c-0.4-0.4-0.4-0.9-0.2-1.5l0,0C11.3,3.5,11.4,4.1,11.2,4.6L11.2,4.6z M12.8,22.8L12.8,22.8
				c0.3,0.5,0.2,1.1-0.2,1.7c0,0-0.1,0-0.1,0.1C12.3,24,12.4,23.4,12.8,22.8z M13.2,21.2C13.2,21.2,13.2,21.3,13.2,21.2
				c-0.4-0.9-0.4-1.9,0-3.1h0.1C13.5,19.1,13.5,20.1,13.2,21.2z M13.5,31.3L13.5,31.3c0.4,0.8,0.4,1.7,0.2,2.7c0,0,0,0,0,0.1
				C13.3,33.2,13.3,32.3,13.5,31.3z M11.3,31.4c-0.4-1.5-0.5-3-0.5-4.5C11.4,28.4,11.6,29.8,11.3,31.4
				C11.4,31.4,11.3,31.4,11.3,31.4z M12.8,32.7c0.3,1.3,0.1,2.6-0.7,3.8v0.1C12.2,35.3,12.4,34,12.8,32.7L12.8,32.7z M9,43.5L9,43.5
				c0.4,0.6,0.6,1.3,0.7,2.1l0,0C9,45.1,8.8,44.4,9,43.5z M5.8,8.8L5.8,8.8C6.1,9.1,6.1,9.5,6,9.9V10C5.6,9.7,5.5,9.3,5.8,8.8z
				 M4.7,21.3L4.7,21.3C4.2,19.7,4,18,4,16.1l0,0C4.6,17.8,4.8,19.5,4.7,21.3z M3.7,29.2c0.2,0.2,0.2,0.5,0.1,0.9l0,0
				C3.4,30,3.4,29.7,3.7,29.2C3.6,29.3,3.7,29.3,3.7,29.2z M3.8,43.4C4,43.9,4.1,44.3,4,44.9c0,0,0,0-0.1,0.1
				C3.5,44.6,3.4,44.1,3.8,43.4L3.8,43.4z M3.8,31.9c0.7,1.3,1,2.6,1,4.1c0,0,0,0,0,0.1C4.3,34.7,3.9,33.3,3.8,31.9z M7.8,46.8
				L7.8,46.8c-0.4-0.4-0.5-0.9-0.2-1.5v-0.1C8.1,45.6,8.1,46.2,7.8,46.8z"/>
		</g>
	</g>
</g>
<g id="Layer_3">
	<g>
		<g>
			
				<radialGradient id="SVGID_4_" cx="273.3584" cy="-66.583" r="8.3383" fx="273.8162" fy="-66.583" gradientTransform="matrix(1 -9.110494e-003 -2.165001e-002 -2.3763 -249.0498 -105.7276)" gradientUnits="userSpaceOnUse">
				<stop  offset="0" style="stop-color:#72FDFF;stop-opacity:0.5961"/>
				<stop  offset="0.3373" style="stop-color:#6DFFFF;stop-opacity:0.1137"/>
				<stop  offset="0.4902" style="stop-color:#71FCFF;stop-opacity:0"/>
				<stop  offset="1" style="stop-color:#71FBFF;stop-opacity:0"/>
			</radialGradient>
			<path fill="url(#SVGID_4_)" d="M18.3,24c3.9-17.1,8.3-19.5,13-7c1.7,14.2,1.5,25.3-0.5,33.5c-0.3,0.3-1.7,0.5-4.1,0.5
				c-2.4,0-3.9-0.2-4.4-0.5C18.5,44.7,17.1,35.8,18.3,24z"/>
		</g>
		<g>
			
				<linearGradient id="SVGID_5_" gradientUnits="userSpaceOnUse" x1="277.0098" y1="-258.5449" x2="277.0098" y2="-278.4449" gradientTransform="matrix(1 0 0 -1 -251.0098 -229.9453)">
				<stop  offset="0" style="stop-color:#CFD9E9"/>
				<stop  offset="1" style="stop-color:#CFD9E9;stop-opacity:0"/>
			</linearGradient>
			<path fill="url(#SVGID_5_)" d="M24.3,39.6c-0.4,1.5-0.9,4-1.5,7.6c-0.3,0.7-0.4,1.2-0.4,1.6h-0.5c0.8-4.5,1.5-7.7,1.9-9.5
				c0.7-3.2,1.3-4.9,2-5c0.7,0,1.3,1.4,2,4.2c0.9,4.1,1.7,7.6,2.3,10.3h-0.4c-0.1-0.4-0.3-0.9-0.5-1.6c-0.5-1.9-1-4.5-1.7-7.9
				c-0.3-1.5-0.6-1.5-0.8,0s-0.4,2.6-0.7,3.2C25.4,38.1,24.8,37.2,24.3,39.6z"/>
		</g>
		<g>
			
				<radialGradient id="SVGID_6_" cx="267.2041" cy="31.5234" r="8.4509" gradientTransform="matrix(0.9999 -1.183349e-002 -0.1346 -5.1727 -236.0842 202.7782)" gradientUnits="userSpaceOnUse">
				<stop  offset="0.4471" style="stop-color:#3B66F1;stop-opacity:6.666667e-002"/>
				<stop  offset="0.6431" style="stop-color:#1D2975;stop-opacity:6.274509e-002"/>
				<stop  offset="0.9098" style="stop-color:#FFFFFF;stop-opacity:0"/>
			</radialGradient>
			<path fill="url(#SVGID_6_)" d="M19.1,18.5c3.8-20.3,8.1-23,12.9-8.2c1.9,18.5,1.2,31.5-2.1,38.9c-2,1.7-4,1.7-6,0.1
				C20,53,18.4,42.7,19.1,18.5z"/>
		</g>
		<g>
			<path fill="#B9C0D0" d="M27.3,5c-0.5-0.3-0.6-0.8-0.3-1.3V3.6C27.4,4,27.5,4.5,27.3,5L27.3,5z M23,10.8c0.1,0.1,0.2,0.3,0.3,0.4
				c0.3,0.4,0.5,0.8,0.5,1.3v0.1h-0.1c0.2,0.7,0.2,1.4,0.1,2.3C23.3,14,23,13,23,12c-0.1-0.3-0.1-0.6,0-1C23,11,23,10.9,23,10.8
				L23,10.8z M26.8,13.6c-0.8-0.4-0.9-1-0.4-1.8c0.3,0.5,0.5,1.1,0.5,1.6C26.9,13.6,26.9,13.6,26.8,13.6z M21.9,20.5
				c0.3,0.7,0.5,1.4,0.6,2.3l0,0c-0.2-0.2-0.4-0.5-0.6-0.8V20.5z M25.5,24.3L25.5,24.3c-0.6-0.5-0.5-1.1,0.4-1.8c0,0,0,0,0-0.1
				C26,23,25.9,23.6,25.5,24.3z M30.7,18.5c0.4,0.6,0.8,1.1,1.3,1.6l0,0c-1.1-0.1-1.5-0.7-1.4-1.6H30.7z M30,34.3
				c-0.1-1.5,0.1-3,0.7-4.5l0,0C30.9,31.2,30.7,32.7,30,34.3L30,34.3z M23.3,26.7c0.2,0.7,0,1.5-0.4,2.3l0,0
				C22.5,28.3,22.6,27.5,23.3,26.7z M25.5,27c0.5,0.8,0.5,1.7-0.1,2.5c0,0,0,0-0.1,0C25.1,28.8,25.2,27.9,25.5,27L25.5,27z
				 M24.6,44.8L24.6,44.8c-0.5-0.8-0.7-1.7-0.8-2.6c0,0,0,0,0.1,0C24.7,42.9,25,43.8,24.6,44.8z M28.3,45.4c0-0.1,0-0.1,0.1-0.1
				c0.1,0.3,0.3,0.5,0.4,0.8v1.5C28.3,47,28.2,46.2,28.3,45.4z"/>
		</g>
	</g>
</g>
<g id="Layer_4">
	<g>
		<g>
			
				<radialGradient id="SVGID_7_" cx="290.4727" cy="-66.5791" r="9.2251" fx="290.9792" fy="-66.5791" gradientTransform="matrix(1 -8.803328e-003 -2.092356e-002 -2.3767 -249.116 -105.682)" gradientUnits="userSpaceOnUse">
				<stop  offset="0" style="stop-color:#72FDFF;stop-opacity:0.6706"/>
				<stop  offset="0.2353" style="stop-color:#71FCFF;stop-opacity:0"/>
				<stop  offset="1" style="stop-color:#71FBFF;stop-opacity:0"/>
			</radialGradient>
			<path fill="url(#SVGID_7_)" d="M35.3,24c3.9-17.1,8.3-19.5,13-7c1.8,14.6,1.6,25.8-0.5,33.5c-0.2,0.4-1.6,0.5-4.2,0.5
				c-2.5,0.1-3.9-0.1-4.1-0.5C35.6,44.5,34.3,35.7,35.3,24z"/>
		</g>
		<g>
			
				<linearGradient id="SVGID_8_" gradientUnits="userSpaceOnUse" x1="293.71" y1="-257.1953" x2="293.71" y2="-276.4953" gradientTransform="matrix(1 0 0 -1 -251.0098 -229.9453)">
				<stop  offset="0" style="stop-color:#CFD9E9"/>
				<stop  offset="1" style="stop-color:#CFD9E9;stop-opacity:0"/>
			</linearGradient>
			<path fill="url(#SVGID_8_)" d="M40.9,40.7c-0.3,1.3-0.9,3.6-1.5,6.8C39,48.2,38.9,48.6,39,49h-0.5c0.9-4.1,1.5-7,1.9-8.7
				c0.7-2.9,1.4-4.4,2.1-4.5c0.7,0,1.4,1.3,2.1,3.8c0.9,3.8,1.7,6.9,2.3,9.5h-0.5c-0.1-0.4-0.2-0.9-0.4-1.5
				c-0.5-1.7-1.1-4.1-1.7-7.1c-0.6-2.2-1.1-1.9-1.6,0.9C42,38.6,41.5,38.4,40.9,40.7z"/>
		</g>
		<g>
			
				<radialGradient id="SVGID_9_" cx="282.9453" cy="29.3506" r="8.4495" gradientTransform="matrix(0.9999 -1.183349e-002 -0.1346 -5.1727 -236.3161 193.8642)" gradientUnits="userSpaceOnUse">
				<stop  offset="0.4471" style="stop-color:#3B66F1;stop-opacity:6.666667e-002"/>
				<stop  offset="0.6431" style="stop-color:#1D2975;stop-opacity:6.274509e-002"/>
				<stop  offset="0.9098" style="stop-color:#FFFFFF;stop-opacity:0"/>
			</radialGradient>
			<path fill="url(#SVGID_9_)" d="M36.1,18.5c3.8-20.3,8.1-23,12.9-8.2c1.9,18.5,1.2,31.5-2.1,38.9c-2,1.7-4,1.7-6,0.1
				C37,53,35.4,42.7,36.1,18.5z"/>
		</g>
		<g>
			<path fill="#B9C0D0" d="M43.3,10.9h0.5c0.1,0.3,0.1,0.6,0,0.9c0,0.1,0,0.1,0,0.1C43.4,11.5,43.3,11.2,43.3,10.9z M43.5,14.7h0.4
				c0.1,0.7,0,1.3-0.3,2l0,0C43.2,16.1,43.2,15.5,43.5,14.7z M42,18.5L42,18.5c-0.1-0.4-0.1-0.9,0-1.4l0,0c0.4,0.6,0.5,1.3,0.3,1.9
				v0.1c0-0.1-0.1-0.1-0.1-0.2c0,0.2,0,0.3-0.1,0.5v0.1C41.6,19.3,41.6,19,42,18.5L42,18.5z M40.3,23.9c0.5,0.7,0.7,1.6,0.7,2.5l0,0
				C40.3,25.7,40,24.8,40.3,23.9L40.3,23.9z M41.6,24.2c0.3,0.7,0.4,1.5,0.1,2.3v0.1C41.3,25.9,41.2,25.1,41.6,24.2
				C41.5,24.2,41.6,24.2,41.6,24.2z M43.5,24.5c0.3,1.7,0.2,3.4-0.3,5.2l0,0C42.9,28.1,43,26.4,43.5,24.5L43.5,24.5z M45,16.8
				c0.3,0.5,0.3,1,0,1.7l0,0C44.6,18.1,44.6,17.5,45,16.8L45,16.8z M45.5,20c0.3,0.6,0.3,1.3-0.2,2.1l0,0c-0.2-0.3-0.3-0.5-0.3-0.8
				c-0.1,0.4-0.2,0.8-0.3,1.2c0,0-0.1,0-0.1,0.1c-0.3-1.2-0.1-2.5,0.4-3.6c0.1,0.6,0.2,1.2,0.1,1.8C45.1,20.5,45.3,20.3,45.5,20z
				 M45.2,24.8L45.2,24.8c0.2,1.3,0.2,2.7-0.2,4.2C44.5,27.6,44.6,26.3,45.2,24.8z M46,33c0.3,0.4,0.5,0.8,0.5,1.3v0.1
				C45.8,34.1,45.6,33.7,46,33z M42.9,37.1c-0.8-0.5-1-1.1-0.6-1.8C42.7,35.8,42.9,36.4,42.9,37.1C42.9,37,42.9,37.1,42.9,37.1z
				 M43.5,35.6c-0.7-0.6-0.9-1.3-0.7-2.2C43.3,34,43.5,34.7,43.5,35.6C43.5,35.5,43.5,35.6,43.5,35.6z M39.4,31
				C39.4,30.9,39.4,30.9,39.4,31c0.1,0.1,0.1,0.3,0.1,0.5h-0.4C39.2,31.3,39.3,31.1,39.4,31z M41.1,46.7c-0.3-0.8-0.4-1.6-0.3-2.4
				l0,0c0.5,0.8,0.8,1.6,0.7,2.5L41.1,46.7L41.1,46.7z"/>
		</g>
	</g>
</g>
</svg>
