<?xml version="1.0" encoding="utf-8"?>
<!-- Generator: Adobe Illustrator 16.0.0, SVG Export Plug-In . SVG Version: 6.00 Build 0)  -->
<!DOCTYPE svg PUBLIC "-//W3C//DTD SVG 1.1//EN" "http://www.w3.org/Graphics/SVG/1.1/DTD/svg11.dtd">
<svg version="1.1" id="Layer_1" xmlns="http://www.w3.org/2000/svg" xmlns:xlink="http://www.w3.org/1999/xlink" x="0px" y="0px"
	 width="48.5px" height="11px" viewBox="0 0 48.5 11" enable-background="new 0 0 48.5 11" xml:space="preserve">
<g>
	<g>
		<path fill-rule="evenodd" clip-rule="evenodd" fill="#550F16" d="M36.2,4.9c-0.1,0-0.2,0-0.3-0.1c0-0.3-0.3-0.6-0.8-1
			c-0.4-0.3-0.8-0.5-1-0.5c0-0.2-0.3-0.3-0.7-0.3c-0.5-0.1-0.9-0.1-1.2,0V2.6C32.5,2.4,33,2.2,34,1.9c0.4-0.1,0.7-0.2,1-0.3
			c1,0.1,2.2,0.1,3.5,0.1c0.1,0.2,0.5,0.5,1,0.6c0.7,0.3,1,0.6,1,0.8c0,0.3-0.4,0.7-1.2,1.2l0,0c-0.1,0-0.1,0.1-0.2,0.1
			C38.1,4.8,37.1,5,36.2,4.9z M45,3.3c-1.3,0-2.5,0.3-3.6,0.8c-0.1,0.1,0.3,0.1,1.2,0.2l-1.1,0c-0.4,0-0.7,0-0.8,0
			c-0.2-0.1-0.3-0.2-0.3-0.4c0-0.3,0.5-0.6,1.4-0.8c0.5-0.1,1-0.2,1.5-0.3L44.3,3C44.6,3.1,44.8,3.2,45,3.3z M25.3,2.5
			c0-0.1,0.1-0.2,0.2-0.2c0.1,0,0.2,0,0.3,0C25.7,2.3,25.5,2.4,25.3,2.5z M17.5,8C17,8,16.5,8.1,15.9,8.3c-1.3,0.2-2.1,0.3-2.3,0.3
			c-0.2,0-0.6-0.1-1.2-0.3c-0.6-0.2-1-0.3-1.4-0.3C9.7,8,9,7.9,9,7.5C9,7.4,9.4,7.2,10.1,7c0.8-0.2,1.7-0.3,2.7-0.3
			c0.5,0,1.5,0,2.8-0.1c0.7,0,1.1,0,1.4,0h0c0.2,0,0.2,0.1,0,0.2c-0.1,0-0.1,0-0.2,0.1C16.8,7,16.7,7,16.5,7.1
			c-0.2,0.1-0.5,0.2-0.7,0.2C16,7.5,16.5,7.7,17.5,8z M21.9,6.3c0.2-0.1,0.3-0.1,0.5-0.2L23,6.2v0.2c-0.4,0.3-0.8,0.4-1,0.4
			c-0.1,0-0.3-0.1-0.5-0.2l0.1-0.2C21.6,6.3,21.7,6.3,21.9,6.3z M28.1,6.1h0.6v0.2l-0.4,0.3h-0.6c0-0.1,0-0.2,0.1-0.3
			c0,0,0-0.1,0.1-0.1H28L28.1,6.1z"/>
		<path fill-rule="evenodd" clip-rule="evenodd" fill="#550F16" d="M36.2,4.9c-0.1,0-0.2,0-0.3-0.1c0-0.3-0.3-0.6-0.8-1
			c-0.4-0.3-0.8-0.5-1-0.5c0-0.2-0.3-0.3-0.7-0.3c-0.5-0.1-0.9-0.1-1.2,0V2.6C32.5,2.4,33,2.2,34,1.9c0.4-0.1,0.7-0.2,1-0.3
			c1,0.1,2.2,0.1,3.5,0.1c0.1,0.2,0.5,0.5,1,0.6c0.7,0.3,1,0.6,1,0.8c0,0.3-0.4,0.7-1.2,1.2l0,0c-0.1,0-0.1,0.1-0.2,0.1
			C38.1,4.8,37.1,5,36.2,4.9z M45,3.3c-1.3,0-2.5,0.3-3.6,0.8c-0.1,0.1,0.3,0.1,1.2,0.2l-1.1,0c-0.4,0-0.7,0-0.8,0
			c-0.2-0.1-0.3-0.2-0.3-0.4c0-0.3,0.5-0.6,1.4-0.8c0.5-0.1,1-0.2,1.5-0.3L44.3,3C44.6,3.1,44.8,3.2,45,3.3z M25.3,2.5
			c0-0.1,0.1-0.2,0.2-0.2c0.1,0,0.2,0,0.3,0C25.7,2.3,25.5,2.4,25.3,2.5z M17.5,8C17,8,16.5,8.1,15.9,8.3c-1.3,0.2-2.1,0.3-2.3,0.3
			c-0.2,0-0.6-0.1-1.2-0.3c-0.6-0.2-1-0.3-1.4-0.3C9.7,8,9,7.9,9,7.5C9,7.4,9.4,7.2,10.1,7c0.8-0.2,1.7-0.3,2.7-0.3
			c0.5,0,1.5,0,2.8-0.1c0.7,0,1.1,0,1.4,0h0c0.2,0,0.2,0.1,0,0.2c-0.1,0-0.1,0-0.2,0.1C16.8,7,16.7,7,16.5,7.1
			c-0.2,0.1-0.5,0.2-0.7,0.2C16,7.5,16.5,7.7,17.5,8z M21.9,6.3c0.2-0.1,0.3-0.1,0.5-0.2L23,6.2v0.2c-0.4,0.3-0.8,0.4-1,0.4
			c-0.1,0-0.3-0.1-0.5-0.2l0.1-0.2C21.6,6.3,21.7,6.3,21.9,6.3z M28.1,6.1h0.6v0.2l-0.4,0.3h-0.6c0-0.1,0-0.2,0.1-0.3
			c0,0,0-0.1,0.1-0.1H28L28.1,6.1z"/>
		<path fill-rule="evenodd" clip-rule="evenodd" fill="#96202B" d="M38.5,1.7c0.1,0,0.3,0,0.4,0c0.4,0,1,0.1,1.7,0.1
			c1.6,0.1,2.7,0.2,3.3,0.3c0.6,0.1,1.3,0.3,2.1,0.4c0.8,0.1,0.9,0.4,0.3,0.7c-0.1,0-0.1,0-0.3,0c-0.4,0-0.7,0-1.1,0
			c-0.2-0.1-0.4-0.2-0.6-0.3l-1.1-0.2c-0.5,0.1-1,0.2-1.5,0.3c-0.9,0.2-1.4,0.5-1.4,0.8c0,0.2,0.1,0.3,0.3,0.4c0.1,0,0.4,0,0.8,0
			l1.1,0c0.1,0,0.2,0,0.4,0c0.1,0,0.2,0,0.3,0c1.4,0.1,2.2,0.2,2.3,0.4c0.1,0.2-0.2,0.4-0.8,0.6c-0.4,0-0.7,0.1-0.9,0.2
			c-0.2,0.1-0.6,0.1-1.1,0c-0.5-0.1-0.1,0.2,1.2,0.8c1.3,0.6,0.7,0.9-1.6,1.2c-0.3,0.1-0.6,0.2-0.9,0.2v0c0-0.3-0.2-0.5-0.7-0.6
			C40.2,6.8,40,6.6,40,6.5c0-0.2,0.2-0.3,0.6-0.5h0c0.4-0.2,0.5-0.3,0.5-0.5v0c0-0.4-0.7-0.8-1.9-1.2l0,0c0.8-0.5,1.2-0.9,1.2-1.2
			c0-0.2-0.3-0.5-1-0.8C38.9,2.1,38.6,1.9,38.5,1.7z M40.8,2.5c-0.1,0-0.2,0.1-0.1,0.2C41,3,41.2,3,41.3,2.7v0
			C41.3,2.5,41.1,2.4,40.8,2.5z M41.6,5.5l-0.4,0h0c0,0.1,0,0.1,0,0.2c0,0.5,0.3,0.8,0.8,0.8c0.2,0,0.3-0.2,0.3-0.6
			c0-0.2-0.2-0.3-0.5-0.4H41.6z"/>
		<path fill-rule="evenodd" clip-rule="evenodd" fill="#96202B" d="M38.5,1.7c0.1,0,0.3,0,0.4,0c0.4,0,1,0.1,1.7,0.1
			c1.6,0.1,2.7,0.2,3.3,0.3c0.6,0.1,1.3,0.3,2.1,0.4c0.8,0.1,0.9,0.4,0.3,0.7c-0.1,0-0.1,0-0.3,0c-0.4,0-0.7,0-1.1,0
			c-0.2-0.1-0.4-0.2-0.6-0.3l-1.1-0.2c-0.5,0.1-1,0.2-1.5,0.3c-0.9,0.2-1.4,0.5-1.4,0.8c0,0.2,0.1,0.3,0.3,0.4c0.1,0,0.4,0,0.8,0
			l1.1,0c0.1,0,0.2,0,0.4,0c0.1,0,0.2,0,0.3,0c1.4,0.1,2.2,0.2,2.3,0.4c0.1,0.2-0.2,0.4-0.8,0.6c-0.4,0-0.7,0.1-0.9,0.2
			c-0.2,0.1-0.6,0.1-1.1,0c-0.5-0.1-0.1,0.2,1.2,0.8c1.3,0.6,0.7,0.9-1.6,1.2c-0.3,0.1-0.6,0.2-0.9,0.2v0c0-0.3-0.2-0.5-0.7-0.6
			C40.2,6.8,40,6.6,40,6.5c0-0.2,0.2-0.3,0.6-0.5h0c0.4-0.2,0.5-0.3,0.5-0.5v0c0-0.4-0.7-0.8-1.9-1.2l0,0c0.8-0.5,1.2-0.9,1.2-1.2
			c0-0.2-0.3-0.5-1-0.8C38.9,2.1,38.6,1.9,38.5,1.7z M40.8,2.5c-0.1,0-0.2,0.1-0.1,0.2C41,3,41.2,3,41.3,2.7v0
			C41.3,2.5,41.1,2.4,40.8,2.5z M41.6,5.5l-0.4,0h0c0,0.1,0,0.1,0,0.2c0,0.5,0.3,0.8,0.8,0.8c0.2,0,0.3-0.2,0.3-0.6
			c0-0.2-0.2-0.3-0.5-0.4H41.6z"/>
		<path fill-rule="evenodd" clip-rule="evenodd" fill="#DC808E" d="M40.8,2.5c0.3-0.1,0.4,0,0.5,0.2v0C41.2,3,41,3,40.8,2.7
			C40.7,2.6,40.7,2.5,40.8,2.5z"/>
		<path fill-rule="evenodd" clip-rule="evenodd" fill="#DC808E" d="M40.8,2.5c0.3-0.1,0.4,0,0.5,0.2v0C41.2,3,41,3,40.8,2.7
			C40.7,2.6,40.7,2.5,40.8,2.5z"/>
		<path fill-rule="evenodd" clip-rule="evenodd" fill="#612224" d="M41.4,7.6c-1.2,0.3-2.3,0.5-3.1,0.6c-1,0.2-1.8,0.2-2.2,0.3
			c-0.4,0-1,0.1-1.8,0.2c-0.8,0.1-1.8,0.2-3,0.4s-1.9,0.2-2,0.3c-0.1,0-0.2,0.1-0.2,0.1c-0.3,0-0.6,0.1-0.9,0.1
			c-2.3,0-4.6,0-6.9-0.1c-0.5-0.3-0.8-0.5-1-0.7c0.7,0,1.5-0.1,2.5-0.1c0.8-0.1,1.5-0.1,2.1-0.2c-0.8,0.1-1.7,0.2-2.5,0.3
			c2,0.1,3.9,0,5.8-0.2c0.3,0,0.7,0,1,0c0,0,0.1,0,0.1,0c-0.7,0.3-1.3,0.5-2,0.5c0.4,0.2,0.9,0.2,1.5,0c0.4-0.1,0.7-0.2,1-0.3
			c1.6-0.1,3.1-0.3,4.7-0.5c1-0.1,1.5-0.5,1.4-1c-0.3,0.1-0.5,0.1-0.8,0.1c2.3-0.6,3.4-1,3.4-1.2c0-0.3-0.4-0.6-1.1-0.9
			c-0.4-0.2-0.8-0.3-1.2-0.4c1,0.1,1.9-0.1,2.8-0.5c0.1,0,0.2-0.1,0.2-0.1c1.2,0.4,1.9,0.8,1.9,1.2v0c0,0.1-0.2,0.3-0.5,0.5h0
			C40.1,6.2,40,6.3,40,6.5c0,0.1,0.3,0.3,0.8,0.5C41.2,7.1,41.4,7.3,41.4,7.6L41.4,7.6z M32.6,6.1L32.6,6.1c0,0.2,0,0.4,0,0.6
			c-0.8,0.4-1.4,0.2-1.6-0.5l0,0c0.1-0.1,0.3-0.1,0.5-0.2C31.8,6,32.2,6.1,32.6,6.1L32.6,6.1z M26.5,8.2c-0.2,0.1-0.5,0.1-0.8,0.1
			c-0.3,0-0.6,0-1-0.1C23.6,8,22.5,7.9,21.2,8c-0.4,0-0.7-0.1-0.9-0.3c2,0,3.9-0.2,5.8-0.8c0.3,0,0.6,0,0.9,0c0.1,0,0.2-0.1,0.3-0.1
			c0,0,0,0.1,0.1,0.1c0,0,0.1,0,0.1,0l0,0c0,0.3-0.1,0.5-0.3,0.7v0.1h0C27,8,26.8,8.1,26.5,8.2z"/>
		<path fill-rule="evenodd" clip-rule="evenodd" fill="#612224" d="M41.4,7.6c-1.2,0.3-2.3,0.5-3.1,0.6c-1,0.2-1.8,0.2-2.2,0.3
			c-0.4,0-1,0.1-1.8,0.2c-0.8,0.1-1.8,0.2-3,0.4s-1.9,0.2-2,0.3c-0.1,0-0.2,0.1-0.2,0.1c-0.3,0-0.6,0.1-0.9,0.1
			c-2.3,0-4.6,0-6.9-0.1c-0.5-0.3-0.8-0.5-1-0.7c0.7,0,1.5-0.1,2.5-0.1c0.8-0.1,1.5-0.1,2.1-0.2c-0.8,0.1-1.7,0.2-2.5,0.3
			c2,0.1,3.9,0,5.8-0.2c0.3,0,0.7,0,1,0c0,0,0.1,0,0.1,0c-0.7,0.3-1.3,0.5-2,0.5c0.4,0.2,0.9,0.2,1.5,0c0.4-0.1,0.7-0.2,1-0.3
			c1.6-0.1,3.1-0.3,4.7-0.5c1-0.1,1.5-0.5,1.4-1c-0.3,0.1-0.5,0.1-0.8,0.1c2.3-0.6,3.4-1,3.4-1.2c0-0.3-0.4-0.6-1.1-0.9
			c-0.4-0.2-0.8-0.3-1.2-0.4c1,0.1,1.9-0.1,2.8-0.5c0.1,0,0.2-0.1,0.2-0.1c1.2,0.4,1.9,0.8,1.9,1.2v0c0,0.1-0.2,0.3-0.5,0.5h0
			C40.1,6.2,40,6.3,40,6.5c0,0.1,0.3,0.3,0.8,0.5C41.2,7.1,41.4,7.3,41.4,7.6L41.4,7.6z M32.6,6.1L32.6,6.1c0,0.2,0,0.4,0,0.6
			c-0.8,0.4-1.4,0.2-1.6-0.5l0,0c0.1-0.1,0.3-0.1,0.5-0.2C31.8,6,32.2,6.1,32.6,6.1L32.6,6.1z M26.5,8.2c-0.2,0.1-0.5,0.1-0.8,0.1
			c-0.3,0-0.6,0-1-0.1C23.6,8,22.5,7.9,21.2,8c-0.4,0-0.7-0.1-0.9-0.3c2,0,3.9-0.2,5.8-0.8c0.3,0,0.6,0,0.9,0c0.1,0,0.2-0.1,0.3-0.1
			c0,0,0,0.1,0.1,0.1c0,0,0.1,0,0.1,0l0,0c0,0.3-0.1,0.5-0.3,0.7v0.1h0C27,8,26.8,8.1,26.5,8.2z"/>
		<path fill-rule="evenodd" clip-rule="evenodd" fill="#A82731" d="M41.6,5.5h0.1C42,5.6,42.2,5.8,42.2,6c0,0.4-0.1,0.6-0.3,0.6
			c-0.5-0.1-0.8-0.4-0.8-0.8c0-0.1,0-0.1,0-0.2h0L41.6,5.5z"/>
		<path fill-rule="evenodd" clip-rule="evenodd" fill="#A82731" d="M41.6,5.5h0.1C42,5.6,42.2,5.8,42.2,6c0,0.4-0.1,0.6-0.3,0.6
			c-0.5-0.1-0.8-0.4-0.8-0.8c0-0.1,0-0.1,0-0.2h0L41.6,5.5z"/>
		<path fill-rule="evenodd" clip-rule="evenodd" fill="#6C0516" d="M19.4,5.8c0.1-0.1,0.1-0.2,0.1-0.3c0-0.2-0.2-0.4-0.7-0.7l0.4,0
			c0.5,0,0.9-0.1,1.1-0.4c0.1-0.1,0.1-0.3,0.3-0.6l-0.5,0c0.1-0.4,0.3-0.7,0.5-0.8c0,0,0.4,0,1.1,0c0.4,0,0.9,0,1.4,0.2
			c0.5,0.1,1,0.1,1.4,0.1l1.7,0.1l3.1-0.3c0.4,0,0.8,0.1,1.3,0.4c0.5,0.2,0.9,0.3,1.1,0.3c0.4,0,1.2-0.2,2.4-0.5h0
			c0.2,0,0.5,0.2,1,0.5c0.5,0.4,0.8,0.7,0.8,1c-0.2,0-0.4,0-0.7,0c-2.8,0.3-4.4,0.5-4.8,0.5c-1,0-2.2-0.1-3.5-0.4s-2.3-0.4-3.2-0.4
			c-1.1,0-2,0.2-2.6,0.7C20.6,5.5,20,5.8,19.4,5.8z"/>
		<path fill-rule="evenodd" clip-rule="evenodd" fill="#6C0516" d="M19.4,5.8c0.1-0.1,0.1-0.2,0.1-0.3c0-0.2-0.2-0.4-0.7-0.7l0.4,0
			c0.5,0,0.9-0.1,1.1-0.4c0.1-0.1,0.1-0.3,0.3-0.6l-0.5,0c0.1-0.4,0.3-0.7,0.5-0.8c0,0,0.4,0,1.1,0c0.4,0,0.9,0,1.4,0.2
			c0.5,0.1,1,0.1,1.4,0.1l1.7,0.1l3.1-0.3c0.4,0,0.8,0.1,1.3,0.4c0.5,0.2,0.9,0.3,1.1,0.3c0.4,0,1.2-0.2,2.4-0.5h0
			c0.2,0,0.5,0.2,1,0.5c0.5,0.4,0.8,0.7,0.8,1c-0.2,0-0.4,0-0.7,0c-2.8,0.3-4.4,0.5-4.8,0.5c-1,0-2.2-0.1-3.5-0.4s-2.3-0.4-3.2-0.4
			c-1.1,0-2,0.2-2.6,0.7C20.6,5.5,20,5.8,19.4,5.8z"/>
		<path fill-rule="evenodd" clip-rule="evenodd" fill="#4D1C1C" d="M25.7,8.3c0.1,0,0.2,0,0.3,0c-0.4,0.1-0.8,0.1-1.2,0.2
			c-0.6,0-1.3,0.1-2.1,0.2c-0.9,0.1-1.8,0.1-2.5,0.1c-0.2-0.1-0.3-0.2-0.3-0.2C19.4,8.3,19,8.1,18.5,8c-0.4,0-0.7,0-0.8,0
			c-0.1,0-0.2,0-0.3,0c-0.9-0.2-1.5-0.4-1.6-0.6c0.2,0,0.5-0.1,0.7-0.2C16.7,7,16.8,7,16.9,6.9c0.1,0,0.1-0.1,0.2-0.1
			c0.2-0.1,0.2-0.1,0-0.2c0.2-0.1,0.4-0.1,0.6-0.2c0.9-0.2,1.5-0.5,1.7-0.7c0.6,0,1.2-0.3,1.8-0.6c0.7-0.4,1.6-0.7,2.6-0.7
			c0.9,0,1.9,0.1,3.2,0.4s2.4,0.4,3.5,0.4c0.4,0,2-0.2,4.8-0.5c0.2,0,0.4,0,0.7,0c0.1,0,0.2,0,0.3,0.1c0.4,0.1,0.8,0.2,1.2,0.4
			c0.7,0.3,1.1,0.6,1.1,0.9c0,0.2-1.1,0.6-3.4,1.2c0,0-0.1,0-0.1,0c-1,0.1-2,0.3-3,0.4c-0.1,0-0.1,0-0.2,0c-1.3,0.2-2.6,0.3-4,0.3
			c-0.1,0-0.2,0-0.3,0c-0.1,0-0.2,0-0.3,0c-0.2,0-0.5,0-0.7,0C26.8,8.1,27,8,27.2,7.8h0V7.7c0.2-0.2,0.3-0.4,0.3-0.7l0,0
			c0,0-0.1,0-0.1,0c0,0,0-0.1-0.1-0.1c-0.1,0-0.2,0-0.3,0.1c-0.3,0-0.6,0-0.9,0c-1.9,0.6-3.8,0.8-5.8,0.8C20.5,7.8,20.8,8,21.2,8
			c1.3,0,2.4,0,3.5,0.3C25.1,8.3,25.4,8.3,25.7,8.3z M32.6,6.1L32.6,6.1c-0.4,0-0.8,0-1.1,0c-0.2,0-0.3,0.1-0.5,0.2l0,0
			c0.3,0.7,0.8,0.8,1.6,0.5C32.6,6.5,32.6,6.3,32.6,6.1L32.6,6.1z M21.9,6.3c-0.1,0-0.2,0.1-0.3,0.1l-0.1,0.2
			c0.2,0.1,0.3,0.2,0.5,0.2c0.3,0,0.6-0.1,1-0.4V6.2l-0.7-0.1C22.2,6.1,22,6.2,21.9,6.3z M28.1,6.1L28,6.2h-0.1c0,0-0.1,0-0.1,0.1
			c-0.1,0.1-0.1,0.2-0.1,0.3h0.6l0.4-0.3V6.1H28.1z"/>
		<path fill-rule="evenodd" clip-rule="evenodd" fill="#4D1C1C" d="M25.7,8.3c0.1,0,0.2,0,0.3,0c-0.4,0.1-0.8,0.1-1.2,0.2
			c-0.6,0-1.3,0.1-2.1,0.2c-0.9,0.1-1.8,0.1-2.5,0.1c-0.2-0.1-0.3-0.2-0.3-0.2C19.4,8.3,19,8.1,18.5,8c-0.4,0-0.7,0-0.8,0
			c-0.1,0-0.2,0-0.3,0c-0.9-0.2-1.5-0.4-1.6-0.6c0.2,0,0.5-0.1,0.7-0.2C16.7,7,16.8,7,16.9,6.9c0.1,0,0.1-0.1,0.2-0.1
			c0.2-0.1,0.2-0.1,0-0.2c0.2-0.1,0.4-0.1,0.6-0.2c0.9-0.2,1.5-0.5,1.7-0.7c0.6,0,1.2-0.3,1.8-0.6c0.7-0.4,1.6-0.7,2.6-0.7
			c0.9,0,1.9,0.1,3.2,0.4s2.4,0.4,3.5,0.4c0.4,0,2-0.2,4.8-0.5c0.2,0,0.4,0,0.7,0c0.1,0,0.2,0,0.3,0.1c0.4,0.1,0.8,0.2,1.2,0.4
			c0.7,0.3,1.1,0.6,1.1,0.9c0,0.2-1.1,0.6-3.4,1.2c0,0-0.1,0-0.1,0c-1,0.1-2,0.3-3,0.4c-0.1,0-0.1,0-0.2,0c-1.3,0.2-2.6,0.3-4,0.3
			c-0.1,0-0.2,0-0.3,0c-0.1,0-0.2,0-0.3,0c-0.2,0-0.5,0-0.7,0C26.8,8.1,27,8,27.2,7.8h0V7.7c0.2-0.2,0.3-0.4,0.3-0.7l0,0
			c0,0-0.1,0-0.1,0c0,0,0-0.1-0.1-0.1c-0.1,0-0.2,0-0.3,0.1c-0.3,0-0.6,0-0.9,0c-1.9,0.6-3.8,0.8-5.8,0.8C20.5,7.8,20.8,8,21.2,8
			c1.3,0,2.4,0,3.5,0.3C25.1,8.3,25.4,8.3,25.7,8.3z M32.6,6.1L32.6,6.1c-0.4,0-0.8,0-1.1,0c-0.2,0-0.3,0.1-0.5,0.2l0,0
			c0.3,0.7,0.8,0.8,1.6,0.5C32.6,6.5,32.6,6.3,32.6,6.1L32.6,6.1z M21.9,6.3c-0.1,0-0.2,0.1-0.3,0.1l-0.1,0.2
			c0.2,0.1,0.3,0.2,0.5,0.2c0.3,0,0.6-0.1,1-0.4V6.2l-0.7-0.1C22.2,6.1,22,6.2,21.9,6.3z M28.1,6.1L28,6.2h-0.1c0,0-0.1,0-0.1,0.1
			c-0.1,0.1-0.1,0.2-0.1,0.3h0.6l0.4-0.3V6.1H28.1z"/>
		<path fill-rule="evenodd" clip-rule="evenodd" fill="#6C0714" d="M25.3,2.5c0.2-0.1,0.4-0.1,0.5-0.2c0.1-0.1,0.2-0.1,0.4-0.2
			C26.4,2,26.7,2,27,2c0.1,0,0.2,0,0.4,0c0.1,0,0.2,0.1,0.3,0.3c-1,0.4-1.5,0.7-1.6,0.7c-0.5,0-0.8-0.1-0.8-0.3
			C25.3,2.5,25.3,2.5,25.3,2.5z"/>
		<path fill-rule="evenodd" clip-rule="evenodd" fill="#6C0714" d="M25.3,2.5c0.2-0.1,0.4-0.1,0.5-0.2c0.1-0.1,0.2-0.1,0.4-0.2
			C26.4,2,26.7,2,27,2c0.1,0,0.2,0,0.4,0c0.1,0,0.2,0.1,0.3,0.3c-1,0.4-1.5,0.7-1.6,0.7c-0.5,0-0.8-0.1-0.8-0.3
			C25.3,2.5,25.3,2.5,25.3,2.5z"/>
		<path fill-rule="evenodd" clip-rule="evenodd" fill="#952025" d="M21.1,9.5c-0.9,0-1.8,0-2.7-0.1c-3.4-0.1-6.6-0.3-9.8-0.7v0
			c0-0.1-0.9-0.5-2.6-1.2C6,7,6.8,6.7,8.3,6.6c1.3-0.1,2.1,0,2.3,0.1c0.5,0.1,0.8,0,1-0.3c0.3-0.4,0.5-0.6,0.8-0.7
			c0.4-0.1,0.9-0.3,1.5-0.4c0.4-0.1,0.6-0.2,0.6-0.3c-0.3-0.5-0.4-0.8-0.4-0.9c0-0.3,0.3-0.7,1-1c0.3,0.4,1.1,0.8,2.1,1.2
			c0.7,0.2,1.3,0.5,1.6,0.7c0.5,0.3,0.7,0.5,0.7,0.7c0,0.1,0,0.2-0.1,0.3c-0.2,0.2-0.8,0.5-1.7,0.7c-0.2,0.1-0.4,0.1-0.6,0.2h0
			c-0.2,0-0.7,0-1.4,0c-1.3,0.1-2.3,0.1-2.8,0.1c-1,0-1.9,0.1-2.7,0.3C9.4,7.2,9,7.4,9,7.5C9,7.9,9.7,8,11.1,8c0.3,0,0.8,0,1.4,0.3
			c0.6,0.2,1,0.3,1.2,0.3c0.2,0,0.9-0.1,2.3-0.3C16.5,8.1,17,8,17.5,8c0.1,0,0.2,0,0.3,0c0.1,0,0.4,0,0.8,0c0.5,0,0.9,0.2,1.4,0.5
			c0,0,0.1,0.1,0.3,0.2C20.4,8.9,20.7,9.2,21.1,9.5z M15.4,5.6L15.4,5.6C16,6,16.4,6,16.8,5.5c-0.3-0.3-0.6-0.4-1-0.3
			C15.6,5.3,15.5,5.4,15.4,5.6z"/>
		<path fill-rule="evenodd" clip-rule="evenodd" fill="#952025" d="M21.1,9.5c-0.9,0-1.8,0-2.7-0.1c-3.4-0.1-6.6-0.3-9.8-0.7v0
			c0-0.1-0.9-0.5-2.6-1.2C6,7,6.8,6.7,8.3,6.6c1.3-0.1,2.1,0,2.3,0.1c0.5,0.1,0.8,0,1-0.3c0.3-0.4,0.5-0.6,0.8-0.7
			c0.4-0.1,0.9-0.3,1.5-0.4c0.4-0.1,0.6-0.2,0.6-0.3c-0.3-0.5-0.4-0.8-0.4-0.9c0-0.3,0.3-0.7,1-1c0.3,0.4,1.1,0.8,2.1,1.2
			c0.7,0.2,1.3,0.5,1.6,0.7c0.5,0.3,0.7,0.5,0.7,0.7c0,0.1,0,0.2-0.1,0.3c-0.2,0.2-0.8,0.5-1.7,0.7c-0.2,0.1-0.4,0.1-0.6,0.2h0
			c-0.2,0-0.7,0-1.4,0c-1.3,0.1-2.3,0.1-2.8,0.1c-1,0-1.9,0.1-2.7,0.3C9.4,7.2,9,7.4,9,7.5C9,7.9,9.7,8,11.1,8c0.3,0,0.8,0,1.4,0.3
			c0.6,0.2,1,0.3,1.2,0.3c0.2,0,0.9-0.1,2.3-0.3C16.5,8.1,17,8,17.5,8c0.1,0,0.2,0,0.3,0c0.1,0,0.4,0,0.8,0c0.5,0,0.9,0.2,1.4,0.5
			c0,0,0.1,0.1,0.3,0.2C20.4,8.9,20.7,9.2,21.1,9.5z M15.4,5.6L15.4,5.6C16,6,16.4,6,16.8,5.5c-0.3-0.3-0.6-0.4-1-0.3
			C15.6,5.3,15.5,5.4,15.4,5.6z"/>
		<path fill-rule="evenodd" clip-rule="evenodd" fill="#B22A2A" d="M8.6,8.7c-1-0.1-2-0.2-2.9-0.4c-4-0.6-5.4-1.2-4.1-1.9
			c2.5-1.1,5.2-1.5,8.2-1.3c0.7,0.1,1.2-0.2,1.6-0.8c0.5-0.7,1.1-1.1,1.8-1.4c0.5-0.2,1-0.3,1.6-0.5c0,0.2,0.1,0.3,0.2,0.5
			c-0.7,0.4-1,0.7-1,1c0,0.1,0.1,0.4,0.4,0.9c0,0.2-0.2,0.3-0.6,0.3c-0.7,0.1-1.2,0.2-1.5,0.4c-0.3,0.1-0.5,0.3-0.8,0.7
			c-0.2,0.3-0.5,0.4-1,0.3c-0.2-0.1-1-0.1-2.3-0.1C6.8,6.7,6,7,6,7.5C7.8,8.2,8.6,8.6,8.6,8.7L8.6,8.7z M3.3,6.7
			c0.9,0.2,1.5,0.1,1.6-0.5C4.3,6.3,3.8,6.5,3.3,6.7z"/>
		<path fill-rule="evenodd" clip-rule="evenodd" fill="#B22A2A" d="M8.6,8.7c-1-0.1-2-0.2-2.9-0.4c-4-0.6-5.4-1.2-4.1-1.9
			c2.5-1.1,5.2-1.5,8.2-1.3c0.7,0.1,1.2-0.2,1.6-0.8c0.5-0.7,1.1-1.1,1.8-1.4c0.5-0.2,1-0.3,1.6-0.5c0,0.2,0.1,0.3,0.2,0.5
			c-0.7,0.4-1,0.7-1,1c0,0.1,0.1,0.4,0.4,0.9c0,0.2-0.2,0.3-0.6,0.3c-0.7,0.1-1.2,0.2-1.5,0.4c-0.3,0.1-0.5,0.3-0.8,0.7
			c-0.2,0.3-0.5,0.4-1,0.3c-0.2-0.1-1-0.1-2.3-0.1C6.8,6.7,6,7,6,7.5C7.8,8.2,8.6,8.6,8.6,8.7L8.6,8.7z M3.3,6.7
			c0.9,0.2,1.5,0.1,1.6-0.5C4.3,6.3,3.8,6.5,3.3,6.7z"/>
		<path fill-rule="evenodd" clip-rule="evenodd" fill="#CB3C4A" d="M15.4,5.6c0.1-0.2,0.2-0.3,0.4-0.3c0.4-0.1,0.7,0,1,0.3
			C16.4,6,16,6,15.4,5.6L15.4,5.6z M3.3,6.7c0.5-0.1,1-0.3,1.6-0.5C4.8,6.7,4.2,6.9,3.3,6.7z"/>
		<path fill-rule="evenodd" clip-rule="evenodd" fill="#CB3C4A" d="M15.4,5.6c0.1-0.2,0.2-0.3,0.4-0.3c0.4-0.1,0.7,0,1,0.3
			C16.4,6,16,6,15.4,5.6L15.4,5.6z M3.3,6.7c0.5-0.1,1-0.3,1.6-0.5C4.8,6.7,4.2,6.9,3.3,6.7z"/>
		<path fill-rule="evenodd" clip-rule="evenodd" fill="#A94B51" d="M31.5,2.8c-0.1,0.4-0.7,0.3-1.8,0L31.5,2.8z"/>
		<path fill-rule="evenodd" clip-rule="evenodd" fill="#A94B51" d="M31.5,2.8c-0.1,0.4-0.7,0.3-1.8,0L31.5,2.8z"/>
		<path fill-rule="evenodd" clip-rule="evenodd" fill="#931323" d="M34.2,3.3L34.2,3.3c-1.3,0.3-2,0.5-2.5,0.5
			c-0.2,0-0.6-0.1-1.1-0.3c-0.5-0.2-0.9-0.4-1.3-0.4l-3.1,0.3l-1.7-0.1c-0.4,0-0.9,0-1.4-0.1c-0.5-0.1-1-0.2-1.4-0.2
			c-0.7,0-1.1,0-1.1,0c-0.2,0.1-0.4,0.3-0.5,0.8l0.5,0c-0.1,0.3-0.2,0.5-0.3,0.6c-0.2,0.3-0.6,0.4-1.1,0.4l-0.4,0
			c-0.4-0.2-0.9-0.4-1.6-0.7c-1.1-0.4-1.8-0.8-2.1-1.2c-0.1-0.1-0.2-0.3-0.2-0.5c1.6-0.4,3.2-0.7,4.9-0.8c4.1-0.2,8.2-0.3,12.3-0.3
			c0.6,0,1.5,0,2.6,0.1c0.1,0,0.2,0,0.3,0c-0.3,0.1-0.6,0.2-1,0.3c-1,0.3-1.5,0.5-1.7,0.7v0.3c0.3-0.1,0.7-0.1,1.2,0
			C33.9,3,34.2,3.1,34.2,3.3z M25.8,2.3c-0.1,0-0.2,0-0.3,0c-0.1,0-0.2,0-0.2,0.2c0,0,0,0.1,0,0.1c0,0.2,0.3,0.3,0.8,0.3
			c0.1,0,0.6-0.2,1.6-0.7c0-0.2-0.1-0.3-0.3-0.3c-0.2,0-0.3,0-0.4,0c-0.3,0-0.6,0-0.8,0.1C26.1,2.1,25.9,2.2,25.8,2.3z M31.5,2.8
			l-1.8,0C30.8,3.2,31.4,3.2,31.5,2.8z"/>
		<path fill-rule="evenodd" clip-rule="evenodd" fill="#931323" d="M34.2,3.3L34.2,3.3c-1.3,0.3-2,0.5-2.5,0.5
			c-0.2,0-0.6-0.1-1.1-0.3c-0.5-0.2-0.9-0.4-1.3-0.4l-3.1,0.3l-1.7-0.1c-0.4,0-0.9,0-1.4-0.1c-0.5-0.1-1-0.2-1.4-0.2
			c-0.7,0-1.1,0-1.1,0c-0.2,0.1-0.4,0.3-0.5,0.8l0.5,0c-0.1,0.3-0.2,0.5-0.3,0.6c-0.2,0.3-0.6,0.4-1.1,0.4l-0.4,0
			c-0.4-0.2-0.9-0.4-1.6-0.7c-1.1-0.4-1.8-0.8-2.1-1.2c-0.1-0.1-0.2-0.3-0.2-0.5c1.6-0.4,3.2-0.7,4.9-0.8c4.1-0.2,8.2-0.3,12.3-0.3
			c0.6,0,1.5,0,2.6,0.1c0.1,0,0.2,0,0.3,0c-0.3,0.1-0.6,0.2-1,0.3c-1,0.3-1.5,0.5-1.7,0.7v0.3c0.3-0.1,0.7-0.1,1.2,0
			C33.9,3,34.2,3.1,34.2,3.3z M25.8,2.3c-0.1,0-0.2,0-0.3,0c-0.1,0-0.2,0-0.2,0.2c0,0,0,0.1,0,0.1c0,0.2,0.3,0.3,0.8,0.3
			c0.1,0,0.6-0.2,1.6-0.7c0-0.2-0.1-0.3-0.3-0.3c-0.2,0-0.3,0-0.4,0c-0.3,0-0.6,0-0.8,0.1C26.1,2.1,25.9,2.2,25.8,2.3z M31.5,2.8
			l-1.8,0C30.8,3.2,31.4,3.2,31.5,2.8z"/>
		<path fill-rule="evenodd" clip-rule="evenodd" fill="#713E46" d="M25.7,8.3c0.3,0,0.6,0,0.8-0.1c0.2,0,0.5,0,0.7,0
			c0.1,0,0.2,0,0.3,0c0.1,0,0.2,0,0.3,0c1.3-0.1,2.6-0.2,4-0.3c0.1,0,0.2,0,0.2,0c1-0.1,2-0.3,3-0.4c0,0,0.1,0,0.1,0
			c0.3,0,0.6-0.1,0.8-0.1c0.1,0.5-0.4,0.9-1.4,1c-1.6,0.2-3.1,0.4-4.7,0.5c-0.3,0-0.7,0.1-1,0.3c-0.6,0.2-1.1,0.2-1.5,0
			c0.7,0,1.4-0.2,2-0.5c0,0-0.1,0-0.1,0c-0.4,0-0.7,0-1,0c-1.9,0.2-3.8,0.3-5.8,0.2c0.8-0.1,1.7-0.2,2.5-0.3c0.4,0,0.8-0.1,1.2-0.2
			C25.9,8.3,25.8,8.3,25.7,8.3z"/>
		<path fill-rule="evenodd" clip-rule="evenodd" fill="#713E46" d="M25.7,8.3c0.3,0,0.6,0,0.8-0.1c0.2,0,0.5,0,0.7,0
			c0.1,0,0.2,0,0.3,0c0.1,0,0.2,0,0.3,0c1.3-0.1,2.6-0.2,4-0.3c0.1,0,0.2,0,0.2,0c1-0.1,2-0.3,3-0.4c0,0,0.1,0,0.1,0
			c0.3,0,0.6-0.1,0.8-0.1c0.1,0.5-0.4,0.9-1.4,1c-1.6,0.2-3.1,0.4-4.7,0.5c-0.3,0-0.7,0.1-1,0.3c-0.6,0.2-1.1,0.2-1.5,0
			c0.7,0,1.4-0.2,2-0.5c0,0-0.1,0-0.1,0c-0.4,0-0.7,0-1,0c-1.9,0.2-3.8,0.3-5.8,0.2c0.8-0.1,1.7-0.2,2.5-0.3c0.4,0,0.8-0.1,1.2-0.2
			C25.9,8.3,25.8,8.3,25.7,8.3z"/>
	</g>
</g>
</svg>
