<?xml version="1.0" encoding="utf-8"?>
<!-- Generator: Adobe Illustrator 16.0.0, SVG Export Plug-In . SVG Version: 6.00 Build 0)  -->
<!DOCTYPE svg PUBLIC "-//W3C//DTD SVG 1.1//EN" "http://www.w3.org/Graphics/SVG/1.1/DTD/svg11.dtd">
<svg version="1.1" id="Layer_2" xmlns="http://www.w3.org/2000/svg" xmlns:xlink="http://www.w3.org/1999/xlink" x="0px" y="0px"
	 width="700px" height="700px" viewBox="0 0 700 700" enable-background="new 0 0 700 700" xml:space="preserve">
<path opacity="0.6" fill="#7D6022" enable-background="new    " d="M321.7,43.5v2.8v7.1V69v5.5v6.2V114l0,0v11.8v192.5v1.1
	c0,0.3,0,0.5,0,0.8v2.3l0,0c0.1,2.7,0.2,5.3,0.4,7.8c0.2,3.5,1.4,7.4,3.6,11.9c0.2,0.4,0.3,0.7,0.5,1l2.5,6.9
	c0.1,0.3,0.2,0.6,0.2,0.9l1.3,73c3.7,1.6,7,1.6,10,0c-0.2-2.5-0.2-14.8,0-37c0.2-22.8,0.4-34.8,0.8-36c0.7-2.9,1.8-5.9,3.3-8.9
	c2.2-4.5,3.4-8.4,3.7-11.9c0.2-2.5,0.3-5.1,0.4-7.8h0.1v-3v-1.1V125.8V114l0,0V80.8v-6.2V69V53.4v-7.1v-2.8H321.7z"/>
</svg>
