<?xml version="1.0" encoding="utf-8"?>
<!-- Generator: Adobe Illustrator 16.0.0, SVG Export Plug-In . SVG Version: 6.00 Build 0)  -->
<!DOCTYPE svg PUBLIC "-//W3C//DTD SVG 1.1//EN" "http://www.w3.org/Graphics/SVG/1.1/DTD/svg11.dtd">
<svg version="1.1" xmlns="http://www.w3.org/2000/svg" xmlns:xlink="http://www.w3.org/1999/xlink" x="0px" y="0px" width="700px"
	 height="700px" viewBox="0 0 700 700" enable-background="new 0 0 700 700" xml:space="preserve">
<g id="Layer_1">
</g>
<g id="Layer_2">
	<g opacity="0.6">
		<g>
			<path fill-rule="evenodd" clip-rule="evenodd" fill="#6DB1D6" d="M323,399.2c6.7-0.5,14.6-0.5,23.5,0v25.3l0.1,0.2
				c-0.2,2.9,0.6,6,2.4,9.3l32.4,67.8c0,0.1,0,0.1,0,0.2c0.4,2.6,0.3,5-0.4,7.1c-2.1,6.5-9,10.6-20.8,12.4
				c-21.3,3.6-39.8,3.3-55.7-0.9c-0.1,0-0.2,0-0.3,0c-0.3-0.1-0.5-0.1-0.7-0.1c-7.8-2.2-12.5-6-14.3-11.4c-0.8-2.3-1.1-5-0.7-7.8
				c0,0,0-0.1,0-0.2l32.5-66.5c1.5-3.5,2.2-6.7,2.1-9.7V399.2z"/>
		</g>
	</g>
</g>
</svg>
