<?xml version="1.0" encoding="utf-8"?>
<!-- Generator: Adobe Illustrator 16.0.0, SVG Export Plug-In . SVG Version: 6.00 Build 0)  -->
<!DOCTYPE svg PUBLIC "-//W3C//DTD SVG 1.1//EN" "http://www.w3.org/Graphics/SVG/1.1/DTD/svg11.dtd">
<svg version="1.1" id="Layer_1" xmlns="http://www.w3.org/2000/svg" xmlns:xlink="http://www.w3.org/1999/xlink" x="0px" y="0px"
	 width="700px" height="700px" viewBox="0 0 700 700" enable-background="new 0 0 700 700" xml:space="preserve">
<symbol  id="screw" viewBox="-2.2 -2.9 4.5 4.5">
	<path fill-rule="evenodd" clip-rule="evenodd" fill="#333333" d="M1.6,1C2,0.5,2.3,0,2.3-0.6S2-1.8,1.6-2.2C1.2-2.6,0.7-2.9,0-2.9
		s-1.2,0.2-1.6,0.6C-2-1.8-2.2-1.3-2.2-0.6S-2,0.5-1.5,1C-1.3,1.2-1,1.4-0.6,1.5c0,0,0.1,0,0.1,0C-0.3,1.6-0.1,1.6,0,1.6
		C0.7,1.6,1.2,1.4,1.6,1z"/>
</symbol>
<g id="Layer_2">
	<g>
		
			<use xlink:href="#screw"  width="4.5" height="4.5" x="-2.2" y="-2.9" transform="matrix(-0.5838 0 0 -0.4564 419.75 663.25)" overflow="visible"/>
		<g>
			<polygon fill-rule="evenodd" clip-rule="evenodd" fill-opacity="0.8941" points="218,676.2 223,651.4 480.3,651.4 490,676 
				489.9,676.2 			"/>
		</g>
		<g>
			<g>
				
					<linearGradient id="SVGID_1_" gradientUnits="userSpaceOnUse" x1="-818.2017" y1="-489.6543" x2="-713.6985" y2="-489.6543" gradientTransform="matrix(-0.939 -0.344 0.7263 -0.7989 3.933907e-004 3.880262e-004)">
					<stop  offset="0" style="stop-color:#7B4412"/>
					<stop  offset="1" style="stop-color:#AD6B2C"/>
				</linearGradient>
				<path fill-rule="evenodd" clip-rule="evenodd" fill="url(#SVGID_1_)" d="M487.3,663.2l-64.2-0.4l-63,0.2v0l-141.5,0.2l7.1-30.4
					c0.1-0.1,0.1-0.2,0.2-0.3h245.5l3,6.3L487.3,663.2z"/>
				<polygon fill-rule="evenodd" clip-rule="evenodd" fill="#5B2309" points="487.3,663.2 487.3,671.5 481.5,671.5 471.2,671.5 
					239.3,671.5 228.9,671.5 218.5,671.5 218.5,663.2 360,663 360,663 423,662.8 				"/>
				<path fill-rule="evenodd" clip-rule="evenodd" fill="#5B280F" d="M239.3,671.5l-0.9,1.6H230l-1.2-1.6H239.3z M471.2,671.5h10.3
					l-0.8,1.6h-8.3L471.2,671.5z"/>
			</g>
		</g>
	</g>
	<g>
		<g>
			<path fill-rule="evenodd" clip-rule="evenodd" d="M439.8,645.8c1.4-0.6,3.2-0.8,5.2-0.8c2,0,3.7,0.3,5.2,0.8s2.1,1.3,2.1,2
				s-0.7,1.5-2.1,2c-1.4,0.6-3.2,0.9-5.2,0.9c-2,0-3.8-0.3-5.2-0.9c-1.4-0.6-2.1-1.3-2.1-2S438.5,646.3,439.8,645.8z"/>
		</g>
		<g>
			<g>
				
					<linearGradient id="SVGID_2_" gradientUnits="userSpaceOnUse" x1="-455.1499" y1="-17.3501" x2="-435.5499" y2="-17.3501" gradientTransform="matrix(-1 0 0 -1 0 0)">
					<stop  offset="0" style="stop-color:#9BADAF"/>
					<stop  offset="0.5098" style="stop-color:#FBF6FC"/>
					<stop  offset="0.7451" style="stop-color:#A3A9A9"/>
					<stop  offset="0.9176" style="stop-color:#E4E7E6"/>
				</linearGradient>
				<path fill-rule="evenodd" clip-rule="evenodd" fill="url(#SVGID_2_)" d="M449.5,19c-2.6,0.2-5.3,0.2-7.8,0v0
					c-2.1,0-4.1-0.1-6.1-0.3v-3.2c1.4,0.1,2.9,0.2,4.4,0.3c3.6,0.2,7.1,0.2,10.6,0h0.8c1.3-0.1,2.5-0.1,3.8-0.3v3.2
					C453.2,18.8,451.4,18.9,449.5,19z"/>
				
					<linearGradient id="SVGID_3_" gradientUnits="userSpaceOnUse" x1="-452.375" y1="-13.4502" x2="-439.525" y2="-13.4502" gradientTransform="matrix(-1 0 0 -1 0 0)">
					<stop  offset="0" style="stop-color:#56422A"/>
					<stop  offset="0.3608" style="stop-color:#FBF6FC"/>
					<stop  offset="0.7529" style="stop-color:#726151"/>
					<stop  offset="0.8784" style="stop-color:#9F958A"/>
					<stop  offset="1" style="stop-color:#363636"/>
				</linearGradient>
				<path fill-rule="evenodd" clip-rule="evenodd" fill="url(#SVGID_3_)" d="M451.3,15.8h-0.8c-3.5,0.2-7,0.2-10.6,0V11
					c3.5,0.2,7.3,0.2,11.3,0V15.8z"/>
				
					<linearGradient id="SVGID_4_" gradientUnits="userSpaceOnUse" x1="-449.5127" y1="-61.2129" x2="-441.5877" y2="-61.2129" gradientTransform="matrix(-1 0 0 -1 0 0)">
					<stop  offset="0" style="stop-color:#56422A"/>
					<stop  offset="0.2078" style="stop-color:#422515"/>
					<stop  offset="0.4078" style="stop-color:#584131"/>
					<stop  offset="0.5882" style="stop-color:#FBF6FC"/>
					<stop  offset="0.7294" style="stop-color:#726151"/>
					<stop  offset="1" style="stop-color:#F0D8AC"/>
				</linearGradient>
				<path fill-rule="evenodd" clip-rule="evenodd" fill="url(#SVGID_4_)" d="M449.5,103.4c-2.6,0.1-5.2,0.1-7.8,0V19v0
					c2.6,0.2,5.2,0.2,7.8,0V103.4z"/>
				
					<linearGradient id="SVGID_5_" gradientUnits="userSpaceOnUse" x1="-455.1499" y1="-109.5391" x2="-435.5499" y2="-109.5391" gradientTransform="matrix(-1 0 0 -1 0 0)">
					<stop  offset="0" style="stop-color:#9BADAF"/>
					<stop  offset="0.5098" style="stop-color:#FBF6FC"/>
					<stop  offset="0.7451" style="stop-color:#A3A9A9"/>
					<stop  offset="0.9176" style="stop-color:#E4E7E6"/>
				</linearGradient>
				<path fill-rule="evenodd" clip-rule="evenodd" fill="url(#SVGID_5_)" d="M441.7,103.4c2.7,0.1,5.3,0.1,7.8,0c0.4,0,0.7,0,1-0.1
					h0.8c0.2,0,0.4,0,0.5,0c1.1-0.1,2.2-0.1,3.3-0.1v2.8v0.4v9.3c-1.3,0.1-2.4,0.2-3.3,0.2c-0.4,0-0.8,0-1.1,0
					c-3.6,0.3-7.2,0.3-10.8,0.1c-0.5-0.1-0.9-0.1-1.4-0.1c-0.9,0-1.9-0.1-3-0.2v-9.3v-0.4v-2.8c1,0,2,0,3,0c0.5,0.1,0.9,0.1,1.4,0.1
					C440.5,103.3,441.1,103.4,441.7,103.4z"/>
				
					<linearGradient id="SVGID_6_" gradientUnits="userSpaceOnUse" x1="-451.8623" y1="-382.7749" x2="-438.5373" y2="-382.7749" gradientTransform="matrix(-1 0 0 -1 0 0)">
					<stop  offset="0" style="stop-color:#56422A"/>
					<stop  offset="0.2078" style="stop-color:#422515"/>
					<stop  offset="0.4078" style="stop-color:#584131"/>
					<stop  offset="0.5882" style="stop-color:#FBF6FC"/>
					<stop  offset="0.7294" style="stop-color:#726151"/>
					<stop  offset="1" style="stop-color:#F0D8AC"/>
				</linearGradient>
				<path fill-rule="evenodd" clip-rule="evenodd" fill="url(#SVGID_6_)" d="M438.5,115.8c0.5,0,0.9,0,1.4,0.1
					c3.5,0.2,7.1,0.2,10.8-0.1c0.3,0,0.7,0,1.1,0v531.4c0,0.7-0.7,1.3-2,1.8c-1.3,0.5-2.9,0.8-4.7,0.8c-1.9,0-3.5-0.3-4.8-0.8
					c-1.1-0.4-1.7-0.9-1.9-1.5v-0.7V115.8z"/>
			</g>
		</g>
	</g>
</g>
<g>
	<g>
		<path fill-rule="evenodd" clip-rule="evenodd" fill-opacity="0.302" d="M306.5,647.3C306.5,647.3,306.5,647.2,306.5,647.3
			c0.2-1.6,3.2-3,9-4c6-1.1,13.3-1.7,21.8-1.7c8.5,0,15.8,0.6,21.8,1.7c5.8,1.1,8.9,2.4,9,4v0.1c-0.1,1.3-2.1,2.4-6.1,3.4
			c-0.6,0.1-1.3,0.3-2,0.5c-0.3,0.1-0.6,0.1-1,0.1c-6,1.1-13.3,1.7-21.8,1.7c-8.5,0-15.8-0.6-21.8-1.7c-0.3,0-0.6-0.1-0.9-0.1
			c-0.7-0.2-1.4-0.3-2-0.5C308.6,649.7,306.5,648.6,306.5,647.3L306.5,647.3z"/>
	</g>
	<g>
		<g>
			<g>
				
					<linearGradient id="SVGID_7_" gradientUnits="userSpaceOnUse" x1="230.9316" y1="688.6602" x2="286.1476" y2="688.6602" gradientTransform="matrix(0.9848 -0.1739 0.1187 0.9945 2.209246e-004 -6.738305e-005)">
					<stop  offset="0" style="stop-color:#B2B0B3"/>
					<stop  offset="1" style="stop-color:#313031"/>
					<stop  offset="1" style="stop-color:#000000"/>
				</linearGradient>
				<path fill-rule="evenodd" clip-rule="evenodd" fill="url(#SVGID_7_)" d="M308.5,640L308.5,640c0-0.1,0-0.1,0-0.2
					c0.2-1.4,2.9-2.5,8.1-3.5c5.4-1,12-1.5,19.7-1.5c7.7,0,14.2,0.5,19.6,1.5c5.3,1,8,2.2,8.2,3.5v0.2c-0.1,1.1-1.9,2.1-5.6,3
					c-0.6,0.1-1.1,0.3-1.8,0.4c-0.3,0.1-0.5,0.1-0.8,0.1c-5.4,1-12,1.5-19.6,1.5c-7.7,0-14.3-0.5-19.7-1.5c-0.3,0-0.5-0.1-0.8-0.1
					c-0.6-0.1-1.2-0.3-1.8-0.4C310.5,642.1,308.6,641.1,308.5,640z"/>
				<linearGradient id="SVGID_8_" gradientUnits="userSpaceOnUse" x1="364.168" y1="645.4678" x2="308.593" y2="645.6455">
					<stop  offset="0" style="stop-color:#17161B"/>
					<stop  offset="7.843138e-002" style="stop-color:#8C8A8D"/>
					<stop  offset="0.1098" style="stop-color:#444345"/>
					<stop  offset="0.2275" style="stop-color:#9F9DA0"/>
					<stop  offset="0.3373" style="stop-color:#FCFAFA"/>
					<stop  offset="0.4627" style="stop-color:#747373"/>
					<stop  offset="0.4627" style="stop-color:#747373"/>
					<stop  offset="0.6784" style="stop-color:#2F2F2F"/>
					<stop  offset="0.8353" style="stop-color:#FFFFFF"/>
					<stop  offset="1" style="stop-color:#000000"/>
				</linearGradient>
				<path fill-rule="evenodd" clip-rule="evenodd" fill="url(#SVGID_8_)" d="M364.2,640v6v0.2c-0.1,1.3-2.5,2.5-7.3,3.4
					c-0.3,0.1-0.5,0.1-0.8,0.2c-5.4,1-12,1.5-19.6,1.5c-7.7,0-14.3-0.5-19.7-1.5c-0.3,0-0.5-0.1-0.8-0.2c-4.8-0.9-7.3-2.1-7.4-3.4
					v-0.1c0,0,0-0.1,0-0.1v-6c0.1,1.1,2,2.1,5.6,3c0.6,0.1,1.2,0.3,1.8,0.4c0.2,0.1,0.5,0.1,0.8,0.1c5.4,1,12,1.5,19.7,1.5
					c7.7,0,14.2-0.5,19.6-1.5c0.3,0,0.6-0.1,0.8-0.1c0.6-0.1,1.2-0.3,1.8-0.4C362.2,642.1,364.1,641.1,364.2,640z"/>
			</g>
		</g>
	</g>
	<g>
		<g>
			<g>
				<linearGradient id="SVGID_9_" gradientUnits="userSpaceOnUse" x1="353.2432" y1="639.043" x2="319.4682" y2="639.1855">
					<stop  offset="0" style="stop-color:#17161B"/>
					<stop  offset="7.843138e-002" style="stop-color:#8C8A8D"/>
					<stop  offset="0.1098" style="stop-color:#444345"/>
					<stop  offset="0.2275" style="stop-color:#9F9DA0"/>
					<stop  offset="0.3373" style="stop-color:#FCFAFA"/>
					<stop  offset="0.4627" style="stop-color:#747373"/>
					<stop  offset="0.4627" style="stop-color:#747373"/>
					<stop  offset="0.6784" style="stop-color:#2F2F2F"/>
					<stop  offset="0.8353" style="stop-color:#FFFFFF"/>
					<stop  offset="1" style="stop-color:#000000"/>
				</linearGradient>
				<path fill-rule="evenodd" clip-rule="evenodd" fill="url(#SVGID_9_)" d="M319.5,635.3c0.1,0.8,1.2,1.5,3.4,2
					c0.3,0.1,0.7,0.2,1.1,0.3c0.1,0,0.2,0.1,0.4,0.1c3.3,0.7,7.3,1,12,1c4.7,0,8.6-0.3,11.9-1c0.2,0,0.4-0.1,0.5-0.1
					c0.4-0.1,0.8-0.2,1.1-0.3c2.2-0.6,3.3-1.3,3.4-2v4.2v0.1c-0.1,0.9-1.6,1.7-4.5,2.3c-0.1,0.1-0.3,0.1-0.5,0.2
					c-3.3,0.7-7.3,1-11.9,1c-4.6,0-8.6-0.3-12-1c-0.2,0-0.3-0.1-0.4-0.2c-3-0.6-4.5-1.4-4.5-2.3V635.3z"/>
				
					<linearGradient id="SVGID_10_" gradientUnits="userSpaceOnUse" x1="250.4653" y1="688.874" x2="284.1434" y2="688.874" gradientTransform="matrix(0.9806 -0.196 0.1077 0.9982 -8.057058e-005 -3.919005e-005)">
					<stop  offset="0" style="stop-color:#B2B0B3"/>
					<stop  offset="1" style="stop-color:#313031"/>
					<stop  offset="1" style="stop-color:#000000"/>
				</linearGradient>
				<path fill-rule="evenodd" clip-rule="evenodd" fill="url(#SVGID_10_)" d="M353.3,635.3c-0.1,0.8-1.2,1.5-3.4,2
					c-0.3,0.1-0.7,0.2-1.1,0.3c-0.1,0-0.3,0.1-0.5,0.1c-3.3,0.7-7.3,1-11.9,1c-4.6,0-8.6-0.3-12-1c-0.2,0-0.3-0.1-0.4-0.1
					c-0.4-0.1-0.8-0.2-1.1-0.3c-2.2-0.6-3.4-1.3-3.4-2c0,0,0-0.1,0-0.1c0.1-0.9,1.8-1.7,4.9-2.4c3.3-0.7,7.3-1,12-1
					c4.7,0,8.6,0.3,11.9,1C351.5,633.5,353.2,634.3,353.3,635.3L353.3,635.3z"/>
			</g>
		</g>
	</g>
	<g>
		
			<radialGradient id="SVGID_11_" cx="360.6777" cy="615.2852" r="4.748" gradientTransform="matrix(0.9978 6.582002e-002 -1.316401e-002 0.2791 -20.896 442.9975)" gradientUnits="userSpaceOnUse">
			<stop  offset="0" style="stop-color:#FFFFFF"/>
			<stop  offset="0.1765" style="stop-color:#FFFFFF"/>
			<stop  offset="0.3059" style="stop-color:#FFFFFF;stop-opacity:0.4235"/>
			<stop  offset="0.4902" style="stop-color:#FFFFFF;stop-opacity:0.2314"/>
			<stop  offset="0.651" style="stop-color:#FFFFFF;stop-opacity:8.235294e-002"/>
			<stop  offset="1" style="stop-color:#FFFFFF;stop-opacity:0"/>
		</radialGradient>
		<path fill-rule="evenodd" clip-rule="evenodd" fill="url(#SVGID_11_)" d="M334.3,637.8c0.9,0.3,1.4,0.6,1.4,1
			c0,0.4-0.5,0.7-1.5,0.8c-0.9,0.2-2,0.3-3.3,0.2c-1.3-0.1-2.4-0.3-3.3-0.5c-0.8-0.4-1.2-0.7-1.2-1.1c0-0.3,0.4-0.6,1.3-0.8
			c0.9-0.2,2.1-0.3,3.4-0.2C332.2,637.3,333.3,637.5,334.3,637.8z"/>
	</g>
	<g>
		
			<radialGradient id="SVGID_12_" cx="325.5059" cy="641.0664" r="4.9376" gradientTransform="matrix(1 5.063226e-003 2.531613e-003 0.3063 3.6755 444.7268)" gradientUnits="userSpaceOnUse">
			<stop  offset="0" style="stop-color:#FFFFFF"/>
			<stop  offset="0.1765" style="stop-color:#FFFFFF"/>
			<stop  offset="0.3059" style="stop-color:#FFFFFF;stop-opacity:0.4235"/>
			<stop  offset="0.4902" style="stop-color:#FFFFFF;stop-opacity:0.2314"/>
			<stop  offset="0.651" style="stop-color:#FFFFFF;stop-opacity:8.235294e-002"/>
			<stop  offset="1" style="stop-color:#FFFFFF;stop-opacity:0"/>
		</radialGradient>
		<path fill-rule="evenodd" clip-rule="evenodd" fill="url(#SVGID_12_)" d="M334.3,641.8c0.9,0.3,1.4,0.6,1.5,1c0,0.4-0.5,0.8-1.5,1
			c-1,0.3-2.2,0.4-3.5,0.5c-1.3,0-2.4-0.2-3.4-0.5c-0.9-0.3-1.4-0.6-1.4-1c0-0.4,0.4-0.8,1.3-1c1-0.3,2.1-0.4,3.4-0.4
			C332.1,641.3,333.3,641.4,334.3,641.8z"/>
	</g>
	<g>
		<g>
			
				<linearGradient id="SVGID_13_" gradientUnits="userSpaceOnUse" x1="637.4561" y1="-343.2188" x2="642.3321" y2="-343.2188" gradientTransform="matrix(2.050851e-002 0.9998 -0.9995 3.606337e-002 -2.134293e-004 2.097934e-004)">
				<stop  offset="0" style="stop-color:#333333"/>
				<stop  offset="0.2745" style="stop-color:#B3B3B3"/>
				<stop  offset="0.6" style="stop-color:#48403B"/>
				<stop  offset="0.7608" style="stop-color:#8C8782"/>
				<stop  offset="1" style="stop-color:#0B0B0A"/>
			</linearGradient>
			<path fill-rule="evenodd" clip-rule="evenodd" fill="url(#SVGID_13_)" d="M353,630.9L353,630.9c0.3-0.2,0.6-0.5,0.8-1
				c0.2-0.5,0.3-1.1,0.2-1.8c-0.1-0.7-0.3-1.3-0.6-1.7c-0.2-0.4-0.4-0.5-0.7-0.5l5.6-0.3c0.2,0.1,0.5,0.3,0.7,0.5
				c0.3,0.5,0.5,1.1,0.5,1.8c0,0.4,0,0.7,0,1c0,0.3-0.1,0.5-0.2,0.8c-0.1,0.5-0.3,0.8-0.6,0.9L353,630.9z"/>
			
				<linearGradient id="SVGID_14_" gradientUnits="userSpaceOnUse" x1="610.1826" y1="-391.1943" x2="615.0668" y2="-391.1943" gradientTransform="matrix(-6.142227e-002 0.9981 -0.9992 -4.344426e-002 1.631156e-004 2.278313e-004)">
				<stop  offset="0" style="stop-color:#FFFFFF"/>
				<stop  offset="0.3098" style="stop-color:#B7B7B7"/>
				<stop  offset="0.4627" style="stop-color:#AEAEAE"/>
				<stop  offset="1" style="stop-color:#000000"/>
			</linearGradient>
			<path fill-rule="evenodd" clip-rule="evenodd" fill="url(#SVGID_14_)" d="M353,630.9L353,630.9c-0.1,0-0.2,0-0.3-0.1
				c0.4-0.1,0.6-0.4,0.8-0.8c0.2-0.6,0.2-1.2,0.2-1.8c-0.1-0.6-0.3-1.2-0.6-1.7c-0.1-0.1-0.3-0.3-0.5-0.5h0.2c0.2,0,0.5,0.2,0.7,0.5
				c0.3,0.4,0.5,1,0.6,1.7c0.1,0.7,0,1.3-0.2,1.8C353.7,630.4,353.4,630.7,353,630.9L353,630.9z"/>
			
				<linearGradient id="SVGID_15_" gradientUnits="userSpaceOnUse" x1="610.2939" y1="-389.1709" x2="614.5513" y2="-389.1709" gradientTransform="matrix(-5.872202e-002 0.9983 -0.9991 -4.391847e-002 8.296221e-005 0)">
				<stop  offset="0" style="stop-color:#312E2A"/>
				<stop  offset="0.3333" style="stop-color:#6B6666"/>
				<stop  offset="1" style="stop-color:#000000"/>
			</linearGradient>
			<path fill-rule="evenodd" clip-rule="evenodd" fill="url(#SVGID_15_)" d="M352.6,625.9c0.2,0.2,0.4,0.4,0.5,0.5
				c0.3,0.5,0.5,1.1,0.6,1.7c0.1,0.7,0,1.3-0.2,1.8c-0.1,0.4-0.4,0.7-0.8,0.8l0,0c0.2-0.1,0.3-0.4,0.5-0.8c0.2-0.5,0.3-1.2,0.1-1.9
				c-0.1-0.7-0.3-1.2-0.5-1.7c-0.2-0.3-0.4-0.5-0.5-0.5H352.6z"/>
			
				<linearGradient id="SVGID_16_" gradientUnits="userSpaceOnUse" x1="636.3018" y1="-343.2783" x2="641.1773" y2="-343.2783" gradientTransform="matrix(1.538280e-002 0.9999 -0.9996 3.091678e-002 4.699510e-004 9.286776e-005)">
				<stop  offset="0" style="stop-color:#333333"/>
				<stop  offset="0.1059" style="stop-color:#6B6A67"/>
				<stop  offset="0.2196" style="stop-color:#FFFFFF"/>
				<stop  offset="0.2863" style="stop-color:#FFFFFF"/>
				<stop  offset="0.3804" style="stop-color:#837878"/>
				<stop  offset="0.502" style="stop-color:#312E2A"/>
				<stop  offset="0.6" style="stop-color:#48403B"/>
				<stop  offset="0.7608" style="stop-color:#8C8782"/>
				<stop  offset="1" style="stop-color:#0B0B0A"/>
			</linearGradient>
			<polygon fill-rule="evenodd" clip-rule="evenodd" fill="url(#SVGID_16_)" points="353,630.9 353,630.8 353,630.9 			"/>
		</g>
		<g>
			
				<linearGradient id="SVGID_17_" gradientUnits="userSpaceOnUse" x1="653.0684" y1="-241.4751" x2="657.384" y2="-241.4751" gradientTransform="matrix(0.1738 0.9848 -1.0029 7.100330e-002 -4.369915e-004 2.859384e-004)">
				<stop  offset="0" style="stop-color:#AEAEAE"/>
				<stop  offset="0.251" style="stop-color:#FFFFFF"/>
				<stop  offset="0.6627" style="stop-color:#C4C4C4"/>
				<stop  offset="1" style="stop-color:#000000"/>
			</linearGradient>
			<path fill-rule="evenodd" clip-rule="evenodd" fill="url(#SVGID_17_)" d="M358.7,630.5l-5.4,0.3c0.6-1.9,0.4-3.5-0.7-4.8l5.7-0.2
				C359.5,627.1,359.6,628.7,358.7,630.5z"/>
		</g>
		<g>
			
				<linearGradient id="SVGID_18_" gradientUnits="userSpaceOnUse" x1="636.3018" y1="-336.9912" x2="641.1773" y2="-336.9912" gradientTransform="matrix(1.538280e-002 0.9999 -0.9996 3.091678e-002 4.699510e-004 9.286776e-005)">
				<stop  offset="0" style="stop-color:#333333"/>
				<stop  offset="0.1059" style="stop-color:#6B6A67"/>
				<stop  offset="0.2196" style="stop-color:#FFFFFF"/>
				<stop  offset="0.2863" style="stop-color:#FFFFFF"/>
				<stop  offset="0.3804" style="stop-color:#837878"/>
				<stop  offset="0.502" style="stop-color:#312E2A"/>
				<stop  offset="0.6" style="stop-color:#48403B"/>
				<stop  offset="0.7608" style="stop-color:#8C8782"/>
				<stop  offset="1" style="stop-color:#0B0B0A"/>
			</linearGradient>
			<path fill-rule="evenodd" clip-rule="evenodd" fill="url(#SVGID_18_)" d="M352.2,625.9c0.2,0.1,0.3,0.3,0.5,0.5
				c0.3,0.5,0.5,1,0.5,1.7c0.1,0.7,0,1.4-0.1,1.9c-0.1,0.4-0.3,0.6-0.5,0.8l-12.6,0.6l1.7-5.1L352.2,625.9z"/>
		</g>
	</g>
	<g>
		<g>
			<linearGradient id="SVGID_19_" gradientUnits="userSpaceOnUse" x1="327.6499" y1="623.4502" x2="327.6499" y2="633.8502">
				<stop  offset="1.176471e-002" style="stop-color:#9D9385"/>
				<stop  offset="1" style="stop-color:#2E2723"/>
			</linearGradient>
			<path fill-rule="evenodd" clip-rule="evenodd" fill="url(#SVGID_19_)" d="M326.8,622.5c0.4,0.1,0.9,0.3,1.3,0.5
				c0.9,0.4,1.7,1,2.4,1.8c0.9,1.1,1.3,2.5,1.3,4.2v7.5l-8.3-2.1v-8.8c0.1-1.6,0.7-2.7,1.7-3.1H326.8z"/>
			<linearGradient id="SVGID_20_" gradientUnits="userSpaceOnUse" x1="337.8999" y1="625.5791" x2="337.9727" y2="640.2291">
				<stop  offset="0" style="stop-color:#666666"/>
				<stop  offset="0.1804" style="stop-color:#DAD7D3"/>
				<stop  offset="0.2471" style="stop-color:#ECEBE9"/>
				<stop  offset="0.3922" style="stop-color:#514444"/>
				<stop  offset="0.5333" style="stop-color:#9C968F"/>
				<stop  offset="0.5765" style="stop-color:#645A53"/>
				<stop  offset="0.7216" style="stop-color:#363331"/>
				<stop  offset="1" style="stop-color:#0B0B0A"/>
			</linearGradient>
			<path fill-rule="evenodd" clip-rule="evenodd" fill="url(#SVGID_20_)" d="M326.8,622.5l15.8,0c0.4-0.1,0.7-0.1,1.1,0
				c0.5,0.1,1.1,0.2,1.6,0.5c0.9,0.4,1.7,1,2.4,1.8c0.9,1.1,1.3,2.5,1.4,4.2v7.5h-17.2v-7.5c0-1.6-0.5-3-1.3-4.2
				c-0.6-0.8-1.4-1.4-2.4-1.8C327.7,622.8,327.2,622.6,326.8,622.5z"/>
		</g>
	</g>
	<g>
		<path fill-rule="evenodd" clip-rule="evenodd" fill="#100F0F" d="M328.3,631c-0.1,0.5-0.4,0.9-0.8,1l-0.3,0.1
			c-0.3,0-0.5-0.3-0.8-0.6c-0.3-0.5-0.5-1.1-0.7-1.8c-0.1-0.7,0-1.3,0.2-1.9c0.2-0.5,0.4-0.9,0.8-1h0.2c0.3,0,0.5,0.2,0.8,0.5
			c0.3,0.5,0.5,1.1,0.6,1.8C328.5,629.8,328.5,630.5,328.3,631z"/>
	</g>
	<g>
		<g>
			<g>
				<path fill-rule="evenodd" clip-rule="evenodd" fill="#434343" d="M312.6,632.5h-0.3c-0.3,0.1-0.6-0.1-0.8-0.6
					c-0.2-0.4-0.4-1-0.6-1.7c0-0.7,0.1-1.3,0.3-1.8c0.2-0.5,0.5-0.8,0.8-0.9l0.3,0c0.2,0.1,0.5,0.3,0.7,0.5c0.3,0.6,0.5,1.2,0.5,1.8
					c0,0.7,0,1.3-0.2,1.8C313.1,632.1,312.9,632.4,312.6,632.5z"/>
				
					<linearGradient id="SVGID_21_" gradientUnits="userSpaceOnUse" x1="640.3672" y1="-300.7012" x2="645.2445" y2="-300.7012" gradientTransform="matrix(3.075468e-002 0.9995 -0.9992 4.299270e-002 -2.188608e-005 -1.635775e-004)">
					<stop  offset="0" style="stop-color:#333333"/>
					<stop  offset="0.1059" style="stop-color:#6B6A67"/>
					<stop  offset="0.2196" style="stop-color:#FFFFFF"/>
					<stop  offset="0.2863" style="stop-color:#FFFFFF"/>
					<stop  offset="0.3804" style="stop-color:#837878"/>
					<stop  offset="0.502" style="stop-color:#312E2A"/>
					<stop  offset="0.6" style="stop-color:#48403B"/>
					<stop  offset="0.7608" style="stop-color:#8C8782"/>
					<stop  offset="1" style="stop-color:#0B0B0A"/>
				</linearGradient>
				<path fill-rule="evenodd" clip-rule="evenodd" fill="url(#SVGID_21_)" d="M312.3,627.5l14.2-0.5c0.1,0,0.1,0,0.2,0
					c0.1,0,0.3,0,0.4,0.1c0.2,0.1,0.3,0.2,0.4,0.5c0.3,0.5,0.5,1.1,0.5,1.8c0.1,0.7,0.1,1.3-0.1,1.8c-0.2,0.5-0.4,0.8-0.8,0.9
					l-14.5,0.5c0.3-0.1,0.5-0.4,0.6-0.8c0.2-0.5,0.2-1.1,0.2-1.8c-0.1-0.6-0.3-1.2-0.5-1.8C312.8,627.8,312.5,627.6,312.3,627.5z"/>
			</g>
		</g>
		<g>
			<g>
				
					<radialGradient id="SVGID_22_" cx="209.9956" cy="679.4326" r="1.6449" gradientTransform="matrix(0.9803 -0.1976 0.4256 2.5153 -175.7389 -1038.7434)" gradientUnits="userSpaceOnUse">
					<stop  offset="0" style="stop-color:#FFFFFF"/>
					<stop  offset="0.3255" style="stop-color:#7B7171"/>
					<stop  offset="0.698" style="stop-color:#484545"/>
					<stop  offset="1" style="stop-color:#000000"/>
				</radialGradient>
				<path fill-rule="evenodd" clip-rule="evenodd" fill="url(#SVGID_22_)" d="M318.4,627.3c-0.1,0-0.1-0.1-0.1-0.2
					c0.1-0.1,0.2-0.2,0.5-0.3l0.3-0.1c0.2,0.1,0.5,0.3,0.7,0.7c0.3,0.5,0.5,1.2,0.6,1.9c0.1,0.8,0,1.5-0.2,2c-0.2,0.5-0.5,0.9-0.8,1
					h-0.3c-0.1,0-0.3,0-0.4-0.1c0,0-0.1-0.1-0.3-0.1c0.2-0.2,0.4-0.4,0.6-0.7c0.2-0.6,0.3-1.3,0.3-2c-0.1-0.7-0.3-1.4-0.6-1.9
					C318.6,627.5,318.5,627.4,318.4,627.3z"/>
				
					<radialGradient id="SVGID_23_" cx="208.2114" cy="679.126" r="1.6449" gradientTransform="matrix(0.9803 -0.1976 0.4256 2.5153 -175.6596 -1038.2747)" gradientUnits="userSpaceOnUse">
					<stop  offset="0" style="stop-color:#FFFFFF"/>
					<stop  offset="0.3255" style="stop-color:#7B7171"/>
					<stop  offset="0.698" style="stop-color:#484545"/>
					<stop  offset="1" style="stop-color:#000000"/>
				</radialGradient>
				<path fill-rule="evenodd" clip-rule="evenodd" fill="url(#SVGID_23_)" d="M316.5,627.3c0.1-0.1,0.3-0.2,0.5-0.3l0.3,0
					c0.3,0,0.6,0.2,0.8,0.6c0.3,0.5,0.5,1.2,0.6,1.9c0.1,0.8,0,1.5-0.3,2.1c-0.2,0.6-0.4,0.9-0.7,0.9l-0.3,0.1
					c-0.1,0-0.3-0.1-0.4-0.2c0,0-0.1,0-0.3-0.1c0.2-0.2,0.4-0.4,0.5-0.7c0.2-0.6,0.3-1.3,0.2-2c0-0.8-0.2-1.4-0.5-2
					c-0.1-0.2-0.3-0.3-0.4-0.3C316.4,627.5,316.4,627.5,316.5,627.3z"/>
				
					<radialGradient id="SVGID_24_" cx="206.46" cy="678.9268" r="1.6449" gradientTransform="matrix(0.9803 -0.1976 0.4256 2.5153 -175.608 -1037.97)" gradientUnits="userSpaceOnUse">
					<stop  offset="0" style="stop-color:#FFFFFF"/>
					<stop  offset="0.3255" style="stop-color:#7B7171"/>
					<stop  offset="0.698" style="stop-color:#484545"/>
					<stop  offset="1" style="stop-color:#000000"/>
				</radialGradient>
				<path fill-rule="evenodd" clip-rule="evenodd" fill="url(#SVGID_24_)" d="M315.3,627.1l0.3,0.1c0.3,0,0.5,0.2,0.7,0.6
					c0.3,0.5,0.6,1.2,0.7,1.8c0,0.8-0.1,1.5-0.2,2.2c-0.2,0.5-0.5,0.8-0.8,0.9h-0.3c-0.1,0-0.3-0.1-0.4-0.2c0,0-0.1,0-0.2-0.1
					c0.2-0.1,0.4-0.3,0.4-0.7c0.2-0.6,0.3-1.3,0.2-2c0-0.7-0.2-1.3-0.5-1.8c-0.2-0.2-0.3-0.3-0.5-0.4s-0.1-0.1,0-0.1
					C314.9,627.3,315,627.2,315.3,627.1z"/>
				
					<radialGradient id="SVGID_25_" cx="213.6128" cy="680.0557" r="1.6449" gradientTransform="matrix(0.9803 -0.1976 0.4256 2.5153 -175.9 -1039.6959)" gradientUnits="userSpaceOnUse">
					<stop  offset="0" style="stop-color:#FFFFFF"/>
					<stop  offset="0.3255" style="stop-color:#7B7171"/>
					<stop  offset="0.698" style="stop-color:#484545"/>
					<stop  offset="1" style="stop-color:#000000"/>
				</radialGradient>
				<path fill-rule="evenodd" clip-rule="evenodd" fill="url(#SVGID_25_)" d="M322.5,626.8h0.3c0.3,0.1,0.6,0.3,0.8,0.8
					c0.3,0.5,0.5,1.2,0.6,1.9c0.1,0.8,0,1.4-0.1,2c-0.2,0.6-0.5,0.9-0.8,1l-0.3,0.1c-0.2,0-0.3-0.1-0.4-0.2l-0.2-0.1
					c0.2-0.2,0.4-0.4,0.5-0.7c0.2-0.6,0.3-1.3,0.3-2c-0.1-0.7-0.3-1.4-0.7-2c-0.1-0.2-0.2-0.3-0.3-0.3c-0.2,0-0.2,0,0-0.1
					C322.1,627,322.3,626.9,322.5,626.8z"/>
				
					<radialGradient id="SVGID_26_" cx="211.6724" cy="679.7676" r="1.6449" gradientTransform="matrix(0.9803 -0.1976 0.4256 2.5153 -175.8255 -1039.2555)" gradientUnits="userSpaceOnUse">
					<stop  offset="0" style="stop-color:#FFFFFF"/>
					<stop  offset="0.3255" style="stop-color:#7B7171"/>
					<stop  offset="0.698" style="stop-color:#484545"/>
					<stop  offset="1" style="stop-color:#000000"/>
				</radialGradient>
				<path fill-rule="evenodd" clip-rule="evenodd" fill="url(#SVGID_26_)" d="M320.9,626.9c0.2,0,0.4,0.3,0.6,0.6
					c0.4,0.5,0.6,1.2,0.6,2c0.1,0.8,0,1.4-0.2,2c-0.2,0.6-0.5,0.9-0.8,1h-0.3c-0.1,0-0.3-0.1-0.4-0.2c0,0-0.1,0-0.2-0.1
					c0.2-0.1,0.4-0.4,0.5-0.7c0.3-0.6,0.4-1.3,0.3-2c-0.1-0.7-0.3-1.3-0.6-1.8c-0.2-0.2-0.3-0.3-0.5-0.3c-0.1-0.1-0.1-0.1,0-0.1
					c0.1-0.1,0.2-0.2,0.5-0.3L320.9,626.9z"/>
				
					<radialGradient id="SVGID_27_" cx="215.4956" cy="680.3818" r="1.6449" gradientTransform="matrix(0.9803 -0.1976 0.4256 2.5153 -175.9844 -1040.1946)" gradientUnits="userSpaceOnUse">
					<stop  offset="0" style="stop-color:#FFFFFF"/>
					<stop  offset="0.3255" style="stop-color:#7B7171"/>
					<stop  offset="0.698" style="stop-color:#484545"/>
					<stop  offset="1" style="stop-color:#000000"/>
				</radialGradient>
				<path fill-rule="evenodd" clip-rule="evenodd" fill="url(#SVGID_27_)" d="M326,629.3c0.1,0.8,0,1.5-0.2,2
					c-0.2,0.5-0.5,0.9-0.8,1l-0.3,0c-0.1,0-0.3,0-0.4,0c0,0-0.1,0-0.1-0.1c0.2-0.1,0.4-0.3,0.5-0.6c0.2-0.6,0.3-1.3,0.2-2.1
					c-0.1-0.7-0.3-1.4-0.5-1.9c-0.2-0.2-0.3-0.3-0.4-0.3c-0.1,0-0.2-0.1-0.1-0.2c0.1-0.1,0.3-0.2,0.5-0.3h0.4
					c0.3,0.1,0.5,0.3,0.7,0.7C325.8,628,326,628.6,326,629.3z"/>
			</g>
		</g>
	</g>
	<g>
		<path fill-rule="evenodd" clip-rule="evenodd" d="M313,629.9c0,0.5,0,0.9-0.1,1.3c-0.1,0.4-0.3,0.6-0.6,0.7l-0.1,0
			c-0.2,0-0.4-0.1-0.5-0.4c-0.1-0.3-0.2-0.8-0.3-1.3c0-0.5,0.1-0.9,0.2-1.3c0.1-0.3,0.3-0.5,0.6-0.7h0.1c0.2,0,0.3,0.1,0.5,0.4
			C312.9,629,313,629.4,313,629.9z"/>
	</g>
	<g>
		<g>
			<path fill-rule="evenodd" clip-rule="evenodd" d="M312,628.5c0.1,0,0.1,0,0.2,0h0.1c0.1,0,0.1,0.2,0.2,0.5c0,0.3,0,0.7-0.2,1.1
				c-0.1,0.4-0.3,0.8-0.5,1.2c-0.1,0.2-0.2,0.3-0.3,0.4c0,0-0.1,0.1-0.2,0.1h-0.1c-1.6,0.5-3.4,1.2-5.3,2.1
				c-2.8,1.3-4.6,2.5-5.3,3.5c-1.6,2.6-2.4,6.1-2.5,10.5c0,0,0,0.1,0,0.1c0.2,5.5-0.7,10.4-2.6,14.9c-2.5,7.8-8.4,14.1-17.6,18.7
				c-8,4.4-16.7,16.1-26.1,35.1h-2.5c6.6-17,15.9-29.6,27.9-37.8c8-4,13.1-9.4,15.3-16c0-0.1,0.1-0.2,0.1-0.3
				c1.7-4.1,2.5-8.6,2.4-13.7v-0.1c0.1-5.2,1.1-9.3,3.1-12.4c1-1.6,3.1-3.2,6.4-4.8C307.1,630.1,309.6,629.1,312,628.5z"/>
		</g>
	</g>
	<g>
		<g>
			
				<radialGradient id="SVGID_28_" cx="555.3447" cy="636.458" r="7.8876" gradientTransform="matrix(1 4.754304e-003 -0.3455 0.8653 -33.7554 84.5428)" gradientUnits="userSpaceOnUse">
				<stop  offset="0" style="stop-color:#FFFFFF"/>
				<stop  offset="1" style="stop-color:#FFFFFF;stop-opacity:0"/>
			</radialGradient>
			<path fill-rule="evenodd" clip-rule="evenodd" fill="url(#SVGID_28_)" d="M306.5,632l0.1,0l-0.1,0.2c-2.8,0.9-5,2.3-6.5,4.3
				c-1.5,1.9-2.5,4.6-3,7.9v0.1c-0.1,0-0.1,0-0.2,0c0,0-0.1,0-0.1,0l0.1-0.1c0.5-3.4,1.5-6.1,3.1-8.1c1.5-2,3.7-3.4,6.6-4.3
				C306.5,631.9,306.5,631.9,306.5,632z"/>
			
				<radialGradient id="SVGID_29_" cx="467.667" cy="710.5635" r="24.2139" gradientTransform="matrix(0.9999 -1.084087e-002 -0.3015 1.0289 5.3312 -18.1932)" gradientUnits="userSpaceOnUse">
				<stop  offset="0" style="stop-color:#FFFFFF"/>
				<stop  offset="1" style="stop-color:#FFFFFF;stop-opacity:0"/>
			</radialGradient>
			<path fill-rule="evenodd" clip-rule="evenodd" fill="url(#SVGID_29_)" d="M272,683.5c0,0-0.1,0.1-0.1,0.1
				c-8,6.3-14.6,16.2-20,29.5h-0.3c5.4-13.5,12.1-23.4,20.1-29.7c0-0.1,0.1-0.1,0.1-0.1C271.9,683.5,271.9,683.5,272,683.5z"/>
			
				<radialGradient id="SVGID_30_" cx="483.8203" cy="668.2217" r="15.4367" gradientTransform="matrix(0.9999 -1.053426e-002 -0.3031 1.0315 5.5727 -18.9689)" gradientUnits="userSpaceOnUse">
				<stop  offset="0" style="stop-color:#FFFFFF"/>
				<stop  offset="1" style="stop-color:#FFFFFF;stop-opacity:0"/>
			</radialGradient>
			<path fill-rule="evenodd" clip-rule="evenodd" fill="url(#SVGID_30_)" d="M277.1,680.4c0,0-0.1,0-0.1,0c0-0.1,0-0.1,0-0.1
				c0,0,0-0.1,0-0.1s0-0.1,0.1-0.1c12.3-5.7,18.7-15.6,19.3-29.8c0,0,0-0.1,0.1-0.1c0,0,0-0.1,0-0.1c0,0,0.1,0,0.1,0
				c0,0,0,0.1,0,0.2C296,664.5,289.5,674.6,277.1,680.4z"/>
		</g>
	</g>
	<g>
		<path fill-rule="evenodd" clip-rule="evenodd" d="M342.6,623c0.1,0.1,0.1,0.1,0,0.2c-0.2,0.2-0.7,0.3-1.6,0.5
			c-1,0.1-2.4,0.2-4,0.2c-1.4,0-2.5,0-3.5-0.1c-1.4-0.2-2.2-0.4-2.2-0.7c0-0.1,0-0.1,0.1-0.2c0.2-0.1,0.7-0.3,1.5-0.4
			c1.2-0.2,2.6-0.3,4.1-0.3c1.5,0,2.9,0.1,4,0.3C341.9,622.7,342.5,622.8,342.6,623z"/>
	</g>
	<g>
		<g>
			<linearGradient id="SVGID_31_" gradientUnits="userSpaceOnUse" x1="331.354" y1="618.5391" x2="342.454" y2="618.4871">
				<stop  offset="0" style="stop-color:#353434"/>
				<stop  offset="8.627451e-002" style="stop-color:#909092"/>
				<stop  offset="0.2196" style="stop-color:#FFFFFF"/>
				<stop  offset="0.349" style="stop-color:#9999A6"/>
				<stop  offset="0.651" style="stop-color:#FFFFFF"/>
				<stop  offset="0.898" style="stop-color:#575757"/>
				<stop  offset="1" style="stop-color:#0F0F0F"/>
			</linearGradient>
			<path fill-rule="evenodd" clip-rule="evenodd" fill="url(#SVGID_31_)" d="M331.5,613.3c0.1,0.1,0.7,0.3,1.6,0.5
				c1,0.1,2.4,0.2,4,0.2s2.9-0.1,3.9-0.2c0.9-0.1,1.4-0.3,1.6-0.5v9.7c-0.1,0.2-0.7,0.3-1.6,0.5c-0.9,0.1-2.2,0.2-3.9,0.2
				c-1.7,0-3-0.1-4-0.2c-0.9-0.2-1.5-0.3-1.6-0.5V613.3z"/>
			<linearGradient id="SVGID_32_" gradientUnits="userSpaceOnUse" x1="331.4023" y1="613.3213" x2="342.4029" y2="613.1826">
				<stop  offset="0" style="stop-color:#BCBCC5"/>
				<stop  offset="1" style="stop-color:#0F0F0F"/>
			</linearGradient>
			<path fill-rule="evenodd" clip-rule="evenodd" fill="url(#SVGID_32_)" d="M342.5,613.3c-0.1,0.2-0.7,0.3-1.6,0.5
				c-1,0.1-2.3,0.2-3.9,0.2s-2.9-0.1-4-0.2c-0.9-0.2-1.5-0.3-1.6-0.5v-0.2c0.1-0.2,0.7-0.3,1.6-0.5c1.2-0.1,2.5-0.2,4-0.2
				c1.4,0,2.7,0.1,3.9,0.2c0.9,0.1,1.4,0.3,1.6,0.5V613.3z"/>
		</g>
	</g>
	<g>
		<linearGradient id="SVGID_33_" gradientUnits="userSpaceOnUse" x1="332.5361" y1="596.7871" x2="341.2612" y2="596.7428">
			<stop  offset="0" style="stop-color:#353434"/>
			<stop  offset="8.627451e-002" style="stop-color:#909092"/>
			<stop  offset="0.2196" style="stop-color:#FFFFFF"/>
			<stop  offset="0.349" style="stop-color:#9999A6"/>
			<stop  offset="0.651" style="stop-color:#FFFFFF"/>
			<stop  offset="0.898" style="stop-color:#575757"/>
			<stop  offset="1" style="stop-color:#0F0F0F"/>
		</linearGradient>
		<path fill-rule="evenodd" clip-rule="evenodd" fill="url(#SVGID_33_)" d="M332.6,588.4V580h8.6v8.5v10v8v6.7
			c-0.1,0.1-0.5,0.2-1.2,0.3c-0.8,0.1-1.8,0.2-3.1,0.2s-2.3-0.1-3.1-0.2c-0.7-0.1-1.1-0.2-1.3-0.4v-6.6v-8V588.4z"/>
	</g>
	<g>
		<g>
			<linearGradient id="SVGID_34_" gradientUnits="userSpaceOnUse" x1="331.3535" y1="576.6396" x2="342.4535" y2="576.5876">
				<stop  offset="0" style="stop-color:#271808"/>
				<stop  offset="0.1137" style="stop-color:#4A3217"/>
				<stop  offset="0.3098" style="stop-color:#6D4A2E"/>
				<stop  offset="0.5882" style="stop-color:#201203"/>
				<stop  offset="0.8549" style="stop-color:#4A5810"/>
				<stop  offset="1" style="stop-color:#5D3A13"/>
			</linearGradient>
			<path fill-rule="evenodd" clip-rule="evenodd" fill="url(#SVGID_34_)" d="M331.5,571.5c0.1,0.2,0.7,0.3,1.6,0.5
				c1,0.1,2.4,0.2,4,0.2s2.9-0.1,3.9-0.2c0.9-0.1,1.4-0.3,1.6-0.5v9.7c-0.1,0.2-0.7,0.3-1.6,0.4c-0.9,0.1-2.2,0.2-3.9,0.2
				c-1.7,0-3-0.1-4-0.2c-0.9-0.1-1.5-0.3-1.6-0.4V571.5z"/>
			
				<linearGradient id="SVGID_35_" gradientUnits="userSpaceOnUse" x1="438.8174" y1="466.5811" x2="453.5284" y2="466.5811" gradientTransform="matrix(0.967 0.2549 -0.2397 0.971 -5.242229e-005 4.764199e-004)">
				<stop  offset="0" style="stop-color:#271808"/>
				<stop  offset="0.4745" style="stop-color:#83982C"/>
				<stop  offset="0.7843" style="stop-color:#8A5A24"/>
			</linearGradient>
			<path fill-rule="evenodd" clip-rule="evenodd" fill="url(#SVGID_35_)" d="M342.5,571.5c-0.1,0.2-0.7,0.3-1.6,0.5
				c-1,0.1-2.3,0.2-3.9,0.2s-2.9-0.1-4-0.2c-0.9-0.1-1.5-0.3-1.6-0.5v-0.2c0.1-0.2,0.7-0.3,1.6-0.5c1.2-0.1,2.5-0.2,4-0.2
				c1.4,0,2.7,0.1,3.9,0.2c0.9,0.1,1.4,0.3,1.6,0.5V571.5z"/>
		</g>
	</g>
	<g>
		<g>
			
				<linearGradient id="SVGID_36_" gradientUnits="userSpaceOnUse" x1="437.3877" y1="459.2686" x2="454.7188" y2="459.2686" gradientTransform="matrix(0.9665 0.2568 -0.2409 0.9707 -2.638698e-004 2.419949e-004)">
				<stop  offset="0" style="stop-color:#271808"/>
				<stop  offset="0.4745" style="stop-color:#83982C"/>
				<stop  offset="0.7843" style="stop-color:#8A5A24"/>
			</linearGradient>
			<path fill-rule="evenodd" clip-rule="evenodd" fill="url(#SVGID_36_)" d="M343.9,564.9c-0.2,0.2-0.9,0.4-2,0.5
				c-1.3,0.2-2.9,0.3-4.9,0.3c-2.1,0-3.7-0.1-4.9-0.3c-0.1,0-0.1,0-0.1,0c-1.1-0.2-1.7-0.4-1.9-0.5v-0.3c0.2-0.2,0.8-0.4,2-0.6
				c1.4-0.2,3.1-0.3,4.9-0.3c1.8,0,3.4,0.1,4.9,0.3c1.1,0.2,1.8,0.4,2,0.5V564.9z M333,564.5L333,564.5c0.1,0.2,0.5,0.3,1.2,0.5
				c0.6,0.1,1.3,0.1,2,0.1h1c0,0,0.1,0,0.1,0c0.2,0,0.5,0,0.7,0h0.8c0.5,0,1-0.1,1.4-0.1c0.7-0.1,1.1-0.2,1.2-0.3v-0.1
				c-0.1-0.1-0.5-0.2-1.2-0.3c-0.5-0.1-1-0.1-1.5-0.1l-0.8,0c-0.2,0-0.4,0-0.6,0c0,0-0.1,0-0.1,0h-0.6c-0.9,0-1.7,0-2.4,0.2
				C333.5,564.3,333.1,564.3,333,564.5z"/>
			<linearGradient id="SVGID_37_" gradientUnits="userSpaceOnUse" x1="313.6475" y1="564.7813" x2="321.7723" y2="564.6945">
				<stop  offset="0" style="stop-color:#000000"/>
				<stop  offset="0.3922" style="stop-color:#3C2F22"/>
				<stop  offset="0.7176" style="stop-color:#563917"/>
				<stop  offset="1" style="stop-color:#2A1907"/>
			</linearGradient>
			<path fill-rule="evenodd" clip-rule="evenodd" fill="url(#SVGID_37_)" d="M333,564.5c0.1-0.1,0.5-0.2,1.2-0.3
				c0.7-0.1,1.5-0.2,2.4-0.2h0.6c0,0,0.1,0,0.1,0c0.2,0,0.4,0,0.6,0l0.8,0c0.5,0,1,0,1.5,0.1c0.7,0.1,1.1,0.1,1.2,0.3v0.1
				c-0.1,0.1-0.5,0.2-1.2,0.3c-0.4,0-0.9,0.1-1.4,0.1h-0.8c-0.2,0-0.5,0-0.7,0c0,0-0.1,0-0.1,0h-1c-0.8,0-1.5,0-2-0.1
				C333.5,564.8,333.1,564.7,333,564.5L333,564.5z"/>
			<linearGradient id="SVGID_38_" gradientUnits="userSpaceOnUse" x1="329.9268" y1="571.3682" x2="343.8518" y2="571.2997">
				<stop  offset="0" style="stop-color:#271808"/>
				<stop  offset="0.1451" style="stop-color:#AE7B44"/>
				<stop  offset="0.349" style="stop-color:#6D4A2E"/>
				<stop  offset="0.5882" style="stop-color:#492A0B"/>
				<stop  offset="0.8549" style="stop-color:#83982C"/>
				<stop  offset="1" style="stop-color:#8A5A24"/>
			</linearGradient>
			<path fill-rule="evenodd" clip-rule="evenodd" fill="url(#SVGID_38_)" d="M330.1,564.9c0.2,0.1,0.8,0.3,1.9,0.5c0,0,0.1,0,0.1,0
				c1.2,0.2,2.9,0.3,4.9,0.3c2,0,3.6-0.1,4.9-0.3c1.1-0.1,1.8-0.3,2-0.5V577c-0.2,0.2-0.8,0.4-2,0.5c-1.2,0.2-2.8,0.3-4.9,0.3
				c-2.2,0-3.8-0.1-4.9-0.3c-0.1,0-0.1,0-0.1,0c-1.1-0.2-1.7-0.4-1.9-0.5V564.9z"/>
		</g>
	</g>
	<g>
		
			<radialGradient id="SVGID_39_" cx="232.1016" cy="568.0195" r="5.4125" gradientTransform="matrix(1 -6.928240e-003 3.233178e-002 0.1755 86.1395 467.6129)" gradientUnits="userSpaceOnUse">
			<stop  offset="0" style="stop-color:#FFFFFF"/>
			<stop  offset="0.1765" style="stop-color:#FFFFFF"/>
			<stop  offset="0.3059" style="stop-color:#FFFFFF;stop-opacity:0.4235"/>
			<stop  offset="0.4902" style="stop-color:#FFFFFF;stop-opacity:0.2314"/>
			<stop  offset="0.651" style="stop-color:#FFFFFF;stop-opacity:8.235294e-002"/>
			<stop  offset="1" style="stop-color:#FFFFFF;stop-opacity:0"/>
		</radialGradient>
		<path fill-rule="evenodd" clip-rule="evenodd" fill="url(#SVGID_39_)" d="M331.5,565.8c-0.1-0.3,0.3-0.5,1.3-0.7
			c1-0.2,2.3-0.3,3.7-0.3c1.4,0,2.7,0.1,3.8,0.3c1.1,0.2,1.7,0.4,1.8,0.6c0,0.3-0.5,0.5-1.5,0.7c-1,0.2-2.3,0.3-3.7,0.3
			c-1.4,0-2.6-0.1-3.7-0.3C332,566.2,331.5,566,331.5,565.8z"/>
	</g>
	<g>
		
			<radialGradient id="SVGID_40_" cx="317.7646" cy="634.2539" r="2.0385" gradientTransform="matrix(1 6.134854e-003 6.134854e-003 0.2822 9.8992 455.362)" gradientUnits="userSpaceOnUse">
			<stop  offset="0" style="stop-color:#FFFFFF"/>
			<stop  offset="0.1765" style="stop-color:#FFFFFF"/>
			<stop  offset="0.3059" style="stop-color:#FFFFFF;stop-opacity:0.4235"/>
			<stop  offset="0.4902" style="stop-color:#FFFFFF;stop-opacity:0.2314"/>
			<stop  offset="0.651" style="stop-color:#FFFFFF;stop-opacity:8.235294e-002"/>
			<stop  offset="1" style="stop-color:#FFFFFF;stop-opacity:0"/>
		</radialGradient>
		<path fill-rule="evenodd" clip-rule="evenodd" fill="url(#SVGID_40_)" d="M330.1,636.7c-0.4-0.1-0.6-0.2-0.6-0.4
			c0-0.1,0.2-0.3,0.6-0.3c0.4-0.1,0.9-0.2,1.4-0.2c0.5,0,1,0,1.4,0.2c0.4,0.1,0.6,0.2,0.6,0.4c0,0.2-0.2,0.3-0.6,0.4
			c-0.4,0.1-0.9,0.2-1.4,0.2C331,636.9,330.5,636.8,330.1,636.7z"/>
	</g>
	<g>
		
			<radialGradient id="SVGID_41_" cx="268.7178" cy="636.0732" r="12.9875" gradientTransform="matrix(1 9.624634e-004 2.887390e-003 2.598651e-002 68.8456 619.6127)" gradientUnits="userSpaceOnUse">
			<stop  offset="0" style="stop-color:#FFFFFF"/>
			<stop  offset="0.1765" style="stop-color:#FFFFFF"/>
			<stop  offset="0.3059" style="stop-color:#FFFFFF;stop-opacity:0.4235"/>
			<stop  offset="0.4902" style="stop-color:#FFFFFF;stop-opacity:0.2314"/>
			<stop  offset="0.651" style="stop-color:#FFFFFF;stop-opacity:8.235294e-002"/>
			<stop  offset="1" style="stop-color:#FFFFFF;stop-opacity:0"/>
		</radialGradient>
		<path fill-rule="evenodd" clip-rule="evenodd" fill="url(#SVGID_41_)" d="M348.5,636.6c-2.6,0.1-5.6,0.1-9.1,0.1
			c-2.8,0-5.3,0-7.6,0v-0.5c2.2-0.1,4.8-0.1,7.6-0.1c3.5,0,6.5,0,9,0.2c0.2,0,0.5,0,0.7,0v0.4C348.9,636.6,348.8,636.6,348.5,636.6z
			"/>
	</g>
	<g>
		
			<radialGradient id="SVGID_42_" cx="434.8691" cy="533.5059" r="9.9654" gradientTransform="matrix(0.9683 0.2496 -6.271670e-003 3.512135e-002 -90.708 507.964)" gradientUnits="userSpaceOnUse">
			<stop  offset="0" style="stop-color:#FFFFFF;stop-opacity:0.498"/>
			<stop  offset="0.1765" style="stop-color:#FFFFFF;stop-opacity:0.498"/>
			<stop  offset="0.1804" style="stop-color:#FFFFFF;stop-opacity:0.498"/>
			<stop  offset="0.3059" style="stop-color:#FFFFFF;stop-opacity:0.2392"/>
			<stop  offset="0.4902" style="stop-color:#FFFFFF;stop-opacity:9.019608e-002"/>
			<stop  offset="0.651" style="stop-color:#FFFFFF;stop-opacity:2.745098e-002"/>
			<stop  offset="1" style="stop-color:#FFFFFF;stop-opacity:0"/>
		</radialGradient>
		<path fill-rule="evenodd" clip-rule="evenodd" fill="url(#SVGID_42_)" d="M323.5,634.7V634c1.1,0.3,2.4,0.6,3.6,1
			c1.7,0.4,3.2,0.8,4.6,1.3v0.6c-1.4-0.3-3-0.7-4.8-1.2C325.7,635.3,324.6,635,323.5,634.7z"/>
	</g>
	<g>
		
			<radialGradient id="SVGID_43_" cx="59.3896" cy="702.0117" r="0.9056" gradientTransform="matrix(0.9386 -0.3451 1.0352 2.4293 -451.1621 -1058.7269)" gradientUnits="userSpaceOnUse">
			<stop  offset="0" style="stop-color:#FFFFFF"/>
			<stop  offset="0.1765" style="stop-color:#FFFFFF"/>
			<stop  offset="0.3059" style="stop-color:#FFFFFF;stop-opacity:0.4235"/>
			<stop  offset="0.4902" style="stop-color:#FFFFFF;stop-opacity:0.2314"/>
			<stop  offset="0.651" style="stop-color:#FFFFFF;stop-opacity:8.235294e-002"/>
			<stop  offset="1" style="stop-color:#FFFFFF;stop-opacity:0"/>
		</radialGradient>
		<path fill-rule="evenodd" clip-rule="evenodd" fill="url(#SVGID_43_)" d="M332.5,627.5c0,0.4-0.1,0.7-0.3,0.9
			c-0.2,0.1-0.5-0.1-0.9-0.5c-0.3-0.4-0.6-0.9-0.8-1.5c-0.3-0.6-0.4-1.1-0.5-1.6c0-0.5,0.1-0.7,0.4-0.8c0.2-0.1,0.5,0,0.9,0.4
			c0.3,0.3,0.6,0.8,0.9,1.4C332.4,626.5,332.5,627,332.5,627.5z"/>
	</g>
	<g>
		<path fill-rule="evenodd" clip-rule="evenodd" fill-opacity="0.2471" d="M323.8,636.3h-0.1c-0.6,0.2-1.2,0.4-1.9,0.6v4.5l-8.4,1.8
			c-0.5,1.3-0.5,3.4,0,6.4c0,0-0.1,0.1-0.1,0.1c1.1,4.5,1,8.5-0.1,12.2c-1.1,6.2-6.3,11.4-15.5,15.5l-24.5,6.6l5.2-3.8
			c12.7-3.5,19.1-5.3,19.1-5.3c7.3-3.3,11.5-7.7,12.5-13.1c0-0.1,0-0.1,0-0.2c1.1-3.3,1.1-7.1,0.1-11.2v0c-0.6-3.3-0.5-6,0.2-8.3
			l0.1,0l8.9-2l0.1-5c1.5-0.6,3-1.1,4.4-1.4c0.1,0,0.1,0,0.2,0h0.1c0.1,0,0.1-0.5,0.3-1.6h3.1c-0.2,2.1-0.4,3.2-0.5,3.3
			c-0.2,0.2-0.8,0.5-1.8,0.7C324.3,636.2,323.8,636.3,323.8,636.3z"/>
	</g>
</g>
<g>
	<g>
		<path fill-rule="evenodd" clip-rule="evenodd" fill-opacity="0.498" d="M409.4,649.5c-2.5-0.6-3.8-1.4-3.8-2.4
			c0-0.9,1.3-1.7,3.8-2.3c2.5-0.6,5.6-1,9.1-1s6.5,0.3,9,1c2.5,0.7,3.8,1.5,3.8,2.3c0,0.9-1.3,1.7-3.8,2.4c-2.5,0.6-5.5,1-9,1
			S411.9,650.1,409.4,649.5z"/>
	</g>
	<g>
		<path fill-rule="evenodd" clip-rule="evenodd" fill-opacity="0.498" d="M312.9,662.3c-3.5,0-6.5-0.3-9-0.8s-3.8-1.3-3.8-2.1
			c0-0.8,1.3-1.5,3.8-2.1s5.5-0.8,9-0.8c3.6,0,6.6,0.3,9.1,0.8s3.8,1.3,3.8,2.1c0,0.8-1.3,1.5-3.8,2.1S316.5,662.3,312.9,662.3z"/>
	</g>
	<g>
		<path fill-rule="evenodd" clip-rule="evenodd" fill-opacity="0.498" d="M262.5,641.3c3.6,0,6.6,0.3,9,1c2.5,0.6,3.8,1.4,3.8,2.3
			c0,0.9-1.3,1.7-3.8,2.4c-2.5,0.6-5.5,0.9-9,0.9c-3.5,0-6.6-0.3-9.1-0.9c-2.5-0.6-3.8-1.4-3.8-2.4c0-0.9,1.3-1.7,3.8-2.3
			C255.9,641.6,258.9,641.3,262.5,641.3z"/>
	</g>
	<g>
		<g>
			<g>
				<g>
					<path fill-rule="evenodd" clip-rule="evenodd" fill="#333333" d="M426.8,639.8c-0.1,0.5-1.1,1-2.9,1.4
						c-1.9,0.4-4.3,0.6-7.1,0.6c-2.8,0-5.1-0.2-7-0.6c-1.8-0.4-2.7-0.9-2.9-1.4c0,0,0-0.1,0-0.1c0,0,0-0.1,0-0.2
						c0.2-0.5,1.1-1,2.9-1.3c1.9-0.4,4.3-0.7,7-0.7c2.8,0,5.2,0.2,7.1,0.7c1.9,0.4,2.9,0.9,2.9,1.4v0.1
						C426.8,639.7,426.8,639.8,426.8,639.8z"/>
					<path fill-rule="evenodd" clip-rule="evenodd" d="M406.8,639.8c0.2,0.5,1.1,1,2.9,1.4c1.9,0.4,4.3,0.6,7,0.6
						c2.8,0,5.2-0.2,7.1-0.6c1.8-0.4,2.8-0.9,2.9-1.4v7.4c-0.2,0.5-1.1,1-2.9,1.4c-1.9,0.4-4.3,0.6-7.1,0.6c-2.8,0-5.1-0.2-7-0.6
						c-2-0.5-3-1-3-1.5c0,0,0-0.1,0-0.2V639.8z"/>
				</g>
			</g>
		</g>
		<g>
			<path fill-rule="evenodd" clip-rule="evenodd" d="M412.3,639.5L412.3,639.5c0.1-0.3,0.5-0.5,1.3-0.7c0.8-0.2,1.8-0.3,3-0.3
				c1.2,0,2.3,0.1,3.1,0.3c0.8,0.2,1.2,0.4,1.3,0.6v0c-0.1,0.2-0.5,0.4-1.3,0.6c-0.8,0.2-1.8,0.3-3.1,0.3c-1.2,0-2.2-0.1-3-0.3
				C412.8,639.9,412.4,639.7,412.3,639.5z"/>
		</g>
		<g>
			<g>
				<path fill-rule="evenodd" clip-rule="evenodd" d="M385.4,550.3c-0.2,0.1-1.2,0.7-3.2,1.7c-0.7,0.3-1.2,0.6-1.5,0.8l-1.6-31.1
					c0-0.7,0.2-1.3,0.6-1.8c0.5-0.5,1-0.8,1.7-0.9s1.3,0.2,1.8,0.7s0.8,1,0.8,1.7L385.4,550.3z"/>
				<path fill-rule="evenodd" clip-rule="evenodd" fill="#333333" d="M385.4,550.3l1.8,36.8c3.6,22.6,14.6,40.1,32.9,52.3
					c-2.4,0.6-4.8,0.6-7.1,0c-16.6-10.4-26.8-27.6-30.7-51.7c0-0.1,0-0.2,0-0.3l-1.5-34.6h0v0c0.3-0.2,0.8-0.5,1.5-0.8
					C384.2,550.9,385.2,550.3,385.4,550.3z"/>
			</g>
		</g>
		<g>
			<path fill-rule="evenodd" clip-rule="evenodd" fill="#FFFFFF" fill-opacity="0.102" d="M419,639c-0.3,0-0.5,0-0.7,0
				c-0.1,0-0.1-0.1-0.3-0.1C418.4,639,418.7,639,419,639z M384,586.6l-0.5-17l-0.8-9.3l2.9,26.4c0,0.1,0,0.2,0,0.3
				c2.5,15.8,7.8,28.7,15.9,38.7c-9.1-10.1-14.9-23-17.4-38.7C384,586.8,384,586.7,384,586.6z"/>
		</g>
	</g>
	<g>
		<g>
			<g>
				<g>
					<path fill-rule="evenodd" clip-rule="evenodd" fill="#333333" d="M270.5,637.7c-0.1,0.5-1.1,1-2.9,1.4c-1.9,0.4-4.3,0.6-7,0.6
						s-5.1-0.2-7-0.6c-1.8-0.4-2.8-0.9-3-1.4c0,0,0-0.1,0-0.2c0,0,0-0.1,0-0.2c0.2-0.5,1.1-1,3-1.3c1.9-0.4,4.3-0.7,7-0.7
						s5.1,0.2,7,0.7c1.9,0.4,2.9,0.9,3,1.5v0C270.5,637.6,270.5,637.6,270.5,637.7z"/>
					<path fill-rule="evenodd" clip-rule="evenodd" d="M250.5,637.7c0.2,0.5,1.1,1,3,1.4c1.9,0.4,4.3,0.6,7,0.6s5.1-0.2,7-0.6
						c1.8-0.4,2.8-0.9,2.9-1.4v7.3c-0.2,0.5-1.1,1-2.9,1.4c-1.9,0.4-4.3,0.6-7,0.6s-5.1-0.2-7-0.6c-2-0.5-3-1-3-1.6c0,0,0-0.1,0-0.1
						V637.7z"/>
				</g>
			</g>
			<g>
				<path fill-rule="evenodd" clip-rule="evenodd" d="M257.3,638c-0.8-0.2-1.2-0.4-1.3-0.6c0,0,0,0,0,0l0,0c0-0.2,0.5-0.4,1.3-0.5
					c0.8-0.2,1.8-0.3,3-0.3c1.2,0,2.2,0.1,3,0.3c0.8,0.2,1.3,0.4,1.3,0.6c0,0,0,0-0.1,0c0,0.2-0.4,0.4-1.3,0.6
					c-0.8,0.2-1.8,0.3-3,0.3C259.1,638.2,258.1,638.1,257.3,638z"/>
			</g>
		</g>
		<g>
			<g>
				<path fill-rule="evenodd" clip-rule="evenodd" d="M296.1,550.4c-0.3-0.2-0.8-0.5-1.5-0.8c-1.9-1-3-1.6-3.1-1.7l1.4-28.9
					c0-0.7,0.3-1.2,0.8-1.7c0.5-0.4,1.1-0.6,1.8-0.6c0.7,0,1.2,0.3,1.7,0.8c0.5,0.5,0.7,1,0.6,1.8L296.1,550.4z"/>
				<path fill-rule="evenodd" clip-rule="evenodd" fill="#333333" d="M291.5,547.9c0.2,0.1,1.2,0.7,3.1,1.7c0.7,0.3,1.2,0.6,1.5,0.8
					v0h0.1l-1.6,34.6c0,0.1,0,0.2,0,0.3c-3.8,24.1-14.1,41.3-30.6,51.8c-2.4,0.6-4.8,0.6-7.2,0c18.4-12.3,29.4-29.8,33-52.4
					L291.5,547.9z"/>
			</g>
		</g>
		<g>
			<path fill-rule="evenodd" clip-rule="evenodd" fill="#FFFFFF" fill-opacity="0.102" d="M292.8,584.7c0,0.1,0,0.1,0,0.3
				c-2.5,15.6-8.3,28.5-17.4,38.6c8-9.9,13.3-22.8,15.9-38.6c0-0.1,0-0.2,0-0.3l2.9-26.4l-0.8,9.3L292.8,584.7z M257.7,637.1
				c0.3,0,0.6-0.1,0.9-0.1c-0.1,0.1-0.1,0.1-0.3,0.2C258.2,637.1,258,637.1,257.7,637.1z"/>
		</g>
	</g>
	<g>
		<g>
			<g>
				<path fill-rule="evenodd" clip-rule="evenodd" fill="#333333" d="M300.9,652.4c0-0.1,0-0.1,0-0.2s0-0.1,0-0.1
					c0.1-0.5,1.1-1,3.1-1.4c2.1-0.4,4.6-0.6,7.5-0.6s5.4,0.2,7.5,0.6c1.9,0.4,3,0.8,3.1,1.3c0,0,0,0.1,0,0.2c0,0,0,0.1,0,0.2
					c-0.1,0.5-1.2,0.9-3.1,1.3c-2.1,0.4-4.6,0.6-7.5,0.6s-5.4-0.2-7.5-0.6C302.1,653.3,301.1,652.9,300.9,652.4z"/>
				<path fill-rule="evenodd" clip-rule="evenodd" d="M322.1,652.4v6.7c0,0,0,0.1,0,0.2c0,0.6-1,1-3.1,1.5c-2.1,0.4-4.6,0.6-7.5,0.6
					s-5.4-0.2-7.5-0.6c-1.9-0.4-2.9-0.8-3.1-1.3v-7c0.2,0.5,1.2,0.9,3.1,1.3c2.1,0.4,4.6,0.6,7.5,0.6s5.4-0.2,7.5-0.6
					C320.9,653.3,322,652.9,322.1,652.4z"/>
			</g>
		</g>
		<g>
			<path fill-rule="evenodd" clip-rule="evenodd" d="M316.5,652.2c-0.1,0.2-0.5,0.4-1.3,0.5c-0.9,0.2-1.9,0.3-3.2,0.3
				s-2.3-0.1-3.2-0.3c-0.8-0.1-1.3-0.3-1.3-0.5c0,0,0,0,0,0c0-0.2,0.5-0.4,1.3-0.6c0.9-0.1,1.9-0.2,3.2-0.2s2.3,0.1,3.2,0.2
				c0.8,0.2,1.3,0.4,1.3,0.5V652.2z"/>
		</g>
	</g>
	<g>
		
			<radialGradient id="SVGID_44_" cx="651.0811" cy="-280.7119" r="1.6142" gradientTransform="matrix(4.646140e-002 0.9989 -5.4824 -7.743567e-002 -1257.7876 -17.7651)" gradientUnits="userSpaceOnUse">
			<stop  offset="0" style="stop-color:#FFFFFF"/>
			<stop  offset="0.1765" style="stop-color:#FFFFFF"/>
			<stop  offset="0.3059" style="stop-color:#FFFFFF;stop-opacity:0.4235"/>
			<stop  offset="0.4902" style="stop-color:#FFFFFF;stop-opacity:0.2314"/>
			<stop  offset="0.651" style="stop-color:#FFFFFF;stop-opacity:8.235294e-002"/>
			<stop  offset="1" style="stop-color:#FFFFFF;stop-opacity:0"/>
		</radialGradient>
		<path fill-rule="evenodd" clip-rule="evenodd" fill="url(#SVGID_44_)" d="M320,654.5c0.2,0.4-0.6,0.7-2.4,1
			c-1.6,0.4-3.7,0.5-6.3,0.5c-2.4-0.1-4.5-0.3-6.1-0.5c-1.6-0.4-2.5-0.8-2.7-1.2c-0.1-0.4,0.9-0.8,2.8-1c1.5-0.3,3.6-0.4,6.1-0.4
			c2.3,0,4.3,0.2,6,0.5C319.1,653.7,320,654.1,320,654.5z"/>
	</g>
	<g>
		
			<radialGradient id="SVGID_45_" cx="636.9434" cy="-229.4077" r="1.6142" gradientTransform="matrix(4.646140e-002 0.9989 -5.4824 -7.743567e-002 -1027.9087 -14.5182)" gradientUnits="userSpaceOnUse">
			<stop  offset="0" style="stop-color:#FFFFFF"/>
			<stop  offset="0.1765" style="stop-color:#FFFFFF"/>
			<stop  offset="0.3059" style="stop-color:#FFFFFF;stop-opacity:0.4235"/>
			<stop  offset="0.4902" style="stop-color:#FFFFFF;stop-opacity:0.2314"/>
			<stop  offset="0.651" style="stop-color:#FFFFFF;stop-opacity:8.235294e-002"/>
			<stop  offset="1" style="stop-color:#FFFFFF;stop-opacity:0"/>
		</radialGradient>
		<path fill-rule="evenodd" clip-rule="evenodd" fill="url(#SVGID_45_)" d="M259.3,641.1c-2.4-0.1-4.4-0.3-6.1-0.6
			c-1.6-0.4-2.5-0.8-2.7-1.2c-0.1-0.4,0.9-0.8,2.8-1c1.6-0.3,3.6-0.4,6.1-0.4c2.3,0,4.3,0.2,6,0.5c1.7,0.4,2.6,0.8,2.5,1.1
			c0.2,0.4-0.6,0.8-2.4,1C263.9,641,261.8,641.1,259.3,641.1z"/>
	</g>
	<g>
		
			<radialGradient id="SVGID_46_" cx="637.0156" cy="-386.9307" r="1.6142" gradientTransform="matrix(4.646140e-002 0.9989 -5.4824 -7.743567e-002 -1733.7228 -24.4874)" gradientUnits="userSpaceOnUse">
			<stop  offset="0" style="stop-color:#FFFFFF"/>
			<stop  offset="0.1765" style="stop-color:#FFFFFF"/>
			<stop  offset="0.3059" style="stop-color:#FFFFFF;stop-opacity:0.4235"/>
			<stop  offset="0.4902" style="stop-color:#FFFFFF;stop-opacity:0.2314"/>
			<stop  offset="0.651" style="stop-color:#FFFFFF;stop-opacity:8.235294e-002"/>
			<stop  offset="1" style="stop-color:#FFFFFF;stop-opacity:0"/>
		</radialGradient>
		<path fill-rule="evenodd" clip-rule="evenodd" fill="url(#SVGID_46_)" d="M417.1,643.4c-2.4-0.1-4.4-0.3-6.1-0.6
			c-1.6-0.4-2.5-0.8-2.7-1.1c-0.1-0.4,0.9-0.8,2.8-1.1c1.5-0.3,3.6-0.4,6.1-0.4c2.3,0,4.3,0.2,6,0.5c1.7,0.4,2.6,0.8,2.5,1.2
			c0.2,0.4-0.6,0.8-2.4,0.9C421.7,643.3,419.6,643.4,417.1,643.4z"/>
	</g>
	<g>
		<g>
			<g>
				<path fill-rule="evenodd" clip-rule="evenodd" fill="#181B18" d="M327.7,552l-4.7,2.2c-0.7-7.8-2-15-3.8-21.9
					c-0.2-0.6-0.1-1.2,0.3-1.7c0.3-0.5,0.8-0.8,1.5-1c0.7-0.1,1.3,0,1.9,0.3c0.6,0.3,0.9,0.8,1.1,1.3
					C325.7,537.8,326.9,544.7,327.7,552z"/>
				<path fill-rule="evenodd" clip-rule="evenodd" fill="#424741" d="M327.7,552c1.1,10.4,1.1,21.5,0.2,33.5
					c-1.6,20.4-6,42.6-13.4,66.6c-1.8,0.4-3.5,0.4-5,0c7.3-23.8,11.8-45.8,13.5-66c0.9-11.5,0.9-22.1,0-32L327.7,552z"/>
			</g>
		</g>
		<g>
			<path fill-rule="evenodd" clip-rule="evenodd" fill="#FFFFFF" fill-opacity="0.1608" d="M322.6,603.8c0-0.1,0-0.2,0-0.3l2.9-23.7
				l-0.8,8.4l-0.6,15.3c0,0.1,0,0.2,0,0.3c-2.5,14-5.8,26.8-10,38.5C317.3,630.8,320.1,618,322.6,603.8z"/>
		</g>
	</g>
	<g>
		<g>
			<path fill-rule="evenodd" clip-rule="evenodd" fill="#6C7073" d="M395.3,513.6L395.3,513.6h-0.5c0.2,0,0.3,0.1,0.3,0.2l-0.1,0.1
				c0,0,0,0,0,0c-0.1,0-0.1,0-0.2,0c-13.5,4.4-36.8,10.4-69.8,18h0c0,0-0.1,0-0.1,0c0,0,0,0-0.1,0c-1.6,0.6-3.2,0.5-4.8-0.2h0
				l-31.8-17.1c-0.1,0-0.1,0-0.2,0c-0.1,0-0.1,0-0.1,0.1l-1.5-0.9v0c0.2-0.6,1.5-1.2,4-1.9v0c6.3-0.9,18.2-1.1,35.8-0.7
				c17.6,0.4,34.8,0.9,51.8,1.5c9.8,0,15.5,0.3,17,0.8H395.3z M307,519.8l7.7,4c4.2,2.5,7.3,3.4,9.1,2.8c-0.2,0.1-0.1,0.1,0.3,0
				c1.2-0.2,5.2-1.1,12.1-2.7c5.7-1.4,11.5-2.7,17.4-4.1h0l16.8-3.9l1.3-0.3l0.1-0.1l0.2-0.1h-0.9c-0.2,0-0.6,0-1.2,0
				c-0.5,0-6.4,0-17.7,0c-11.3,0-28.6,0-51.8,0v-0.1c-0.1,0-0.2,0.1-0.4,0.1h0.4v0.3L307,519.8z M367.2,519.5l-0.3,0.1
				C367,519.6,367.1,519.6,367.2,519.5L367.2,519.5z"/>
			<path fill-rule="evenodd" clip-rule="evenodd" fill="#757A7D" d="M319.9,531.7c-0.1,0-0.1,0-0.1,0c-0.1,0-0.1,0-0.2,0.1
				c0,0.1,0,0.1,0,0.2c0,0.1,0,0.1,0.1,0.1c-11.4-5.3-22-11-31.8-17.1c-0.1,0-0.1-0.1-0.1-0.2c0,0,0-0.1,0-0.1c0-0.1,0-0.1,0.1-0.1
				c0.1,0,0.1,0,0.2,0L319.9,531.7z"/>
			<path fill-rule="evenodd" clip-rule="evenodd" fill="#535554" d="M319.9,532.2c0.8,2.7,0.8,4.9-0.1,6.5c-0.1,0.2-0.2,0.3-0.4,0.3
				c-11.8-4.6-22.8-11.4-32.9-20.5c-1.4-1.4-1.4-3-0.2-4.7l1.5,0.9c0,0.1,0,0.1,0,0.1c0,0.1,0,0.1,0.1,0.2
				c9.7,6.1,20.3,11.8,31.8,17.1h0.1C319.8,532.1,319.8,532.2,319.9,532.2z"/>
			<path fill-rule="evenodd" clip-rule="evenodd" fill="#393937" d="M353.5,519.8h-0.2c-14.2,1.4-29.7,1.4-46.3,0l-6.6-4v-0.3
				c23.2,0.1,40.5,0.1,51.8,0c11.3,0,17.2,0,17.7,0c0.6,0,1,0,1.2,0h0.9l-0.2,0.1l-0.1,0.1l-1.3,0.3L353.5,519.8L353.5,519.8z
				 M367.2,519.5L367.2,519.5c-0.1,0-0.2,0.1-0.3,0.1L367.2,519.5z"/>
			<path fill-rule="evenodd" clip-rule="evenodd" fill="#787D81" d="M319.9,531.7L319.9,531.7c1.7,0.7,3.3,0.8,4.9,0.2l0,0
				c0,0.1,0,0.1,0,0.2v0.1c0,0,0,0.1,0.1,0.1c0.1,0,0.1,0,0.2,0c-0.1,0-0.1,0-0.2,0c-1.6,0.6-3.3,0.5-4.9-0.1c0,0-0.1-0.1-0.1-0.1
				h-0.1c-0.1,0-0.1-0.1-0.1-0.1c0-0.1,0-0.1,0-0.2c0-0.1,0.1-0.1,0.2-0.1C319.7,531.6,319.8,531.6,319.9,531.7z"/>
			<path fill-rule="evenodd" clip-rule="evenodd" fill="#2D3027" d="M324.8,532.3c-0.9,2.1-0.8,4.3,0.1,6.4l-0.4,0.7
				c-1.7,0.2-3.3,0.1-4.5-0.2l-0.3-0.5c0.9-1.6,0.9-3.8,0.1-6.5C321.5,532.9,323.2,532.9,324.8,532.3z"/>
			<path fill-rule="evenodd" clip-rule="evenodd" fill="#3E403D" d="M395.1,513.8h0.3c0.7,2,0.2,3.6-1.5,4.8
				c-22.2,9.8-45.1,16.7-68.6,20.7l0.5,0c-0.4,0.1-0.7,0.1-1.1,0.2l0.4-0.7c-0.9-2.1-1-4.2-0.1-6.4c0.1,0,0.1,0,0.2,0l0,0
				c37.7-8.7,58.8-13.9,63.3-15.5c4.4-1.7,6.6-2.6,6.7-2.7c0-0.1,0-0.1,0-0.1c0-0.1,0-0.1,0-0.1L395.1,513.8z M395.2,513.7
				L395.2,513.7L395.2,513.7L395.2,513.7z"/>
			<path fill-rule="evenodd" clip-rule="evenodd" fill="#808588" d="M395,513.8c0,0,0,0,0,0.1c0,0,0,0.1,0,0.1
				c-0.1,0.1-2.3,1-6.7,2.7c-4.5,1.6-25.5,6.8-63.3,15.5l0,0c-0.1,0-0.1,0-0.2,0c-0.1,0-0.1-0.1-0.1-0.1v-0.1c0-0.1,0-0.1,0-0.2l0,0
				c0,0,0.1,0,0.1,0c0,0,0,0,0.1,0h0c33-7.6,56.3-13.6,69.8-18C394.8,513.8,394.8,513.8,395,513.8C394.9,513.8,395,513.8,395,513.8z
				"/>
		</g>
	</g>
</g>
<g>
	
		<path fill-rule="evenodd" clip-rule="evenodd" fill="none" stroke="#2D0000" stroke-linecap="round" stroke-linejoin="round" stroke-miterlimit="3" d="
		M310.8,510.8l-15.6,1.3c0,0.1,0,0.1-0.1,0.2l6.5,2.4l16-1.7L310.8,510.8l12.1-1l14.1-0.9l16.3-1.3l7.8,0.9l0.7,0.1l9.2,1.1l1.1,0.1
		l9.2,1.1l10.5,1.3l13.1,1.5l-33.8,7.7l-2.7,0.6l-13.2,3l-0.2,0l-1,0.3l-13,3.5l-15.3,3.1l-12.1,2.5l-18.5-9.1l-0.3-0.1l-7.9-4l-8-4
		l-4.1-2l-2.4-1.1L272,514 M272.3,514.2l2.4-0.4l5.2-0.5l2.5-0.2l11.5-1l0.9,0l0.5-0.1 M282.4,513.2l6.5,2.8l12.8-1.3l9.4,3.3
		l15.8-2.1l-9.1-3 M286.8,521.3l11-1.5l-8.9-3.8l-10.1,1.3 M304.8,529.7l10.8-2.2l-5.1-2.2l-4.6-2l-11.3,1.9 M319.4,521.1l-8.4-3
		l-13.2,1.8l8.1,3.5L319.4,521.1l15.5-2.5l-8.1-2.6l12.9-1.8l8.3,2.3l-13.1,2.1l9.7,3.2l13.3-2.7 M371,515.3l-7.4-1.4l-15.6,2.6
		l9.8,2.6l16.1-3.3L371,515.3z M391.7,512.2l-17.8,3.6l11.3,2.1 M344.3,510.3l-14,1.5l9.4,2.5l15.1-2L344.3,510.3z M363.5,513.8
		l-8.8-1.6 M337,508.9l7.3,1.4l16.8-1.8 M354.8,525l-10.3-3.3l-15.1,3l1.6,0.6l9.8,3.5 M363.5,513.8l17.7-2.9 M372,509.8l-17.3,2.4
		 M368.3,522l-10.5-3 M319.4,521.1l10,3.7l-13.9,2.8l9.9,4.4 M330.3,511.8l-12.6,1.3 M322.9,509.8l7.4,2"/>
</g>
<g>
	<g>
		<g>
			<path fill-rule="evenodd" clip-rule="evenodd" fill="#FFFFFF" fill-opacity="0.1137" d="M348.6,37.5c-0.3,0.7-1.6,1.3-4,1.8
				c-2.6,0.6-5.8,0.9-9.4,0.9c-3.8,0-7-0.3-9.7-0.9c-2.4-0.5-3.7-1.2-3.8-2c0.1,0.9,1.4,1.5,3.8,2c2.7,0.6,5.9,0.9,9.7,0.9
				c3.7,0,6.8-0.3,9.4-0.9C347,38.8,348.3,38.2,348.6,37.5v1.9V40v13.4v21.2v243.8v1.1c-0.1,3.8-0.2,7.4-0.5,10.9
				c-0.3,3.5-1.5,7.4-3.6,11.9c-2.2,4.4-3.5,8.7-4,12.9v68.8c0-0.4-0.6-0.7-1.7-1c-1-0.2-2.2-0.3-3.7-0.3s-2.7,0.1-3.7,0.3
				c-1.1,0.3-1.6,0.6-1.6,1V355c-0.5-4.2-1.8-8.5-4-12.9c-2.2-4.5-3.4-8.4-3.6-11.9c-0.3-3.4-0.4-7.1-0.4-10.9v-1.1V74.5V53.4V39.8
				v-0.3v-2.3V37c0-0.1,0-0.3,0.1-0.3c0.3-0.7,1.6-1.4,3.7-1.9c2.7-0.5,5.9-0.8,9.7-0.8c3.7,0,6.8,0.3,9.4,0.8
				c2.5,0.6,3.8,1.3,4,2.1L348.6,37.5z M340.5,423.8c0,0.4-0.6,0.7-1.7,1c-1,0.3-2.2,0.5-3.7,0.5s-2.7-0.1-3.7-0.5
				c-1.1-0.3-1.6-0.6-1.6-1c0-0.4,0.5-0.7,1.6-1c1-0.2,2.2-0.3,3.7-0.3s2.7,0.1,3.7,0.3C339.9,423.1,340.5,423.5,340.5,423.8z"/>
			
				<path fill-rule="evenodd" clip-rule="evenodd" fill="none" stroke="#FFFFFF" stroke-width="0.1" stroke-linecap="round" stroke-linejoin="round" stroke-miterlimit="3" stroke-opacity="0.6196" d="
				M348.6,37.5c-0.3,0.7-1.6,1.3-4,1.8c-2.6,0.6-5.8,0.9-9.4,0.9c-3.8,0-7-0.3-9.7-0.9c-2.4-0.5-3.7-1.2-3.8-2"/>
			
				<path fill-rule="evenodd" clip-rule="evenodd" fill="none" stroke="#FFFFFF" stroke-linecap="round" stroke-linejoin="round" stroke-miterlimit="3" d="
				M321.7,37.2v2.3v0.3v13.6v21.2v243.8v1.1c0,3.8,0.2,7.4,0.4,10.9c0.2,3.5,1.5,7.4,3.6,11.9c2.2,4.4,3.5,8.7,4,12.9v68.8
				c0-0.4,0.5-0.7,1.6-1c1-0.2,2.2-0.3,3.7-0.3s2.7,0.1,3.7,0.3c1.1,0.3,1.7,0.6,1.7,1V355c0.5-4.2,1.8-8.5,4-12.9
				c2.2-4.5,3.4-8.4,3.6-11.9c0.2-3.4,0.4-7.1,0.5-10.9v-1.1V74.5V53.4V40v-0.6v-1.9 M321.7,37.2V37c0-0.1,0-0.3,0.1-0.3
				c0.3-0.7,1.6-1.4,3.7-1.9c2.7-0.5,5.9-0.8,9.7-0.8c3.7,0,6.8,0.3,9.4,0.8c2.5,0.6,3.8,1.3,4,2.1c0,0,0,0.1,0,0.1
				c0,0.1,0,0.2,0,0.4 M348.6,37l0,0.5 M340.5,423.8c0,0.4-0.6,0.7-1.7,1c-1,0.3-2.2,0.5-3.7,0.5s-2.7-0.1-3.7-0.5
				c-1.1-0.3-1.6-0.6-1.6-1"/>
		</g>
	</g>
	<g>
		
			<linearGradient id="SVGID_47_" gradientUnits="userSpaceOnUse" x1="-7.7397" y1="-328.3242" x2="350.1353" y2="-328.3242" gradientTransform="matrix(2.794272e-006 1 -1 -1.837007e-003 -8.083724e-005 -4.993682e-005)">
			<stop  offset="0" style="stop-color:#FFFFFF;stop-opacity:1.176471e-002"/>
			<stop  offset="0.3137" style="stop-color:#FFFFFF"/>
			<stop  offset="1" style="stop-color:#FFFFFF;stop-opacity:0"/>
		</linearGradient>
		<path fill-rule="evenodd" clip-rule="evenodd" fill="url(#SVGID_47_)" d="M326.7,43c1.3,0,2.5,0.2,3.6,0.6v306.4h-4.1V43H326.7z"
			/>
	</g>
	<g>
		<path fill-rule="evenodd" clip-rule="evenodd" fill="#FFFFFF" fill-opacity="0.6196" d="M348.4,316.9c0,0.1,0,0.2-0.1,0.4
			c-0.1,0-0.2,0-0.3,0h-10.4c-0.1,0-0.2,0-0.2,0c-0.1-0.1-0.2-0.3-0.2-0.4s0.1-0.2,0.2-0.2c0-0.1,0.1-0.2,0.2-0.2H348
			c0.1,0,0.2,0.1,0.3,0.2C348.3,316.7,348.4,316.8,348.4,316.9z M348,313c0.1,0,0.2,0,0.3,0.1c0,0,0.1,0.1,0.1,0.2s0,0.2-0.1,0.3
			c-0.1,0.1-0.2,0.1-0.3,0.1h-5c-0.1,0-0.2,0-0.3-0.1c-0.1-0.1-0.1-0.2-0.1-0.3s0-0.2,0.1-0.2c0.1-0.1,0.1-0.1,0.3-0.1H348z
			 M348.4,309.7c0,0.1,0,0.3-0.1,0.3c-0.1,0-0.2,0.1-0.3,0.1h-5c-0.1,0-0.2,0-0.3-0.1c-0.1-0.1-0.1-0.2-0.1-0.3c0-0.1,0-0.2,0.1-0.2
			c0.1-0.1,0.1-0.1,0.3-0.1h5c0.1,0,0.2,0,0.3,0.1C348.3,309.5,348.4,309.6,348.4,309.7z M348.3,306.4c-0.1,0-0.2,0.1-0.3,0.1h-5
			c-0.1,0-0.2,0-0.3-0.1c-0.1-0.1-0.1-0.2-0.1-0.3s0-0.2,0.1-0.3c0.1-0.1,0.1-0.1,0.3-0.1h5c0.1,0,0.2,0,0.3,0.1
			c0,0.1,0.1,0.1,0.1,0.3S348.3,306.3,348.3,306.4z M348.4,302.5c0,0.1,0,0.2-0.1,0.3c-0.1,0.1-0.2,0.1-0.3,0.1h-5
			c-0.1,0-0.2,0-0.3-0.1c-0.1-0.1-0.1-0.2-0.1-0.3c0-0.1,0-0.2,0.1-0.3c0.1-0.1,0.1-0.2,0.3-0.2h5c0.1,0,0.2,0.1,0.3,0.2
			C348.3,302.3,348.4,302.4,348.4,302.5z M348,298.5c0.1,0,0.2,0,0.3,0.1c0,0,0.1,0.1,0.1,0.2c0,0.1,0,0.2-0.1,0.3
			c-0.1,0.1-0.2,0.1-0.3,0.1h-8.6c-0.1,0-0.2,0-0.3-0.1c-0.1-0.1-0.1-0.2-0.1-0.3c0-0.1,0-0.2,0.1-0.2c0.1-0.1,0.1-0.1,0.3-0.1H348z
			 M343,292c-0.1,0-0.2,0-0.3-0.1c-0.1-0.1-0.1-0.2-0.1-0.3s0-0.2,0.1-0.2c0.1-0.1,0.1-0.1,0.3-0.1h5c0.1,0,0.2,0,0.3,0.1
			c0,0,0.1,0.1,0.1,0.2s0,0.2-0.1,0.3c-0.1,0.1-0.2,0.1-0.3,0.1H343z M342.8,295c0.1-0.1,0.1-0.1,0.3-0.1h5c0.1,0,0.2,0,0.3,0.1
			c0,0.1,0.1,0.1,0.1,0.3s0,0.2-0.1,0.3c-0.1,0.1-0.2,0.1-0.3,0.1h-5c-0.1,0-0.2,0-0.3-0.1c-0.1-0.1-0.1-0.2-0.1-0.3
			S342.6,295.1,342.8,295z M342.8,287.8c0.1-0.1,0.1-0.1,0.3-0.1h5c0.1,0,0.2,0,0.3,0.1c0,0,0.1,0.1,0.1,0.2c0,0.1,0,0.3-0.1,0.3
			c-0.1,0-0.2,0.1-0.3,0.1h-5c-0.1,0-0.2,0-0.3-0.1c-0.1-0.1-0.1-0.2-0.1-0.3C342.6,287.9,342.6,287.8,342.8,287.8z M342.8,284.1
			c0.1-0.1,0.1-0.1,0.3-0.1h5c0.1,0,0.2,0,0.3,0.1c0,0.1,0.1,0.1,0.1,0.3v0c0,0.1,0,0.1-0.1,0.3c-0.1,0-0.2,0.1-0.3,0.1h-5
			c-0.1,0-0.2,0-0.3-0.1c-0.1-0.1-0.1-0.2-0.1-0.3v0C342.6,284.3,342.6,284.2,342.8,284.1z M337.4,281c-0.1-0.1-0.2-0.2-0.2-0.3
			c0-0.1,0.1-0.2,0.2-0.3c0-0.1,0.1-0.2,0.2-0.2H348c0.1,0,0.2,0.1,0.3,0.2c0,0.1,0.1,0.1,0.1,0.3c0,0.1,0,0.2-0.1,0.3
			c-0.1,0.1-0.2,0.1-0.3,0.1h-10.4C337.5,281.1,337.4,281.1,337.4,281z M343,277.5c-0.1,0-0.2,0-0.3,0c-0.1-0.1-0.1-0.2-0.1-0.3
			s0-0.2,0.1-0.3c0.1-0.1,0.1-0.1,0.3-0.1h5c0.1,0,0.2,0,0.3,0.1c0,0.1,0.1,0.1,0.1,0.3s0,0.2-0.1,0.3c-0.1,0-0.2,0-0.3,0H343z
			 M342.8,273.8c-0.1-0.1-0.1-0.2-0.1-0.3s0-0.2,0.1-0.3c0.1-0.1,0.1-0.1,0.3-0.1h5c0.1,0,0.2,0,0.3,0.1c0,0.1,0.1,0.1,0.1,0.3
			s0,0.2-0.1,0.3c-0.1,0.1-0.2,0.1-0.3,0.1h-5C342.9,273.9,342.8,273.9,342.8,273.8z M348,269.5c0.1,0,0.2,0,0.3,0.1
			c0,0,0.1,0.1,0.1,0.2s0,0.2-0.1,0.3c-0.1,0.1-0.2,0.1-0.3,0.1h-5c-0.1,0-0.2,0-0.3-0.1c-0.1-0.1-0.1-0.2-0.1-0.3s0-0.2,0.1-0.2
			c0.1-0.1,0.1-0.1,0.3-0.1H348z M348,265.9c0.1,0,0.2,0,0.3,0.1c0,0,0.1,0.1,0.1,0.3c0,0.1,0,0.2-0.1,0.3c-0.1,0-0.2,0.1-0.3,0.1
			h-5c-0.1,0-0.2,0-0.3-0.1c-0.1-0.1-0.1-0.2-0.1-0.3c0-0.1,0-0.2,0.1-0.3c0.1-0.1,0.1-0.1,0.3-0.1H348z M348,262.2
			c0.1,0,0.2,0,0.3,0.1c0,0.1,0.1,0.1,0.1,0.3s0,0.2-0.1,0.3c-0.1,0-0.2,0.1-0.3,0.1h-8.6c-0.1,0-0.2,0-0.3-0.1
			c-0.1-0.1-0.1-0.2-0.1-0.3s0-0.2,0.1-0.3c0.1-0.1,0.1-0.1,0.3-0.1H348z M348.3,259.4c-0.1,0-0.2,0-0.3,0h-5c-0.1,0-0.2,0-0.3,0
			c-0.1-0.1-0.1-0.2-0.1-0.3c0-0.1,0-0.2,0.1-0.3c0.1-0.1,0.1-0.1,0.3-0.1h5c0.1,0,0.2,0.1,0.3,0.1c0,0,0.1,0.1,0.1,0.3
			C348.4,259.1,348.3,259.3,348.3,259.4z M348.3,255.7c-0.1,0-0.2,0-0.3,0h-5c-0.1,0-0.2,0-0.3,0c-0.1-0.1-0.1-0.2-0.1-0.3
			s0-0.2,0.1-0.3c0.1-0.1,0.1-0.1,0.3-0.1h5c0.1,0,0.2,0,0.3,0.1c0,0.1,0.1,0.1,0.1,0.3S348.3,255.6,348.3,255.7z M348.3,252
			c-0.1,0.1-0.2,0.1-0.3,0.1h-5c-0.1,0-0.2,0-0.3-0.1c-0.1-0.1-0.1-0.2-0.1-0.3s0-0.2,0.1-0.3c0.1-0.1,0.1-0.1,0.3-0.1h5
			c0.1,0,0.2,0,0.3,0.1c0,0.1,0.1,0.1,0.1,0.3S348.3,252,348.3,252z M348,247.8c0.1,0,0.2,0,0.3,0.1c0,0,0.1,0.1,0.1,0.2
			s0,0.2-0.1,0.3c-0.1,0.1-0.2,0.1-0.3,0.1h-5c-0.1,0-0.2,0-0.3-0.1c-0.1-0.1-0.1-0.2-0.1-0.3s0-0.2,0.1-0.2
			c0.1-0.1,0.1-0.1,0.3-0.1H348z M337.6,244.9c-0.1,0-0.2,0-0.2-0.1c-0.1-0.1-0.2-0.2-0.2-0.3c0-0.1,0.1-0.2,0.2-0.3
			c0-0.1,0.1-0.1,0.2-0.1H348c0.1,0,0.2,0,0.3,0.1c0,0,0.1,0.1,0.1,0.3c0,0.1,0,0.2-0.1,0.3c-0.1,0-0.2,0.1-0.3,0.1H337.6z
			 M343,241.2c-0.1,0-0.2,0-0.3-0.1c-0.1-0.1-0.1-0.2-0.1-0.3s0-0.2,0.1-0.3c0.1-0.1,0.1-0.1,0.3-0.1h5c0.1,0,0.2,0,0.3,0.1
			c0,0.1,0.1,0.1,0.1,0.3s0,0.2-0.1,0.3c-0.1,0-0.2,0.1-0.3,0.1H343z M342.6,237.3c0-0.1,0-0.2,0.1-0.3c0.1-0.1,0.1-0.1,0.3-0.1h5
			c0.1,0,0.2,0.1,0.3,0.1c0,0.1,0.1,0.2,0.1,0.3c0,0.1,0,0.2-0.1,0.3c-0.1,0-0.2,0-0.3,0h-5c-0.1,0-0.2,0-0.3,0
			C342.6,237.5,342.6,237.4,342.6,237.3z M342.8,233.4c0.1-0.1,0.1-0.1,0.3-0.1h5c0.1,0,0.2,0,0.3,0.1c0,0.1,0.1,0.1,0.1,0.3
			s0,0.2-0.1,0.3c-0.1,0-0.2,0-0.3,0h-5c-0.1,0-0.2,0-0.3,0c-0.1-0.1-0.1-0.2-0.1-0.3S342.6,233.5,342.8,233.4z M343,230.4
			c-0.1,0-0.2,0-0.3-0.1c-0.1-0.1-0.1-0.2-0.1-0.3s0-0.2,0.1-0.3c0.1-0.1,0.1-0.1,0.3-0.1h5c0.1,0,0.2,0,0.3,0.1
			c0,0.1,0.1,0.1,0.1,0.3s0,0.2-0.1,0.3c-0.1,0.1-0.2,0.1-0.3,0.1H343z M339.1,226.6c-0.1-0.1-0.1-0.2-0.1-0.3s0-0.2,0.1-0.2
			c0.1-0.1,0.1-0.1,0.3-0.1h8.6c0.1,0,0.2,0,0.3,0.1c0,0,0.1,0.1,0.1,0.2s0,0.2-0.1,0.3c-0.1,0.1-0.2,0.1-0.3,0.1h-8.6
			C339.3,226.8,339.2,226.7,339.1,226.6z M348,218.8c0.1,0,0.2,0.1,0.3,0.2c0,0,0.1,0.1,0.1,0.2s0,0.2-0.1,0.3
			c-0.1,0.1-0.2,0.1-0.3,0.1h-5c-0.1,0-0.2,0-0.3-0.1c-0.1-0.1-0.1-0.2-0.1-0.3s0-0.2,0.1-0.2c0.1-0.1,0.1-0.2,0.3-0.2H348z
			 M348,222.4c0.1,0,0.2,0,0.3,0.1c0,0.1,0.1,0.1,0.1,0.3s0,0.2-0.1,0.3c-0.1,0-0.2,0.1-0.3,0.1h-5c-0.1,0-0.2,0-0.3-0.1
			c-0.1-0.1-0.1-0.2-0.1-0.3s0-0.2,0.1-0.3c0.1-0.1,0.1-0.1,0.3-0.1H348z M348,215.1c0.1,0,0.2,0.1,0.3,0.1c0,0.1,0.1,0.2,0.1,0.3
			c0,0.1,0,0.2-0.1,0.3c-0.1,0-0.2,0-0.3,0h-5c-0.1,0-0.2,0-0.3,0c-0.1-0.1-0.1-0.2-0.1-0.3c0-0.1,0-0.2,0.1-0.3
			c0.1-0.1,0.1-0.1,0.3-0.1H348z M348,211.5c0.1,0,0.2,0,0.3,0.1c0,0.1,0.1,0.1,0.1,0.3s0,0.2-0.1,0.3c-0.1,0-0.2,0-0.3,0h-5
			c-0.1,0-0.2,0-0.3,0c-0.1-0.1-0.1-0.2-0.1-0.3s0-0.2,0.1-0.3c0.1-0.1,0.1-0.1,0.3-0.1H348z M348.3,204.9c-0.1,0.1-0.2,0.1-0.3,0.1
			h-5c-0.1,0-0.2,0-0.3-0.1c-0.1-0.1-0.1-0.2-0.1-0.3s0-0.2,0.1-0.2c0.1-0.1,0.1-0.1,0.3-0.1h5c0.1,0,0.2,0,0.3,0.1
			c0,0,0.1,0.1,0.1,0.2S348.3,204.8,348.3,204.9z M348,207.9c0.1,0,0.2,0.1,0.3,0.2c0,0,0.1,0.1,0.1,0.2s0,0.2-0.1,0.3
			c-0.1,0.1-0.2,0.1-0.3,0.1h-10.4c-0.1,0-0.2,0-0.2-0.1c-0.1-0.1-0.2-0.2-0.2-0.3s0.1-0.2,0.2-0.2c0-0.1,0.1-0.2,0.2-0.2H348z
			 M348.3,201.4c-0.1,0.1-0.2,0.1-0.3,0.1h-5c-0.1,0-0.2,0-0.3-0.1c-0.1-0.1-0.1-0.2-0.1-0.3c0-0.1,0-0.2,0.1-0.2
			c0.1-0.1,0.1-0.2,0.3-0.2h5c0.1,0,0.2,0.1,0.3,0.2c0,0,0.1,0.1,0.1,0.2C348.4,201.1,348.3,201.3,348.3,201.4z M342.8,197.2
			c0.1-0.1,0.1-0.2,0.3-0.2h5c0.1,0,0.2,0.1,0.3,0.2c0,0,0.1,0.1,0.1,0.2s0,0.2-0.1,0.3c-0.1,0.1-0.2,0.1-0.3,0.1h-5
			c-0.1,0-0.2,0-0.3-0.1c-0.1-0.1-0.1-0.2-0.1-0.3S342.6,197.2,342.8,197.2z M343,194.1c-0.1,0-0.2,0-0.3,0
			c-0.1-0.1-0.1-0.2-0.1-0.3c0-0.1,0-0.2,0.1-0.3c0.1-0.1,0.1-0.1,0.3-0.1h5c0.1,0,0.2,0.1,0.3,0.1c0,0.1,0.1,0.2,0.1,0.3
			c0,0.1,0,0.2-0.1,0.3c-0.1,0-0.2,0-0.3,0H343z M339,190.1c0-0.1,0-0.2,0.1-0.3c0.1-0.1,0.1-0.1,0.3-0.1h8.6c0.1,0,0.2,0,0.3,0.1
			c0,0.1,0.1,0.1,0.1,0.3s0,0.2-0.1,0.3c-0.1,0-0.2,0-0.3,0h-8.6c-0.1,0-0.2,0-0.3,0C339,190.4,339,190.3,339,190.1z M342.8,186.3
			c0.1-0.1,0.1-0.2,0.3-0.2h5c0.1,0,0.2,0.1,0.3,0.2c0,0,0.1,0.1,0.1,0.2s0,0.2-0.1,0.3c-0.1,0.1-0.2,0.1-0.3,0.1h-5
			c-0.1,0-0.2,0-0.3-0.1c-0.1-0.1-0.1-0.2-0.1-0.3S342.6,186.3,342.8,186.3z M342.6,183c0-0.1,0-0.2,0.1-0.3
			c0.1-0.1,0.1-0.2,0.3-0.2h5c0.1,0,0.2,0.1,0.3,0.2c0,0.1,0.1,0.1,0.1,0.3c0,0.1,0,0.2-0.1,0.3c-0.1,0-0.2,0-0.3,0h-5
			c-0.1,0-0.2,0-0.3,0C342.6,183.1,342.6,183,342.6,183z M343,176c-0.1,0-0.2,0-0.3-0.1c-0.1-0.1-0.1-0.2-0.1-0.3s0-0.2,0.1-0.2
			c0.1-0.1,0.1-0.2,0.3-0.2h5c0.1,0,0.2,0.1,0.3,0.2c0,0,0.1,0.1,0.1,0.2s0,0.2-0.1,0.3c-0.1,0.1-0.2,0.1-0.3,0.1H343z M342.8,179.1
			c0.1-0.1,0.1-0.1,0.3-0.1h5c0.1,0,0.2,0,0.3,0.1c0,0,0.1,0.1,0.1,0.2c0,0.1,0,0.2-0.1,0.3c-0.1,0.1-0.2,0.1-0.3,0.1h-5
			c-0.1,0-0.2,0-0.3-0.1c-0.1-0.1-0.1-0.2-0.1-0.3C342.6,179.2,342.6,179.1,342.8,179.1z M348,168c0.1,0,0.2,0,0.3,0.1
			c0,0.1,0.1,0.1,0.1,0.3s0,0.2-0.1,0.3c-0.1,0-0.2,0-0.3,0h-5c-0.1,0-0.2,0-0.3,0c-0.1-0.1-0.1-0.2-0.1-0.3s0-0.2,0.1-0.3
			c0.1-0.1,0.1-0.1,0.3-0.1H348z M348.3,172.4c-0.1,0-0.2,0-0.3,0h-10.4c-0.1,0-0.2,0-0.2,0c-0.1-0.1-0.2-0.2-0.2-0.3
			c0-0.1,0.1-0.2,0.2-0.3c0-0.1,0.1-0.1,0.2-0.1H348c0.1,0,0.2,0.1,0.3,0.1c0,0.1,0.1,0.2,0.1,0.3
			C348.4,172.1,348.3,172.3,348.3,172.4z M348.3,165c-0.1,0.1-0.2,0.1-0.3,0.1h-5c-0.1,0-0.2,0-0.3-0.1c-0.1-0.1-0.1-0.2-0.1-0.3
			s0-0.2,0.1-0.2c0.1-0.1,0.1-0.1,0.3-0.1h5c0.1,0,0.2,0.1,0.3,0.1c0,0,0.1,0.1,0.1,0.2S348.3,165,348.3,165z M348.3,161.5
			c-0.1,0-0.2,0-0.3,0h-5c-0.1,0-0.2,0-0.3,0c-0.1-0.1-0.1-0.2-0.1-0.3c0-0.1,0-0.2,0.1-0.3c0.1-0.1,0.1-0.2,0.3-0.2h5
			c0.1,0,0.2,0.1,0.3,0.2c0,0.1,0.1,0.1,0.1,0.3C348.4,161.3,348.3,161.4,348.3,161.5z M348.4,157.5c0,0.1,0,0.2-0.1,0.3
			c-0.1,0.1-0.2,0.1-0.3,0.1h-5c-0.1,0-0.2,0-0.3-0.1c-0.1-0.1-0.1-0.2-0.1-0.3c0-0.1,0-0.2,0.1-0.2c0.1-0.1,0.1-0.1,0.3-0.1h5
			c0.1,0,0.2,0,0.3,0.1C348.3,157.4,348.4,157.5,348.4,157.5z M348,153.5c0.1,0,0.2,0.1,0.3,0.2c0,0,0.1,0.1,0.1,0.2s0,0.2-0.1,0.3
			c-0.1,0.1-0.2,0.1-0.3,0.1h-8.6c-0.1,0-0.2,0-0.3-0.1c-0.1-0.1-0.1-0.2-0.1-0.3s0-0.2,0.1-0.2c0.1-0.1,0.1-0.2,0.3-0.2H348z
			 M348,149.9c0.1,0,0.2,0.1,0.3,0.1c0,0.1,0.1,0.2,0.1,0.3c0,0.1,0,0.2-0.1,0.3c-0.1,0-0.2,0-0.3,0h-5c-0.1,0-0.2,0-0.3,0
			c-0.1-0.1-0.1-0.2-0.1-0.3c0-0.1,0-0.2,0.1-0.3c0.1-0.1,0.1-0.1,0.3-0.1H348z M342.8,143.4c-0.1-0.1-0.1-0.2-0.1-0.3
			s0-0.2,0.1-0.3c0.1-0.1,0.1-0.1,0.3-0.1h5c0.1,0,0.2,0,0.3,0.1c0,0.1,0.1,0.1,0.1,0.3s0,0.2-0.1,0.3c-0.1,0-0.2,0.1-0.3,0.1h-5
			C342.9,143.5,342.8,143.4,342.8,143.4z M342.6,146.6c0-0.1,0-0.2,0.1-0.3c0.1-0.1,0.1-0.1,0.3-0.1h5c0.1,0,0.2,0,0.3,0.1
			c0,0.1,0.1,0.1,0.1,0.3s0,0.2-0.1,0.3c-0.1,0-0.2,0-0.3,0h-5c-0.1,0-0.2,0-0.3,0C342.6,146.9,342.6,146.8,342.6,146.6z M343,139.8
			c-0.1,0-0.2,0-0.3,0c-0.1-0.1-0.1-0.2-0.1-0.3c0-0.1,0-0.2,0.1-0.3c0.1-0.1,0.1-0.2,0.3-0.2h5c0.1,0,0.2,0.1,0.3,0.2
			c0,0.1,0.1,0.1,0.1,0.3c0,0.1,0,0.2-0.1,0.3c-0.1,0-0.2,0-0.3,0H343z M337.4,136.1c-0.1-0.1-0.2-0.2-0.2-0.3
			c0-0.1,0.1-0.2,0.2-0.2c0-0.1,0.1-0.1,0.2-0.1H348c0.1,0,0.2,0,0.3,0.1c0,0,0.1,0.1,0.1,0.2c0,0.1,0,0.2-0.1,0.3
			c-0.1,0.1-0.2,0.1-0.3,0.1h-10.4C337.5,136.2,337.4,136.2,337.4,136.1z"/>
	</g>
	<g>
		<path fill-rule="evenodd" clip-rule="evenodd" d="M334.5,132.5c-0.1-0.3-0.3-0.5-0.6-0.7c-0.2-0.1-0.5-0.2-0.9-0.2
			c-0.3,0-0.6,0.1-0.9,0.2c-0.3,0.2-0.5,0.4-0.6,0.7c-0.1,0.3-0.2,0.7-0.3,1.2c0,0.5,0,1,0,1.5c0,0.6,0,1.1,0,1.5
			c0,0.4,0.1,0.8,0.3,1.2c0.1,0.3,0.3,0.5,0.5,0.6c0.3,0.2,0.6,0.3,1,0.3c0.4,0,0.7-0.1,0.9-0.3c0.3-0.1,0.5-0.4,0.6-0.6
			c0.1-0.3,0.2-0.7,0.3-1.2c0-0.4,0.1-0.9,0.1-1.5c0-0.6,0-1.2-0.1-1.6C334.7,133.2,334.6,132.9,334.5,132.5z M336.1,135.3
			c0,1.5-0.3,2.7-0.8,3.5c-0.5,0.7-1.2,1-2.3,1c-1.1,0-1.8-0.3-2.3-1c-0.5-0.8-0.7-1.9-0.7-3.5c0-1.6,0.2-2.7,0.7-3.5
			c0.5-0.8,1.3-1.1,2.3-1.1c1.1,0,1.9,0.4,2.4,1.1C335.9,132.6,336.1,133.7,336.1,135.3z M328.3,131.9h-4.2v2.4c0.2,0,0.4,0,0.5,0
			c0.1,0,0.3,0,0.5,0c0.5,0,0.9,0,1.2,0.1c0.4,0.1,0.7,0.3,1,0.5c0.4,0.2,0.6,0.5,0.8,0.9c0.2,0.3,0.3,0.8,0.3,1.3
			c0,0.4-0.1,0.8-0.3,1.3c-0.1,0.3-0.3,0.6-0.6,0.9c-0.3,0.3-0.6,0.5-1,0.6c-0.4,0.1-0.9,0.1-1.4,0.1s-1,0-1.4-0.1
			c-0.5-0.1-0.9-0.2-1.1-0.3v-1.3h0c0.3,0.2,0.7,0.4,1.1,0.5c0.4,0.2,0.8,0.3,1.3,0.3c0.3,0,0.5-0.1,0.8-0.1
			c0.3-0.1,0.5-0.2,0.8-0.4c0.2-0.1,0.3-0.3,0.4-0.6c0.1-0.3,0.1-0.6,0.1-0.9c0-0.3,0-0.6-0.1-0.8c-0.2-0.2-0.3-0.4-0.5-0.5
			c-0.2-0.2-0.4-0.3-0.8-0.3c-0.3-0.1-0.6-0.1-1-0.1s-0.7,0-1,0.1c-0.3,0-0.6,0.1-0.8,0.2v-4.6h5.3V131.9z M327.7,172.5h1.3v0.9
			h-1.3v2.5h-1.2v-2.5h-4.3V172l4.3-4.9h1.2V172.5z M326.5,168.5l-3.4,4h3.4V168.5z M332.5,168.1c-0.3,0.1-0.5,0.4-0.6,0.6
			c-0.1,0.3-0.2,0.8-0.2,1.3c-0.1,0.4-0.1,0.9-0.1,1.5c0,0.6,0,1.1,0,1.5c0.1,0.5,0.2,0.9,0.3,1.1c0.2,0.3,0.4,0.5,0.6,0.7
			c0.3,0.2,0.6,0.3,1,0.3c0.3,0,0.6-0.1,0.9-0.3c0.2-0.2,0.4-0.4,0.6-0.7c0.1-0.3,0.2-0.7,0.3-1.1c0-0.4,0-0.9,0-1.5s0-1.1,0-1.6
			c-0.1-0.4-0.2-0.8-0.3-1.1c-0.2-0.3-0.4-0.5-0.6-0.6c-0.3-0.2-0.6-0.3-0.9-0.3C333.1,167.9,332.8,167.9,332.5,168.1z M331.1,168
			c0.5-0.7,1.3-1.1,2.4-1.1c1.1,0,1.8,0.4,2.3,1.1c0.4,0.8,0.7,1.9,0.7,3.5s-0.3,2.7-0.8,3.5c-0.4,0.7-1.2,1-2.3,1
			c-1.1,0-1.9-0.3-2.4-1c-0.5-0.8-0.7-1.9-0.7-3.5S330.6,168.8,331.1,168z M335.2,209.1c0-0.4,0-0.9,0-1.5s0-1.1,0-1.6
			c-0.1-0.5-0.2-0.8-0.3-1.1c-0.2-0.3-0.4-0.5-0.6-0.6c-0.3-0.2-0.6-0.3-0.9-0.3c-0.4,0-0.7,0.1-0.9,0.3c-0.3,0.1-0.5,0.4-0.6,0.6
			c-0.1,0.3-0.2,0.7-0.2,1.3c-0.1,0.4-0.1,0.9-0.1,1.5c0,0.6,0,1.1,0,1.5c0.1,0.5,0.2,0.9,0.3,1.1c0.2,0.3,0.4,0.5,0.6,0.7
			c0.3,0.2,0.6,0.3,1,0.3c0.3,0,0.6-0.1,0.9-0.3c0.2-0.2,0.4-0.4,0.6-0.7C335,210,335.1,209.6,335.2,209.1z M336.5,207.6
			c0,1.6-0.3,2.7-0.8,3.5c-0.4,0.7-1.2,1.1-2.3,1.1c-1.1,0-1.9-0.4-2.4-1.1c-0.5-0.8-0.7-1.9-0.7-3.5c0-1.6,0.2-2.7,0.7-3.5
			c0.5-0.8,1.3-1.1,2.4-1.1c1.1,0,1.8,0.4,2.3,1.1C336.2,204.9,336.5,206.1,336.5,207.6z M325.5,203c0.5,0,0.9,0.1,1.2,0.2
			c0.3,0,0.6,0.1,0.9,0.3c0.3,0.2,0.5,0.4,0.6,0.7c0.2,0.2,0.3,0.5,0.3,0.9c0,0.5-0.2,0.9-0.6,1.3c-0.3,0.3-0.7,0.5-1.2,0.6v0.1
			c0.2,0,0.4,0.1,0.6,0.2c0.3,0.1,0.5,0.2,0.6,0.4c0.2,0.2,0.4,0.4,0.5,0.6c0.1,0.3,0.2,0.6,0.2,1.1c0,0.4-0.1,0.8-0.2,1.1
			c-0.2,0.3-0.4,0.6-0.6,0.9c-0.3,0.2-0.7,0.4-1.1,0.6c-0.4,0.1-0.8,0.2-1.3,0.2c-0.5,0-1-0.1-1.5-0.2c-0.4-0.1-0.8-0.2-1.1-0.4
			v-1.2h0c0.4,0.2,0.8,0.4,1.2,0.5c0.5,0.1,0.9,0.2,1.3,0.2c0.3,0,0.6-0.1,0.9-0.2c0.2,0,0.5-0.1,0.6-0.3c0.2-0.2,0.3-0.4,0.4-0.6
			c0.1-0.2,0.2-0.5,0.2-0.9c0-0.3-0.1-0.5-0.2-0.8c-0.1-0.2-0.3-0.3-0.4-0.4c-0.2-0.2-0.4-0.3-0.6-0.3c-0.3-0.1-0.5-0.1-0.9-0.1
			h-0.5v-1h0.4c0.6,0,1.1-0.1,1.5-0.4c0.3-0.2,0.5-0.6,0.5-1.1c0-0.2,0-0.4-0.1-0.5c-0.1-0.2-0.2-0.4-0.4-0.5
			c-0.2-0.1-0.4-0.1-0.6-0.1c-0.1,0-0.3,0-0.6,0c-0.4,0-0.8,0-1.2,0.1c-0.4,0.1-0.8,0.3-1.2,0.6H323v-1.2c0.3-0.2,0.7-0.3,1.2-0.4
			C324.6,203.1,325.1,203,325.5,203z M331.9,240.9c-0.1,0.3-0.2,0.7-0.2,1.3c-0.1,0.4-0.1,0.9-0.1,1.5c0,0.6,0,1.1,0,1.5
			c0.1,0.5,0.2,0.9,0.3,1.1c0.2,0.3,0.4,0.5,0.6,0.7c0.3,0.2,0.6,0.3,1,0.3c0.3,0,0.6-0.1,0.9-0.3c0.2-0.2,0.4-0.4,0.6-0.7
			c0.1-0.3,0.2-0.7,0.3-1.1c0-0.4,0-0.9,0-1.5s0-1.1,0-1.6c-0.1-0.5-0.2-0.8-0.3-1.1c-0.2-0.3-0.4-0.5-0.6-0.6
			c-0.3-0.2-0.6-0.3-0.9-0.3c-0.4,0-0.7,0.1-0.9,0.3C332.3,240.4,332.1,240.6,331.9,240.9z M333.5,239c1.1,0,1.8,0.4,2.3,1.1
			c0.4,0.8,0.7,1.9,0.7,3.5c0,1.6-0.3,2.7-0.8,3.5c-0.4,0.7-1.2,1.1-2.3,1.1c-1.1,0-1.9-0.4-2.4-1.1c-0.5-0.8-0.7-1.9-0.7-3.5
			c0-1.6,0.2-2.7,0.7-3.5C331.6,239.4,332.4,239,333.5,239z M327.6,239.7c0.5,0.5,0.8,1,0.8,1.8c0,0.4,0,0.7-0.1,1
			c-0.1,0.2-0.2,0.5-0.4,0.8c-0.1,0.2-0.3,0.4-0.5,0.7c-0.2,0.2-0.5,0.5-0.8,0.8c-0.4,0.5-0.9,0.9-1.4,1.2c-0.5,0.4-0.9,0.8-1.2,1.1
			h4.7v1h-5.9v-1.2c0.4-0.4,0.8-0.7,1.2-1.1c0.4-0.3,0.8-0.7,1.1-1c0.8-0.8,1.3-1.4,1.6-1.8c0.3-0.4,0.4-0.9,0.4-1.5
			c0-0.4-0.1-0.8-0.4-1c-0.3-0.2-0.7-0.4-1.3-0.4c-0.4,0-0.8,0-1.3,0.1c-0.4,0.1-0.8,0.3-1.2,0.6h0v-1.2c0.3-0.2,0.7-0.3,1.1-0.4
			c0.5-0.2,1-0.3,1.4-0.3C326.4,239,327.1,239.2,327.6,239.7z M335.4,283.6c-0.5,0.7-1.2,1-2.3,1c-1.1,0-1.8-0.4-2.3-1
			c-0.5-0.8-0.7-1.9-0.7-3.5c0-1.6,0.2-2.7,0.7-3.5c0.5-0.8,1.3-1.1,2.3-1.1c1.1,0,1.9,0.4,2.4,1.1c0.5,0.8,0.7,1.9,0.7,3.5
			C336.1,281.7,335.9,282.8,335.4,283.6z M334.8,278.5c-0.1-0.5-0.1-0.9-0.3-1.1c-0.1-0.3-0.3-0.5-0.6-0.6c-0.2-0.2-0.5-0.3-0.9-0.3
			c-0.3,0-0.6,0.1-0.9,0.3c-0.3,0.1-0.5,0.3-0.6,0.6c-0.1,0.3-0.2,0.7-0.3,1.3c0,0.4,0,0.9,0,1.5c0,0.6,0,1.1,0,1.5
			c0,0.5,0.1,0.9,0.3,1.1c0.1,0.3,0.3,0.5,0.5,0.7c0.3,0.2,0.6,0.3,1,0.3c0.4,0,0.7-0.1,0.9-0.3c0.3-0.2,0.5-0.4,0.6-0.7
			c0.1-0.3,0.2-0.7,0.3-1.1c0-0.4,0.1-0.9,0.1-1.5S334.8,279,334.8,278.5z M325,276.3c0.1-0.2,0.2-0.4,0.2-0.6h1v8h1.8v0.9h-4.8
			v-0.9h1.8v-6h-1.8v-0.8c0.2,0,0.5,0,0.8,0c0.3-0.1,0.5-0.1,0.6-0.3C324.7,276.5,324.9,276.4,325,276.3z M333.1,314
			c-0.3-0.1-0.6-0.2-0.9-0.2c-0.3,0-0.6,0.1-0.9,0.2c-0.2,0.2-0.4,0.4-0.6,0.7c-0.1,0.3-0.2,0.7-0.2,1.2c-0.1,0.5-0.1,1-0.1,1.5
			c0,0.6,0,1.1,0,1.5c0.1,0.5,0.2,0.9,0.3,1.1c0.2,0.3,0.3,0.5,0.5,0.7c0.2,0.2,0.5,0.3,1,0.3c0.4,0,0.7-0.1,0.9-0.3
			c0.2-0.1,0.4-0.4,0.6-0.7c0.1-0.3,0.2-0.7,0.2-1.1c0.1-0.4,0.1-0.9,0.1-1.5c0-0.6,0-1.2-0.1-1.6c0-0.5-0.1-0.8-0.2-1.1
			C333.6,314.4,333.4,314.1,333.1,314z M332.2,312.8c1.1,0,1.8,0.4,2.3,1.1c0.5,0.8,0.7,1.9,0.7,3.5c0,1.6-0.3,2.7-0.8,3.5
			c-0.5,0.7-1.2,1-2.3,1c-1,0-1.8-0.4-2.4-1c-0.4-0.7-0.6-1.9-0.6-3.5c0-1.6,0.2-2.7,0.6-3.5C330.4,313.1,331.2,312.8,332.2,312.8z"
			/>
	</g>
	<g>
		<g>
			<g>
				
					<linearGradient id="SVGID_48_" gradientUnits="userSpaceOnUse" x1="352.8047" y1="-356.3867" x2="379.9297" y2="-356.3867" gradientTransform="matrix(9.216586e-004 1 -1 -9.132425e-005 2.749459e-004 -1.984048e-004)">
					<stop  offset="0" style="stop-color:#FFFFFF"/>
					<stop  offset="0.149" style="stop-color:#FFFFFF"/>
					<stop  offset="0.1922" style="stop-color:#999999"/>
					<stop  offset="0.2353" style="stop-color:#FFFFFF"/>
					<stop  offset="0.3843" style="stop-color:#FFFFFF"/>
					<stop  offset="0.4275" style="stop-color:#999999"/>
					<stop  offset="0.4784" style="stop-color:#FFFFFF"/>
					<stop  offset="0.6275" style="stop-color:#FFFFFF"/>
					<stop  offset="0.6902" style="stop-color:#CCCCCC"/>
					<stop  offset="0.7294" style="stop-color:#FFFFFF"/>
					<stop  offset="0.8471" style="stop-color:#999999"/>
					<stop  offset="1" style="stop-color:#CCCCCC"/>
				</linearGradient>
				<path fill-rule="evenodd" clip-rule="evenodd" fill="url(#SVGID_48_)" d="M356.7,358.8L356.7,358.8c0.1,0,0.2,0.7,0.3,2.3
					c0,0.4,0,0.8,0,1.2v0c0,1.2,0,2.6,0,4.2c0,2.1,0,3.9,0,5.3c-0.1,1.5-0.1,2.3-0.2,2.3c-0.1,0-0.2-0.8-0.2-2.3
					c-0.1-1.5-0.1-3.3-0.1-5.3c0-1.6,0-3,0-4.2v0c0-0.4,0-0.8,0-1.2C356.6,359.9,356.6,359.1,356.7,358.8L356.7,358.8z"/>
				
					<linearGradient id="SVGID_49_" gradientUnits="userSpaceOnUse" x1="357.9307" y1="-353.7202" x2="374.8057" y2="-353.7202" gradientTransform="matrix(1.481480e-003 1 -1 -9.153328e-005 -2.266653e-005 -1.641658e-004)">
					<stop  offset="0" style="stop-color:#FFFFFF"/>
					<stop  offset="0.149" style="stop-color:#FFFFFF;stop-opacity:0.3098"/>
					<stop  offset="0.1922" style="stop-color:#999999"/>
					<stop  offset="0.2353" style="stop-color:#FFFFFF"/>
					<stop  offset="0.3843" style="stop-color:#FFFFFF;stop-opacity:0.4118"/>
					<stop  offset="0.4275" style="stop-color:#999999"/>
					<stop  offset="0.4784" style="stop-color:#FFFFFF"/>
					<stop  offset="0.6275" style="stop-color:#FFFFFF;stop-opacity:0.298"/>
					<stop  offset="0.6902" style="stop-color:#666666"/>
					<stop  offset="0.7294" style="stop-color:#FFFFFF"/>
					<stop  offset="0.8471" style="stop-color:#999999"/>
					<stop  offset="1" style="stop-color:#CCCCCC"/>
				</linearGradient>
				<path fill-rule="evenodd" clip-rule="evenodd" fill="url(#SVGID_49_)" d="M356.8,374h-4c-0.4-0.4-0.6-0.9-0.7-1.3
					c0,0,0-0.1,0-0.1c-0.3-3-0.4-6.2-0.3-9.4c0-1.1,0.1-2.2,0.2-3.4c0-0.3,0.2-0.7,0.6-1h4v0c-0.1,0.3-0.1,1-0.2,2.3
					c0,0.4,0,0.8,0,1.2v0c0,1.2,0,2.6,0,4.2c0,2.1,0,3.9,0.1,5.3C356.6,373.3,356.7,374,356.8,374z"/>
				
					<radialGradient id="SVGID_50_" cx="-347.8447" cy="-366.5918" r="3.1" fx="-349.4008" fy="-366.5918" gradientTransform="matrix(-1 6.956882e-004 6.048005e-003 8.6936 2.4726 3553.5771)" gradientUnits="userSpaceOnUse">
					<stop  offset="0" style="stop-color:#FFFFFF;stop-opacity:0.498"/>
					<stop  offset="0.1098" style="stop-color:#FFFFFF;stop-opacity:0"/>
					<stop  offset="0.2588" style="stop-color:#FFFFFF;stop-opacity:0.7059"/>
					<stop  offset="0.5098" style="stop-color:#FFFFFF;stop-opacity:0"/>
					<stop  offset="0.851" style="stop-color:#CCCCCC;stop-opacity:0.1176"/>
					<stop  offset="1" style="stop-color:#FFFFFF;stop-opacity:0.5294"/>
				</radialGradient>
				<path fill-rule="evenodd" clip-rule="evenodd" fill="url(#SVGID_50_)" d="M349.5,358.8c-0.2,5.7-0.1,10.5,0.2,14.5
					c-0.1,0-0.2,0.1-0.3,0.3c0,0.1-0.3,0.3-0.6,0.8c-0.4,0.5-0.9,0.5-1.5,0.2c-0.6-0.3-0.9-0.7-1-1c-0.3-5.1-0.3-10,0-14.8
					c0.1-0.3,0.5-0.6,1-0.9c0.5-0.3,1-0.3,1.5,0.2S349.5,358.7,349.5,358.8z"/>
				
					<linearGradient id="SVGID_51_" gradientUnits="userSpaceOnUse" x1="362.3232" y1="-351.4731" x2="369.4732" y2="-351.4731" gradientTransform="matrix(1.398601e-004 1 -1 -1.000000e-003 1.452951e-004 -2.044104e-004)">
					<stop  offset="0" style="stop-color:#FFFFFF;stop-opacity:0.498"/>
					<stop  offset="0.1098" style="stop-color:#FFFFFF;stop-opacity:0"/>
					<stop  offset="0.2588" style="stop-color:#FFFFFF;stop-opacity:0.7059"/>
					<stop  offset="0.5098" style="stop-color:#FFFFFF;stop-opacity:0"/>
					<stop  offset="0.851" style="stop-color:#CCCCCC;stop-opacity:0.1176"/>
					<stop  offset="1" style="stop-color:#FFFFFF;stop-opacity:0.5294"/>
				</linearGradient>
				<path fill-rule="evenodd" clip-rule="evenodd" fill="url(#SVGID_51_)" d="M352.1,372.6l-0.8,0.1c0-0.1,0-0.2,0-0.4
					c-0.2-2.1-0.4-4.1-0.4-6c0-1,0.1-2,0.1-3.2c0.1-1,0.1-2.1,0.2-3.3h0.8c-0.1,1.1-0.2,2.3-0.2,3.4
					C351.7,366.4,351.8,369.6,352.1,372.6z"/>
				
					<linearGradient id="SVGID_52_" gradientUnits="userSpaceOnUse" x1="359.8066" y1="-349.665" x2="372.9317" y2="-349.665" gradientTransform="matrix(1.904759e-003 1 -1 -9.153336e-005 2.837942e-004 1.272693e-004)">
					<stop  offset="0" style="stop-color:#FFFFFF;stop-opacity:0.498"/>
					<stop  offset="0.1098" style="stop-color:#FFFFFF;stop-opacity:0"/>
					<stop  offset="0.2588" style="stop-color:#FFFFFF;stop-opacity:0.7059"/>
					<stop  offset="0.5098" style="stop-color:#FFFFFF;stop-opacity:0"/>
					<stop  offset="0.851" style="stop-color:#CCCCCC;stop-opacity:0.1176"/>
					<stop  offset="1" style="stop-color:#FFFFFF;stop-opacity:0.5294"/>
				</linearGradient>
				<path fill-rule="evenodd" clip-rule="evenodd" fill="url(#SVGID_52_)" d="M351.3,372.7l0.1,0.5c-0.3,0.5-0.9,0.5-1.8,0.1
					c-0.3-4-0.4-8.8-0.2-14.5l1.5,0.3c0.1,0,0.1,0,0.2,0v0.5c0,0.1,0,0.1,0,0.2c0,1.2-0.1,2.3-0.2,3.3c0,1.2-0.1,2.2-0.1,3.2
					c0,2,0.2,4,0.4,6C351.3,372.5,351.3,372.6,351.3,372.7z"/>
				
					<linearGradient id="SVGID_53_" gradientUnits="userSpaceOnUse" x1="357.3467" y1="-334.8545" x2="374.8217" y2="-334.8545" gradientTransform="matrix(1.430614e-003 1 -1 -4.801926e-005 -4.776048e-004 2.316123e-004)">
					<stop  offset="0" style="stop-color:#FFFFFF;stop-opacity:0.498"/>
					<stop  offset="0.1098" style="stop-color:#FFFFFF;stop-opacity:0"/>
					<stop  offset="0.2588" style="stop-color:#FFFFFF;stop-opacity:0.7059"/>
					<stop  offset="0.5098" style="stop-color:#FFFFFF;stop-opacity:0"/>
					<stop  offset="0.851" style="stop-color:#CCCCCC;stop-opacity:0.1176"/>
					<stop  offset="1" style="stop-color:#FFFFFF;stop-opacity:0.5294"/>
				</linearGradient>
				<path fill-rule="evenodd" clip-rule="evenodd" fill="url(#SVGID_53_)" d="M346.3,373.5c-1.9,1.8-3.7,2.2-5.5,1
					c-0.2-0.1-0.3-0.3-0.5-0.4c-1.2-0.7-2.5-0.7-3.8,0c-0.4,0.5-0.9,0.8-1.4,1c-1.2,0.4-2.2,0.3-3-0.2c-0.8-0.5-1.4-0.8-1.8-0.7
					c-0.2,0.1-0.5,0.2-0.8,0.5c-1.1,1.1-2.7,1.3-4.8,0.8c-0.1-1.2-0.1-2.3-0.2-3.4c0-1,0-2,0-2.9c0-0.2,0-0.5,0-0.8
					c0-2.8,0.1-5.1,0.1-6.8c0.1-1.9,0.3-3.5,0.6-4.8c0-0.1,0-0.2,0-0.3c1.4-0.3,2.4-0.4,2.9-0.5s1,0.1,1.4,0.4s0.8,0.7,1.1,1.2
					c0.4,0.5,1.1,0.4,2.1-0.3c1.1-0.7,2.2-0.9,3.4-0.5c0.5,0.2,0.9,0.6,1.3,1c1.3,0.7,2.5,0.7,3.6,0c0.2-0.2,0.4-0.3,0.5-0.4
					c1.6-1.1,3.2-0.8,4.8,1C345.9,363.5,345.9,368.5,346.3,373.5z"/>
				
					<radialGradient id="SVGID_54_" cx="-325.2285" cy="-364.5977" r="5.75" gradientTransform="matrix(-1 6.070255e-004 3.260785e-003 5.3717 1.4106 2323.1221)" gradientUnits="userSpaceOnUse">
					<stop  offset="0" style="stop-color:#FFFFFF;stop-opacity:0.498"/>
					<stop  offset="0.1098" style="stop-color:#FFFFFF;stop-opacity:0"/>
					<stop  offset="0.2588" style="stop-color:#FFFFFF;stop-opacity:0.7059"/>
					<stop  offset="0.5098" style="stop-color:#FFFFFF;stop-opacity:0"/>
					<stop  offset="0.851" style="stop-color:#CCCCCC;stop-opacity:0.1176"/>
					<stop  offset="1" style="stop-color:#FFFFFF;stop-opacity:0.5294"/>
				</radialGradient>
				<path fill-rule="evenodd" clip-rule="evenodd" fill="url(#SVGID_54_)" d="M324.6,361.8c-0.1,2.1-0.2,4.7-0.1,7.6
					c0,0.9,0,1.9,0,2.9c0.1,1.1,0.1,2.2,0.2,3.4c-0.6,0.1-1.1,0.1-1.5-0.1l0-19.3c0.7-0.3,1.3-0.2,1.9,0.5c0,0.1,0,0.2,0,0.3
					C324.9,358.2,324.7,359.8,324.6,361.8z"/>
				<path fill-rule="evenodd" clip-rule="evenodd" fill="none" d="M325.2,356.8c1.4-0.3,2.4-0.4,2.9-0.5s1,0.1,1.4,0.4
					s0.8,0.7,1.1,1.2c0.4,0.5,1.1,0.4,2.1-0.3c1.1-0.7,2.2-0.9,3.4-0.5c0.5,0.2,0.9,0.6,1.3,1c1.3,0.7,2.5,0.7,3.6,0
					c0.2-0.2,0.4-0.3,0.5-0.4c1.6-1.1,3.2-0.8,4.8,1"/>
				<path fill-rule="evenodd" clip-rule="evenodd" fill="none" d="M346.3,373.5c-1.9,1.8-3.7,2.2-5.5,1c-0.2-0.1-0.3-0.3-0.5-0.4
					c-1.2-0.7-2.5-0.7-3.8,0c-0.4,0.5-0.9,0.8-1.4,1c-1.2,0.4-2.2,0.3-3-0.2c-0.8-0.5-1.4-0.8-1.8-0.7c-0.2,0.1-0.5,0.2-0.8,0.5
					c-1.1,1.1-2.7,1.3-4.8,0.8"/>
			</g>
		</g>
		<g>
			
				<radialGradient id="SVGID_55_" cx="-322.895" cy="-365.9072" r="4.0375" gradientTransform="matrix(-1 1.106189e-003 1.547984e-003 1.3994 0.9712 877.9517)" gradientUnits="userSpaceOnUse">
				<stop  offset="0" style="stop-color:#FFFFFF"/>
				<stop  offset="1" style="stop-color:#FFFFFF;stop-opacity:0"/>
			</radialGradient>
			<path fill-rule="evenodd" clip-rule="evenodd" fill="url(#SVGID_55_)" d="M323.3,370.7c0,0,0.1,0,0.1,0s0.1,0.1,0.1,0.1
				c0,0.1,0,0.1,0,0.2s0,0.1,0,0.2c0,0.1-0.1,0.1-0.1,0.1s-0.1,0-0.1,0c0-0.1,0-0.1-0.1-0.1c0-0.1,0-0.1,0-0.2c0-0.1,0-0.1,0-0.2
				C323.2,370.7,323.2,370.7,323.3,370.7z"/>
		</g>
	</g>
</g>
<g>
	<g>
		<g>
			
				<linearGradient id="SVGID_56_" gradientUnits="userSpaceOnUse" x1="-349.4751" y1="-143.9004" x2="-319.4751" y2="-143.9004" gradientTransform="matrix(-1 0 0 -1 0 0)">
				<stop  offset="0" style="stop-color:#4E3621"/>
				<stop  offset="0.5922" style="stop-color:#976C45"/>
				<stop  offset="0.9686" style="stop-color:#443120"/>
				<stop  offset="1" style="stop-color:#483320"/>
			</linearGradient>
			<path fill-rule="evenodd" clip-rule="evenodd" fill="url(#SVGID_56_)" d="M349,145.3c-9.9,0.9-19.4,1.1-28.4,0.4
				c-1.5-1.1-1.5-2.2,0-3.4c9,0.7,18.5,0.5,28.4-0.6C349.6,142.9,349.6,144.1,349,145.3z"/>
			
				<linearGradient id="SVGID_57_" gradientUnits="userSpaceOnUse" x1="-145.728" y1="383.166" x2="-142.203" y2="383.166" gradientTransform="matrix(2.836879e-004 -1 1 -1.000000e-003 -1.208653e-005 2.620963e-004)">
				<stop  offset="0" style="stop-color:#9A6E47"/>
				<stop  offset="0.1647" style="stop-color:#976C45"/>
				<stop  offset="0.3176" style="stop-color:#423117"/>
				<stop  offset="0.4314" style="stop-color:#543A23"/>
				<stop  offset="0.8471" style="stop-color:#443120"/>
				<stop  offset="1" style="stop-color:#CBC394"/>
			</linearGradient>
			<path fill-rule="evenodd" clip-rule="evenodd" fill="url(#SVGID_57_)" d="M417.3,145.3H349c0.7-1.2,0.7-2.4,0-3.6h68.3V145.3z"/>
			
				<linearGradient id="SVGID_58_" gradientUnits="userSpaceOnUse" x1="-145.7295" y1="418.4414" x2="-142.2045" y2="418.4414" gradientTransform="matrix(2.836879e-004 -1 1 -1.000000e-003 -1.208653e-005 2.620963e-004)">
				<stop  offset="0" style="stop-color:#9A6E47"/>
				<stop  offset="0.1647" style="stop-color:#976C45"/>
				<stop  offset="0.3176" style="stop-color:#423117"/>
				<stop  offset="0.4314" style="stop-color:#543A23"/>
				<stop  offset="0.8471" style="stop-color:#443120"/>
				<stop  offset="1" style="stop-color:#CBC394"/>
			</linearGradient>
			<rect x="417.3" y="141.7" fill-rule="evenodd" clip-rule="evenodd" fill="url(#SVGID_58_)" width="2.2" height="3.6"/>
		</g>
	</g>
	<g>
		
			<radialGradient id="SVGID_59_" cx="-434.5" cy="-141.5498" r="15.975" gradientTransform="matrix(-1 0 0 0.2207 0 172.7838)" gradientUnits="userSpaceOnUse">
			<stop  offset="0" style="stop-color:#503A22"/>
			<stop  offset="0.3294" style="stop-color:#503822;stop-opacity:0.8078"/>
			<stop  offset="1" style="stop-color:#4E2E1F;stop-opacity:0"/>
		</radialGradient>
		<rect x="424" y="138.1" fill-rule="evenodd" clip-rule="evenodd" fill="url(#SVGID_59_)" width="26" height="5.8"/>
	</g>
	<g>
		<g>
			
				<linearGradient id="SVGID_60_" gradientUnits="userSpaceOnUse" x1="-149.1401" y1="440.1934" x2="-137.2401" y2="440.1934" gradientTransform="matrix(8.403362e-005 -1 1 -1.000000e-003 -2.297507e-004 -2.044104e-004)">
				<stop  offset="0" style="stop-color:#9A6E47"/>
				<stop  offset="0.2392" style="stop-color:#976C45"/>
				<stop  offset="0.3176" style="stop-color:#423117"/>
				<stop  offset="0.4314" style="stop-color:#543A23"/>
				<stop  offset="0.6353" style="stop-color:#897341"/>
				<stop  offset="0.851" style="stop-color:#A59564"/>
				<stop  offset="0.9451" style="stop-color:#D6D09E"/>
				<stop  offset="1" style="stop-color:#CBC394"/>
			</linearGradient>
			<path fill-rule="evenodd" clip-rule="evenodd" fill="url(#SVGID_60_)" d="M423.1,147.1v-7.7v-2.3h32.6c2,3.7,2.1,7.5,0.1,11.3
				h-32.8V147.1z"/>
			
				<linearGradient id="SVGID_61_" gradientUnits="userSpaceOnUse" x1="-147.6079" y1="421.1563" x2="-139.8329" y2="421.1563" gradientTransform="matrix(1.286174e-004 -1 1 -1.000000e-003 -2.134119e-004 -2.044104e-004)">
				<stop  offset="0" style="stop-color:#9A6E47"/>
				<stop  offset="0.1647" style="stop-color:#976C45"/>
				<stop  offset="0.3176" style="stop-color:#423117"/>
				<stop  offset="0.4314" style="stop-color:#543A23"/>
				<stop  offset="0.8471" style="stop-color:#443120"/>
				<stop  offset="1" style="stop-color:#CBC394"/>
			</linearGradient>
			<path fill-rule="evenodd" clip-rule="evenodd" fill="url(#SVGID_61_)" d="M423.1,147.1h-3.4c-0.7-2.4-0.7-4.9,0-7.7h3.4V147.1z"
				/>
		</g>
		<g>
			<g>
				<linearGradient id="SVGID_62_" gradientUnits="userSpaceOnUse" x1="435.0254" y1="147.8252" x2="435.0254" y2="153.1752">
					<stop  offset="0.2784" style="stop-color:#48311F"/>
					<stop  offset="0.7216" style="stop-color:#E0C4A0"/>
					<stop  offset="1" style="stop-color:#48311F"/>
				</linearGradient>
				<path fill-rule="evenodd" clip-rule="evenodd" fill="url(#SVGID_62_)" d="M434.8,153.8v-0.9v-0.5v-3.9h0.5v0.8c0,0,0,0,0,0h0
					v3.1h0c0,0,0,0,0,0v0.2c0,0.1,0,0.2,0,0.3C435.2,153.3,435,153.6,434.8,153.8z"/>
				<path fill-rule="evenodd" clip-rule="evenodd" fill="#48311F" d="M434.8,148.5v3.9l-0.7,0v-3.1h-10.6v3.1h-0.8v-3.9c0,0,0,0,0,0
					H434.8z"/>
				<polygon fill-rule="evenodd" clip-rule="evenodd" fill="#AD8057" points="423.5,152.4 434,152.4 434.8,152.4 434.8,152.9 
					422.7,152.9 422.7,152.4 				"/>
				<path fill-rule="evenodd" clip-rule="evenodd" fill="#5E3927" d="M434,152.4h-10.6v-3.1H434V152.4z M422.7,152.9h12v0.9
					c-0.1,0.1-0.3,0.1-0.5,0.1h-11.3c-0.1,0-0.1,0-0.2-0.1c-0.4-0.2-0.7-0.5-0.9-0.9H422.7z"/>
				<path fill-rule="evenodd" clip-rule="evenodd" fill="#B66E48" d="M422.7,152.4v0.5h-0.9c0-0.1-0.1-0.3-0.1-0.4v-3.2
					c0.1-0.6,0.4-0.9,1-0.8V152.4z"/>
			</g>
		</g>
		<g>
			<g>
				<path fill-rule="evenodd" clip-rule="evenodd" fill="#5E3927" d="M434.8,131.7v0.9h-12h-0.9c0.2-0.4,0.5-0.7,0.9-0.9
					c0.1,0,0.1-0.1,0.2-0.1h11.3C434.5,131.6,434.6,131.7,434.8,131.7z M434,133.1v3.1h-10.6v-3.1H434z"/>
				<path fill-rule="evenodd" clip-rule="evenodd" fill="#B66E48" d="M421.8,132.6h0.9v0.5v3.9c-0.6,0.1-0.9-0.2-1-0.8V133
					C421.7,132.9,421.8,132.7,421.8,132.6z"/>
				<polygon fill-rule="evenodd" clip-rule="evenodd" fill="#AD8057" points="422.7,132.6 434.8,132.6 434.8,133.1 434,133.1 
					423.5,133.1 422.7,133.1 				"/>
				<polygon fill-rule="evenodd" clip-rule="evenodd" fill="#48311F" points="434.8,137 422.7,137 422.7,133.1 423.5,133.1 
					423.5,136.2 434,136.2 434,133.1 434.8,133.1 				"/>
				
					<linearGradient id="SVGID_63_" gradientUnits="userSpaceOnUse" x1="-138.1099" y1="435.0508" x2="-132.7598" y2="435.0508" gradientTransform="matrix(1.869159e-004 -1 1 -1.000000e-003 -6.752988e-005 -2.053233e-004)">
					<stop  offset="0.2784" style="stop-color:#48311F"/>
					<stop  offset="0.7216" style="stop-color:#E0C4A0"/>
					<stop  offset="1" style="stop-color:#48311F"/>
				</linearGradient>
				<path fill-rule="evenodd" clip-rule="evenodd" fill="url(#SVGID_63_)" d="M434.8,137v-3.9v-0.5v-0.9c0.3,0.2,0.5,0.5,0.5,0.9
					c0,0.1,0,0.1,0,0.3v0.2c0,0,0,0,0,0.1h0v3.9H434.8z"/>
			</g>
		</g>
	</g>
	<g>
		
			<radialGradient id="SVGID_64_" cx="34.6885" cy="-460.7441" r="6.5802" gradientTransform="matrix(-3.989217e-002 0.9992 -0.3362 -7.978435e-002 301.866 71.6293)" gradientUnits="userSpaceOnUse">
			<stop  offset="0" style="stop-color:#FFFFFF"/>
			<stop  offset="0.1765" style="stop-color:#FFFFFF"/>
			<stop  offset="0.3059" style="stop-color:#FFFFFF;stop-opacity:0.4235"/>
			<stop  offset="0.4902" style="stop-color:#FFFFFF;stop-opacity:0.2314"/>
			<stop  offset="0.651" style="stop-color:#FFFFFF;stop-opacity:8.235294e-002"/>
			<stop  offset="1" style="stop-color:#FFFFFF;stop-opacity:0"/>
		</radialGradient>
		<path fill-rule="evenodd" clip-rule="evenodd" fill="url(#SVGID_64_)" d="M454,138.3c0.2-0.5,0.4-0.8,0.6-1.1h1.1
			c1.9,3.8,1.9,7.5,0,11.2h-1.6c-0.2-0.3-0.3-0.7-0.4-1.1c-0.3-1.5-0.5-3.1-0.5-4.8C453.2,140.6,453.5,139.3,454,138.3z"/>
	</g>
</g>
<g>
	<g>
		<g>
			
				<linearGradient id="SVGID_65_" gradientUnits="userSpaceOnUse" x1="-262.5293" y1="418.4746" x2="-259.0043" y2="418.4746" gradientTransform="matrix(2.836879e-004 -1 1 -1.000000e-003 -1.208653e-005 2.620963e-004)">
				<stop  offset="0" style="stop-color:#9A6E47"/>
				<stop  offset="0.1647" style="stop-color:#976C45"/>
				<stop  offset="0.3176" style="stop-color:#423117"/>
				<stop  offset="0.4314" style="stop-color:#543A23"/>
				<stop  offset="0.8471" style="stop-color:#443120"/>
				<stop  offset="1" style="stop-color:#CBC394"/>
			</linearGradient>
			<rect x="417.3" y="258.5" fill-rule="evenodd" clip-rule="evenodd" fill="url(#SVGID_65_)" width="2.2" height="3.6"/>
			
				<linearGradient id="SVGID_66_" gradientUnits="userSpaceOnUse" x1="-262.5278" y1="383.1992" x2="-259.0028" y2="383.1992" gradientTransform="matrix(2.836879e-004 -1 1 -1.000000e-003 -1.208653e-005 2.620963e-004)">
				<stop  offset="0" style="stop-color:#9A6E47"/>
				<stop  offset="0.1647" style="stop-color:#976C45"/>
				<stop  offset="0.3176" style="stop-color:#423117"/>
				<stop  offset="0.4314" style="stop-color:#543A23"/>
				<stop  offset="0.8471" style="stop-color:#443120"/>
				<stop  offset="1" style="stop-color:#CBC394"/>
			</linearGradient>
			<path fill-rule="evenodd" clip-rule="evenodd" fill="url(#SVGID_66_)" d="M417.3,262.1H349c0.7-1.2,0.7-2.4,0-3.6h68.3V262.1z"/>
			
				<linearGradient id="SVGID_67_" gradientUnits="userSpaceOnUse" x1="-349.4751" y1="-260.7002" x2="-319.4751" y2="-260.7002" gradientTransform="matrix(-1 0 0 -1 0 0)">
				<stop  offset="0" style="stop-color:#4E3621"/>
				<stop  offset="0.5922" style="stop-color:#976C45"/>
				<stop  offset="0.9686" style="stop-color:#443120"/>
				<stop  offset="1" style="stop-color:#483320"/>
			</linearGradient>
			<path fill-rule="evenodd" clip-rule="evenodd" fill="url(#SVGID_67_)" d="M349,262.1c-9.9,0.9-19.4,1-28.4,0.4
				c-1.5-1.1-1.5-2.2,0-3.4c9,0.7,18.5,0.5,28.4-0.6C349.6,259.7,349.6,260.9,349,262.1z"/>
		</g>
	</g>
	<g>
		
			<radialGradient id="SVGID_68_" cx="-434.5" cy="-258.3501" r="15.975" gradientTransform="matrix(-1 0 0 0.2207 0 315.3569)" gradientUnits="userSpaceOnUse">
			<stop  offset="0" style="stop-color:#503A22"/>
			<stop  offset="0.3294" style="stop-color:#503822;stop-opacity:0.8078"/>
			<stop  offset="1" style="stop-color:#4E2E1F;stop-opacity:0"/>
		</radialGradient>
		<rect x="424" y="255" fill-rule="evenodd" clip-rule="evenodd" fill="url(#SVGID_68_)" width="26" height="5.8"/>
	</g>
	<g>
		<g>
			
				<linearGradient id="SVGID_69_" gradientUnits="userSpaceOnUse" x1="-264.4082" y1="421.1709" x2="-256.6332" y2="421.1709" gradientTransform="matrix(1.286174e-004 -1 1 -1.000000e-003 -2.134119e-004 -2.044104e-004)">
				<stop  offset="0" style="stop-color:#9A6E47"/>
				<stop  offset="0.1647" style="stop-color:#976C45"/>
				<stop  offset="0.3176" style="stop-color:#423117"/>
				<stop  offset="0.4314" style="stop-color:#543A23"/>
				<stop  offset="0.8471" style="stop-color:#443120"/>
				<stop  offset="1" style="stop-color:#CBC394"/>
			</linearGradient>
			<path fill-rule="evenodd" clip-rule="evenodd" fill="url(#SVGID_69_)" d="M423.1,264h-3.4c-0.7-2.4-0.7-4.9,0-7.7h3.4V264z"/>
			
				<linearGradient id="SVGID_70_" gradientUnits="userSpaceOnUse" x1="-265.9404" y1="440.2031" x2="-254.0404" y2="440.2031" gradientTransform="matrix(8.403362e-005 -1 1 -1.000000e-003 -2.297507e-004 -2.044104e-004)">
				<stop  offset="0" style="stop-color:#9A6E47"/>
				<stop  offset="0.2392" style="stop-color:#976C45"/>
				<stop  offset="0.3176" style="stop-color:#423117"/>
				<stop  offset="0.4314" style="stop-color:#543A23"/>
				<stop  offset="0.6353" style="stop-color:#897341"/>
				<stop  offset="0.851" style="stop-color:#A59564"/>
				<stop  offset="0.9451" style="stop-color:#D6D09E"/>
				<stop  offset="1" style="stop-color:#CBC394"/>
			</linearGradient>
			<path fill-rule="evenodd" clip-rule="evenodd" fill="url(#SVGID_70_)" d="M423.1,264v-7.7V254h32.6c2,3.7,2.1,7.5,0.1,11.3h-32.8
				V264z"/>
		</g>
		<g>
			<g>
				<linearGradient id="SVGID_71_" gradientUnits="userSpaceOnUse" x1="435.0254" y1="264.625" x2="435.0254" y2="269.9751">
					<stop  offset="0.2784" style="stop-color:#48311F"/>
					<stop  offset="0.7216" style="stop-color:#E0C4A0"/>
					<stop  offset="1" style="stop-color:#48311F"/>
				</linearGradient>
				<path fill-rule="evenodd" clip-rule="evenodd" fill="url(#SVGID_71_)" d="M434.8,269.7v-0.5v-4h0.5v0.8c0,0,0,0,0,0.1h0v3.4
					c0,0.1,0,0.2,0,0.3c0,0.4-0.2,0.7-0.5,0.9V269.7z"/>
				<path fill-rule="evenodd" clip-rule="evenodd" fill="#5E3927" d="M422.7,269.7h12v0.9c-0.1,0-0.3,0-0.5,0h-11.3
					c-0.1,0-0.1,0-0.2,0c-0.4-0.2-0.7-0.5-0.9-0.9H422.7z M434,269.2h-10.6v-3.1H434V269.2z"/>
				<polygon fill-rule="evenodd" clip-rule="evenodd" fill="#AD8057" points="434.8,269.7 422.7,269.7 422.7,269.2 423.5,269.2 
					434,269.2 434.8,269.2 				"/>
				<polygon fill-rule="evenodd" clip-rule="evenodd" fill="#48311F" points="422.7,269.2 422.7,265.3 434.8,265.3 434.8,269.2 
					434,269.2 434,266.1 423.5,266.1 423.5,269.2 				"/>
				<path fill-rule="evenodd" clip-rule="evenodd" fill="#B66E48" d="M422.7,265.3v4v0.5h-0.9c0-0.1-0.1-0.3-0.1-0.5v-3.1
					C421.8,265.5,422.1,265.2,422.7,265.3z"/>
			</g>
		</g>
		<g>
			<g>
				<path fill-rule="evenodd" clip-rule="evenodd" fill="#5E3927" d="M434.8,248.5v0.9h-12h-0.9c0.2-0.4,0.5-0.7,0.9-0.9
					c0.1,0,0.1,0,0.2,0h11.3C434.5,248.5,434.6,248.5,434.8,248.5z M423.5,249.9H434v3.1h-10.6V249.9z"/>
				
					<linearGradient id="SVGID_72_" gradientUnits="userSpaceOnUse" x1="-254.9102" y1="435.0723" x2="-249.5596" y2="435.0723" gradientTransform="matrix(1.869159e-004 -1 1 -1.000000e-003 -6.752988e-005 -2.053233e-004)">
					<stop  offset="0.2784" style="stop-color:#48311F"/>
					<stop  offset="0.7216" style="stop-color:#E0C4A0"/>
					<stop  offset="1" style="stop-color:#48311F"/>
				</linearGradient>
				<path fill-rule="evenodd" clip-rule="evenodd" fill="url(#SVGID_72_)" d="M434.8,253.9v-4v-0.5v-0.9c0.3,0.2,0.5,0.5,0.5,0.9
					c0,0.1,0,0.1,0,0.3v0.2c0,0,0,0,0,0h0v4H434.8z"/>
				<polygon fill-rule="evenodd" clip-rule="evenodd" fill="#AD8057" points="423.5,249.9 422.7,249.9 422.7,249.4 434.8,249.4 
					434.8,249.9 434,249.9 				"/>
				<polygon fill-rule="evenodd" clip-rule="evenodd" fill="#48311F" points="434.8,253.9 422.7,253.9 422.7,249.9 423.5,249.9 
					423.5,253 434,253 434,249.9 434.8,249.9 				"/>
				<path fill-rule="evenodd" clip-rule="evenodd" fill="#B66E48" d="M422.7,249.4v0.5v4c-0.6,0.1-0.9-0.2-1-0.9v-3.1
					c0-0.2,0.1-0.3,0.1-0.5H422.7z"/>
			</g>
		</g>
	</g>
	<g>
		
			<radialGradient id="SVGID_73_" cx="150.1514" cy="-465.5415" r="6.5802" gradientTransform="matrix(-3.989217e-002 0.9992 -0.3362 -7.978435e-002 305.0091 72.3752)" gradientUnits="userSpaceOnUse">
			<stop  offset="0" style="stop-color:#FFFFFF"/>
			<stop  offset="0.1765" style="stop-color:#FFFFFF"/>
			<stop  offset="0.3059" style="stop-color:#FFFFFF;stop-opacity:0.4235"/>
			<stop  offset="0.4902" style="stop-color:#FFFFFF;stop-opacity:0.2314"/>
			<stop  offset="0.651" style="stop-color:#FFFFFF;stop-opacity:8.235294e-002"/>
			<stop  offset="1" style="stop-color:#FFFFFF;stop-opacity:0"/>
		</radialGradient>
		<path fill-rule="evenodd" clip-rule="evenodd" fill="url(#SVGID_73_)" d="M455.8,254c1.9,3.6,1.9,7.4,0,11.3h-1.3
			c-0.2-0.4-0.5-0.9-0.7-1.5c-0.3-1.5-0.5-3.1-0.5-4.8c0-1.8,0.3-3.2,0.9-4.2c0.1-0.3,0.3-0.6,0.4-0.8H455.8z"/>
	</g>
</g>
</svg>
