<?xml version="1.0" encoding="utf-8"?>
<!-- Generator: Adobe Illustrator 16.0.0, SVG Export Plug-In . SVG Version: 6.00 Build 0)  -->
<!DOCTYPE svg PUBLIC "-//W3C//DTD SVG 1.1//EN" "http://www.w3.org/Graphics/SVG/1.1/DTD/svg11.dtd">
<svg version="1.1" xmlns="http://www.w3.org/2000/svg" xmlns:xlink="http://www.w3.org/1999/xlink" x="0px" y="0px" width="700px"
	 height="700px" viewBox="0 0 700 700" enable-background="new 0 0 700 700" xml:space="preserve">
<g id="Layer_23">
	<g>
		<g>
			
				<radialGradient id="SVGID_1_" cx="334.5498" cy="568.9004" r="458.5339" gradientTransform="matrix(1 0 0 0.9302 0 39.6918)" gradientUnits="userSpaceOnUse">
				<stop  offset="0" style="stop-color:#FFFFFF"/>
				<stop  offset="0.6" style="stop-color:#FEFEFE;stop-opacity:0.7804"/>
				<stop  offset="0.7804" style="stop-color:#FCFCFC;stop-opacity:0.2706"/>
				<stop  offset="1" style="stop-color:#FAFAFA;stop-opacity:0"/>
			</radialGradient>
			<path fill-rule="evenodd" clip-rule="evenodd" fill="url(#SVGID_1_)" d="M765.5,568.9c0,0.2-0.1,0.4-0.3,0.6
				c-0.2,0.1-0.3,0.2-0.5,0.2H-95.6c-0.2,0-0.4-0.1-0.4-0.2c-0.2-0.2-0.3-0.4-0.3-0.6c0-0.2,0.1-0.3,0.3-0.5
				c0.1-0.2,0.3-0.3,0.4-0.3h860.3c0.2,0,0.3,0.1,0.5,0.3C765.4,568.6,765.5,568.7,765.5,568.9z"/>
			<g>
				<linearGradient id="SVGID_2_" gradientUnits="userSpaceOnUse" x1="333" y1="652.9502" x2="333" y2="684.9502">
					<stop  offset="0" style="stop-color:#000000"/>
					<stop  offset="0.3451" style="stop-color:#1C0B03"/>
					<stop  offset="1" style="stop-color:#1C0B03"/>
				</linearGradient>
				<rect x="-97.1" y="570.7" fill-rule="evenodd" clip-rule="evenodd" fill="url(#SVGID_2_)" width="860.3" height="189"/>
			</g>
			<g>
				<line fill-rule="evenodd" clip-rule="evenodd" fill="none" x1="-50.1" y1="569.5" x2="675.8" y2="569.5"/>
			</g>
			<g>
				
					<radialGradient id="SVGID_3_" cx="325.1001" cy="469.5996" r="504.2875" gradientTransform="matrix(1 0 0 1.2439 0 -114.551)" gradientUnits="userSpaceOnUse">
					<stop  offset="0" style="stop-color:#C9EEEF"/>
					<stop  offset="0.302" style="stop-color:#8FBEBD"/>
					<stop  offset="1" style="stop-color:#566A72"/>
				</radialGradient>
				<rect x="-96.1" y="-168.3" fill-rule="evenodd" clip-rule="evenodd" fill="url(#SVGID_3_)" width="860.3" height="654.7"/>
			</g>
			<g>
				<linearGradient id="SVGID_4_" gradientUnits="userSpaceOnUse" x1="334.2471" y1="490.8848" x2="334.2766" y2="464.7098">
					<stop  offset="0" style="stop-color:#000000"/>
					<stop  offset="0.1529" style="stop-color:#000000;stop-opacity:0.6588"/>
					<stop  offset="1" style="stop-color:#000000;stop-opacity:0"/>
				</linearGradient>
				<path fill-rule="evenodd" clip-rule="evenodd" fill="url(#SVGID_4_)" d="M764.2,502.1c0,4.9-0.9,7.3-2.8,7.3H-92.9
					c-1.8,0-2.8-2.4-2.8-7.3v-72.3h859.8V502.1z"/>
			</g>
			<g>
				<g>
					<rect x="-102.4" y="634.6" fill-rule="evenodd" clip-rule="evenodd" fill="#251305" width="877.6" height="20.6"/>
					<linearGradient id="SVGID_5_" gradientUnits="userSpaceOnUse" x1="336.332" y1="337.6499" x2="336.4186" y2="631.9499">
						<stop  offset="0" style="stop-color:#95613C"/>
						<stop  offset="1" style="stop-color:#3C2008"/>
					</linearGradient>
					<rect x="-102.4" y="335" fill-rule="evenodd" clip-rule="evenodd" fill="url(#SVGID_5_)" width="877.6" height="299.6"/>
				</g>
			</g>
			<g>
				
					<radialGradient id="SVGID_6_" cx="368.3652" cy="634.75" r="426.0471" gradientTransform="matrix(1 0 -0.2927 5.2311 150.2537 -2685.6755)" gradientUnits="userSpaceOnUse">
					<stop  offset="0" style="stop-color:#FFFFFF;stop-opacity:0.251"/>
					<stop  offset="0.749" style="stop-color:#FFFFFF;stop-opacity:0.102"/>
					<stop  offset="1" style="stop-color:#FFFFFF;stop-opacity:0"/>
				</radialGradient>
				<polygon fill-rule="evenodd" clip-rule="evenodd" fill="url(#SVGID_6_)" points="758.9,634.5 758.8,636 -93.3,636 -93.2,634.5 
									"/>
			</g>
		</g>
	</g>
</g>
<g id="Layer_22">
	<g>
		<g>
			<g>
				<rect x="39.5" y="113" fill-rule="evenodd" clip-rule="evenodd" fill-opacity="0.3137" width="100.4" height="51.7"/>
			</g>
			<g>
				<g>
					<g>
						<path fill-rule="evenodd" clip-rule="evenodd" fill="#D2CFB5" d="M39.8,112.6l4.8,2.5v46l-5.1,2.1v-50.6H39.8z M45.6,116.7h88
							v42.8h-88V116.7z"/>
						<polygon fill-rule="evenodd" clip-rule="evenodd" fill="#A29780" points="44.5,161.1 135.4,161.1 138.3,163.5 39.4,163.5 
							39.4,163.3 						"/>
						<path fill-rule="evenodd" clip-rule="evenodd" fill="#DCDAC5" d="M135.4,161.1H44.5v-46h90.9v0.4V161.1z M45.6,116.7v42.8h88
							v-42.8H45.6z"/>
						<polygon fill-rule="evenodd" clip-rule="evenodd" fill="#ECEADF" points="135.4,115.5 135.4,115.1 44.5,115.1 39.8,112.6 
							138.5,112.6 						"/>
						<polygon fill-rule="evenodd" clip-rule="evenodd" fill="#989489" points="135.4,161.1 135.4,115.5 138.5,112.6 138.5,163.5 
							138.3,163.5 						"/>
					</g>
				</g>
			</g>
			<g>
				<path fill-rule="evenodd" clip-rule="evenodd" fill="#BFB59D" d="M101.3,130.6c0-0.1,0-0.1,0-0.3l-0.1,0.3H101.3z M99.7,130.6
					H81.1v20.5h18.6V130.6z M56.3,152.5v-22.8h68v22.8H56.3z M77.9,130.6H59.4v20.5h18.5V130.6z M102.2,130.8V151h8.5v-20.2H102.2z"
					/>
			</g>
			<g>
				<path fill-rule="evenodd" clip-rule="evenodd" fill="#F7F7F7" d="M77.9,130.6v20.5H59.4v-20.5H77.9z M99.7,130.6v20.5H81.1
					v-20.5H99.7z"/>
				<g>
					<path fill-rule="evenodd" clip-rule="evenodd" fill="#BFB59D" d="M101.1,130.6l0.1-0.3c0,0.1,0,0.2,0,0.3H101.1z"/>
					<g>
						<g>
							<path fill-rule="evenodd" clip-rule="evenodd" fill="#DAD3C7" d="M102.2,130.8h8.5V151h-8.5V130.8z M110,132.3h-6.8v17.4h6.8
								V132.3z"/>
							<rect x="103.3" y="132.3" fill-rule="evenodd" clip-rule="evenodd" fill="#857358" width="6.8" height="17.4"/>
							
								<rect x="102.2" y="130.8" fill-rule="evenodd" clip-rule="evenodd" fill="none" stroke="#A8A48C" stroke-linecap="round" stroke-linejoin="round" stroke-miterlimit="3" width="8.5" height="20.2"/>
						</g>
					</g>
					<g>
						<g>
							<polygon fill-rule="evenodd" clip-rule="evenodd" fill="#FBFBF2" points="102.9,134.4 102.9,134.4 103.5,132.5 109.8,132.5 
								109.5,134.5 							"/>
							<polygon fill-rule="evenodd" clip-rule="evenodd" fill="#948D74" points="109.4,149.5 109.5,134.5 109.8,132.5 109.8,149.1 
															"/>
							<linearGradient id="SVGID_7_" gradientUnits="userSpaceOnUse" x1="106.1753" y1="150.0752" x2="106.1753" y2="132.8252">
								<stop  offset="3.921569e-003" style="stop-color:#E6E6E6"/>
								<stop  offset="0.2235" style="stop-color:#FFFFFF"/>
								<stop  offset="0.5961" style="stop-color:#DEDDD3"/>
								<stop  offset="1" style="stop-color:#A6A6A6"/>
							</linearGradient>
							<polygon fill-rule="evenodd" clip-rule="evenodd" fill="url(#SVGID_7_)" points="109.5,134.5 109.4,149.5 103.1,149.5 
								102.9,134.4 							"/>
						</g>
					</g>
				</g>
				<g>
					<g>
						<path fill-rule="evenodd" clip-rule="evenodd" fill="#BFB59D" d="M110.7,130.6h-0.1l0.1-0.3
							C110.7,130.5,110.7,130.5,110.7,130.6z"/>
						<path fill-rule="evenodd" clip-rule="evenodd" fill="#DAD3C7" d="M119.5,132.3h-6.8v17.4h6.8V132.3z M111.6,130.8h8.6V151
							h-8.6V130.8z"/>
						<rect x="112.7" y="132.3" fill-rule="evenodd" clip-rule="evenodd" fill="#857358" width="6.8" height="17.4"/>
						
							<rect x="111.6" y="130.8" fill-rule="evenodd" clip-rule="evenodd" fill="none" stroke="#A8A48C" stroke-linecap="round" stroke-linejoin="round" stroke-miterlimit="3" width="8.6" height="20.2"/>
					</g>
					<g>
						<g>
							<polygon fill-rule="evenodd" clip-rule="evenodd" fill="#FBFBF2" points="112.4,134.4 112.4,134.4 113,132.5 119.4,132.5 
								119,134.5 							"/>
							<polygon fill-rule="evenodd" clip-rule="evenodd" fill="#948D74" points="119.4,132.5 119.3,149.1 118.9,149.5 119,134.5 
															"/>
							<linearGradient id="SVGID_8_" gradientUnits="userSpaceOnUse" x1="115.6753" y1="150.125" x2="115.6753" y2="132.875">
								<stop  offset="3.921569e-003" style="stop-color:#E6E6E6"/>
								<stop  offset="0.2235" style="stop-color:#FFFFFF"/>
								<stop  offset="0.5961" style="stop-color:#DEDDD3"/>
								<stop  offset="1" style="stop-color:#A6A6A6"/>
							</linearGradient>
							<polygon fill-rule="evenodd" clip-rule="evenodd" fill="url(#SVGID_8_)" points="119,134.5 118.9,149.5 112.6,149.5 
								112.4,134.4 							"/>
						</g>
					</g>
				</g>
				<g>
					<path fill-rule="evenodd" clip-rule="evenodd" fill="#6F6F6F" d="M90.1,134.9c0.4,0,0.8,0.1,1.1,0.4c0.3,0.3,0.5,0.7,0.5,1.2
						c0,0.4-0.2,0.8-0.5,1c-0.3,0.3-0.7,0.5-1.1,0.5c-0.4,0-0.8-0.2-1.1-0.5c-0.3-0.3-0.4-0.6-0.4-1c0-0.5,0.1-0.9,0.4-1.2
						C89.3,135,89.7,134.9,90.1,134.9z M86.8,141.9c0,0.3-0.1,0.6-0.4,0.8c-0.2,0.2-0.5,0.4-0.8,0.4c-0.3,0-0.5-0.1-0.8-0.4
						c-0.2-0.2-0.3-0.5-0.3-0.8c0-0.3,0.1-0.6,0.3-0.8c0.2-0.2,0.5-0.4,0.8-0.4c0.3,0,0.6,0.1,0.8,0.4
						C86.6,141.3,86.8,141.5,86.8,141.9z M84.9,147c0.2-0.2,0.5-0.4,0.8-0.4c0.3,0,0.6,0.1,0.8,0.4c0.2,0.2,0.4,0.5,0.4,0.8
						c0,0.3-0.1,0.6-0.4,0.8c-0.2,0.2-0.5,0.4-0.8,0.4c-0.3,0-0.5-0.1-0.8-0.4c-0.2-0.2-0.3-0.4-0.3-0.8
						C84.5,147.5,84.6,147.2,84.9,147z M95.4,141.1c0.2,0.2,0.4,0.4,0.4,0.8c0,0.3-0.1,0.6-0.4,0.8c-0.2,0.2-0.5,0.4-0.8,0.4
						c-0.3,0-0.5-0.1-0.8-0.4c-0.2-0.2-0.3-0.5-0.3-0.8c0-0.3,0.1-0.6,0.3-0.8c0.2-0.2,0.5-0.4,0.8-0.4
						C94.9,140.8,95.2,140.9,95.4,141.1z M95.4,147c0.2,0.2,0.4,0.5,0.4,0.8c0,0.3-0.1,0.6-0.4,0.8c-0.2,0.2-0.5,0.4-0.8,0.4
						c-0.3,0-0.5-0.1-0.8-0.4c-0.2-0.2-0.3-0.4-0.3-0.8c0-0.3,0.1-0.5,0.3-0.8c0.2-0.2,0.5-0.4,0.8-0.4
						C94.9,146.6,95.2,146.8,95.4,147z"/>
				</g>
			</g>
			<g>
				<path fill-rule="evenodd" clip-rule="evenodd" d="M195.6,480.8c7.7-2.2,16.8-3.3,27.4-3.3c2.8,0,4.6,0.5,5.3,1.5
					c0.6,0.5,0.8,1.6,0.8,3.3v0.1c0,0.4,0.1,0.8,0.2,1c0.7,0.4,2.1,0.6,4.3,0.6c2,0,4.1-0.3,6.5-0.9c1.4-0.4,3.8-1.1,7.3-2.1h0
					c2.6-0.7,5.4-1.2,8.4-1.6c5.9-0.9,12.6-1.4,20.1-1.4c6,0,10.8,0.5,14.5,1.5c0.4,0.1,0.7,0.4,0.9,0.8c0.2,0.3,0.3,0.7,0.1,1.1
					c-0.1,0.4-0.4,0.7-0.7,0.9c-0.4,0.2-0.8,0.3-1.1,0.2c-3.4-1-8-1.5-13.6-1.5c-7.3,0-13.9,0.5-19.7,1.4c-2.9,0.4-5.6,0.9-8,1.6h0
					c-3.5,1-5.9,1.7-7.3,2c-2.6,0.7-5,1-7.2,1c-3.1,0-5.2-0.4-6.1-1.3h0c-0.9-0.7-1.4-1.8-1.3-3.5v0c0-0.6,0-1,0-1.2h0
					c-0.4-0.3-1.4-0.5-3-0.5c-10.3,0-19.1,1-26.6,3.2 M266.9,386.5c-12.6,4-19.9,6.3-22,7.1c-5.6,2.2-14.2,6.3-25.7,12.3
					c-12.7,6.6-23.6,14.9-32.8,24.8c-3.2,3.4-8.7,10.6-16.6,21.4c-1.1,1.5-2.2,3.1-3.4,4.8h-0.1c-7.6,10.5-14.9,18.3-21.8,23.7h0
					c-4.4,3.4-9.4,6.3-14.9,8.9c-6.8,3.1-14.4,5.7-22.8,7.7c-0.3,0.1-0.6,0-1,0c-0.3-0.2-0.5-0.4-0.7-0.7c-0.2-0.3-0.2-0.6-0.2-1
					c0-0.3,0.2-0.6,0.4-0.8l0.5-0.5c0.3-0.3,0.6-0.4,0.9-0.5l0.1,0c0.3-0.3,0.6-0.5,1-0.5c0.4,0,0.7,0.1,1,0.3
					c7.1-1.8,13.6-4,19.4-6.8h0c5.3-2.5,10-5.4,14.4-8.6c6.7-5.2,13.8-12.8,21.2-23c1.2-1.7,2.4-3.3,3.5-4.8
					c8-11,13.6-18.2,16.9-21.7c9.4-10.1,20.6-18.6,33.6-25.3c11.6-6.1,20.3-10.2,26.1-12.4h-0.1c2-0.8,9.4-3.2,22.2-7.2
					c2.3-0.8,5.4-1.6,9.3-2.5h0c3-0.9,5.5-1.9,7.5-3c5.3-3.1,11.3-9.9,17.9-20.3c0.2-0.4,0.5-0.6,1-0.7c0.4-0.1,0.8,0,1.1,0.2
					c0.4,0.2,0.6,0.5,0.7,1c0.1,0.4,0,0.8-0.2,1.1c-7,11-13.3,18.1-19,21.4c-2.2,1.3-5,2.4-8.3,3.3h0
					C272.1,384.9,269.1,385.7,266.9,386.5z M68.1,146.8c0.4-0.1,0.8,0,1.1,0.3c0.3,0.2,0.5,0.5,0.6,1c5.1,28.6,2.2,49.9-4.8,76
					c-14.9,68.1-20.7,106.1-17.5,114.1c3.1,7.2,9.3,9.8,18.6,7.5c11.3-2.7,17.8-0.9,19.6,5.3c0,0.1,0.1,0.2,0.1,0.3
					c0.3,3.8,1.8,5.8,4.5,6c3.4,0,8.3-2.3,14.8-6.8c0,0,0.1-0.1,0.1-0.1c6.8-4.1,14-4,21.5,0.1c0,0,0.1,0,0.2,0
					c4.6,3,10.8,3.7,18.6,2c27.7-6.4,59.6-7.4,95.8-3.1c0.4,0.1,0.7,0.3,1,0.6c0.2,0.3,0.3,0.7,0.3,1.1c-0.1,0.4-0.3,0.7-0.6,1
					c-0.3,0.2-0.7,0.3-1.1,0.3c-35.8-4.4-67.4-3.4-94.8,2.9v0.1c-8.7,1.9-15.7,1.1-20.9-2.4c-6.5-3.5-12.7-3.5-18.6,0l0.1,0
					c-7.2,5-12.7,7.4-16.6,7.3c-4.5,0.1-6.9-2.8-7.4-8.5c-1.7-4.2-7-5.2-16-3.1c-11.1,2.6-18.5-0.5-22-9.3
					c-3.6-8.1,2.2-46.8,17.3-115.9v0c6.9-25.7,9.8-46.7,4.8-74.8c-0.1-0.4,0-0.8,0.3-1.1C67.4,147.1,67.7,146.9,68.1,146.8z"/>
			</g>
			<g>
				<g>
					<g>
						<path fill-rule="evenodd" clip-rule="evenodd" fill="#BFB59D" d="M60.5,146.7l-0.4,2c0.3,0.9,0.9,1.6,1.9,1.9l13.1,0.1
							c1.5-0.6,2-1.9,1.6-3.8v0c0-0.2-0.1-0.4-0.1-0.6l-1.6-9.6c-0.4-0.7-0.8-1.2-1.3-1.5c-0.2-0.2-0.5-0.3-0.7-0.3l-0.8-0.1
							c-0.1,0-0.2-0.1-0.3-0.1c-0.1,0-0.2,0-0.3,0c-0.5-0.1-0.9-0.1-1.4-0.1l-4.5,0.1c-0.5,0-1,0-1.6,0.1v0.1
							c-0.8,0.4-1.3,0.9-1.6,1.5l-1.9,9.4c0,0.1,0,0.2-0.1,0.3C60.6,146.3,60.5,146.5,60.5,146.7z M63.7,134c3.2-0.4,6.4-0.4,9.7,0
							c0.8,0.1,1.6,1,2.4,2.5l1.7,10.3c0.4,1.9-0.1,3.6-1.7,5l-14.4-0.1c-1.9-0.9-2.6-2.3-2.1-4.1l2.4-11.6
							C62,135.1,62.7,134.5,63.7,134z"/>
						<path fill-rule="evenodd" clip-rule="evenodd" fill="#DED6C2" d="M62.4,149.1c-1.2-0.5-1.8-1.3-1.8-2.4c0-0.2,0-0.4,0.1-0.7
							c0-0.1,0.1-0.2,0.1-0.3l1.9-9.4c0.3-0.6,0.8-1.1,1.6-1.5v-0.1c0.6-0.1,1.1-0.1,1.6-0.1l4.5-0.1c0.5,0,0.9,0.1,1.4,0.1
							c0.1,0,0.3,0,0.3,0c0.1,0,0.2,0.1,0.3,0.1c0.6,0.2,1.2,0.8,1.8,1.9l1.4,8.4c0.3,1.5-0.1,2.8-1.4,4L62.4,149.1z M71.7,136.3
							c0,0-0.3,0-1,0c0.9,0.1,1.5,0.7,1.5,1.8l0.9,7.1c0.4,1.9,0.5,1.1,0.1-2.1l-0.6-5.4C72.4,136.9,72,136.5,71.7,136.3z"/>
						<path fill-rule="evenodd" clip-rule="evenodd" fill="#EAE3D9" d="M74,136.8c-0.6-1.1-1.2-1.7-1.8-1.9l0.8,0.1
							c0.2,0,0.5,0.1,0.7,0.3c0.5,0.3,0.9,0.8,1.3,1.5H74z"/>
						<path fill-rule="evenodd" clip-rule="evenodd" fill="#F3EFE9" d="M71.7,136.3c0.3,0.2,0.6,0.6,0.9,1.4l0.6,5.4
							c0.3,3.3,0.3,4-0.1,2.1l-0.9-7.1c-0.1-1-0.6-1.6-1.5-1.8C71.4,136.3,71.7,136.3,71.7,136.3z"/>
						<path fill-rule="evenodd" clip-rule="evenodd" fill="#D2C7AC" d="M75.1,150.8l-1.1-1.5c1.2-1.2,1.7-2.5,1.4-4l-1.4-8.4h1
							l1.6,9.6c0,0.2,0.1,0.4,0.1,0.6v0C77.1,148.9,76.6,150.2,75.1,150.8z M60.5,146.7c0,1.1,0.6,1.9,1.8,2.4l-0.4,1.5
							c-0.9-0.4-1.5-1-1.9-1.9L60.5,146.7z"/>
						<polygon fill-rule="evenodd" clip-rule="evenodd" fill="#A49575" points="62,150.6 62.4,149.1 74,149.3 75.1,150.8 						"/>
						
							<path fill-rule="evenodd" clip-rule="evenodd" fill="none" stroke="#A8A48C" stroke-linecap="round" stroke-linejoin="round" stroke-miterlimit="3" d="
							M63.7,134c3.2-0.4,6.4-0.4,9.7,0c0.8,0.1,1.6,1,2.4,2.5l1.7,10.3c0.4,1.9-0.1,3.6-1.7,5l-14.4-0.1c-1.9-0.9-2.6-2.3-2.1-4.1
							l2.4-11.6C62,135.1,62.7,134.5,63.7,134z"/>
					</g>
				</g>
			</g>
			<g>
				<g>
					<radialGradient id="SVGID_9_" cx="59.7002" cy="235.7754" r="63.1739" gradientUnits="userSpaceOnUse">
						<stop  offset="0" style="stop-color:#FFFFFF"/>
						<stop  offset="1" style="stop-color:#FFFFFF;stop-opacity:0"/>
					</radialGradient>
					<path fill-rule="evenodd" clip-rule="evenodd" fill="url(#SVGID_9_)" d="M69.4,173c0.1,0,0.3,0,0.4,0.1
						c0.1,0.1,0.2,0.2,0.2,0.4c1.7,10.7-0.9,30.3-7.8,58.8c-4.5,18.7-8.5,40.7-12.3,65.9c0,0.1-0.1,0.2-0.2,0.3
						c-0.1,0.1-0.2,0.1-0.4,0.1c-0.2,0-0.3-0.1-0.4-0.2c-0.1-0.1-0.1-0.2-0.1-0.4c3.7-25.2,7.8-47.2,12.3-66
						c6.9-28.4,9.4-47.9,7.8-58.4c0-0.2,0-0.3,0.1-0.4C69.1,173.1,69.2,173,69.4,173z"/>
					<radialGradient id="SVGID_10_" cx="53.5" cy="343.7998" r="12.5" gradientUnits="userSpaceOnUse">
						<stop  offset="0" style="stop-color:#FFFFFF"/>
						<stop  offset="1" style="stop-color:#FFFFFF;stop-opacity:0"/>
					</radialGradient>
					<path fill-rule="evenodd" clip-rule="evenodd" fill="url(#SVGID_10_)" d="M44.6,334.4c0.1-0.1,0.2-0.1,0.4,0
						c0.1,0.1,0.2,0.2,0.3,0.3c2.6,10.4,9.5,14.5,20.6,12.3c0.1,0,0.3,0,0.4,0.1c0.1,0.1,0.2,0.2,0.2,0.3s0,0.3,0,0.4
						c-0.1,0.1-0.2,0.2-0.4,0.2c-11.7,2.3-19-2-21.8-13.1c-0.1-0.1,0-0.3,0.1-0.4C44.4,334.4,44.5,334.4,44.6,334.4z"/>
					<radialGradient id="SVGID_11_" cx="119.5" cy="351.9502" r="9.05" gradientUnits="userSpaceOnUse">
						<stop  offset="0" style="stop-color:#FFFFFF"/>
						<stop  offset="1" style="stop-color:#FFFFFF;stop-opacity:0"/>
					</radialGradient>
					<path fill-rule="evenodd" clip-rule="evenodd" fill="url(#SVGID_11_)" d="M110.3,350c-0.1-0.2-0.1-0.3,0-0.4
						c0.1-0.1,0.2-0.2,0.3-0.3c5.4-2,12-0.7,19.6,3.9c0.1,0.1,0.2,0.2,0.3,0.3c0,0.1,0,0.2-0.1,0.4c-0.1,0.1-0.2,0.2-0.3,0.3
						c-0.1,0-0.3,0-0.4-0.1c-7.3-4.4-13.6-5.7-18.8-3.8c-0.2,0-0.3,0-0.4,0C110.4,350.2,110.3,350.1,110.3,350z"/>
					<radialGradient id="SVGID_12_" cx="92" cy="354.2998" r="8.05" gradientUnits="userSpaceOnUse">
						<stop  offset="0" style="stop-color:#FFFFFF"/>
						<stop  offset="1" style="stop-color:#FFFFFF;stop-opacity:0"/>
					</radialGradient>
					<path fill-rule="evenodd" clip-rule="evenodd" fill="url(#SVGID_12_)" d="M101.3,354.3c0.1,0,0.2,0.1,0.3,0.2
						c0.1,0.1,0.1,0.3,0,0.4c0,0.1-0.1,0.2-0.3,0.3c-5.5,3.2-9.6,4.5-12.5,3.9c-3-0.5-4.7-3-4.9-7.5c0-0.2,0-0.3,0.1-0.3
						c0.1-0.1,0.2-0.2,0.4-0.2c0.1,0,0.3,0,0.4,0.2c0.1,0.1,0.1,0.2,0.1,0.3c0.2,3.8,1.6,6,4.1,6.5c2.7,0.5,6.6-0.8,11.8-3.8
						C101,354.2,101.2,354.2,101.3,354.3z"/>
					<radialGradient id="SVGID_13_" cx="172.5498" cy="350.5498" r="28.3" gradientUnits="userSpaceOnUse">
						<stop  offset="0" style="stop-color:#FFFFFF"/>
						<stop  offset="1" style="stop-color:#FFFFFF;stop-opacity:0"/>
					</radialGradient>
					<path fill-rule="evenodd" clip-rule="evenodd" fill="url(#SVGID_13_)" d="M144.3,354.5c-0.1-0.1,0-0.3,0.1-0.4
						c0.1-0.1,0.2-0.2,0.3-0.2c12.2-3.5,28.3-5.5,48.1-6c0.1,0,0.3,0.1,0.4,0.2c0.1,0.1,0.1,0.2,0.1,0.3c0,0.1,0,0.3-0.1,0.4
						c-0.1,0.1-0.2,0.1-0.4,0.1c-19.8,0.6-35.8,2.6-48,6c-0.1,0-0.3,0-0.4,0C144.4,354.7,144.3,354.5,144.3,354.5z"/>
					<radialGradient id="SVGID_14_" cx="211.7832" cy="419.1074" r="49.1586" gradientUnits="userSpaceOnUse">
						<stop  offset="0" style="stop-color:#FFFFFF"/>
						<stop  offset="1" style="stop-color:#FFFFFF;stop-opacity:0"/>
					</radialGradient>
					<path fill-rule="evenodd" clip-rule="evenodd" fill="url(#SVGID_14_)" d="M251.9,390c0,0.1,0,0.3,0,0.4
						c-0.1,0.1-0.2,0.2-0.3,0.3c-38.5,12.4-64.8,31.7-78.9,57.8c-0.1,0.1-0.2,0.2-0.3,0.3c-0.1,0-0.3,0-0.4,0
						c-0.1-0.1-0.2-0.2-0.2-0.3c-0.1-0.1-0.1-0.3,0-0.4c14.3-26.3,40.8-45.7,79.5-58.2c0.1-0.1,0.3-0.1,0.4,0
						C251.8,389.7,251.8,389.8,251.9,390z"/>
					<radialGradient id="SVGID_15_" cx="287.1582" cy="372.3086" r="16.1384" gradientUnits="userSpaceOnUse">
						<stop  offset="0" style="stop-color:#FFFFFF"/>
						<stop  offset="1" style="stop-color:#FFFFFF;stop-opacity:0"/>
					</radialGradient>
					<path fill-rule="evenodd" clip-rule="evenodd" fill="url(#SVGID_15_)" d="M274.6,383.2c-0.1-0.1-0.1-0.3,0-0.4
						c0.1-0.1,0.2-0.2,0.3-0.3c10.5-3.9,18.5-10.9,23.8-21.1c0.1-0.1,0.2-0.2,0.3-0.3c0.1-0.1,0.3-0.1,0.4,0
						c0.1,0.1,0.2,0.2,0.3,0.3c0,0.1,0,0.3-0.1,0.4c-5.5,10.5-13.6,17.7-24.4,21.7c-0.1,0-0.3,0-0.4,0S274.7,383.3,274.6,383.2z"/>
					
						<radialGradient id="SVGID_16_" cx="231.9502" cy="484.5" r="6.875" gradientTransform="matrix(1 0 0 0.4145 0 283.6527)" gradientUnits="userSpaceOnUse">
						<stop  offset="0" style="stop-color:#FFFFFF"/>
						<stop  offset="1" style="stop-color:#FFFFFF;stop-opacity:0"/>
					</radialGradient>
					<path fill-rule="evenodd" clip-rule="evenodd" fill="url(#SVGID_16_)" d="M244.5,483.2c0.2,0.1,0.3,0.3,0.4,0.5
						c0,0.2,0,0.4-0.1,0.5s-0.3,0.3-0.5,0.3c-6.7,1.6-11.4,2.2-14.1,1.6c-1.6-0.3-2.6-1-3-2.1c-0.5-1-0.3-2.3,0.4-3.9
						c0.1-0.2,0.2-0.3,0.4-0.4c0.2-0.1,0.4,0,0.6,0c0.2,0.1,0.3,0.2,0.4,0.4c0.1,0.2,0.1,0.3,0,0.5c-0.5,1.1-0.6,2-0.4,2.7
						c0.3,0.6,1,1,2,1.2c2.6,0.5,7.1,0,13.5-1.5C244.1,483.1,244.3,483.1,244.5,483.2z"/>
					<radialGradient id="SVGID_17_" cx="265.7803" cy="481.5498" r="17.9201" gradientUnits="userSpaceOnUse">
						<stop  offset="0" style="stop-color:#FFFFFF"/>
						<stop  offset="1" style="stop-color:#FFFFFF;stop-opacity:0"/>
					</radialGradient>
					<path fill-rule="evenodd" clip-rule="evenodd" fill="url(#SVGID_17_)" d="M247.9,482c0.1-0.2,0.3-0.3,0.5-0.3
						c7.5-2.3,19.1-3.2,34.7-2.8c0.2,0,0.4,0.1,0.5,0.3c0.1,0.1,0.2,0.3,0.2,0.5c0,0.2-0.1,0.4-0.2,0.5c-0.2,0.1-0.3,0.2-0.5,0.2
						c-15.4-0.4-26.8,0.5-34.2,2.8c-0.2,0-0.4,0-0.6-0.1c-0.2-0.1-0.3-0.2-0.4-0.4C247.8,482.5,247.8,482.3,247.9,482z"/>
				</g>
			</g>
			<g>
				
					<path fill-rule="evenodd" clip-rule="evenodd" fill="none" stroke="#000000" stroke-width="1.5" stroke-linecap="round" stroke-linejoin="round" stroke-miterlimit="3" stroke-opacity="0.2471" d="
					M67.9,160.5c1.8,0.3,1.7,12.6-0.4,36.8c-2.1,24.2-6.5,53.1-13.1,86.8c-6.6,33.7-8.9,52.6-6.8,56.6c2.1,4,5.4,7,10,8.9
					c4.6,1.9,8.5,2.2,11.6,1.1c3.3-0.6,7.1,0.4,11.2,3c0.2,3.7,4,5.8,11.4,6.3c4,0.3,8.2-1,12.8-3.9c4.3-3.6,12.3-3.6,24-0.1
					c1.7,0.2,3.4,0.4,5.1,0.6c7.7,0.9,17.9,0.4,30.6-1.8c11.1-1.9,20.5-2.6,28.1-2.2 M153.5,470.5c-0.2,0.2-0.3,0.3-0.5,0.5
					c0-0.2,0.1-0.3,0.3-0.5L153.5,470.5c5.7-5.8,11.8-12.4,18.5-20c9.1-10.5,14.1-16.3,15.1-17.3c10.8-11.8,22.3-20.5,34.4-26.1
					c1.4-0.7,6.7-3.5,16-8.4c7-3.8,12.5-6.3,16.5-7.6c3.5-1.1,8.5-2.3,15-3.3c5.6-1.7,15.6-6.4,20-12.2 M207,478.9
					c3.4-0.2,6.2-0.3,8.5-0.3c4.8,0,8,1.8,9.4,5.3c0.8,1.9,1.4,3.1,1.9,3.6c1,1.1,2.7,1.6,5,1.6c3.4,0,7.5-0.9,12.4-2.8
					c4.9-1.8,9.4-2.8,13.6-2.8c2.5,0,4.3,0.1,5.3,0.3c2.5,0.4,7.1,1.7,14,3.8"/>
			</g>
		</g>
	</g>
</g>
<g id="Layer_20">
	<path fill-rule="evenodd" clip-rule="evenodd" fill-opacity="0.2471" d="M428.8,392.5c0,4.3-7.4,8-22.1,11.1
		c-14.8,3.1-32.6,4.6-53.5,4.6c-20.9,0-38.7-1.5-53.5-4.6c-14.8-3.1-22.1-6.8-22.1-11.1s7.4-8,22.1-11.1c14.8-3.1,32.6-4.6,53.5-4.6
		c20.9,0,38.7,1.5,53.5,4.6C421.4,384.5,428.8,388.2,428.8,392.5z M196.7,576H8l51.6-68.8h155.6L196.7,576z M248.6,564l8.8-56.8
		h370.8l67.8,71.2H549.8l-9-14.4H248.6z"/>
</g>
<g id="Layer_19">
	<path fill-rule="evenodd" clip-rule="evenodd" fill-opacity="0.498" d="M396.8,383.9c12.3,2,18.5,4.3,18.5,7.1s-6.2,5.1-18.5,7
		c-12.3,2-27.2,3-44.6,3c-17.4,0-32.3-1-44.6-3c-12.4-1.9-18.5-4.3-18.5-7s6.2-5.1,18.5-7.1c12.3-2,27.1-3,44.6-3
		C369.7,381,384.5,381.9,396.8,383.9z M252.6,557.2l10.6-67.2h341.1l76.4,77.2H547.5l-6.4-10.4L252.6,557.2z M213.6,508.4L198.9,562
		H23.5l39.1-53.6H213.6z"/>
</g>
<g id="Layer_18">
	<g>
		<g>
			<polygon fill-rule="evenodd" clip-rule="evenodd" fill="#D0C7B8" points="251.4,538 544.5,538 544.5,538 544.5,544 533.5,544 
				524.9,544 515.3,544 413,544 404.3,544 399.7,544 263.9,544 255.9,544 255,544 251.4,544 			"/>
			<path fill-rule="evenodd" clip-rule="evenodd" fill="#7A7B6A" d="M263.9,544v2.5h-8V544H263.9z M413,544v2.5h-8.6V544H413z
				 M533.5,546.6h-8.6V544h8.6V546.6z"/>
			<path fill-rule="evenodd" clip-rule="evenodd" fill="#666458" d="M255.9,544v2.5v9.2L255,544H255.9z M404.3,544v2.5v9.1
				l-4.6-11.7H404.3z M524.9,544v2.5v8.9l-9.6-11.5H524.9z"/>
			<path fill-rule="evenodd" clip-rule="evenodd" fill="#A19C8A" d="M255.9,546.6h8v9.2h-8V546.6z M524.9,546.6h8.6v9.2h-8.6v-0.3
				V546.6z M404.3,546.6h8.6v9.2h-8.5l-0.1,0V546.6z"/>
			<linearGradient id="SVGID_18_" gradientUnits="userSpaceOnUse" x1="440.0498" y1="513.7754" x2="519.6498" y2="513.7754">
				<stop  offset="0" style="stop-color:#A19C8A"/>
				<stop  offset="1" style="stop-color:#746F64"/>
			</linearGradient>
			<polygon fill-rule="evenodd" clip-rule="evenodd" fill="url(#SVGID_18_)" points="251.4,538 259.2,489.6 504.7,489.6 544.5,538 
							"/>
		</g>
	</g>
</g>
<g id="Layer_17">
	<g>
		<g>
			<g>
				<path fill-rule="evenodd" clip-rule="evenodd" fill="#FDFDFD" d="M514.7,441.1h35.7c4.2,2.1,7.7,5.4,10.6,9.9h-36.5l0.3,0.5
					c-0.4-0.6-1.2-1.7-2.6-3.3C520.7,446.6,518.2,444.3,514.7,441.1z"/>
				<path fill-rule="evenodd" clip-rule="evenodd" d="M525.5,495.7l-10.8-10.8v-43.8c3.6,3.2,6,5.5,7.4,7.1c1.4,1.5,2.2,2.6,2.6,3.3
					c0.4,0.8,0.7,1.7,0.8,2.7V495.7z"/>
				<linearGradient id="SVGID_19_" gradientUnits="userSpaceOnUse" x1="543.0508" y1="451.0498" x2="543.0508" y2="456.9498">
					<stop  offset="0.1176" style="stop-color:#FAFAFA"/>
					<stop  offset="0.3176" style="stop-color:#D2D0C8"/>
					<stop  offset="0.5255" style="stop-color:#C6C3BD"/>
					<stop  offset="1" style="stop-color:#C6C3BE"/>
				</linearGradient>
				<path fill-rule="evenodd" clip-rule="evenodd" fill="url(#SVGID_19_)" d="M524.7,451.4l-0.3-0.5h36.5c0.6,1,0.9,2.1,0.7,3.1
					v41.6h-36.1v-41.6C525.4,453.1,525.1,452.2,524.7,451.4z"/>
			</g>
		</g>
		<g>
			<g>
				<linearGradient id="SVGID_20_" gradientUnits="userSpaceOnUse" x1="504.4521" y1="451.0498" x2="504.4521" y2="456.9498">
					<stop  offset="0.1176" style="stop-color:#FAFAFA"/>
					<stop  offset="0.3176" style="stop-color:#D2D0C8"/>
					<stop  offset="0.5255" style="stop-color:#C6C3BD"/>
					<stop  offset="1" style="stop-color:#C6C3BE"/>
				</linearGradient>
				<path fill-rule="evenodd" clip-rule="evenodd" fill="url(#SVGID_20_)" d="M486.1,451.4l-0.3-0.5h36.5c0.6,1,0.8,2.1,0.7,3.1
					v41.6h-36.1v-41.6C486.8,453.1,486.5,452.2,486.1,451.4z"/>
				<path fill-rule="evenodd" clip-rule="evenodd" d="M476.1,441.1c3.6,3.2,6.1,5.5,7.5,7.1c1.3,1.5,2.2,2.6,2.5,3.3
					c0.4,0.8,0.7,1.7,0.8,2.7v41.6l-10.8-10.8V441.1z"/>
				<path fill-rule="evenodd" clip-rule="evenodd" fill="#FDFDFD" d="M486.1,451.4c-0.4-0.6-1.2-1.7-2.5-3.3
					c-1.4-1.5-3.9-3.9-7.5-7.1h35.7c4.2,2.1,7.7,5.4,10.5,9.9h-36.5L486.1,451.4z"/>
			</g>
		</g>
		<g>
			<g>
				<linearGradient id="SVGID_21_" gradientUnits="userSpaceOnUse" x1="464.3047" y1="451.0498" x2="464.3047" y2="456.9498">
					<stop  offset="0.1176" style="stop-color:#FAFAFA"/>
					<stop  offset="0.3176" style="stop-color:#D2D0C8"/>
					<stop  offset="0.5255" style="stop-color:#C6C3BD"/>
					<stop  offset="1" style="stop-color:#C6C3BE"/>
				</linearGradient>
				<path fill-rule="evenodd" clip-rule="evenodd" fill="url(#SVGID_21_)" d="M444.4,451h38.7c0.8,0.7,1.2,1.7,1.1,3v41.7h-39.8V451
					z"/>
				<path fill-rule="evenodd" clip-rule="evenodd" fill="#FDFDFD" d="M483.1,451h-38.7l-7.1-9.9h35.5
					C476.3,443.8,479.7,447.1,483.1,451z"/>
			</g>
		</g>
		<g>
			<g>
				<linearGradient id="SVGID_22_" gradientUnits="userSpaceOnUse" x1="504.4521" y1="451.0498" x2="504.4521" y2="456.9498">
					<stop  offset="0.1176" style="stop-color:#FAFAFA"/>
					<stop  offset="0.3176" style="stop-color:#D2D0C8"/>
					<stop  offset="0.5255" style="stop-color:#C6C3BD"/>
					<stop  offset="1" style="stop-color:#C6C3BE"/>
				</linearGradient>
				<path fill-rule="evenodd" clip-rule="evenodd" fill="url(#SVGID_22_)" d="M486.1,451.4l-0.3-0.5h36.5c0.6,1,0.8,2.1,0.7,3.1
					v21.7v3.8c-6.8-1.8-14-2.7-21.5-2.5c-1.3,0-2.6,0.1-4,0.2c-3.2,0.2-6.5,0.6-9.9,1.1c-0.2,0.1-0.5,0.1-0.7,0.2v-24.4
					C486.8,453.1,486.5,452.2,486.1,451.4z"/>
				<path fill-rule="evenodd" clip-rule="evenodd" d="M483.1,451c-2.3-2.6-4.7-5-7-7.1v-2.8c3.6,3.2,6.1,5.5,7.5,7.1
					c1.3,1.5,2.2,2.6,2.5,3.3c0.4,0.8,0.7,1.7,0.8,2.7v24.4c0.2,0,0.5-0.1,0.7-0.2c3.3-0.5,6.6-0.9,9.9-1.1c1.4-0.1,2.7-0.1,4-0.2
					c7.6-0.1,14.8,0.7,21.5,2.5v0.3c-4.2-0.7-8.6-0.9-13.2-0.8c-1.3,0-2.6,0.1-4,0.2c-3.2,0.2-6.5,0.6-9.8,1.1
					c-1.9,0.3-3.8,0.6-5.8,1c-1.1,0.2-2.2,0.5-3.3,0.7v13.6l-2.7-2.7v-10.2c-8.4,2.2-16,5.3-22.7,9.3c-0.9,0.5-1.7,1-2.5,1.5
					c-1.1,0.7-2.2,1.4-3.2,2.2h-11c1.8-1.5,3.8-2.8,5.8-4.1c0.8-0.5,1.6-1,2.5-1.5c8.2-4.8,17.8-8.4,28.6-10.7
					c0.8-0.2,1.6-0.3,2.4-0.4v-25C484.3,452.6,483.9,451.6,483.1,451z M437.4,441.2l7,9.8v44.1l-7-16V441.2z"/>
				<path fill-rule="evenodd" clip-rule="evenodd" fill="#1D4AA8" d="M486.9,495.7V482c1.1-0.2,2.1-0.5,3.3-0.7c2-0.4,3.9-0.8,5.8-1
					c3.3-0.5,6.6-0.9,9.8-1.1c1.4-0.1,2.7-0.2,4-0.2c4.6-0.1,9,0.2,13.2,0.8v15.8H486.9z M455.9,495.7c1-0.7,2.1-1.5,3.2-2.2
					c0.8-0.5,1.6-1,2.5-1.5c6.7-3.9,14.2-7,22.7-9.3V493v2.7H455.9z"/>
				<path fill-rule="evenodd" clip-rule="evenodd" fill="#FDFDFD" d="M476.1,443.8c2.3,2.1,4.7,4.5,7,7.1h-38.7l-7-9.8l-0.1-0.1
					h35.5C473.9,442,475,442.9,476.1,443.8z M522.3,451h-36.5l0.3,0.5c-0.4-0.6-1.2-1.7-2.5-3.3c-1.4-1.5-3.9-3.9-7.5-7.1h35.7
					C516,443.2,519.5,446.5,522.3,451z"/>
				<linearGradient id="SVGID_23_" gradientUnits="userSpaceOnUse" x1="464.3047" y1="451.0498" x2="464.3047" y2="456.9498">
					<stop  offset="0.1176" style="stop-color:#FAFAFA"/>
					<stop  offset="0.3176" style="stop-color:#D2D0C8"/>
					<stop  offset="0.5255" style="stop-color:#C6C3BD"/>
					<stop  offset="1" style="stop-color:#C6C3BE"/>
				</linearGradient>
				<path fill-rule="evenodd" clip-rule="evenodd" fill="url(#SVGID_23_)" d="M444.4,495.1V451h38.7c0.8,0.7,1.2,1.7,1.1,3v25
					c-0.8,0.1-1.6,0.2-2.4,0.4c-10.8,2.3-20.4,5.9-28.6,10.7c-0.9,0.5-1.7,1-2.5,1.5c-2,1.3-3.9,2.6-5.8,4.1h-0.5V495.1z"/>
			</g>
		</g>
		<g>
			<g>
				<linearGradient id="SVGID_24_" gradientUnits="userSpaceOnUse" x1="497.0752" y1="440.9746" x2="497.0752" y2="449.8246">
					<stop  offset="0.1176" style="stop-color:#787878"/>
					<stop  offset="1" style="stop-color:#0A0A0C"/>
				</linearGradient>
				<polygon fill-rule="evenodd" clip-rule="evenodd" fill="url(#SVGID_24_)" points="502.3,448.5 496.6,448.5 491.9,443 502.3,443 
									"/>
				<polygon fill-rule="evenodd" clip-rule="evenodd" points="502.3,448.5 502.3,443 502.4,443 507.8,448.5 				"/>
			</g>
		</g>
		<g>
			<g>
				<polygon fill-rule="evenodd" clip-rule="evenodd" points="462.8,443 463,443 468.3,448.5 462.8,448.5 				"/>
				<linearGradient id="SVGID_25_" gradientUnits="userSpaceOnUse" x1="457.6504" y1="440.9746" x2="457.6504" y2="449.8246">
					<stop  offset="0.1176" style="stop-color:#787878"/>
					<stop  offset="1" style="stop-color:#0A0A0C"/>
				</linearGradient>
				<polygon fill-rule="evenodd" clip-rule="evenodd" fill="url(#SVGID_25_)" points="462.8,443 462.8,448.5 457.2,448.5 452.5,443 
									"/>
			</g>
		</g>
	</g>
</g>
<g id="Layer_16">
	<g>
		<g>
			<rect x="457.5" y="505.3" fill-rule="evenodd" clip-rule="evenodd" fill="#6D655A" width="66" height="4.1"/>
			<rect x="457.5" y="500.8" fill-rule="evenodd" clip-rule="evenodd" fill="#E8E7E5" width="66" height="4.5"/>
			<linearGradient id="SVGID_26_" gradientUnits="userSpaceOnUse" x1="490.5742" y1="495.7002" x2="490.5742" y2="500.1002">
				<stop  offset="0" style="stop-color:#CED4D2"/>
				<stop  offset="1" style="stop-color:#534431"/>
			</linearGradient>
			<rect x="457.5" y="496.6" fill-rule="evenodd" clip-rule="evenodd" fill="url(#SVGID_26_)" width="66" height="4.2"/>
			<linearGradient id="SVGID_27_" gradientUnits="userSpaceOnUse" x1="490.5742" y1="492.7129" x2="490.5742" y2="495.9879">
				<stop  offset="0" style="stop-color:#CED4D2"/>
				<stop  offset="1" style="stop-color:#C1BAA8"/>
			</linearGradient>
			<rect x="457.5" y="491" fill-rule="evenodd" clip-rule="evenodd" fill="url(#SVGID_27_)" width="66" height="5.5"/>
		</g>
	</g>
</g>
<g id="Layer_15">
	<g>
		<g>
			<g>
				<linearGradient id="SVGID_28_" gradientUnits="userSpaceOnUse" x1="568.1152" y1="492.5713" x2="660.659" y2="585.1525">
					<stop  offset="1.960784e-002" style="stop-color:#AA9F88"/>
					<stop  offset="0.2392" style="stop-color:#C0B5A1"/>
					<stop  offset="0.5882" style="stop-color:#B0A893"/>
					<stop  offset="1" style="stop-color:#B2A68C"/>
				</linearGradient>
				<path fill-rule="evenodd" clip-rule="evenodd" fill="url(#SVGID_28_)" d="M675,508c0.3,0.2,0.7,0.4,1,0.6
					c0.9,0.7,1.3,1.8,1.3,3.4v5.9l-0.4,17.1l-0.2,6.7v18.5c0,2.9-1.5,4.4-4.4,4.4L551,565c-2.5,0-4.1-1.1-4.8-3.1
					c-0.2-0.4-0.3-0.8-0.3-1.3l0.8-47.6c0-2.8,1.4-4.2,4.1-4.3l93.8-0.5c9.3-0.2,18.6-0.5,28-0.7h0.2c0,0,0.1,0,0.1,0
					C673.8,507.6,674.5,507.7,675,508z"/>
				<linearGradient id="SVGID_29_" gradientUnits="userSpaceOnUse" x1="549.8291" y1="525.498" x2="561.2938" y2="517.8575">
					<stop  offset="0" style="stop-color:#A5977A"/>
					<stop  offset="0.302" style="stop-color:#B5A997"/>
					<stop  offset="0.5059" style="stop-color:#D0BBA6"/>
					<stop  offset="0.7725" style="stop-color:#B6AE99"/>
					<stop  offset="1" style="stop-color:#B6AE99"/>
				</linearGradient>
				<path fill-rule="evenodd" clip-rule="evenodd" fill="url(#SVGID_29_)" d="M550.8,508.8c-2.9,0-4.4,1.4-4.4,4.3l-0.8,47.6
					c0,0.2,0,0.4,0.1,0.6l-22-36.6l0.2-45.3c0-2.9,1.5-4.4,4.3-4.4h110.9L675,508c-0.6-0.2-1.3-0.4-2.1-0.4c0,0-0.1,0-0.1,0h-0.2
					c-9.4,0.2-18.7,0.5-28,0.7L550.8,508.8z"/>
				<linearGradient id="SVGID_30_" gradientUnits="userSpaceOnUse" x1="545.7129" y1="535.3496" x2="550.8879" y2="535.3496">
					<stop  offset="0" style="stop-color:#A5977A"/>
					<stop  offset="0.302" style="stop-color:#B5A997"/>
					<stop  offset="0.5059" style="stop-color:#D0BBA6"/>
					<stop  offset="0.7725" style="stop-color:#B6AE99"/>
					<stop  offset="1" style="stop-color:#B6AE99"/>
				</linearGradient>
				<path fill-rule="evenodd" clip-rule="evenodd" fill="url(#SVGID_30_)" d="M546.3,561.9c-0.1-0.1-0.2-0.1-0.2-0.2v0l-0.3-0.4
					c-0.1-0.2-0.1-0.4-0.1-0.6l0.8-47.6c0-2.9,1.5-4.3,4.4-4.3c-2.7,0.1-4.1,1.5-4.1,4.3l-0.8,47.6
					C546,561.1,546.1,561.5,546.3,561.9z"/>
			</g>
			<g>
				
					<radialGradient id="SVGID_31_" cx="614.0742" cy="508.2002" r="59.8755" gradientTransform="matrix(1 0 0 0.7917 0 105.8397)" gradientUnits="userSpaceOnUse">
					<stop  offset="0" style="stop-color:#FFFFFF;stop-opacity:0.502"/>
					<stop  offset="0.5843" style="stop-color:#FFFFFF;stop-opacity:0.4"/>
					<stop  offset="1" style="stop-color:#FFFFFF;stop-opacity:0"/>
				</radialGradient>
				<path fill-rule="evenodd" clip-rule="evenodd" fill="url(#SVGID_31_)" d="M673.2,507.8c0.3,0.1,0.4,0.2,0.4,0.4
					c0,0.2-0.1,0.3-0.4,0.4c-0.3,0.1-0.7,0.1-1,0.1H555.7c-0.2,0-0.5,0-0.8-0.1c-0.2-0.1-0.4-0.2-0.4-0.4c0-0.2,0.1-0.3,0.4-0.4
					c0.3-0.1,0.6-0.1,0.8-0.1h116.5C672.5,507.7,672.9,507.7,673.2,507.8z"/>
			</g>
		</g>
		<g>
			<g>
				<g>
					<linearGradient id="SVGID_32_" gradientUnits="userSpaceOnUse" x1="582.875" y1="555.1377" x2="582.875" y2="542.2627">
						<stop  offset="0" style="stop-color:#000000"/>
						<stop  offset="1" style="stop-color:#343021"/>
					</linearGradient>
					<path fill-rule="evenodd" clip-rule="evenodd" fill="url(#SVGID_32_)" d="M579.2,543.6h7.4c1.6,0,2.4,0.8,2.4,2.5v9
						c0,1.5-0.8,2.3-2.4,2.3h-7.4c-1.6,0-2.4-0.8-2.4-2.3v-9C576.8,544.4,577.5,543.6,579.2,543.6z"/>
					<linearGradient id="SVGID_33_" gradientUnits="userSpaceOnUse" x1="582.875" y1="555.1377" x2="582.875" y2="542.2627">
						<stop  offset="0" style="stop-color:#262626"/>
						<stop  offset="1" style="stop-color:#343021"/>
					</linearGradient>
					<path fill-rule="evenodd" clip-rule="evenodd" fill="url(#SVGID_33_)" d="M578.9,543.3h7.9c1.7,0,2.5,0.9,2.5,2.5v9.5
						c0,1.6-0.8,2.5-2.5,2.5h-7.9c-1.6,0-2.5-0.8-2.5-2.5v-9.5C576.5,544.2,577.3,543.3,578.9,543.3z M579.2,543.6
						c-1.6,0-2.4,0.8-2.4,2.5v9c0,1.5,0.8,2.3,2.4,2.3h7.4c1.6,0,2.4-0.8,2.4-2.3v-9c0-1.6-0.8-2.5-2.4-2.5H579.2z"/>
				</g>
				<g>
					<g>
						<polygon fill-rule="evenodd" clip-rule="evenodd" fill="#B49F98" points="579.5,545.1 580.3,546.3 578.9,555.8 						"/>
						
							<linearGradient id="SVGID_34_" gradientUnits="userSpaceOnUse" x1="545.834" y1="-590.6699" x2="547.6841" y2="-590.6699" gradientTransform="matrix(-1.351228e-002 0.9999 -1.0001 4.396031e-004 4.007611e-004 -1.643248e-004)">
							<stop  offset="0.2039" style="stop-color:#D8CDC9"/>
							<stop  offset="0.949" style="stop-color:#AFA294"/>
						</linearGradient>
						<polygon fill-rule="evenodd" clip-rule="evenodd" fill="url(#SVGID_34_)" points="580.3,546.3 579.5,545.1 586.5,545.1 
							587.3,546.3 						"/>
					</g>
				</g>
				<g>
					<radialGradient id="SVGID_35_" cx="583.0996" cy="553" r="2.7" gradientUnits="userSpaceOnUse">
						<stop  offset="0.3137" style="stop-color:#FEB770"/>
						<stop  offset="0.5843" style="stop-color:#F98717"/>
						<stop  offset="0.8549" style="stop-color:#AE5804"/>
						<stop  offset="1" style="stop-color:#AE5804;stop-opacity:0"/>
					</radialGradient>
					<path fill-rule="evenodd" clip-rule="evenodd" fill="url(#SVGID_35_)" d="M585.1,551c0.6,0.6,1,1.3,1,2.2c0,0.8-0.3,1.5-1,2.1
						c-0.6,0.6-1.3,0.9-2.1,0.9c-0.8,0-1.5-0.3-2-0.9c-0.6-0.6-0.9-1.3-0.9-2.1c0-0.9,0.3-1.6,0.9-2.2c0.6-0.6,1.3-0.9,2-0.9
						C583.8,550.2,584.5,550.5,585.1,551z"/>
				</g>
			</g>
		</g>
		<g>
			<g>
				<linearGradient id="SVGID_36_" gradientUnits="userSpaceOnUse" x1="624.2246" y1="555.0371" x2="624.2246" y2="542.1621">
					<stop  offset="0" style="stop-color:#000000"/>
					<stop  offset="1" style="stop-color:#343021"/>
				</linearGradient>
				<path fill-rule="evenodd" clip-rule="evenodd" fill="url(#SVGID_36_)" d="M620.5,543.5h7.3c1.7,0,2.5,0.8,2.5,2.4v9.1
					c0,1.5-0.8,2.2-2.5,2.2h-7.3c-1.6,0-2.4-0.7-2.4-2.2v-9.1C618.1,544.3,618.9,543.5,620.5,543.5z M621.4,546.3h7l-0.8-1.2h-7
					l-0.5,10.7L621.4,546.3z"/>
				<linearGradient id="SVGID_37_" gradientUnits="userSpaceOnUse" x1="624.1504" y1="555.0371" x2="624.1504" y2="542.1621">
					<stop  offset="0" style="stop-color:#262626"/>
					<stop  offset="1" style="stop-color:#343021"/>
				</linearGradient>
				<path fill-rule="evenodd" clip-rule="evenodd" fill="url(#SVGID_37_)" d="M620.3,543.1h7.8c1.7,0,2.5,0.9,2.5,2.6v9.5
					c0,1.6-0.8,2.4-2.5,2.4h-7.8c-1.7,0-2.5-0.8-2.5-2.4v-9.5C617.7,544,618.5,543.1,620.3,543.1z M620.5,543.5
					c-1.6,0-2.4,0.8-2.4,2.4v9.1c0,1.5,0.8,2.2,2.4,2.2h7.3c1.7,0,2.5-0.7,2.5-2.2v-9.1c0-1.6-0.8-2.4-2.5-2.4H620.5z"/>
				<polygon fill-rule="evenodd" clip-rule="evenodd" fill="#B49F98" points="621.4,546.3 620.2,555.8 620.7,545.1 				"/>
				
					<linearGradient id="SVGID_38_" gradientUnits="userSpaceOnUse" x1="545.8525" y1="-631.8911" x2="547.7027" y2="-631.8911" gradientTransform="matrix(-1.351228e-002 0.9999 -1.0001 4.396031e-004 4.007611e-004 -1.643248e-004)">
					<stop  offset="0.2039" style="stop-color:#D8CDC9"/>
					<stop  offset="0.949" style="stop-color:#AFA294"/>
				</linearGradient>
				<polygon fill-rule="evenodd" clip-rule="evenodd" fill="url(#SVGID_38_)" points="620.7,545.1 627.7,545.1 628.5,546.3 
					621.4,546.3 				"/>
			</g>
			<g>
				
					<radialGradient id="SVGID_39_" cx="624.5996" cy="553.8496" r="2.575" gradientTransform="matrix(1 0 0 1.0485 0 -26.8859)" gradientUnits="userSpaceOnUse">
					<stop  offset="0.3137" style="stop-color:#FEB770"/>
					<stop  offset="0.5843" style="stop-color:#FF1111"/>
					<stop  offset="0.7216" style="stop-color:#C40000"/>
					<stop  offset="0.902" style="stop-color:#AE5804;stop-opacity:0"/>
				</radialGradient>
				<path fill-rule="evenodd" clip-rule="evenodd" fill="url(#SVGID_39_)" d="M621.7,554.1c0-0.9,0.3-1.6,0.8-2.2
					c0.6-0.6,1.3-0.9,2.1-0.9c0.7,0,1.4,0.3,2,0.9c0.6,0.6,0.9,1.3,0.9,2.2c0,0.8-0.3,1.5-0.9,2.1c-0.6,0.6-1.3,1-2,1
					c-0.8,0-1.5-0.3-2.1-1C621.9,555.6,621.7,554.9,621.7,554.1z"/>
			</g>
		</g>
		<g>
			<g>
				<linearGradient id="SVGID_40_" gradientUnits="userSpaceOnUse" x1="647.0742" y1="555.0371" x2="647.0742" y2="542.1621">
					<stop  offset="0" style="stop-color:#000000"/>
					<stop  offset="1" style="stop-color:#343021"/>
				</linearGradient>
				<path fill-rule="evenodd" clip-rule="evenodd" fill="url(#SVGID_40_)" d="M654.6,555c0,1.5-1,2.2-3,2.2h-9.1c-2,0-3-0.7-3-2.2
					v-9.1c0-1.6,1-2.4,3-2.4h9.1c2,0,3,0.8,3,2.4V555z"/>
				<linearGradient id="SVGID_41_" gradientUnits="userSpaceOnUse" x1="647.0254" y1="555.0371" x2="647.0254" y2="542.1621">
					<stop  offset="0" style="stop-color:#262626"/>
					<stop  offset="1" style="stop-color:#343021"/>
				</linearGradient>
				<path fill-rule="evenodd" clip-rule="evenodd" fill="url(#SVGID_41_)" d="M655,555.2c0,1.6-1,2.4-3.1,2.4h-9.6
					c-2.1,0-3.1-0.8-3.1-2.4v-9.5c0-1.7,1-2.6,3.1-2.6h9.6c2.1,0,3.1,0.9,3.1,2.6V555.2z M654.6,555v-9.1c0-1.6-1-2.4-3-2.4h-9.1
					c-2,0-3,0.8-3,2.4v9.1c0,1.5,1,2.2,3,2.2h9.1C653.6,557.2,654.6,556.5,654.6,555z"/>
			</g>
			<g>
				<g>
					
						<linearGradient id="SVGID_42_" gradientUnits="userSpaceOnUse" x1="545.9775" y1="-654.7686" x2="547.8277" y2="-654.7686" gradientTransform="matrix(-1.351228e-002 0.9999 -1.0001 3.101071e-004 -2.250876e-004 -4.702993e-005)">
						<stop  offset="0.2039" style="stop-color:#D8CDC9"/>
						<stop  offset="0.949" style="stop-color:#AFA294"/>
					</linearGradient>
					<polygon fill-rule="evenodd" clip-rule="evenodd" fill="url(#SVGID_42_)" points="643,546.5 642,545.4 652,545.4 653,546.5 
											"/>
					<polygon fill-rule="evenodd" clip-rule="evenodd" fill="#B49F98" points="642,545.4 643,546.5 641.3,556.1 					"/>
				</g>
			</g>
			<g>
				
					<radialGradient id="SVGID_43_" cx="647.4004" cy="553.5" r="2.9375" gradientTransform="matrix(1 0 0 0.9191 0 44.7511)" gradientUnits="userSpaceOnUse">
					<stop  offset="0.3137" style="stop-color:#FEB770"/>
					<stop  offset="0.5843" style="stop-color:#FF5811"/>
					<stop  offset="0.7216" style="stop-color:#F44A02"/>
					<stop  offset="0.902" style="stop-color:#AE5804;stop-opacity:0"/>
				</radialGradient>
				<path fill-rule="evenodd" clip-rule="evenodd" fill="url(#SVGID_43_)" d="M649.8,555.7c-0.7,0.7-1.5,1-2.4,1
					c-0.9,0-1.6-0.3-2.3-1c-0.6-0.5-0.9-1.2-0.9-2c0-0.9,0.3-1.6,0.9-2.2c0.7-0.6,1.5-0.9,2.3-0.9c0.9,0,1.7,0.3,2.4,0.9
					c0.6,0.6,1,1.3,1,2.2C650.7,554.5,650.4,555.2,649.8,555.7z"/>
			</g>
		</g>
		<g>
			<g>
				
					<linearGradient id="SVGID_44_" gradientUnits="userSpaceOnUse" x1="589.0752" y1="-524.3496" x2="613.7847" y2="-524.3496" gradientTransform="matrix(0.17 0.9854 -0.9888 0.1504 4.003048e-004 4.257262e-004)">
					<stop  offset="0" style="stop-color:#473F2A"/>
					<stop  offset="1" style="stop-color:#120F0A"/>
				</linearGradient>
				<rect x="607.9" y="515.5" fill-rule="evenodd" clip-rule="evenodd" fill="url(#SVGID_44_)" width="29.4" height="18.7"/>
			</g>
			<g>
				
					<linearGradient id="SVGID_45_" gradientUnits="userSpaceOnUse" x1="785.7402" y1="-159.7139" x2="798.281" y2="-159.7139" gradientTransform="matrix(0.624 0.7815 -0.7992 0.6017 1.596212e-004 -3.650188e-004)">
					<stop  offset="0" style="stop-color:#BEBDB9"/>
					<stop  offset="1" style="stop-color:#B0B1AC"/>
				</linearGradient>
				<rect x="610" y="518.2" fill-rule="evenodd" clip-rule="evenodd" fill="url(#SVGID_45_)" width="25.1" height="10.9"/>
			</g>
		</g>
		<g>
			<g>
				<linearGradient id="SVGID_46_" gradientUnits="userSpaceOnUse" x1="639.7871" y1="522.3008" x2="653.1121" y2="522.3008">
					<stop  offset="0" style="stop-color:#110A02"/>
					<stop  offset="0.7569" style="stop-color:#1A130B"/>
					<stop  offset="0.9098" style="stop-color:#30291F"/>
				</linearGradient>
				<path fill-rule="evenodd" clip-rule="evenodd" fill="url(#SVGID_46_)" d="M652.2,513.1c0.6,0.2,0.9,0.7,0.9,1.6v15.2
					c0,1.2-0.5,1.8-1.6,1.8l-6.4-4c-0.5,0.4-0.8,0.7-0.8,0.8l0,0.2c1.3,0.2,2,1.2,2.2,3h-5c-1.1,0-1.7-0.6-1.7-1.8v-15.2
					c0-1.1,0.5-1.7,1.6-1.8h10.1c0,0,0.1,0,0.1,0l0.5,0.1C652.1,513,652.1,513.1,652.2,513.1z"/>
				<linearGradient id="SVGID_47_" gradientUnits="userSpaceOnUse" x1="639.1875" y1="522.5508" x2="653.2125" y2="522.5508">
					<stop  offset="0" style="stop-color:#160D03"/>
					<stop  offset="0.7569" style="stop-color:#1A130B"/>
					<stop  offset="0.9098" style="stop-color:#30291F"/>
				</linearGradient>
				<path fill-rule="evenodd" clip-rule="evenodd" fill="url(#SVGID_47_)" d="M652.2,513.1c0.7,0.2,1,0.7,1,1.7v15.7
					c0,1.2-0.6,1.8-1.8,1.8H641c-1.2,0-1.8-0.6-1.8-1.8v-15.7c0-1.2,0.6-1.8,1.8-1.8h0.4c-1.1,0.1-1.6,0.6-1.6,1.8v15.2
					c0,1.2,0.6,1.8,1.7,1.8h5c-0.1-1.8-0.9-2.8-2.2-3l0-0.2c0-0.2,0.3-0.5,0.8-0.8l6.4,4c1.1,0,1.6-0.6,1.6-1.8v-15.2
					C653.1,513.8,652.8,513.3,652.2,513.1z"/>
			</g>
			<g>
				<g>
					<path fill-rule="evenodd" clip-rule="evenodd" fill="#685C4C" d="M651.9,517h-5v-2h5V517z M644.8,517h-4.3v-2h4.3V517z"/>
					<rect x="643.3" y="518" fill-rule="evenodd" clip-rule="evenodd" fill="#655E58" width="6.3" height="2.2"/>
				</g>
			</g>
			<g>
				<g>
					<g>
						<linearGradient id="SVGID_48_" gradientUnits="userSpaceOnUse" x1="646.0996" y1="529.0342" x2="647.7764" y2="525.9601">
							<stop  offset="3.921569e-003" style="stop-color:#6E6E6E"/>
							<stop  offset="0.4118" style="stop-color:#FFFFFF"/>
							<stop  offset="1" style="stop-color:#585858"/>
						</linearGradient>
						<path fill-rule="evenodd" clip-rule="evenodd" fill="url(#SVGID_48_)" d="M650.5,527.2c0,0.9-0.3,1.7-1,2.4
							c-0.7,0.7-1.5,1-2.4,1c-0.9,0-1.7-0.3-2.4-1c-0.7-0.7-1-1.5-1-2.4s0.3-1.7,1-2.4c0.7-0.7,1.5-1,2.4-1c0.9,0,1.7,0.3,2.4,1
							C650.2,525.5,650.5,526.3,650.5,527.2z"/>
					</g>
					<g>
						<path fill-rule="evenodd" clip-rule="evenodd" d="M649.9,527.5c0,0.5-0.2,1-0.6,1.4c-0.4,0.4-0.9,0.6-1.5,0.6
							c-0.6,0-1-0.2-1.4-0.6c-0.4-0.4-0.6-0.9-0.6-1.4c0-0.6,0.2-1,0.6-1.5c0.4-0.4,0.9-0.6,1.4-0.6c0.6,0,1.1,0.2,1.5,0.6
							C649.7,526.5,649.9,526.9,649.9,527.5z"/>
					</g>
				</g>
			</g>
		</g>
	</g>
	<g>
		<g>
			
				<linearGradient id="SVGID_49_" gradientUnits="userSpaceOnUse" x1="157.3076" y1="743.6816" x2="188.1147" y2="743.6816" gradientTransform="matrix(0.835 -0.5502 0.5928 0.807 -3.955364e-004 -1.163483e-004)">
				<stop  offset="0" style="stop-color:#B8B09B;stop-opacity:0"/>
				<stop  offset="0.2392" style="stop-color:#514637"/>
				<stop  offset="1" style="stop-color:#383025;stop-opacity:0.2706"/>
			</linearGradient>
			<polygon fill-rule="evenodd" clip-rule="evenodd" fill="url(#SVGID_49_)" points="662.5,506 567.3,506 544.3,480.1 642.2,480.1 
				663.3,504.3 			"/>
		</g>
		<g>
			<g>
				<linearGradient id="SVGID_50_" gradientUnits="userSpaceOnUse" x1="573.8037" y1="451.0693" x2="699.37" y2="523.0345">
					<stop  offset="0" style="stop-color:#B3A588"/>
					<stop  offset="0.7843" style="stop-color:#D6D0BF"/>
					<stop  offset="1" style="stop-color:#D3CCBA"/>
				</linearGradient>
				<path fill-rule="evenodd" clip-rule="evenodd" fill="url(#SVGID_50_)" d="M661.8,448.2c0.1,0.1,0.2,0.2,0.3,0.3
					c0.1,0.1,0.3,0.3,0.4,0.5c0.3,0.7,0.5,1.6,0.5,2.6v49c0,2.9-1.5,4.3-4.4,4.3h-82.4c-1.3,0-2.4-0.3-3.1-0.8v0
					c-0.3-0.2-0.4-0.4-0.5-0.7c-0.5-0.7-0.8-1.6-0.8-2.8v-49c0-2.9,1.5-4.4,4.4-4.4h82.4C659.9,447.2,661,447.5,661.8,448.2z
					 M594.9,454.8h-16.4c-3,0-4.5,1.5-4.5,4.4v15.1c0,2.9,1.5,4.4,4.5,4.4h16.4c2.9,0,4.4-1.5,4.4-4.4v-15.1
					C599.3,456.3,597.8,454.8,594.9,454.8z"/>
				<linearGradient id="SVGID_51_" gradientUnits="userSpaceOnUse" x1="563.542" y1="482.4473" x2="609.0223" y2="437.1276">
					<stop  offset="0" style="stop-color:#D1CAB7"/>
					<stop  offset="0.4078" style="stop-color:#DCD6C6"/>
					<stop  offset="0.4706" style="stop-color:#F2EFEA"/>
					<stop  offset="0.5569" style="stop-color:#E4E1D2"/>
					<stop  offset="1" style="stop-color:#DCDBD6"/>
				</linearGradient>
				<path fill-rule="evenodd" clip-rule="evenodd" fill="url(#SVGID_51_)" d="M572.5,503.3L553,480.1l-1-47.5c0-2.9,1.4-4.4,4.3-4.4
					h83c0.7-0.1,1.6,0.3,2.7,1c0.4,0.2,0.8,0.5,1.3,0.9l18.5,18c-0.8-0.7-1.9-1-3.2-1h-82.4c-2.9,0-4.4,1.5-4.4,4.4v49
					C571.8,501.7,572,502.6,572.5,503.3z"/>
			</g>
		</g>
		<g>
			<g>
				<path fill-rule="evenodd" clip-rule="evenodd" fill="#2F2114" d="M602.7,458l-1-1.8h0.6c0.3,0,0.4,0.1,0.4,0.4
					c-0.1,0.2-0.1,0.4-0.1,0.6C602.6,457.4,602.7,457.7,602.7,458C602.7,458,602.7,458,602.7,458z M579.4,456.3l0.1,2.1h-0.1
					c-0.4,0-0.6-0.1-0.6-0.3c0-0.2,0-0.5,0-0.8s0-0.5,0-0.6C578.8,456.4,579,456.3,579.4,456.3z"/>
				<linearGradient id="SVGID_52_" gradientUnits="userSpaceOnUse" x1="590.6504" y1="449.5879" x2="590.6504" y2="472.2129">
					<stop  offset="0" style="stop-color:#382618"/>
					<stop  offset="1" style="stop-color:#18150C"/>
				</linearGradient>
				<path fill-rule="evenodd" clip-rule="evenodd" fill="url(#SVGID_52_)" d="M579.5,458.3l0.1,17.5c7.4,0.5,14.9,0.5,22.6,0
					l0.5-17.8c0,0,0-0.1,0-0.1c0-0.3,0-0.5-0.1-0.7c0-0.2,0-0.4,0.1-0.6c0-0.3-0.1-0.4-0.4-0.4h-0.6h-22.3c-0.4,0-0.6,0.1-0.6,0.4
					c0,0.2,0,0.4,0,0.6s0,0.5,0,0.8C578.8,458.3,579,458.3,579.5,458.3L579.5,458.3z M581.7,478.1c-2.4-0.3-3.7-1.8-3.7-4.5v-15
					c0-2.7,1.2-4.2,3.7-4.5c0.2,0,0.5,0,0.8,0h16.3c2.2,0,3.7,0.9,4.3,2.6l0.1,1.9v15l-0.1,2c-0.6,1.7-2.1,2.5-4.3,2.5h-16.3
					C582.2,478.1,581.9,478.1,581.7,478.1z"/>
				<path fill-rule="evenodd" clip-rule="evenodd" fill="#736B5E" d="M579.4,456.3h22.3l1,1.8c-0.1,0.2-0.3,0.3-0.4,0.3h-22.2
					L579.4,456.3z"/>
				<linearGradient id="SVGID_53_" gradientUnits="userSpaceOnUse" x1="591.125" y1="449.5879" x2="591.125" y2="472.2129">
					<stop  offset="0" style="stop-color:#764E34"/>
					<stop  offset="0.9608" style="stop-color:#110E09"/>
				</linearGradient>
				<path fill-rule="evenodd" clip-rule="evenodd" fill="url(#SVGID_53_)" d="M579.6,475.8l0.5-17.5h22.2c0.1,0,0.3-0.1,0.4-0.3
					l-0.5,17.8C594.5,476.4,587,476.4,579.6,475.8z"/>
				<path fill-rule="evenodd" clip-rule="evenodd" fill="#523625" d="M581.7,478.1c-2.9-0.1-4.4-1.6-4.4-4.5v-15
					c0-2.9,1.5-4.4,4.4-4.5c-2.4,0.3-3.7,1.8-3.7,4.5v15C578,476.3,579.2,477.8,581.7,478.1z"/>
				<polygon fill-rule="evenodd" clip-rule="evenodd" fill="#675F54" points="580.1,458.3 579.6,475.8 579.5,458.3 579.4,456.3 				
					"/>
			</g>
		</g>
		<g>
			<radialGradient id="SVGID_54_" cx="618.1504" cy="446.75" r="40.65" gradientUnits="userSpaceOnUse">
				<stop  offset="0" style="stop-color:#FFFFFF"/>
				<stop  offset="0.5843" style="stop-color:#FFFFFF;stop-opacity:0.7804"/>
				<stop  offset="1" style="stop-color:#FFFFFF;stop-opacity:0"/>
			</radialGradient>
			<path fill-rule="evenodd" clip-rule="evenodd" fill="url(#SVGID_54_)" d="M658.3,446.4c0.2,0.1,0.3,0.2,0.3,0.3
				c0,0.1-0.1,0.3-0.3,0.3c-0.2,0.1-0.5,0.1-0.6,0.1h-79.1c-0.2,0-0.3,0-0.5-0.1c-0.2-0.1-0.3-0.2-0.3-0.3c0-0.2,0.1-0.3,0.3-0.3
				c0.2-0.1,0.4-0.1,0.5-0.1h79.1C657.8,446.3,658.1,446.3,658.3,446.4z"/>
		</g>
	</g>
</g>
<g id="Layer_14">
	<g>
		<g>
			<linearGradient id="SVGID_55_" gradientUnits="userSpaceOnUse" x1="440.0498" y1="529.9502" x2="519.6498" y2="529.9502">
				<stop  offset="0" style="stop-color:#A19C8A"/>
				<stop  offset="1" style="stop-color:#746F64"/>
			</linearGradient>
			<polygon fill-rule="evenodd" clip-rule="evenodd" fill="url(#SVGID_55_)" points="544.5,537.9 481.8,537.9 481.8,522 531.4,522 
							"/>
			<polygon fill-rule="evenodd" clip-rule="evenodd" fill="#D0C7B8" points="481.8,537.9 544.5,537.9 544.5,538 544.5,544 
				533.5,544 524.8,544 515.3,544 481.8,544 			"/>
			<polygon fill-rule="evenodd" clip-rule="evenodd" fill="#666458" points="524.8,544 524.8,546.6 524.8,555.5 515.3,544 			"/>
			<polygon fill-rule="evenodd" clip-rule="evenodd" fill="#A19C8A" points="524.8,546.6 533.5,546.6 533.5,555.8 524.8,555.8 
				524.8,555.5 			"/>
			<rect x="524.8" y="544" fill-rule="evenodd" clip-rule="evenodd" fill="#7A7B6A" width="8.6" height="2.5"/>
		</g>
	</g>
</g>
<g id="Layer_13">
	<g>
		<g>
			<polygon fill-rule="evenodd" clip-rule="evenodd" fill="#9A9588" points="432.8,528.3 430.5,510.9 430.5,476.3 431.3,476.3 
				432.8,484.7 			"/>
			<linearGradient id="SVGID_56_" gradientUnits="userSpaceOnUse" x1="454.375" y1="482.5371" x2="454.375" y2="488.5621">
				<stop  offset="0.1176" style="stop-color:#C5C0AB"/>
				<stop  offset="0.3176" style="stop-color:#D6D4C4"/>
				<stop  offset="0.5255" style="stop-color:#C4BEAC"/>
				<stop  offset="1" style="stop-color:#C8C3AD"/>
			</linearGradient>
			<polygon fill-rule="evenodd" clip-rule="evenodd" fill="url(#SVGID_56_)" points="431.3,476.3 472,476.3 477.4,484.9 
				477.4,528.4 432.8,528.4 432.8,528.3 432.8,484.7 			"/>
		</g>
	</g>
</g>
<g id="Layer_12">
	<g>
		<g>
			<polygon fill-rule="evenodd" clip-rule="evenodd" fill="#150E0B" points="382,476.3 393.8,498.9 393.8,528.2 382,500.1 			"/>
			<polygon fill-rule="evenodd" clip-rule="evenodd" fill="#100C09" points="393.8,498.9 445,498.9 445,528.4 394,528.4 
				393.8,528.2 			"/>
			<polygon fill-rule="evenodd" clip-rule="evenodd" fill="#1C150F" points="445,498.9 393.8,498.9 382,476.3 428.7,476.3 			"/>
		</g>
	</g>
	<g>
		<g>
			<polygon fill-rule="evenodd" clip-rule="evenodd" fill="#1C150F" points="438.3,473.5 397.6,473.5 389.5,463 427.6,463 			"/>
			<polygon fill-rule="evenodd" clip-rule="evenodd" fill="#120B0A" points="397.6,473.5 397.6,496.9 389.3,482.4 389.3,463 
				389.5,463 			"/>
			<polygon fill-rule="evenodd" clip-rule="evenodd" points="397.6,473.5 438.3,473.5 438.3,497.1 397.8,497.1 397.6,496.9 			"/>
		</g>
	</g>
	<g>
		<linearGradient id="SVGID_57_" gradientUnits="userSpaceOnUse" x1="381.4053" y1="476.333" x2="381.5094" y2="486.6582">
			<stop  offset="0" style="stop-color:#000000"/>
			<stop  offset="0.4039" style="stop-color:#3A3A3A"/>
			<stop  offset="1" style="stop-color:#000000"/>
		</linearGradient>
		<path fill-rule="evenodd" clip-rule="evenodd" fill="url(#SVGID_57_)" d="M367.5,487.8V475h26.9c1.6,4.1,1.6,8.3,0,12.8H367.5z"/>
	</g>
	<g>
		
			<radialGradient id="SVGID_58_" cx="363.4004" cy="481.8496" r="7.6" gradientTransform="matrix(1 0 0 1.1217 0 -58.6462)" gradientUnits="userSpaceOnUse">
			<stop  offset="0" style="stop-color:#BDBDBD"/>
			<stop  offset="0.2157" style="stop-color:#242424"/>
			<stop  offset="1" style="stop-color:#000000"/>
		</radialGradient>
		<path fill-rule="evenodd" clip-rule="evenodd" fill="url(#SVGID_58_)" d="M363.2,473.3c0.1,0,0.1,0,0.2,0c2,0,3.8,0.8,5.3,2.5
			c1.5,1.7,2.2,3.7,2.2,6c0,2.3-0.7,4.3-2.2,6c-1.5,1.6-3.3,2.5-5.3,2.5c-0.1,0-0.1,0-0.2,0V473.3z"/>
	</g>
	<g>
		<radialGradient id="SVGID_59_" cx="418.3496" cy="511" r="14.3375" fx="410.4218" fy="511" gradientUnits="userSpaceOnUse">
			<stop  offset="0" style="stop-color:#FFFFFF;stop-opacity:0.1412"/>
			<stop  offset="1" style="stop-color:#3C3C3C"/>
		</radialGradient>
		<path fill-rule="evenodd" clip-rule="evenodd" fill="url(#SVGID_59_)" d="M427.8,510.5c0.2,0.1,0.4,0.3,0.6,0.5
			c0.4,0.4,0.7,0.9,1,1.4v8.1c-0.2,0.4-0.6,0.9-1,1.3c-0.1,0.1-0.3,0.2-0.4,0.4H413c-0.2-0.1-0.3-0.3-0.4-0.4
			c-0.3-0.3-0.5-0.5-0.7-0.8V512c0.2-0.3,0.4-0.6,0.7-0.9c0.2-0.2,0.4-0.4,0.7-0.5H427.8z"/>
	</g>
</g>
<g id="Layer_11">
	<g>
		<linearGradient id="SVGID_60_" gradientUnits="userSpaceOnUse" x1="381.5449" y1="477.9873" x2="381.5206" y2="486.4123">
			<stop  offset="0" style="stop-color:#5B5B5B"/>
			<stop  offset="0.2471" style="stop-color:#CACACA"/>
			<stop  offset="1" style="stop-color:#343434"/>
		</linearGradient>
		<path fill-rule="evenodd" clip-rule="evenodd" fill="url(#SVGID_60_)" d="M385.4,485.8H378c0.5-4,0.3-7-0.6-9h7.4
			C385.8,479.5,386,482.5,385.4,485.8z"/>
	</g>
</g>
<g id="Layer_6">
	<g>
		<g>
			<g>
				<rect x="265.3" y="487.3" fill-rule="evenodd" clip-rule="evenodd" fill="#3B362C" width="101.2" height="1"/>
				<linearGradient id="SVGID_61_" gradientUnits="userSpaceOnUse" x1="315.8999" y1="478.7373" x2="315.8999" y2="484.7623">
					<stop  offset="0.1882" style="stop-color:#ECE9E0"/>
					<stop  offset="0.3176" style="stop-color:#FAF3ED"/>
					<stop  offset="0.4745" style="stop-color:#CBC4B4"/>
					<stop  offset="1" style="stop-color:#CCC5B4"/>
				</linearGradient>
				<polygon fill-rule="evenodd" clip-rule="evenodd" fill="url(#SVGID_61_)" points="366.5,487.3 265.3,487.3 265.3,480.7 
					269.8,455.3 360,455.3 366.5,480.9 				"/>
				<linearGradient id="SVGID_62_" gradientUnits="userSpaceOnUse" x1="315.8999" y1="488.25" x2="315.8999" y2="527.2">
					<stop  offset="0" style="stop-color:#FCF6E0"/>
					<stop  offset="4.313726e-002" style="stop-color:#CBC4B4"/>
					<stop  offset="1" style="stop-color:#CBC4B4"/>
				</linearGradient>
				<rect x="265.3" y="488.3" fill-rule="evenodd" clip-rule="evenodd" fill="url(#SVGID_62_)" width="101.2" height="39.8"/>
			</g>
		</g>
		<g>
			<linearGradient id="SVGID_63_" gradientUnits="userSpaceOnUse" x1="314.125" y1="459.3379" x2="314.125" y2="465.3629">
				<stop  offset="0.1882" style="stop-color:#ECE9E0"/>
				<stop  offset="0.3176" style="stop-color:#FAF3ED"/>
				<stop  offset="0.4745" style="stop-color:#CBC4B4"/>
				<stop  offset="1" style="stop-color:#CCC5B4"/>
			</linearGradient>
			<polygon fill-rule="evenodd" clip-rule="evenodd" fill="url(#SVGID_63_)" points="283.3,460.5 284.6,448.1 343.2,448.1 345,462 
				345,477 283.5,477 283.5,476.8 283.5,461.8 283.5,461.2 			"/>
		</g>
		<g>
			<g>
				<path fill-rule="evenodd" clip-rule="evenodd" fill="#120F0E" d="M293.1,503.8c-1.1,0.1-2,0.5-2.9,1.3c-0.9,0.9-1.3,2-1.3,3.2
					s0.4,2.3,1.3,3.1c0.8,0.8,1.8,1.3,2.9,1.4c-0.1,0-0.2,0-0.3,0c-1.2,0-2.3-0.5-3.2-1.4c-0.9-0.8-1.3-1.9-1.3-3.1s0.4-2.3,1.3-3.2
					c0.9-0.9,2-1.3,3.2-1.3C293,503.8,293.1,503.8,293.1,503.8z"/>
				<path fill-rule="evenodd" clip-rule="evenodd" fill="#1C1815" d="M293.1,512.7c-1.1-0.1-2-0.5-2.9-1.4c-0.9-0.8-1.3-1.9-1.3-3.1
					s0.4-2.3,1.3-3.2c0.8-0.8,1.8-1.2,2.9-1.3c0.1,0,0.2,0,0.3,0c1.2,0,2.3,0.4,3.1,1.3c0.9,0.9,1.4,2,1.4,3.2s-0.5,2.3-1.4,3.1
					c-0.9,0.9-1.9,1.4-3.1,1.4C293.4,512.7,293.3,512.7,293.1,512.7z"/>
				<path fill-rule="evenodd" clip-rule="evenodd" fill="#302B22" d="M293.1,503.8c-0.1,0-0.2,0-0.3,0c-1.2,0-2.3,0.4-3.2,1.3
					c-0.9,0.9-1.3,2-1.3,3.2s0.4,2.3,1.3,3.1c0.9,0.9,2,1.4,3.2,1.4c0.1,0,0.2,0,0.3,0c0.1,0,0.2,0,0.3,0c1.2,0,2.3-0.5,3.1-1.4
					c0.9-0.8,1.4-1.9,1.4-3.1s-0.5-2.3-1.4-3.2c-0.9-0.9-1.9-1.3-3.1-1.3C293.4,503.8,293.3,503.8,293.1,503.8z M283.4,498.7h19.1
					v19.3c-0.3-0.1-0.5-0.1-0.8-0.1h-18.3V498.7z"/>
				<path fill-rule="evenodd" clip-rule="evenodd" fill="#0B0A08" d="M302.5,517.9v0.4h-19.8v-19.6h0.7v19.1h18.3
					C302,517.8,302.3,517.8,302.5,517.9z"/>
			</g>
		</g>
		<g>
			<g>
				<path fill-rule="evenodd" clip-rule="evenodd" fill="#0B0A08" d="M349.6,517.9v0.4h-19.9v-19.6h0.7v19.1h18.3
					C349.1,517.8,349.4,517.8,349.6,517.9z"/>
				<path fill-rule="evenodd" clip-rule="evenodd" fill="#302B22" d="M330.5,498.7h19.1v19.3c-0.3-0.1-0.6-0.1-0.9-0.1h-18.3V498.7z
					 M340.3,503.8c-0.1,0-0.2,0-0.3,0c-1.2,0-2.3,0.4-3.2,1.3c-0.9,0.9-1.3,2-1.3,3.2s0.4,2.3,1.3,3.1c0.9,0.9,2,1.4,3.2,1.4
					c0.1,0,0.2,0,0.3,0s0.2,0,0.3,0c1.2,0,2.3-0.5,3.2-1.4c0.9-0.8,1.3-1.9,1.3-3.1s-0.4-2.3-1.3-3.2c-0.9-0.9-1.9-1.3-3.2-1.3
					C340.4,503.8,340.3,503.8,340.3,503.8z"/>
				<path fill-rule="evenodd" clip-rule="evenodd" fill="#120F0E" d="M340.3,503.8c-1.1,0.1-2.1,0.5-2.9,1.3c-0.9,0.9-1.3,2-1.3,3.2
					s0.4,2.3,1.3,3.1c0.8,0.8,1.8,1.3,2.9,1.4c-0.1,0-0.2,0-0.3,0c-1.2,0-2.3-0.5-3.2-1.4c-0.9-0.8-1.3-1.9-1.3-3.1s0.4-2.3,1.3-3.2
					c0.9-0.9,2-1.3,3.2-1.3C340.1,503.8,340.2,503.8,340.3,503.8z"/>
				<path fill-rule="evenodd" clip-rule="evenodd" fill="#1C1815" d="M340.3,512.7c-1.1-0.1-2.1-0.5-2.9-1.4
					c-0.9-0.8-1.3-1.9-1.3-3.1s0.4-2.3,1.3-3.2c0.8-0.8,1.8-1.2,2.9-1.3c0.1,0,0.2,0,0.3,0c1.2,0,2.3,0.4,3.2,1.3
					c0.9,0.9,1.3,2,1.3,3.2s-0.4,2.3-1.3,3.1c-0.9,0.9-1.9,1.4-3.2,1.4C340.4,512.7,340.3,512.7,340.3,512.7z"/>
			</g>
		</g>
		<g>
			<g>
				
					<linearGradient id="SVGID_64_" gradientUnits="userSpaceOnUse" x1="475.1748" y1="-428.8398" x2="492.4817" y2="-428.8398" gradientTransform="matrix(-0.3279 0.9447 -1.0586 1.817318e-004 4.867911e-004 -6.556636e-005)">
					<stop  offset="0" style="stop-color:#FFFFFF"/>
					<stop  offset="1" style="stop-color:#000000"/>
				</linearGradient>
				<polygon fill-rule="evenodd" clip-rule="evenodd" fill="url(#SVGID_64_)" points="297.7,458.2 294.1,458.2 294.7,450.8 
					298,450.8 				"/>
				
					<linearGradient id="SVGID_65_" gradientUnits="userSpaceOnUse" x1="-486.6392" y1="447.1543" x2="-475.5783" y2="447.1543" gradientTransform="matrix(0.3277 -0.9448 1.0584 2.765377e-005 -4.634261e-004 4.357770e-004)">
					<stop  offset="0" style="stop-color:#EAE1B8;stop-opacity:0"/>
					<stop  offset="0.2745" style="stop-color:#EAE1B8"/>
					<stop  offset="0.549" style="stop-color:#D9C98C"/>
					<stop  offset="0.7725" style="stop-color:#E0DBB5"/>
					<stop  offset="1" style="stop-color:#E0DBB5;stop-opacity:0"/>
				</linearGradient>
				<polygon fill-rule="evenodd" clip-rule="evenodd" fill="url(#SVGID_65_)" points="297.7,458.2 298,450.8 332.8,450.8 
					333.4,458.2 				"/>
				
					<linearGradient id="SVGID_66_" gradientUnits="userSpaceOnUse" x1="475.2109" y1="-465.085" x2="492.407" y2="-465.085" gradientTransform="matrix(-0.3271 0.945 -1.0583 3.067603e-004 -1.739264e-004 -1.673730e-004)">
					<stop  offset="0" style="stop-color:#FFFFFF"/>
					<stop  offset="1" style="stop-color:#000000"/>
				</linearGradient>
				<polygon fill-rule="evenodd" clip-rule="evenodd" fill="url(#SVGID_66_)" points="332.8,450.8 336.1,450.8 337,458.2 
					333.4,458.2 				"/>
			</g>
		</g>
		<g>
			<g>
				<linearGradient id="SVGID_67_" gradientUnits="userSpaceOnUse" x1="350.7002" y1="468.4629" x2="360.0002" y2="468.4629">
					<stop  offset="0.1176" style="stop-color:#242424"/>
					<stop  offset="0.4235" style="stop-color:#6F6F6F"/>
					<stop  offset="1" style="stop-color:#000000"/>
				</linearGradient>
				<path fill-rule="evenodd" clip-rule="evenodd" fill="url(#SVGID_67_)" d="M350.1,466.5c0,0.3,0.2,0.6,0.6,0.7
					c0.2,0.3,0.5,0.5,0.8,0.8c0.9,0.4,2,0.5,3.3,0.5c1.3,0,2.4-0.2,3.3-0.5c0.4-0.2,0.7-0.5,1-0.8c0.3-0.2,0.4-0.4,0.4-0.6v1.6
					c0,0.7-0.5,1.2-1.4,1.6c-0.9,0.4-2,0.6-3.3,0.6c-1.3,0-2.4-0.2-3.3-0.6c-0.9-0.4-1.4-0.9-1.4-1.6V466.5z"/>
				<linearGradient id="SVGID_68_" gradientUnits="userSpaceOnUse" x1="352.4658" y1="464.0029" x2="359.0052" y2="470.6151">
					<stop  offset="0" style="stop-color:#6F6F6F"/>
					<stop  offset="1" style="stop-color:#000000"/>
				</linearGradient>
				<path fill-rule="evenodd" clip-rule="evenodd" fill="url(#SVGID_68_)" d="M359.5,466.7c0,0.2-0.1,0.4-0.4,0.6
					c-0.3,0.3-0.6,0.5-1,0.8c-0.9,0.4-2,0.5-3.3,0.5c-1.3,0-2.4-0.2-3.3-0.5c-0.4-0.2-0.7-0.5-0.8-0.8c-0.4-0.2-0.5-0.4-0.6-0.7
					v-0.1c0-0.7,0.5-1.2,1.4-1.6c0.9-0.5,2-0.8,3.3-0.8c1.3,0,2.4,0.3,3.3,0.8c0.9,0.4,1.4,0.9,1.4,1.6V466.7z"/>
			</g>
		</g>
		<g>
			<g>
				<linearGradient id="SVGID_69_" gradientUnits="userSpaceOnUse" x1="271.6001" y1="468.5127" x2="280.9001" y2="468.5127">
					<stop  offset="0.1176" style="stop-color:#242424"/>
					<stop  offset="0.4235" style="stop-color:#6F6F6F"/>
					<stop  offset="1" style="stop-color:#000000"/>
				</linearGradient>
				<path fill-rule="evenodd" clip-rule="evenodd" fill="url(#SVGID_69_)" d="M271,466.6c0,0.3,0.2,0.5,0.6,0.7
					c0.2,0.3,0.4,0.5,0.8,0.7c1,0.4,2.1,0.5,3.3,0.5c1.3,0,2.4-0.2,3.3-0.5c0.4-0.2,0.7-0.4,1-0.7c0.3-0.2,0.4-0.4,0.4-0.6v1.6
					c0,0.7-0.5,1.2-1.4,1.5c-0.9,0.4-2,0.6-3.3,0.6c-1.2,0-2.3-0.2-3.3-0.6c-1-0.4-1.4-0.9-1.4-1.5V466.6z"/>
				<linearGradient id="SVGID_70_" gradientUnits="userSpaceOnUse" x1="273.3462" y1="464.0215" x2="279.8856" y2="470.6337">
					<stop  offset="0" style="stop-color:#6F6F6F"/>
					<stop  offset="1" style="stop-color:#000000"/>
				</linearGradient>
				<path fill-rule="evenodd" clip-rule="evenodd" fill="url(#SVGID_70_)" d="M280.4,466.7c0,0.2-0.1,0.5-0.4,0.6
					c-0.3,0.3-0.6,0.5-1,0.7c-0.9,0.4-2,0.5-3.3,0.5c-1.2,0-2.3-0.2-3.3-0.5c-0.4-0.2-0.6-0.4-0.8-0.7c-0.4-0.2-0.6-0.4-0.6-0.7
					v-0.1c0-0.7,0.5-1.2,1.4-1.6c1-0.4,2.1-0.6,3.3-0.6c1.3,0,2.4,0.2,3.3,0.6c0.9,0.4,1.4,0.9,1.4,1.6V466.7z"/>
			</g>
		</g>
		<g>
			
				<radialGradient id="SVGID_71_" cx="313.5498" cy="480.9502" r="48.525" gradientTransform="matrix(1 0 0 0.9152 0 40.7606)" gradientUnits="userSpaceOnUse">
				<stop  offset="0" style="stop-color:#FFFFFF"/>
				<stop  offset="0.5843" style="stop-color:#FFFFFF;stop-opacity:0.4"/>
				<stop  offset="1" style="stop-color:#FFFFFF;stop-opacity:0"/>
			</radialGradient>
			<polygon fill-rule="evenodd" clip-rule="evenodd" fill="url(#SVGID_71_)" points="265.8,481.5 266.5,480.3 364.9,480.3 
				364.9,481.5 			"/>
		</g>
	</g>
</g>
<g id="Layer_9">
	<g>
		<g>
			<g>
				<linearGradient id="SVGID_72_" gradientUnits="userSpaceOnUse" x1="401.7441" y1="460.9443" x2="391.1145" y2="466.811">
					<stop  offset="0.3294" style="stop-color:#1C150F"/>
					<stop  offset="0.4431" style="stop-color:#38231E"/>
					<stop  offset="0.5333" style="stop-color:#1B100E"/>
					<stop  offset="1" style="stop-color:#100908"/>
				</linearGradient>
				<path fill-rule="evenodd" clip-rule="evenodd" fill="url(#SVGID_72_)" d="M444.5,458.3c-0.3-0.2-0.6-0.3-1.1-0.3h-47.2
					c-1.2,0.1-2,0.9-2.2,2.3v26.5l-5.8-13.1c-0.6-1.1-0.9-2.3-0.9-3.6v-22c0-0.9,0.7-1.5,2.2-1.7h44.7c0.8-0.1,1.5,0.1,1.9,0.6
					L444.5,458.3z"/>
				<path fill-rule="evenodd" clip-rule="evenodd" fill="#0A0A0C" d="M394,486.8v-26.5c0.2-1.4,1-2.1,2.2-2.3h47.2
					c0.5,0,0.8,0.1,1.1,0.3c0.4,0.3,0.7,0.8,0.7,1.5v26.5c-0.1,0.9-0.6,1.3-1.5,1.3h-47.1C395.2,487.7,394.3,487.4,394,486.8z"/>
			</g>
		</g>
		<g>
			<radialGradient id="SVGID_73_" cx="434.9004" cy="478.5" r="2.4375" gradientUnits="userSpaceOnUse">
				<stop  offset="8.235294e-002" style="stop-color:#888888"/>
				<stop  offset="0.7882" style="stop-color:#000000"/>
			</radialGradient>
			<path fill-rule="evenodd" clip-rule="evenodd" fill="url(#SVGID_73_)" d="M434,481.8c-0.7-0.6-1-1.4-1-2.3c0-1,0.3-1.8,1-2.5
				c0.7-0.6,1.5-1,2.5-1c1,0,1.8,0.3,2.4,1c0.7,0.7,1,1.5,1,2.5c0,0.9-0.3,1.7-1,2.3c-0.6,0.7-1.4,1-2.4,1
				C435.5,482.8,434.7,482.5,434,481.8z"/>
		</g>
		<g>
			<radialGradient id="SVGID_74_" cx="408.8496" cy="478.5" r="2.4375" gradientUnits="userSpaceOnUse">
				<stop  offset="8.235294e-002" style="stop-color:#888888"/>
				<stop  offset="0.7882" style="stop-color:#000000"/>
			</radialGradient>
			<path fill-rule="evenodd" clip-rule="evenodd" fill="url(#SVGID_74_)" d="M407.9,481.8c-0.6-0.6-1-1.4-1-2.3c0-1,0.3-1.8,1-2.5
				c0.7-0.6,1.5-1,2.4-1c1,0,1.8,0.3,2.4,1c0.7,0.7,1,1.5,1,2.5c0,0.9-0.3,1.7-1,2.3c-0.6,0.7-1.4,1-2.4,1
				C409.4,482.8,408.6,482.5,407.9,481.8z"/>
		</g>
	</g>
</g>
<g id="Layer_8">
	<g>
		<g>
			<linearGradient id="SVGID_75_" gradientUnits="userSpaceOnUse" x1="401.8379" y1="456.4004" x2="435.3379" y2="456.4004">
				<stop  offset="0" style="stop-color:#34312B"/>
				<stop  offset="1" style="stop-color:#1C1B19"/>
			</linearGradient>
			<polygon fill-rule="evenodd" clip-rule="evenodd" fill="url(#SVGID_75_)" points="402.4,456.1 402.3,455.9 435.7,455.9 
				435.8,456.2 435.8,456.9 402.8,456.9 402.3,456.9 402.3,456 			"/>
			<linearGradient id="SVGID_76_" gradientUnits="userSpaceOnUse" x1="397.5771" y1="423.6973" x2="422.8664" y2="461.4127">
				<stop  offset="0" style="stop-color:#4F493F"/>
				<stop  offset="1" style="stop-color:#0E0E0E"/>
			</linearGradient>
			<polygon fill-rule="evenodd" clip-rule="evenodd" fill="url(#SVGID_76_)" points="435.7,455.9 402.3,455.9 402.4,456.1 
				402.3,456 394,437 423.4,437 			"/>
			<linearGradient id="SVGID_77_" gradientUnits="userSpaceOnUse" x1="371.9336" y1="418.1377" x2="404.8299" y2="454.2911">
				<stop  offset="0" style="stop-color:#4F493F"/>
				<stop  offset="1" style="stop-color:#0E0E0E"/>
			</linearGradient>
			<polygon fill-rule="evenodd" clip-rule="evenodd" fill="url(#SVGID_77_)" points="394,437 402.3,456 402.4,456.1 402.3,456 
				402.3,456.9 402.3,456.9 395.3,446.7 394,446.7 394,437 			"/>
		</g>
	</g>
</g>
<g id="Layer_7">
	<g>
		<g>
			<polygon fill-rule="evenodd" clip-rule="evenodd" fill="#918976" points="496.8,537.7 496.8,525.1 507.8,525.1 507.8,528.9 
				530,528.9 530,525.1 530,525.1 543.3,525.1 543.3,537.7 			"/>
			<polygon fill-rule="evenodd" clip-rule="evenodd" fill="#8A806E" points="530,528.9 514.8,509.3 514.6,509.3 514.6,506.3 
				530,525.1 530,525.1 			"/>
			<path fill-rule="evenodd" clip-rule="evenodd" fill="#D1CCBA" d="M543.3,525.1H530l-15.5-18.8V506h12.9L543.3,525.1z
				 M496.3,509.3l11.6,15.8h-11l-13.3-19v0h10.3L496.3,509.3z"/>
			<polygon fill-rule="evenodd" clip-rule="evenodd" fill="#B6AF95" points="496.8,537.7 483.5,515 483.5,506.1 496.8,525.1 			"/>
			<polygon fill-rule="evenodd" clip-rule="evenodd" fill="#AAA790" points="507.8,525.1 496.3,509.3 514.8,509.3 530,528.9 
				507.8,528.9 			"/>
		</g>
	</g>
</g>
<g id="Layer_6_1_">
	<g>
		<g>
			
				<linearGradient id="SVGID_78_" gradientUnits="userSpaceOnUse" x1="522.7109" y1="474.8301" x2="528.4981" y2="474.8301" gradientTransform="matrix(0.9979 6.479859e-002 0 1.0021 2.293587e-004 4.014969e-004)">
				<stop  offset="0.1176" style="stop-color:#242424"/>
				<stop  offset="0.4235" style="stop-color:#6F6F6F"/>
				<stop  offset="1" style="stop-color:#000000"/>
			</linearGradient>
			<path fill-rule="evenodd" clip-rule="evenodd" fill="url(#SVGID_78_)" d="M521.3,508.5c0,0.2,0.1,0.4,0.3,0.5
				c0.1,0.1,0.3,0.3,0.6,0.3c0.6,0.3,1.3,0.5,2,0.6c0.8,0.1,1.5,0,2-0.3c0.2-0.1,0.4-0.2,0.6-0.4c0.2-0.1,0.2-0.2,0.3-0.3v1
				c0,0.4-0.3,0.7-0.8,0.8c-0.5,0.2-1.2,0.3-2,0.3c-0.8-0.1-1.5-0.3-2-0.5c-0.6-0.3-0.9-0.6-0.9-1V508.5z"/>
			<linearGradient id="SVGID_79_" gradientUnits="userSpaceOnUse" x1="522.7002" y1="506.9434" x2="526.7433" y2="511.3496">
				<stop  offset="0" style="stop-color:#6F6F6F"/>
				<stop  offset="1" style="stop-color:#000000"/>
			</linearGradient>
			<path fill-rule="evenodd" clip-rule="evenodd" fill="url(#SVGID_79_)" d="M527.1,509c0,0.1-0.1,0.2-0.3,0.3
				c-0.2,0.1-0.4,0.3-0.6,0.4c-0.5,0.3-1.2,0.3-2,0.3c-0.8,0-1.5-0.2-2-0.6c-0.2-0.1-0.4-0.2-0.6-0.3c-0.2-0.2-0.3-0.4-0.3-0.5v-0.2
				c0-0.4,0.3-0.6,0.9-0.8c0.6-0.2,1.3-0.3,2-0.3c0.8,0.1,1.5,0.3,2,0.5c0.6,0.3,0.8,0.7,0.8,1V509z"/>
		</g>
	</g>
	<g>
		<g>
			<linearGradient id="SVGID_80_" gradientUnits="userSpaceOnUse" x1="532.7686" y1="519.1055" x2="536.7994" y2="523.4733">
				<stop  offset="0" style="stop-color:#6F6F6F"/>
				<stop  offset="1" style="stop-color:#000000"/>
			</linearGradient>
			<path fill-rule="evenodd" clip-rule="evenodd" fill="url(#SVGID_80_)" d="M537.1,521c0,0.1-0.1,0.2-0.3,0.4
				c-0.2,0.1-0.3,0.2-0.5,0.3c-0.6,0.3-1.3,0.4-2.1,0.3c-0.8-0.1-1.4-0.3-2-0.6c-0.3-0.1-0.5-0.2-0.5-0.3c-0.2-0.2-0.3-0.4-0.4-0.6
				v0c0.1-0.4,0.4-0.7,0.9-0.9c0.6-0.2,1.2-0.3,2-0.3c0.8,0,1.5,0.2,2.1,0.5c0.5,0.3,0.8,0.6,0.8,1V521z"/>
			
				<linearGradient id="SVGID_81_" gradientUnits="userSpaceOnUse" x1="532.8545" y1="486.123" x2="538.6167" y2="486.123" gradientTransform="matrix(0.9979 6.507914e-002 0 1.0021 2.444983e-004 -3.742278e-004)">
				<stop  offset="0.1176" style="stop-color:#242424"/>
				<stop  offset="0.4235" style="stop-color:#6F6F6F"/>
				<stop  offset="1" style="stop-color:#000000"/>
			</linearGradient>
			<path fill-rule="evenodd" clip-rule="evenodd" fill="url(#SVGID_81_)" d="M531.3,520.5c0.1,0.2,0.2,0.4,0.4,0.6
				c0.1,0.1,0.3,0.3,0.5,0.3c0.6,0.3,1.2,0.5,2,0.6c0.8,0,1.5-0.1,2.1-0.3c0.2-0.1,0.4-0.2,0.5-0.3c0.2-0.2,0.2-0.3,0.3-0.4v1
				c0,0.3-0.3,0.6-0.8,0.8c-0.6,0.3-1.3,0.4-2.1,0.3c-0.8,0-1.4-0.2-2-0.6c-0.5-0.3-0.8-0.6-0.9-1V520.5z"/>
		</g>
	</g>
</g>
<g id="Layer_2">
	<g>
		<g>
			<g>
				
					<linearGradient id="SVGID_82_" gradientUnits="userSpaceOnUse" x1="-184.625" y1="-517.4253" x2="-18.275" y2="-517.4253" gradientTransform="matrix(-1 0 0 -1 0 0)">
					<stop  offset="0" style="stop-color:#AAA7A2"/>
					<stop  offset="0.4784" style="stop-color:#9D9C97"/>
					<stop  offset="1" style="stop-color:#B4B3AE"/>
				</linearGradient>
				<path fill-rule="evenodd" clip-rule="evenodd" fill="url(#SVGID_82_)" d="M199.8,555.4c0,0.3,0,0.5,0,0.8l-0.1,1
					c-0.5,2.3-2.2,3.5-5.1,3.5H30.4c-3.5,0-5.3-1.8-5.3-5.3v-75.9c0-1.3,0.2-2.4,0.7-3.2c0.1-0.2,0.3-0.4,0.4-0.6
					c0.1-0.1,0.2-0.2,0.3-0.3c0.3-0.2,0.6-0.5,0.9-0.7c0.8-0.4,1.8-0.6,3-0.6h3.2h160.9c3.5,0,5.3,1.8,5.3,5.3V542V555.4z"/>
				
					<linearGradient id="SVGID_83_" gradientUnits="userSpaceOnUse" x1="342.6221" y1="365.3516" x2="392.5544" y2="365.3516" gradientTransform="matrix(0.8973 0.4414 -0.4414 0.8973 3.546476e-005 -4.161000e-004)">
					<stop  offset="0" style="stop-color:#94928D"/>
					<stop  offset="0.8667" style="stop-color:#94928D"/>
					<stop  offset="0.9373" style="stop-color:#BDBBB8"/>
					<stop  offset="1" style="stop-color:#726F6C"/>
				</linearGradient>
				<path fill-rule="evenodd" clip-rule="evenodd" fill="url(#SVGID_83_)" d="M27.4,474.8c7.3-7,13.2-12.8,17.9-17.2
					c2-1.5,4.7-2.2,8.1-2.1h153.8c3.1,0.1,4.7,1.8,4.8,5v49.2l-12.1,45.8l-0.1,0V542v-62.5c0-3.6-1.8-5.3-5.3-5.3H33.6h-3.2
					C29.2,474.2,28.2,474.4,27.4,474.8z"/>
			</g>
		</g>
		<g>
			<linearGradient id="SVGID_84_" gradientUnits="userSpaceOnUse" x1="169.875" y1="477.2246" x2="169.875" y2="482.5746">
				<stop  offset="0" style="stop-color:#8C8885"/>
				<stop  offset="1" style="stop-color:#8B8683"/>
			</linearGradient>
			<rect x="150.2" y="476.8" fill-rule="evenodd" clip-rule="evenodd" fill="url(#SVGID_84_)" width="39.3" height="6"/>
		</g>
		<g>
			<g>
				<path fill-rule="evenodd" clip-rule="evenodd" fill="#FFFFFF" d="M173.6,488.7c0-0.5,0.3-0.8,0.8-0.8s0.8,0.3,0.8,0.8
					c0,0.5-0.3,0.8-0.8,0.8S173.6,489.2,173.6,488.7z"/>
				
					<radialGradient id="SVGID_85_" cx="-175.1504" cy="-489.7998" r="4.1754" gradientTransform="matrix(-1 0 0 1 0 979.5996)" gradientUnits="userSpaceOnUse">
					<stop  offset="0" style="stop-color:#83C5FA"/>
					<stop  offset="1" style="stop-color:#000000"/>
				</radialGradient>
				<path fill-rule="evenodd" clip-rule="evenodd" fill="url(#SVGID_85_)" d="M173.6,488.7c0,0.5,0.3,0.8,0.8,0.8s0.8-0.3,0.8-0.8
					c0-0.5-0.3-0.8-0.8-0.8S173.6,488.2,173.6,488.7z M173.3,487.8c0.5-0.5,1.1-0.8,1.9-0.8c0.7,0,1.4,0.3,1.9,0.8
					c0.6,0.6,0.9,1.2,0.9,2c0,0.7-0.3,1.3-0.9,1.9c-0.5,0.5-1.1,0.8-1.9,0.8c-0.8,0-1.4-0.3-1.9-0.8c-0.5-0.6-0.8-1.2-0.8-1.9
					C172.5,489.1,172.7,488.4,173.3,487.8z"/>
			</g>
		</g>
		<g>
			<g>
				<g>
					<g>
						
							<linearGradient id="SVGID_86_" gradientUnits="userSpaceOnUse" x1="536.1816" y1="-173.9688" x2="545.7557" y2="-173.9688" gradientTransform="matrix(1.044387e-004 1 -1 -2.475248e-003 -2.445839e-004 2.383790e-004)">
							<stop  offset="0" style="stop-color:#67A7B1"/>
							<stop  offset="0.9725" style="stop-color:#29746B"/>
						</linearGradient>
						<polygon fill-rule="evenodd" clip-rule="evenodd" fill="url(#SVGID_86_)" points="174.2,539.9 174.2,549.7 173.9,549.5 
							173.9,539.6 174,539.6 						"/>
						
							<linearGradient id="SVGID_87_" gradientUnits="userSpaceOnUse" x1="552.041" y1="119.2808" x2="564.1593" y2="119.2808" gradientTransform="matrix(0.4999 0.8661 -0.8661 0.4999 3.682375e-004 2.222061e-004)">
							<stop  offset="0" style="stop-color:#346165"/>
							<stop  offset="1" style="stop-color:#122120"/>
						</linearGradient>
						<path fill-rule="evenodd" clip-rule="evenodd" fill="url(#SVGID_87_)" d="M179.3,539.9v9.8h-5v-9.8H179.3z M174.5,540.5v8.6
							h4.4v-8.6H174.5z"/>
						
							<linearGradient id="SVGID_88_" gradientUnits="userSpaceOnUse" x1="259.7271" y1="510.6836" x2="265.0516" y2="510.6836" gradientTransform="matrix(0.9907 0.1362 -0.1645 0.9868 1.210272e-004 -2.246797e-004)">
							<stop  offset="0" style="stop-color:#55C4C0"/>
							<stop  offset="1" style="stop-color:#277269"/>
						</linearGradient>
						<polygon fill-rule="evenodd" clip-rule="evenodd" fill="url(#SVGID_88_)" points="179.3,539.9 174.2,539.9 174,539.6 
							178.9,539.6 						"/>
					</g>
				</g>
				<g>
					<g>
						
							<linearGradient id="SVGID_89_" gradientUnits="userSpaceOnUse" x1="478.8184" y1="301.5186" x2="485.3651" y2="301.5186" gradientTransform="matrix(0.7638 0.6454 -0.6353 0.7724 2.741814e-005 1.012087e-004)">
							<stop  offset="0" style="stop-color:#8FEFEF"/>
							<stop  offset="1" style="stop-color:#116666"/>
						</linearGradient>
						<polygon fill-rule="evenodd" clip-rule="evenodd" fill="url(#SVGID_89_)" points="179.7,548.3 175.3,548.3 174.5,540.5 
							178.9,540.5 						"/>
						
							<linearGradient id="SVGID_90_" gradientUnits="userSpaceOnUse" x1="207.2837" y1="548.7246" x2="212.4587" y2="548.7246" gradientTransform="matrix(1 0 -6.451613e-002 1 1.965463e-005 0)">
							<stop  offset="0" style="stop-color:#0B4A4A"/>
							<stop  offset="1" style="stop-color:#072C2B"/>
						</linearGradient>
						<polygon fill-rule="evenodd" clip-rule="evenodd" fill="url(#SVGID_90_)" points="179.7,548.3 178.9,549.1 174.5,549.1 
							175.3,548.3 						"/>
						
							<linearGradient id="SVGID_91_" gradientUnits="userSpaceOnUse" x1="568.3896" y1="-58.5029" x2="571.7875" y2="-58.5029" gradientTransform="matrix(0.206 0.9785 -0.9817 0.1909 -1.034439e-004 1.593232e-004)">
							<stop  offset="0" style="stop-color:#127E7E"/>
							<stop  offset="1" style="stop-color:#116666"/>
						</linearGradient>
						<polygon fill-rule="evenodd" clip-rule="evenodd" fill="url(#SVGID_91_)" points="174.5,549.1 174.5,540.5 175.3,548.3 						
							"/>
					</g>
				</g>
			</g>
		</g>
		<g>
			<g>
				<g>
					<linearGradient id="SVGID_92_" gradientUnits="userSpaceOnUse" x1="177.8921" y1="502.1563" x2="174.2921" y2="506.6313">
						<stop  offset="0.1412" style="stop-color:#201302"/>
						<stop  offset="0.4588" style="stop-color:#FEA64E"/>
						<stop  offset="0.7294" style="stop-color:#2D1C07"/>
						<stop  offset="1" style="stop-color:#201302"/>
					</linearGradient>
					<path fill-rule="evenodd" clip-rule="evenodd" fill="url(#SVGID_92_)" d="M173.3,504.4c0-0.8,0.3-1.5,0.8-2.1
						c0.6-0.5,1.3-0.8,2.1-0.8c0.8,0,1.4,0.3,2,0.8c0.6,0.6,0.9,1.3,0.9,2.1c0,0.8-0.3,1.4-0.9,2c-0.6,0.6-1.2,0.9-2,0.9
						c-0.8,0-1.5-0.3-2.1-0.9C173.5,505.8,173.3,505.2,173.3,504.4z"/>
				</g>
				<g>
					<linearGradient id="SVGID_93_" gradientUnits="userSpaceOnUse" x1="174.9502" y1="502.9873" x2="178.4502" y2="506.1123">
						<stop  offset="0" style="stop-color:#D1A564"/>
						<stop  offset="1" style="stop-color:#8E590B"/>
					</linearGradient>
					<path fill-rule="evenodd" clip-rule="evenodd" fill="url(#SVGID_93_)" d="M175,502.8c0.5-0.4,1-0.6,1.7-0.6
						c0.6,0,1.2,0.2,1.6,0.6c0.5,0.5,0.7,1,0.7,1.7c0,0.6-0.2,1.2-0.7,1.7s-1,0.7-1.6,0.7c-0.7,0-1.2-0.2-1.7-0.7
						c-0.4-0.5-0.6-1-0.6-1.7C174.4,503.9,174.6,503.3,175,502.8z"/>
				</g>
			</g>
		</g>
		<g>
			
				<radialGradient id="SVGID_94_" cx="171.6001" cy="525.5" r="1.75" gradientTransform="matrix(1 0 0 3.2571 0 -1186.1285)" gradientUnits="userSpaceOnUse">
				<stop  offset="0" style="stop-color:#FFFFFF"/>
				<stop  offset="5.098039e-002" style="stop-color:#FFFFFF"/>
				<stop  offset="0.1569" style="stop-color:#0F6BC6"/>
				<stop  offset="1" style="stop-color:#000000"/>
			</radialGradient>
			<path fill-rule="evenodd" clip-rule="evenodd" fill="url(#SVGID_94_)" d="M173,529.7c0,0.4-0.1,0.6-0.4,0.8
				c-0.2,0.2-0.5,0.3-0.9,0.3c-0.3,0-0.5-0.1-0.8-0.3c-0.3-0.2-0.4-0.5-0.4-0.8V524c0-0.3,0.1-0.6,0.4-0.8c0.2-0.2,0.5-0.3,0.8-0.3
				c0.3,0,0.6,0.1,0.9,0.3c0.2,0.2,0.4,0.5,0.4,0.8V529.7z"/>
		</g>
		<g>
			<g>
				<path fill-rule="evenodd" clip-rule="evenodd" fill="#FFFFFF" d="M129.5,540.1L129.5,540.1c-0.1,0.1-0.1,0.2-0.1,0.4
					c0,0.2-0.1,0.3-0.3,0.3c-0.2,0-0.3-0.1-0.3-0.4c0-0.3,0.2-0.7,0.6-1.1c0.4-0.3,0.6-0.3,0.6,0c0,0.2-0.1,0.4-0.4,0.5
					c0,0,0,0.1,0,0.1l0,0.1C129.6,540.1,129.5,540.1,129.5,540.1z M129,542c-0.2,0-0.3-0.1-0.3-0.3c0-0.1,0.1-0.2,0.3-0.2
					c0.1,0,0.2,0.1,0.2,0.2v0.1C129.1,541.9,129.1,542,129,542z"/>
				
					<linearGradient id="SVGID_95_" gradientUnits="userSpaceOnUse" x1="130.106" y1="542.1738" x2="135.231" y2="542.1738" gradientTransform="matrix(1 3.812663e-003 -3.812662e-003 1 1.106728e-004 9.857723e-005)">
					<stop  offset="0" style="stop-color:#FF4848"/>
					<stop  offset="0.9882" style="stop-color:#8F0101"/>
				</linearGradient>
				<path fill-rule="evenodd" clip-rule="evenodd" fill="url(#SVGID_95_)" d="M129.5,540.1c0.1,0,0.1,0,0.1-0.1l0-0.1
					c0,0,0-0.1,0-0.1c0.3-0.2,0.4-0.3,0.4-0.5c0-0.4-0.2-0.4-0.6,0c-0.4,0.4-0.6,0.8-0.6,1.1c0,0.3,0.1,0.4,0.3,0.4
					c0.2,0,0.3-0.1,0.3-0.3C129.4,540.3,129.4,540.2,129.5,540.1L129.5,540.1z M128.8,539.2c0.4-0.4,1-0.7,1.6-0.7
					c0.6,0,1.2,0.2,1.6,0.7c0.4,0.5,0.7,1,0.7,1.6v3.7c0,0.6-0.2,1.1-0.7,1.6c-0.5,0.5-1,0.7-1.6,0.7c-0.7,0-1.2-0.2-1.6-0.7
					c-0.4-0.5-0.6-1-0.6-1.6v-3.7C128.1,540.3,128.3,539.7,128.8,539.2z M129,542c0.1,0,0.1,0,0.2-0.2v-0.1c0-0.1-0.1-0.2-0.2-0.2
					c-0.2,0-0.3,0.1-0.3,0.2C128.8,541.9,128.8,542,129,542z"/>
				
					<linearGradient id="SVGID_96_" gradientUnits="userSpaceOnUse" x1="550.5957" y1="14.5361" x2="563.1729" y2="14.5361" gradientTransform="matrix(0.2589 0.9659 -0.9659 0.2589 -4.023314e-005 4.668832e-004)">
					<stop  offset="0" style="stop-color:#FF8877"/>
					<stop  offset="1" style="stop-color:#000000"/>
				</linearGradient>
				<path fill-rule="evenodd" clip-rule="evenodd" fill="url(#SVGID_96_)" d="M128.8,539.2c-0.4,0.5-0.6,1-0.6,1.6v3.7
					c0,0.6,0.2,1.1,0.6,1.6c0.4,0.5,1,0.7,1.6,0.7c0.6,0,1.2-0.2,1.6-0.7c0.4-0.5,0.7-1,0.7-1.6v-3.7c0-0.6-0.2-1.1-0.7-1.6
					c-0.5-0.4-1-0.7-1.6-0.7C129.7,538.5,129.2,538.8,128.8,539.2z M128.6,538.8c0.5-0.5,1.1-0.8,1.8-0.8c0.7,0,1.3,0.3,1.8,0.8
					s0.8,1.1,0.8,1.8v4c0,0.7-0.3,1.3-0.8,1.8c-0.5,0.5-1.1,0.8-1.8,0.8c-0.7,0-1.3-0.3-1.8-0.8c-0.5-0.5-0.8-1.1-0.8-1.8v-4
					C127.9,540,128.1,539.3,128.6,538.8z"/>
			</g>
		</g>
		<g>
			<g>
				
					<linearGradient id="SVGID_97_" gradientUnits="userSpaceOnUse" x1="113.562" y1="542.5752" x2="114.712" y2="542.5752" gradientTransform="matrix(1 0 3.717472e-003 1 7.228786e-005 0)">
					<stop  offset="0" style="stop-color:#FF8000"/>
					<stop  offset="1" style="stop-color:#874301"/>
				</linearGradient>
				<path fill-rule="evenodd" clip-rule="evenodd" fill="url(#SVGID_97_)" d="M118.5,540.5v4.1c0,0.4-0.1,0.7-0.4,0.9
					c-0.3,0.3-0.6,0.4-1,0.4h0c-0.3,0-0.6-0.1-1-0.4c-0.2-0.2-0.4-0.5-0.4-0.9v-4.1c0-0.3,0.1-0.6,0.4-1c0.3-0.3,0.6-0.4,1-0.4h0
					c0.4,0,0.7,0.1,1,0.4C118.4,539.9,118.5,540.2,118.5,540.5z"/>
			</g>
		</g>
		<g>
			<radialGradient id="SVGID_98_" cx="33.6499" cy="552.3496" r="4.1625" gradientUnits="userSpaceOnUse">
				<stop  offset="0" style="stop-color:#FFFFFF"/>
				<stop  offset="9.019607e-002" style="stop-color:#FFFFFF"/>
				<stop  offset="0.2863" style="stop-color:#FBFB00"/>
				<stop  offset="0.7098" style="stop-color:#BBBB00"/>
				<stop  offset="1" style="stop-color:#9D9D00"/>
			</radialGradient>
			<path fill-rule="evenodd" clip-rule="evenodd" fill="url(#SVGID_98_)" d="M37.8,553.3c0,0.9-0.3,1.6-0.9,2.2
				c-0.5,0.7-1.3,1-2.2,1c-0.9,0-1.6-0.3-2.3-1c-0.6-0.6-0.9-1.3-0.9-2.2c0-0.9,0.3-1.7,0.9-2.3c0.7-0.5,1.4-0.8,2.3-0.8
				c0.9,0,1.7,0.3,2.2,0.8C37.5,551.6,37.8,552.4,37.8,553.3z"/>
		</g>
		<g>
			<path fill-rule="evenodd" clip-rule="evenodd" fill="#656A66" d="M96.4,483.9c2.4,0,3.9,0.8,4.8,2.4v0.1c0.4,0.7,0.5,1.7,0.5,2.8
				v52.2c0,1.1-0.2,2.1-0.5,2.8c-0.8,1.7-2.4,2.5-4.8,2.5H34.9c-0.8,0-1.6-0.1-2.2-0.3c-2.1-0.6-3.1-2.3-3.1-5v-52.2
				c0-3.5,1.8-5.3,5.3-5.3H96.4z"/>
		</g>
		<g>
			<linearGradient id="SVGID_99_" gradientUnits="userSpaceOnUse" x1="-49.5625" y1="515.0996" x2="15.9625" y2="515.0996">
				<stop  offset="0.1412" style="stop-color:#0B0D0C"/>
				<stop  offset="1" style="stop-color:#15151F"/>
			</linearGradient>
			<path fill-rule="evenodd" clip-rule="evenodd" fill="url(#SVGID_99_)" d="M93.8,486c0.8,0,1.5,0.1,2.2,0.3c2.1,0.6,3.1,2.3,3.1,5
				v47.5c0,3.5-1.8,5.3-5.3,5.3H37.4c-2.4,0-3.9-0.8-4.8-2.4c-0.4-0.8-0.5-1.7-0.5-2.9v-47.5c0-3.5,1.8-5.3,5.3-5.3H93.8z"/>
		</g>
		<g>
			<linearGradient id="SVGID_100_" gradientUnits="userSpaceOnUse" x1="32.1001" y1="489.625" x2="99.1001" y2="489.625">
				<stop  offset="4.313726e-002" style="stop-color:#C7C7C7"/>
				<stop  offset="0.1412" style="stop-color:#FFFFFF"/>
				<stop  offset="0.7373" style="stop-color:#C6C6C6"/>
				<stop  offset="0.7608" style="stop-color:#F0F0F0"/>
				<stop  offset="0.8078" style="stop-color:#FEFEFE"/>
				<stop  offset="0.8235" style="stop-color:#A7A7A7"/>
				<stop  offset="1" style="stop-color:#CACACA"/>
				<stop  offset="1" style="stop-color:#15151F"/>
			</linearGradient>
			<path fill-rule="evenodd" clip-rule="evenodd" fill="url(#SVGID_100_)" d="M99.1,491.3v1.9h-67v-1.9c0-3.5,1.8-5.3,5.3-5.3h56.4
				c0.8,0,1.5,0.1,2.2,0.3C98.1,487,99.1,488.6,99.1,491.3z"/>
		</g>
		<g>
			<linearGradient id="SVGID_101_" gradientUnits="userSpaceOnUse" x1="19.7373" y1="525.5996" x2="85.2623" y2="525.5996">
				<stop  offset="0.1412" style="stop-color:#394240"/>
				<stop  offset="1" style="stop-color:#15151F"/>
			</linearGradient>
			<path fill-rule="evenodd" clip-rule="evenodd" fill="url(#SVGID_101_)" d="M57.8,524c2.9,0.2,6,0.6,9.4,1.3c5,0.9,8.4,2,10.1,3.3
				c2.6,2,4.7,3.3,6.1,3.8c1.4,0.5,3.9,0.9,7.5,1.2c0.7,0,2.3,0,5-0.1c1.1-0.1,2.1-0.1,3.1,0l0.3,0v5.4c0,3.5-1.8,5.3-5.3,5.3H37.4
				c-2.4,0-3.9-0.8-4.8-2.4c-0.4-0.8-0.5-1.7-0.5-2.9V507c1,0,1.8,0,2.3,0c3.2,0,5.9,0.8,8,2.4c1.4,1.1,2.9,3,4.4,5.5
				c1.8,3,3.2,4.9,4.1,5.8C52.7,522.7,55,523.8,57.8,524z"/>
		</g>
		<g>
			<path fill-rule="evenodd" clip-rule="evenodd" fill="#FFFFFF" d="M42.9,508.8L42.9,508.8c1.5,1.2,3,3.1,4.6,5.8
				c1.8,2.9,3.1,4.8,4,5.7c1.7,1.8,3.8,2.8,6.3,3c2.9,0.2,6.1,0.6,9.6,1.3c5.1,1,8.6,2.1,10.4,3.4c2.6,2,4.6,3.2,5.9,3.7
				c1.4,0.5,3.8,0.9,7.3,1.2c0.6,0,2.3,0,4.9-0.1c1.1-0.1,2.1-0.1,3.1,0v0.9c-1,0-2,0-3.1,0c-2.6,0.1-4.3,0.1-5,0.1
				c-3.6-0.3-6.1-0.7-7.5-1.2c-1.4-0.5-3.5-1.8-6.1-3.8c-1.7-1.3-5.1-2.4-10.1-3.3c-3.4-0.6-6.5-1-9.4-1.3c-2.8-0.2-5.1-1.3-6.9-3.3
				c-0.9-0.9-2.3-2.8-4.1-5.8c-1.5-2.6-3-4.4-4.4-5.5c-2.1-1.6-4.8-2.4-8-2.4c-0.9,0-1.7,0-2.3,0v-0.9c0.6,0,1.4,0,2.3,0
				C37.8,506.2,40.6,507,42.9,508.8z"/>
		</g>
		<g>
			<linearGradient id="SVGID_102_" gradientUnits="userSpaceOnUse" x1="35.0874" y1="541.875" x2="100.6124" y2="541.875">
				<stop  offset="2.352941e-002" style="stop-color:#D6D6D8"/>
				<stop  offset="0.1412" style="stop-color:#F9FAFC"/>
				<stop  offset="0.5647" style="stop-color:#F9FAFC"/>
				<stop  offset="0.7176" style="stop-color:#D0D0D2"/>
				<stop  offset="0.8157" style="stop-color:#F9FAFC"/>
				<stop  offset="1" style="stop-color:#F9FAFC"/>
			</linearGradient>
			<path fill-rule="evenodd" clip-rule="evenodd" fill="url(#SVGID_102_)" d="M32.6,541.8c-0.3-0.6-0.5-1.3-0.5-2.2h67
				c-0.3,3-2,4.6-5.3,4.6H37.4C35,544.2,33.5,543.3,32.6,541.8z"/>
		</g>
		<g>
			
				<radialGradient id="SVGID_103_" cx="109.25" cy="473.75" r="95.45" gradientTransform="matrix(1 0 0 0.5426 0 216.7115)" gradientUnits="userSpaceOnUse">
				<stop  offset="0" style="stop-color:#FFFFFF;stop-opacity:0.502"/>
				<stop  offset="0.5843" style="stop-color:#FFFFFF;stop-opacity:0.4"/>
				<stop  offset="1" style="stop-color:#FFFFFF;stop-opacity:0"/>
			</radialGradient>
			<polygon fill-rule="evenodd" clip-rule="evenodd" fill="url(#SVGID_103_)" points="195.9,473 195.9,474.3 28.6,474.3 29.8,473 
							"/>
		</g>
		<g>
			<g>
				<radialGradient id="SVGID_104_" cx="179.2002" cy="514.25" r="1.7" gradientUnits="userSpaceOnUse">
					<stop  offset="0" style="stop-color:#FFFFFF"/>
					<stop  offset="9.019607e-002" style="stop-color:#FFFFFF"/>
					<stop  offset="0.2863" style="stop-color:#4A9FC4"/>
					<stop  offset="0.7098" style="stop-color:#29586D"/>
					<stop  offset="1" style="stop-color:#16303B"/>
				</radialGradient>
				<path fill-rule="evenodd" clip-rule="evenodd" fill="url(#SVGID_104_)" d="M178.6,515.5c-0.2-0.2-0.4-0.5-0.4-0.9
					c0-0.4,0.1-0.7,0.4-1c0.3-0.2,0.6-0.4,1-0.4s0.7,0.1,0.9,0.4c0.3,0.3,0.4,0.6,0.4,1c0,0.4-0.1,0.7-0.4,0.9
					c-0.2,0.3-0.5,0.4-0.9,0.4S178.9,515.8,178.6,515.5z"/>
			</g>
		</g>
		<g>
			<g>
				<radialGradient id="SVGID_105_" cx="174.2002" cy="514.25" r="1.7" gradientUnits="userSpaceOnUse">
					<stop  offset="0" style="stop-color:#FFFFFF"/>
					<stop  offset="9.019607e-002" style="stop-color:#FFFFFF"/>
					<stop  offset="0.2863" style="stop-color:#4A9FC4"/>
					<stop  offset="0.7098" style="stop-color:#29586D"/>
					<stop  offset="1" style="stop-color:#16303B"/>
				</radialGradient>
				<path fill-rule="evenodd" clip-rule="evenodd" fill="url(#SVGID_105_)" d="M173.3,514.7c0-0.4,0.1-0.7,0.4-1
					c0.3-0.2,0.6-0.4,1-0.4s0.7,0.1,0.9,0.4c0.3,0.3,0.4,0.6,0.4,1c0,0.4-0.1,0.7-0.4,0.9c-0.2,0.3-0.5,0.4-0.9,0.4s-0.7-0.1-1-0.4
					C173.4,515.3,173.3,515,173.3,514.7z"/>
			</g>
		</g>
		<g>
			<g>
				<radialGradient id="SVGID_106_" cx="130.5498" cy="495.7002" r="2.0999" gradientUnits="userSpaceOnUse">
					<stop  offset="0" style="stop-color:#FFFFFF"/>
					<stop  offset="9.019607e-002" style="stop-color:#FFFFFF"/>
					<stop  offset="0.2863" style="stop-color:#4A9FC4"/>
					<stop  offset="0.7098" style="stop-color:#29586D"/>
					<stop  offset="1" style="stop-color:#16303B"/>
				</radialGradient>
				<path fill-rule="evenodd" clip-rule="evenodd" fill="url(#SVGID_106_)" d="M132.6,496.2c0,0.4-0.2,0.8-0.5,1.1
					c-0.3,0.3-0.6,0.5-1.1,0.5c-0.4,0-0.8-0.2-1.1-0.5c-0.3-0.3-0.4-0.7-0.4-1.1c0-0.5,0.1-0.9,0.4-1.2c0.3-0.3,0.7-0.4,1.1-0.4
					c0.5,0,0.8,0.1,1.1,0.4C132.5,495.3,132.6,495.7,132.6,496.2z"/>
			</g>
		</g>
		<g>
			<g>
				<radialGradient id="SVGID_107_" cx="136.5498" cy="495.7002" r="2.0999" gradientUnits="userSpaceOnUse">
					<stop  offset="0" style="stop-color:#FFFFFF"/>
					<stop  offset="9.019607e-002" style="stop-color:#FFFFFF"/>
					<stop  offset="0.2863" style="stop-color:#4A9FC4"/>
					<stop  offset="0.7098" style="stop-color:#29586D"/>
					<stop  offset="1" style="stop-color:#16303B"/>
				</radialGradient>
				<path fill-rule="evenodd" clip-rule="evenodd" fill="url(#SVGID_107_)" d="M138.1,497.3c-0.3,0.3-0.6,0.5-1.1,0.5
					c-0.4,0-0.8-0.2-1.1-0.5c-0.3-0.3-0.4-0.7-0.4-1.1c0-0.5,0.1-0.9,0.4-1.2c0.3-0.3,0.7-0.4,1.1-0.4c0.5,0,0.8,0.1,1.1,0.4
					c0.3,0.3,0.5,0.7,0.5,1.2C138.6,496.6,138.5,497,138.1,497.3z"/>
			</g>
		</g>
		<g>
			<g>
				<radialGradient id="SVGID_108_" cx="142.5498" cy="495.7002" r="2.0999" gradientUnits="userSpaceOnUse">
					<stop  offset="0" style="stop-color:#FFFFFF"/>
					<stop  offset="9.019607e-002" style="stop-color:#FFFFFF"/>
					<stop  offset="0.2863" style="stop-color:#4A9FC4"/>
					<stop  offset="0.7098" style="stop-color:#29586D"/>
					<stop  offset="1" style="stop-color:#16303B"/>
				</radialGradient>
				<path fill-rule="evenodd" clip-rule="evenodd" fill="url(#SVGID_108_)" d="M143,497.8c-0.4,0-0.8-0.2-1.1-0.5
					c-0.3-0.3-0.4-0.7-0.4-1.1c0-0.5,0.1-0.9,0.4-1.2c0.3-0.3,0.7-0.4,1.1-0.4c0.5,0,0.8,0.1,1.1,0.4c0.3,0.3,0.5,0.7,0.5,1.2
					c0,0.4-0.2,0.8-0.5,1.1C143.9,497.6,143.5,497.8,143,497.8z"/>
			</g>
		</g>
		<g>
			<radialGradient id="SVGID_109_" cx="135.6001" cy="490.5" r="2.0999" gradientUnits="userSpaceOnUse">
				<stop  offset="0" style="stop-color:#FFFFFF"/>
				<stop  offset="9.019607e-002" style="stop-color:#FFFFFF"/>
				<stop  offset="0.2863" style="stop-color:#26F510"/>
				<stop  offset="0.7098" style="stop-color:#1AB208"/>
				<stop  offset="1" style="stop-color:#169C06"/>
			</radialGradient>
			<path fill-rule="evenodd" clip-rule="evenodd" fill="url(#SVGID_109_)" d="M136.1,492.6c-0.4,0-0.8-0.2-1.1-0.5
				c-0.3-0.3-0.5-0.7-0.5-1.1c0-0.5,0.1-0.9,0.5-1.2c0.3-0.3,0.7-0.4,1.1-0.4c0.5,0,0.8,0.1,1.1,0.4c0.3,0.3,0.5,0.7,0.5,1.2
				c0,0.4-0.2,0.8-0.5,1.1C136.9,492.4,136.6,492.6,136.1,492.6z"/>
		</g>
		<g>
			
				<radialGradient id="SVGID_110_" cx="126.2002" cy="517.5996" r="1.7" fx="126.1802" fy="517.5996" gradientTransform="matrix(1 0 0 1.7353 0 -380.588)" gradientUnits="userSpaceOnUse">
				<stop  offset="0" style="stop-color:#FFFFFF"/>
				<stop  offset="9.019607e-002" style="stop-color:#FFFFFF"/>
				<stop  offset="0.1725" style="stop-color:#685D99"/>
				<stop  offset="1" style="stop-color:#26203F"/>
			</radialGradient>
			<path fill-rule="evenodd" clip-rule="evenodd" fill="url(#SVGID_110_)" d="M125.4,519.6v-2.5c0-0.4,0.1-0.7,0.4-0.9
				c0.3-0.2,0.6-0.4,1-0.4s0.7,0.1,0.9,0.4c0.3,0.3,0.4,0.6,0.4,0.9v2.5c0,0.4-0.1,0.7-0.4,0.9c-0.2,0.3-0.5,0.4-0.9,0.4
				s-0.7-0.1-1-0.4C125.5,520.3,125.4,520,125.4,519.6z"/>
		</g>
		<g>
			
				<radialGradient id="SVGID_111_" cx="116.5498" cy="518.0498" r="1.8" fx="116.5427" fy="518.0498" gradientTransform="matrix(1 0 0 0.8125 0 97.1343)" gradientUnits="userSpaceOnUse">
				<stop  offset="0" style="stop-color:#FFFFFF"/>
				<stop  offset="9.019607e-002" style="stop-color:#FFFFFF"/>
				<stop  offset="0.1725" style="stop-color:#685D99"/>
				<stop  offset="1" style="stop-color:#26203F"/>
			</radialGradient>
			<path fill-rule="evenodd" clip-rule="evenodd" fill="url(#SVGID_111_)" d="M115.7,519v-1.3c0-0.2,0.1-0.3,0.3-0.5
				c0.3-0.1,0.6-0.1,1-0.1c0.4,0,0.7,0,1,0.1c0.3,0.1,0.5,0.3,0.5,0.5v1.3c0,0.2-0.2,0.4-0.5,0.5c-0.2,0.1-0.5,0.2-1,0.2
				c-0.4,0-0.7-0.1-1-0.2C115.8,519.4,115.7,519.3,115.7,519z"/>
		</g>
		<g>
			<g>
				<linearGradient id="SVGID_112_" gradientUnits="userSpaceOnUse" x1="182.792" y1="524.2568" x2="179.192" y2="528.7318">
					<stop  offset="0.1412" style="stop-color:#219B1C"/>
					<stop  offset="0.4588" style="stop-color:#2DD428"/>
					<stop  offset="0.7294" style="stop-color:#229E1C"/>
					<stop  offset="1" style="stop-color:#145B0D"/>
				</linearGradient>
				<path fill-rule="evenodd" clip-rule="evenodd" fill="url(#SVGID_112_)" d="M183,528.5c-0.6,0.6-1.2,0.9-2,0.9
					c-0.8,0-1.5-0.3-2.1-0.9c-0.5-0.6-0.8-1.2-0.8-2c0-0.8,0.3-1.5,0.8-2c0.6-0.5,1.3-0.8,2.1-0.8c0.8,0,1.4,0.3,2,0.8
					c0.6,0.6,0.9,1.3,0.9,2C183.9,527.3,183.6,527.9,183,528.5z"/>
			</g>
			<g>
				<linearGradient id="SVGID_113_" gradientUnits="userSpaceOnUse" x1="179.8506" y1="525.0879" x2="183.3506" y2="528.2129">
					<stop  offset="0" style="stop-color:#2CCF27"/>
					<stop  offset="1" style="stop-color:#12520B"/>
				</linearGradient>
				<path fill-rule="evenodd" clip-rule="evenodd" fill="url(#SVGID_113_)" d="M183.3,528.3c-0.5,0.5-1,0.7-1.6,0.7
					c-0.7,0-1.2-0.2-1.7-0.7c-0.4-0.5-0.6-1-0.6-1.6c0-0.7,0.2-1.2,0.6-1.7c0.5-0.4,1-0.7,1.7-0.7c0.6,0,1.2,0.2,1.6,0.7
					c0.5,0.5,0.7,1,0.7,1.7C184,527.3,183.7,527.8,183.3,528.3z"/>
			</g>
		</g>
	</g>
</g>
<g id="Layer_1">
	<g>
		<g>
			<g>
				
					<radialGradient id="SVGID_114_" cx="350.7998" cy="396.7998" r="21.275" fx="355.1382" fy="396.7998" gradientTransform="matrix(-4.371139e-008 1 -2.4072 -1.052207e-007 1305.9636 46)" gradientUnits="userSpaceOnUse">
					<stop  offset="7.843138e-003" style="stop-color:#3A3A3A"/>
					<stop  offset="0.2431" style="stop-color:#1A1A1A"/>
					<stop  offset="0.3216" style="stop-color:#7B7B7B"/>
					<stop  offset="0.9176" style="stop-color:#373737"/>
				</radialGradient>
				<path fill-rule="evenodd" clip-rule="evenodd" fill="url(#SVGID_114_)" d="M291,383.3c0-0.1,0-0.3,0.1-0.6
					c1.1-2.1,7-3.9,17.7-5.5c11.9-1.7,26.3-2.5,43.2-2.5c16.8,0,31.2,0.8,43.1,2.5c11,1.5,16.9,3.5,17.8,5.8
					c0.1,0.1,0.1,0.3,0.1,0.4c-0.5,1.5-2.1,2.7-4.8,3.5c-3,1-7.3,1.9-13,2.8c-11.9,1.7-26.3,2.5-43.1,2.5c-16.9,0-31.3-0.8-43.2-2.5
					c-5.7-0.9-10-1.8-13-2.8C293.2,386.1,291.6,384.9,291,383.3z"/>
				
					<radialGradient id="SVGID_115_" cx="349.6001" cy="387.5996" r="126.1625" gradientTransform="matrix(1 0 0 0.1305 0 337.0231)" gradientUnits="userSpaceOnUse">
					<stop  offset="0" style="stop-color:#A2A2A2"/>
					<stop  offset="0.3216" style="stop-color:#7B7B7B"/>
					<stop  offset="0.4863" style="stop-color:#4E4E4E"/>
					<stop  offset="0.6" style="stop-color:#626262"/>
					<stop  offset="0.8157" style="stop-color:#444444"/>
					<stop  offset="0.8392" style="stop-color:#3D3D3D"/>
					<stop  offset="1" style="stop-color:#000000"/>
				</radialGradient>
				<path fill-rule="evenodd" clip-rule="evenodd" fill="url(#SVGID_115_)" d="M413,383.5c1.1,2.8,1.1,5.4,0,7.7l-0.1,0.1
					c-1.1,2.1-7,3.9-17.8,5.5c-11.9,1.7-26.3,2.5-43.1,2.5c-16.9,0-31.3-0.8-43.2-2.5c-10.4-1.6-16.3-3.4-17.6-5.4v0.1
					c-1.5-2.6-1.5-5.4-0.2-8.2c0.5,1.6,2.2,2.8,4.9,3.7c3,1,7.3,1.9,13,2.8c11.9,1.7,26.3,2.5,43.2,2.5c16.8,0,31.2-0.8,43.1-2.5
					c5.7-0.9,10-1.8,13-2.8C410.9,386.1,412.5,385,413,383.5z"/>
			</g>
			<g>
				
					<radialGradient id="SVGID_116_" cx="349.8501" cy="393.6504" r="44.9375" gradientTransform="matrix(1 0 0 0.1844 0 321.0523)" gradientUnits="userSpaceOnUse">
					<stop  offset="0" style="stop-color:#FFFFFF;stop-opacity:0.6314"/>
					<stop  offset="1" style="stop-color:#F9F9F9;stop-opacity:0"/>
				</radialGradient>
				<path fill-rule="evenodd" clip-rule="evenodd" fill="url(#SVGID_116_)" d="M352.5,392.5c16.6,0,30.8-0.9,42.5-2.8
					c6.5-0.9,11.2-2,14-3.2c0.2-0.1,0.5-0.1,0.8,0c0.3,0.1,0.5,0.2,0.6,0.5c0.1,0.2,0.1,0.5,0,0.8c-0.1,0.3-0.3,0.5-0.5,0.6
					c-2.9,1.3-7.7,2.4-14.5,3.3c-11.9,1.8-26.1,2.8-42.8,2.8c-16.8,0-31.1-0.9-42.9-2.8c-6.8-1-11.6-2.1-14.6-3.3
					c-0.3-0.1-0.4-0.3-0.5-0.5c-0.1-0.3-0.1-0.5,0-0.8c0.1-0.3,0.3-0.4,0.5-0.5c0.2-0.1,0.5-0.1,0.8,0c2.9,1.2,7.6,2.3,14.1,3.2
					C321.6,391.6,335.8,392.5,352.5,392.5z"/>
			</g>
		</g>
		<g>
			<g>
				<linearGradient id="SVGID_117_" gradientUnits="userSpaceOnUse" x1="496.7197" y1="309.4668" x2="196.9901" y2="208.8555">
					<stop  offset="0" style="stop-color:#333333"/>
					<stop  offset="0.2706" style="stop-color:#555555"/>
					<stop  offset="0.7882" style="stop-color:#626262"/>
					<stop  offset="1" style="stop-color:#000000"/>
				</linearGradient>
				<path fill-rule="evenodd" clip-rule="evenodd" fill="url(#SVGID_117_)" d="M488.3,176.1H200.5c-1.3,0-1.9,0.6-1.9,1.8v160.9
					c0,1.2,0.6,1.8,1.9,1.8h287.8c1.3,0,2-0.6,2-1.8V177.9C490.3,176.7,489.6,176.1,488.3,176.1z M490.5,173.9c1.3,0,2,0.6,2,1.8
					v165.6c0,1.2-0.7,1.8-2,1.8H198.8c-1.3,0-2-0.6-2-1.8V175.6c0-1.2,0.7-1.8,2-1.8H490.5z"/>
				<linearGradient id="SVGID_118_" gradientUnits="userSpaceOnUse" x1="199.856" y1="139.8535" x2="438.8337" y2="347.2753">
					<stop  offset="6.666666e-002" style="stop-color:#7C7C7C"/>
					<stop  offset="0.2902" style="stop-color:#7C7C7C"/>
					<stop  offset="0.4863" style="stop-color:#272727"/>
					<stop  offset="1" style="stop-color:#242424"/>
				</linearGradient>
				<path fill-rule="evenodd" clip-rule="evenodd" fill="url(#SVGID_118_)" d="M499.7,165c1.4,0,2,0.7,2,2.1v194.9c0,1.4-0.7,2-2,2
					H187.3c-1.4,0-2.1-0.7-2.1-2V167c0-1.4,0.7-2.1,2.1-2.1H499.7z M490.5,173.9H198.8c-1.3,0-2,0.6-2,1.8v165.6
					c0,1.2,0.7,1.8,2,1.8h291.8c1.3,0,2-0.6,2-1.8V175.6C492.5,174.5,491.8,173.9,490.5,173.9z"/>
				<linearGradient id="SVGID_119_" gradientUnits="userSpaceOnUse" x1="209.2573" y1="123.1685" x2="415.5323" y2="329.4435">
					<stop  offset="6.666666e-002" style="stop-color:#A2A2A2"/>
					<stop  offset="0.4863" style="stop-color:#636363"/>
					<stop  offset="1" style="stop-color:#202020"/>
				</linearGradient>
				<path fill-rule="evenodd" clip-rule="evenodd" fill="url(#SVGID_119_)" d="M488.3,176.1c1.3,0,2,0.6,2,1.8v160.9
					c0,1.2-0.7,1.8-2,1.8H200.5c-1.3,0-1.9-0.6-1.9-1.8V177.9c0-1.2,0.6-1.8,1.9-1.8H488.3z"/>
			</g>
			<g>
				<g>
					<linearGradient id="SVGID_120_" gradientUnits="userSpaceOnUse" x1="352.1758" y1="362.2246" x2="352.1758" y2="377.5746">
						<stop  offset="0" style="stop-color:#3A3A3A"/>
						<stop  offset="0.2706" style="stop-color:#626262"/>
						<stop  offset="0.6824" style="stop-color:#464646"/>
						<stop  offset="0.7529" style="stop-color:#464646"/>
						<stop  offset="0.7922" style="stop-color:#464646"/>
						<stop  offset="1" style="stop-color:#383838"/>
					</linearGradient>
					<rect x="326.9" y="363.2" fill-rule="evenodd" clip-rule="evenodd" fill="url(#SVGID_120_)" width="50.6" height="16"/>
					<linearGradient id="SVGID_121_" gradientUnits="userSpaceOnUse" x1="352.1758" y1="378.8496" x2="352.1758" y2="380.9496">
						<stop  offset="0" style="stop-color:#3A3A3A"/>
						<stop  offset="0.2706" style="stop-color:#888888"/>
						<stop  offset="0.8353" style="stop-color:#464646"/>
						<stop  offset="1" style="stop-color:#383838"/>
					</linearGradient>
					<rect x="326.9" y="379.2" fill-rule="evenodd" clip-rule="evenodd" fill="url(#SVGID_121_)" width="50.6" height="1.7"/>
				</g>
			</g>
		</g>
		<g>
			<linearGradient id="SVGID_122_" gradientUnits="userSpaceOnUse" x1="343.3247" y1="357.6377" x2="343.3247" y2="364.1627">
				<stop  offset="0" style="stop-color:#AAAAAA"/>
				<stop  offset="7.058824e-002" style="stop-color:#A9A9A9"/>
				<stop  offset="0.1333" style="stop-color:#7C7C7C"/>
				<stop  offset="0.698" style="stop-color:#272727"/>
				<stop  offset="0.8706" style="stop-color:#000000"/>
			</linearGradient>
			<path fill-rule="evenodd" clip-rule="evenodd" fill="url(#SVGID_122_)" d="M501,358.2v2.8c0,2-0.5,3-1.6,2.9h-28.9H187.3
				c-1.1-0.3-1.6-0.9-1.6-1.9v-3.6c0-0.1,0-0.1,0.1-0.2h284.8H501z"/>
		</g>
		<g>
			
				<radialGradient id="SVGID_123_" cx="465.2998" cy="176.1499" r="193.525" gradientTransform="matrix(1 0 0 0.5054 0 87.1306)" gradientUnits="userSpaceOnUse">
				<stop  offset="0" style="stop-color:#000000"/>
				<stop  offset="1" style="stop-color:#181818;stop-opacity:0"/>
			</radialGradient>
			<path fill-rule="evenodd" clip-rule="evenodd" fill="url(#SVGID_123_)" d="M491.3,173.9c1.6,0.5,0.9,1.3-2,2.4L255.5,176
				c-0.3,0-0.6-0.1-0.8-0.4c-0.1-0.2-0.2-0.4-0.2-0.7c0-0.3,0.1-0.5,0.2-0.8c0.2-0.2,0.5-0.3,0.8-0.3H491.3z"/>
		</g>
	</g>
</g>
</svg>
