<?xml version="1.0" encoding="utf-8"?>
<!-- Generator: Adobe Illustrator 16.0.0, SVG Export Plug-In . SVG Version: 6.00 Build 0)  -->
<!DOCTYPE svg PUBLIC "-//W3C//DTD SVG 1.1//EN" "http://www.w3.org/Graphics/SVG/1.1/DTD/svg11.dtd">
<svg version="1.1" id="Layer_1" xmlns="http://www.w3.org/2000/svg" xmlns:xlink="http://www.w3.org/1999/xlink" x="0px" y="0px"
	 width="16px" height="52px" viewBox="0 0 16 52" enable-background="new 0 0 16 52" xml:space="preserve">
<g>
	<g>
		<g>
			<polygon fill-rule="evenodd" clip-rule="evenodd" fill="#844242" points="1.8,20.9 9.8,20.9 14,23.8 5.2,23.8 			"/>
			<polygon fill-rule="evenodd" clip-rule="evenodd" fill="#C28787" points="1.6,20.9 1.6,20.9 1.8,20.9 5.2,23.8 14,23.8 
				14.5,24.1 5.9,24.1 5,24.1 			"/>
			<polygon fill-rule="evenodd" clip-rule="evenodd" fill="#663333" points="14.5,24.1 14.5,24.1 14.5,50.7 5.5,50.7 1.6,46.2 
				1.6,20.9 5,24.1 5.9,24.1 			"/>
		</g>
	</g>
	<g>
		<g>
			<g>
				<path fill-rule="evenodd" clip-rule="evenodd" fill="#FFFFFF" d="M10.4,1.3L10.1,1c0,0,0,0,0.1,0H1.5l3.8,4.3H10h0.4h3.9
					L10.4,1.3L10.4,1.3z M10.3,0.6c0,0,0.1,0,0.1,0.1l4.3,4.4v0c0.1,0,0.1,0,0.1,0.1h0c0,0,0,0.1,0,0.1v45.4c0,0.1,0,0.1,0,0.1
					c0,0,0,0,0,0.1c0,0,0,0.1,0,0.1s-0.1,0-0.1,0v0.1c0,0-0.1,0-0.2,0H5l-4-4.7c0,0-0.1-0.1-0.1-0.2V0.8c0-0.1,0-0.1,0.1-0.1
					c0,0,0.1,0,0.1,0h9C10.1,0.6,10.2,0.6,10.3,0.6z M10.4,5.5H10H5.3v40.7v0.3v4.3h9h0.1v-0.3l0,0v-45H10.4z M1.3,46.2l0.3,0.3h0
					l3.5,4v-4v-0.3V5.5L1.3,1.2V46.2z"/>
				<path fill-rule="evenodd" clip-rule="evenodd" fill="#FFFFFF" fill-opacity="0.2471" d="M10,5.2V1c0,0,0,0,0,0l0.3,0.3v4H10z
					 M14.5,50.5v0.3h-0.1l-4.3-4.3H5.3v-0.3H10V5.5h0.4v40.7c0,0,0,0.1,0,0.1L14.5,50.5z M1.3,46.2H5v0.3H1.5L1.3,46.2z"/>
			</g>
		</g>
		<g>
			<linearGradient id="SVGID_1_" gradientUnits="userSpaceOnUse" x1="9.7998" y1="-5.1748" x2="9.7998" y2="5.2752">
				<stop  offset="0.6078" style="stop-color:#FFFFFF"/>
				<stop  offset="1" style="stop-color:#FFFFFF;stop-opacity:0"/>
			</linearGradient>
			<rect x="9.6" y="0.9" fill-rule="evenodd" clip-rule="evenodd" fill="url(#SVGID_1_)" width="0.4" height="9.5"/>
		</g>
		<g>
			<linearGradient id="SVGID_2_" gradientUnits="userSpaceOnUse" x1="9.9004" y1="-1.7876" x2="9.9004" y2="15.1874">
				<stop  offset="0" style="stop-color:#FFFFFF"/>
				<stop  offset="1" style="stop-color:#FFFFFF;stop-opacity:0"/>
			</linearGradient>
			<path fill-rule="evenodd" clip-rule="evenodd" fill="url(#SVGID_2_)" d="M5.6,6.2h8.5v5.4c-3.3-0.4-6.1,0.8-8.5,3.6V6.2z"/>
		</g>
		<g>
			<linearGradient id="SVGID_3_" gradientUnits="userSpaceOnUse" x1="3.125" y1="-12.5874" x2="3.125" y2="22.3876">
				<stop  offset="0" style="stop-color:#FFFFFF"/>
				<stop  offset="1" style="stop-color:#FFFFFF;stop-opacity:0"/>
			</linearGradient>
			<path fill-rule="evenodd" clip-rule="evenodd" fill="url(#SVGID_3_)" d="M1.5,1.8l3.3,4v2.3c0,0.1,0,0.2,0,0.3v7.5
				c-1.1,0.8-2.2,2.2-3.3,4.1c0-0.1,0-0.2,0-0.3V1.8z"/>
		</g>
		<g>
			<linearGradient id="SVGID_4_" gradientUnits="userSpaceOnUse" x1="9.9248" y1="60.9746" x2="9.9248" y2="39.3246">
				<stop  offset="0" style="stop-color:#FFFFFF"/>
				<stop  offset="1" style="stop-color:#FFFFFF;stop-opacity:0"/>
			</linearGradient>
			<rect x="5.5" y="35.3" fill-rule="evenodd" clip-rule="evenodd" fill="url(#SVGID_4_)" width="8.8" height="15.3"/>
		</g>
		<g>
			
				<linearGradient id="SVGID_5_" gradientUnits="userSpaceOnUse" x1="-64.3467" y1="3.127" x2="-32.8967" y2="3.127" gradientTransform="matrix(3.179650e-005 -1 1 1.1028 -9.510841e-005 6.175041e-005)">
				<stop  offset="0" style="stop-color:#FFFFFF"/>
				<stop  offset="1" style="stop-color:#FFFFFF;stop-opacity:0"/>
			</linearGradient>
			<polygon fill-rule="evenodd" clip-rule="evenodd" fill="url(#SVGID_5_)" points="1.5,31.3 4.8,35 4.8,50.3 1.5,46.7 			"/>
		</g>
	</g>
</g>
</svg>
