<?xml version="1.0" encoding="utf-8"?>
<!-- Generator: Adobe Illustrator 16.0.0, SVG Export Plug-In . SVG Version: 6.00 Build 0)  -->
<!DOCTYPE svg PUBLIC "-//W3C//DTD SVG 1.1//EN" "http://www.w3.org/Graphics/SVG/1.1/DTD/svg11.dtd">
<svg version="1.1" xmlns="http://www.w3.org/2000/svg" xmlns:xlink="http://www.w3.org/1999/xlink" x="0px" y="0px" width="700px"
	 height="700px" viewBox="0 0 700 700" enable-background="new 0 0 700 700" xml:space="preserve">
<g id="Layer_23">
</g>
<g id="Layer_1">
	<g>
		<g>
			<g>
				<path fill-rule="evenodd" clip-rule="evenodd" fill="#FDFDFD" d="M522.3,451h-36.5l0.3,0.5c-0.4-0.6-1.2-1.7-2.5-3.3
					c-1.4-1.5-3.9-3.9-7.5-7.1h14.1c0.5,0.6,1.1,1.3,1.8,2l4.7,5.4h19.2c0.1,0,0.1,0,0.2,0c0.3,0.1,0.4,0.2,0.5,0.3l-8.6-7.7h3.9
					c3.3,1.7,6.2,4.1,8.7,7.3c0,0,0.1,0.1,0.1,0.1C521.2,449.2,521.8,450.1,522.3,451z"/>
				<linearGradient id="SVGID_1_" gradientUnits="userSpaceOnUse" x1="504.4521" y1="451.0498" x2="504.4521" y2="456.9498">
					<stop  offset="0.1176" style="stop-color:#FAFAFA"/>
					<stop  offset="0.3176" style="stop-color:#D2D0C8"/>
					<stop  offset="0.5255" style="stop-color:#C6C3BD"/>
					<stop  offset="1" style="stop-color:#C6C3BE"/>
				</linearGradient>
				<path fill-rule="evenodd" clip-rule="evenodd" fill="url(#SVGID_1_)" d="M486.1,451.4l-0.3-0.5h36.5c0.6,1,0.8,2.1,0.7,3.1v25.5
					c-6.8-1.8-14-2.7-21.5-2.5c-1.3,0-2.6,0.1-4,0.2c-3.2,0.2-6.5,0.6-9.9,1.1c-0.1,0-0.3,0.1-0.6,0.1v-3h-0.1v-21.4
					C486.8,453.1,486.5,452.2,486.1,451.4z M487,490v0.8h-0.1L487,490L487,490z"/>
				<path fill-rule="evenodd" clip-rule="evenodd" d="M523,479.8c-4.2-0.7-8.6-0.9-13.2-0.8c-1.3,0-2.6,0.1-4,0.2
					c-3.2,0.2-6.5,0.6-9.8,1.1c-1.9,0.3-3.8,0.6-5.8,1c-1.1,0.2-2.1,0.5-3.2,0.7v-3.6c0.3,0,0.5-0.1,0.6-0.1
					c3.3-0.5,6.6-0.9,9.9-1.1c1.4-0.1,2.7-0.1,4-0.2c7.6-0.1,14.8,0.7,21.5,2.5V479.8z"/>
				<path fill-rule="evenodd" clip-rule="evenodd" fill="#1D4AA8" d="M487,490.7V490V482c1-0.2,2.1-0.4,3.2-0.7c2-0.4,3.9-0.8,5.8-1
					c3.3-0.5,6.6-0.9,9.8-1.1c1.4-0.1,2.7-0.2,4-0.2c4.6-0.1,9,0.2,13.2,0.8v10.9H487z"/>
			</g>
		</g>
		<g>
			<path fill-rule="evenodd" clip-rule="evenodd" fill="#C5DBF4" d="M498.8,481.3c0.3,0,0.6,0,0.9,0.2c0.2,0.1,0.4,0.3,0.6,0.5
				c0.1,0.3,0.2,0.5,0.2,0.8c0,0.2,0,0.4-0.2,0.7c-0.1,0.2-0.2,0.5-0.3,0.8c-0.2,0.3-0.4,0.6-0.7,0.9c-0.2,0.4-0.5,0.8-0.9,1.2
				l-0.2,0.2c0.1,0.1,0.3,0.1,0.6,0.1c0.2,0,0.5,0,0.8-0.1c0.2,0,0.4-0.1,0.6-0.1c0.1,0,0.1,0,0.2,0c0,0,0,0,0,0
				c0,0.1-0.1,0.3-0.3,0.6c-0.2,0.3-0.4,0.5-0.5,0.7c-0.2,0.2-0.4,0.3-0.7,0.4c-0.3,0.1-0.6,0.1-1,0.1c-0.5,0-1-0.1-1.3-0.3
				c-0.3-0.1-0.5-0.3-0.5-0.5c0-0.1,0.2-0.4,0.5-0.8c0.2-0.3,0.5-0.5,0.7-0.8c0,0,0-0.1,0.1-0.1v0c0-0.1,0-0.1,0-0.1l0.2-0.2
				c0.2-0.4,0.4-0.7,0.5-0.9c0.1-0.2,0.2-0.3,0.3-0.5c0.1-0.2,0.1-0.5,0.1-0.8c0-0.3,0-0.5-0.1-0.7c-0.1-0.2-0.2-0.3-0.4-0.4
				c-0.2,0.3-0.3,0.8-0.3,1.3c0,0.2,0,0.4,0.1,0.7v0.1c0,0.1,0,0.2-0.1,0.2c-0.1,0-0.3,0-0.5-0.1c-0.2-0.1-0.3-0.1-0.3-0.2
				c-0.1-0.1-0.2-0.3-0.3-0.5c-0.1-0.2-0.2-0.3-0.2-0.5c0-0.3,0.1-0.6,0.2-0.8s0.3-0.4,0.5-0.6c0.2-0.2,0.4-0.3,0.7-0.5
				C498.2,481.3,498.5,481.3,498.8,481.3z M505.8,485.3c0.1,0.5,0.1,0.9,0.2,1.3c0,0.1,0.1,0.4,0.2,0.8c0.1-0.2,0.1-0.4,0.1-0.5
				c0.1-0.4,0.2-1.1,0.2-2v-0.3c0-0.2,0-0.4,0-0.6c0-0.1,0.1-0.3,0.3-0.4c0.1-0.1,0.3-0.2,0.5-0.3c0.2-0.1,0.3-0.1,0.4-0.1
				c0.2,0,0.3,0,0.3,0.1c0.1,0.1,0.1,0.3,0.1,0.5c0,0.6-0.1,1.3-0.3,2.2c-0.2,0.8-0.5,1.5-0.8,2c-0.1,0.2-0.3,0.4-0.4,0.5
				c-0.1,0.1-0.2,0.2-0.3,0.3c-0.1,0-0.2,0.1-0.4,0.1c-0.5,0-0.9-0.3-1.3-1c-0.1-0.2-0.1-0.5-0.3-0.7c-0.1-0.2-0.1-0.5-0.2-0.8
				c0-0.1-0.1-0.2-0.1-0.4h0l-0.2,0.5c-0.2,0.4-0.4,0.8-0.6,1c-0.2,0.3-0.3,0.5-0.5,0.5c-0.1,0.1-0.3,0.2-0.5,0.2
				c-0.2,0-0.3-0.1-0.4-0.3c-0.2-0.3-0.5-0.8-0.7-1.6c-0.1-0.7-0.2-1.2-0.2-1.7c0-0.4,0-0.7,0.1-1c0.1-0.2,0.3-0.3,0.4-0.4
				c0.2-0.1,0.4-0.2,0.7-0.2c0.2,0,0.3,0,0.4,0c0,0.1,0.1,0.2,0.1,0.3c0,0.2,0,0.4,0,0.8c0,0.6,0,1.2,0.1,1.7c0,0,0,0.2,0,0.5
				c0,0,0-0.1,0-0.2l0,0c0,0,0-0.1,0.1-0.1l0-0.1c0.2-0.4,0.3-0.9,0.5-1.5c0.2-0.6,0.4-1,0.5-1.1c0-0.1,0.1-0.1,0.1-0.2
				c0.2-0.1,0.4-0.2,0.8-0.2c0.2,0,0.3,0,0.4,0.1c0.1,0.1,0.1,0.2,0.1,0.3c0,0.2,0.1,0.4,0.1,0.8
				C505.7,484.5,505.7,484.8,505.8,485.3z"/>
		</g>
	</g>
</g>
</svg>
