<?xml version="1.0" encoding="utf-8"?>
<!-- Generator: Adobe Illustrator 16.0.0, SVG Export Plug-In . SVG Version: 6.00 Build 0)  -->
<!DOCTYPE svg PUBLIC "-//W3C//DTD SVG 1.1//EN" "http://www.w3.org/Graphics/SVG/1.1/DTD/svg11.dtd">
<svg version="1.1" xmlns="http://www.w3.org/2000/svg" xmlns:xlink="http://www.w3.org/1999/xlink" x="0px" y="0px" width="550px"
	 height="400px" viewBox="0 0 550 400" enable-background="new 0 0 550 400" xml:space="preserve">
<g id="Layer_1">
	<g>
		<path d="M306,367.7V390.6h-3V379.4h-11.4V390.6h-3V367.7h3v9H303v-9H306z M311.2,378.8c0.5-0.3,1.1-0.5,1.899-0.7
			c0.801-0.199,1.601-0.3,2.301-0.3c0.699,0,1.399,0,1.899,0.2c0.601,0.2,1.101,0.4,1.5,0.7c0.5,0.3,0.9,0.6,1.101,1.1
			c0.199,0.4,0.399,1,0.399,1.601c0,0.8-0.3,1.5-0.899,2.1c-0.601,0.6-1.301,1-2.101,1.2v0.1c0.3,0.101,0.7,0.2,1.101,0.4
			c0.399,0.1,0.8,0.3,1.1,0.6s0.6,0.7,0.8,1.101c0.2,0.399,0.3,0.899,0.3,1.6s-0.1,1.3-0.3,1.9c-0.2,0.5-0.6,1-1.1,1.5
			s-1.101,0.8-1.7,1c-0.7,0.199-1.5,0.3-2.3,0.3s-1.601-0.101-2.4-0.3c-0.8-0.2-1.5-0.4-2-0.601v-2.1h0.2c0.5,0.399,1.2,0.7,1.9,1
			c0.8,0.2,1.5,0.3,2.199,0.3c0.5,0,0.9-0.1,1.4-0.3c0.5-0.101,0.8-0.3,1.1-0.601c0.301-0.3,0.5-0.6,0.7-1
			c0.2-0.399,0.3-0.8,0.3-1.3s-0.1-1-0.3-1.399c-0.2-0.301-0.399-0.601-0.7-0.801c-0.3-0.199-0.699-0.299-1.1-0.399
			s-0.9-0.101-1.4-0.101h-0.8V383.9h0.601c1,0,1.8-0.2,2.399-0.601c0.601-0.399,1-1.1,1-1.899c0-0.301-0.1-0.601-0.3-1
			c-0.2-0.2-0.4-0.4-0.6-0.601c-0.301-0.1-0.601-0.2-0.9-0.3s-0.7-0.2-1.1-0.2c-0.601,0-1.301,0.101-2,0.3c-0.7,0.2-1.4,0.601-2,1
			H311.3v-1.8H311.2z M282.8,6.1V29h-3V17.8H268.4V29h-3V6.1h3v9H279.8v-9H282.8z M260.9,23.8v3.5c-0.601,0.3-1.101,0.5-1.5,0.7
			c-0.5,0.2-1.101,0.5-1.801,0.8c-0.6,0.2-1.3,0.3-2,0.5c-0.699,0.1-1.5,0.2-2.5,0.2c-1.6,0-3.1-0.2-4.5-0.7s-2.6-1.2-3.6-2.2
			s-1.7-2.2-2.3-3.7c-0.6-1.5-0.9-3.3-0.9-5.3c0-1.9,0.3-3.5,0.9-5c0.5-1.5,1.3-2.7,2.3-3.8c1-1,2.2-1.8,3.5-2.3
			c1.4-0.6,2.9-0.9,4.6-0.9c1.2,0,2.4,0.1,3.601,0.5c1.3,0.3,2.6,0.9,4.1,1.6v3.5h-0.3c-1.2-1-2.5-1.8-3.8-2.3
			c-1.2-0.5-2.601-0.8-4-0.8c-1.2,0-2.2,0.2-3.2,0.6c-0.9,0.4-1.7,0.9-2.4,1.7c-0.7,0.8-1.3,1.8-1.7,3c-0.4,1.2-0.6,2.5-0.6,4
			c0,1.6,0.2,3,0.7,4.2c0.4,1.2,1,2.1,1.7,2.8c0.7,0.8,1.5,1.3,2.5,1.7s2,0.5,3,0.5c1.399,0,2.8-0.3,4.1-0.8s2.5-1.3,3.601-2.3h0.5
			V23.8z M255.5,368c1.3,0.6,2.4,1.3,3.3,2.3c0.9,1,1.7,2.3,2.2,3.8s0.8,3.2,0.8,5.101c0,1.899-0.3,3.5-0.8,5s-1.3,2.7-2.2,3.7
			c-0.899,1-2,1.8-3.3,2.3c-1.3,0.6-2.8,0.8-4.5,0.8c-1.6,0-3.1-0.3-4.4-0.8c-1.3-0.5-2.4-1.3-3.4-2.3c-0.9-1-1.6-2.301-2.1-3.801
			s-0.8-3.1-0.8-5c0-1.899,0.2-3.6,0.7-5c0.5-1.5,1.2-2.8,2.1-3.8s2.1-1.8,3.4-2.3c1.3-0.6,2.8-0.8,4.3-0.8
			C252.7,367.2,254.2,367.5,255.5,368z M256.5,372.3c-1.3-1.6-3.2-2.5-5.5-2.5s-4.1,0.8-5.4,2.5c-1.3,1.601-2,3.9-2,6.9
			s0.7,5.3,2,6.8c1.4,1.6,3.2,2.4,5.4,2.4c2.3,0,4.1-0.801,5.5-2.4c1.3-1.6,2-3.9,2-6.8C258.5,376.2,257.8,373.9,256.5,372.3z
			 M284.2,369.3v3.601h-0.3c-1.2-1-2.5-1.801-3.7-2.301c-1.3-0.5-2.601-0.8-4-0.8c-1.2,0-2.2,0.2-3.2,0.7c-0.9,0.4-1.7,0.9-2.5,1.7
			c-0.7,0.8-1.3,1.7-1.6,2.899c-0.4,1.2-0.601,2.5-0.601,4.101c0,1.6,0.2,3,0.7,4.1c0.4,1.2,1,2.2,1.7,2.9c0.7,0.8,1.5,1.3,2.5,1.7
			c0.899,0.399,1.899,0.6,3,0.6c1.399,0,2.8-0.3,4.1-0.8s2.5-1.2,3.601-2.3h0.3v3.6c-0.601,0.301-1.101,0.5-1.5,0.6
			c-0.5,0.201-1.101,0.5-1.8,0.701c-0.601,0.199-1.301,0.399-2,0.5c-0.7,0.199-1.5,0.299-2.5,0.299c-1.601,0-3.101-0.299-4.5-0.799
			c-1.4-0.5-2.5-1.201-3.5-2.201c-1-0.899-1.801-2.199-2.301-3.699s-0.8-3.2-0.8-5.2c0-1.899,0.3-3.601,0.8-5.101
			s1.301-2.699,2.301-3.799c1-1,2.199-1.701,3.5-2.301c1.399-0.5,3-0.8,4.699-0.8c1.2,0,2.4,0.101,3.601,0.399
			C281.3,368,282.7,368.6,284.2,369.3z"/>
		<path fill="none" stroke="#000000" stroke-linecap="round" stroke-linejoin="round" stroke-miterlimit="3" d="M274.6,284
			l77.8-44.1V151l-77.7-44.9l-1.5,0.8l-76,44.1v89.5l76,43.5v73.3 M341.2,155.9v77.7 M274.8,106.1l-1.5-0.6v1.3 M209,156.8
			l66.2-37.3 M273.3,105.5V35.4 M209,234.1l64.7,37.801"/>
		<g>
			<path d="M307.755,16.953c0,8.156-4.957,12.48-11.004,12.48c-6.258,0-10.652-4.852-10.652-12.023
				c0-7.523,4.676-12.445,11.004-12.445C303.571,4.964,307.755,9.921,307.755,16.953z M289.368,17.339
				c0,5.063,2.742,9.598,7.559,9.598c4.852,0,7.594-4.465,7.594-9.844c0-4.711-2.461-9.633-7.559-9.633
				C291.899,7.46,289.368,12.136,289.368,17.339z"/>
		</g>
	</g>
</g>
<g id="Layer_2">
</g>
</svg>
