<?xml version="1.0" encoding="utf-8"?>
<!-- Generator: Adobe Illustrator 16.0.0, SVG Export Plug-In . SVG Version: 6.00 Build 0)  -->
<!DOCTYPE svg PUBLIC "-//W3C//DTD SVG 1.1//EN" "http://www.w3.org/Graphics/SVG/1.1/DTD/svg11.dtd">
<svg version="1.1" id="Layer_1" xmlns="http://www.w3.org/2000/svg" xmlns:xlink="http://www.w3.org/1999/xlink" x="0px" y="0px"
	 width="550px" height="400px" viewBox="0 0 550 400" enable-background="new 0 0 550 400" xml:space="preserve">
<g>
	<path fill-rule="evenodd" clip-rule="evenodd" d="M457.8,345.5c0.7,2.1,1,4.5,1,7.2c0,2.7-0.3,5.1-1,7.2c-0.7,2.1-1.8,3.9-3,5.3
		c-1.3,1.5-2.9,2.6-4.8,3.3c-1.9,0.7-4,1.1-6.3,1.1c-2.3,0-4.4-0.4-6.3-1.2c-1.9-0.7-3.5-1.8-4.8-3.3c-1.3-1.4-2.3-3.2-3-5.3
		c-0.7-2.1-1.1-4.5-1.1-7.2c0-2.7,0.4-5,1.1-7.2c0.7-2.1,1.7-4,3-5.5c1.2-1.4,2.8-2.5,4.8-3.3c1.9-0.8,3.9-1.1,6.2-1.1
		c2.3,0,4.4,0.4,6.3,1.1c1.9,0.8,3.5,1.9,4.8,3.3C456.1,341.6,457.1,343.4,457.8,345.5z M436,342.9c-1.9,2.3-2.9,5.6-2.9,9.8
		c0,4.3,1,7.5,2.9,9.8s4.5,3.4,7.8,3.4c3.3,0,5.8-1.1,7.8-3.4s2.8-5.5,2.8-9.8c0-4.2-0.9-7.5-2.8-9.8c-1.9-2.3-4.5-3.5-7.8-3.5
		C440.4,339.4,437.8,340.6,436,342.9z M96.1,38.1c-3.3,0-5.9,1.1-7.8,3.5c-1.9,2.3-2.8,5.6-2.8,9.9c0,4.3,1,7.5,2.9,9.8
		c1.9,2.3,4.5,3.4,7.8,3.4c3.3,0,5.9-1.1,7.8-3.4s2.9-5.5,2.9-9.8c0-4.2-1-7.5-2.9-9.9C102,39.3,99.4,38.1,96.1,38.1z M102.4,35.6
		c1.9,0.8,3.5,1.8,4.8,3.2c1.3,1.5,2.3,3.3,3.1,5.5c0.7,2.1,1,4.5,1,7.2c0,2.7-0.4,5-1,7.1c-0.7,2.1-1.8,3.9-3.1,5.4
		c-1.3,1.4-2.9,2.5-4.8,3.3c-1.9,0.7-4,1.1-6.3,1.1c-2.3,0-4.4-0.4-6.3-1.2C88,66.5,86.4,65.4,85,64c-1.3-1.4-2.3-3.2-3-5.4
		c-0.7-2.1-1.1-4.5-1.1-7.1c0-2.7,0.4-5.1,1.1-7.2c0.7-2.2,1.7-4,3.1-5.5c1.2-1.4,2.8-2.5,4.8-3.2c1.9-0.8,3.9-1.1,6.2-1.1
		C98.4,34.5,100.5,34.8,102.4,35.6z M65.9,42.6c3.3,0,5.8,0.9,7.6,2.9c1.8,1.9,2.7,4.6,2.7,8.3v2.2h-18c0,1.5,0.2,2.8,0.6,4
		c0.5,1.1,1.1,2,1.9,2.8c0.8,0.7,1.7,1.2,2.8,1.5c1,0.3,2.1,0.5,3.4,0.5c1.7,0,3.4-0.3,5-0.9c1.7-0.7,2.9-1.3,3.6-2h0.2v4.5
		c-1.4,0.6-2.8,1-4.2,1.5c-1.5,0.4-3,0.5-4.6,0.5c-4.1,0-7.2-1.1-9.5-3.3c-2.3-2.2-3.4-5.3-3.4-9.3c0-4,1.1-7.2,3.3-9.6
		C59.5,43.8,62.4,42.6,65.9,42.6z M65.7,46c-2.2,0-4,0.6-5.3,1.9c-1.3,1.3-2,2.9-2.2,4.9h14c0-2.2-0.6-3.9-1.7-5
		C69.5,46.5,67.9,46,65.7,46z M47.3,35.1v32.6H43V39.6l-9.1,19.1h-2.6l-9-19.1v28.1h-4V35.1h5.9l8.6,18.1l8.4-18.1H47.3z"/>
	
		<path fill-rule="evenodd" clip-rule="evenodd" fill="none" stroke="#000000" stroke-linecap="round" stroke-linejoin="round" stroke-miterlimit="3" d="
		M357.7,97.8l0.6,0.3v-0.6L357.7,97.8l-87.3-48L185,99.5l-0.3,0.2v99.9l86.5,47.8l87-50V98 M344.9,105.1v88.4 M358.3,97.5l84.5-47.7
		l88.6,51v97.8l-80.8,45.9v80.4 M450.6,244.5l-6.3,3.6l-7.8-4.4v81.2 M359.7,199.9l76.8,43.8 M185,99.5h-0.3v0.2 M196.9,106.3
		l73.8-42.2 M118.1,60.9l66.6,38.6 M196.9,193.5l71.8,40.3"/>
</g>
</svg>
