<?xml version="1.0" encoding="utf-8"?>
<!-- Generator: Adobe Illustrator 16.0.0, SVG Export Plug-In . SVG Version: 6.00 Build 0)  -->
<!DOCTYPE svg PUBLIC "-//W3C//DTD SVG 1.1//EN" "http://www.w3.org/Graphics/SVG/1.1/DTD/svg11.dtd">
<svg version="1.1" id="Layer_1" xmlns="http://www.w3.org/2000/svg" xmlns:xlink="http://www.w3.org/1999/xlink" x="0px" y="0px"
	 width="550px" height="400px" viewBox="0 0 550 400" enable-background="new 0 0 550 400" xml:space="preserve">
<g>
	<path fill-rule="evenodd" clip-rule="evenodd" d="M432.2,14.7c1.4,1.6,2.1,3.8,2.1,6.6v1.9h-14.6c0,1.2,0.2,2.3,0.5,3.1
		c0.4,0.9,0.9,1.7,1.5,2.3c0.6,0.6,1.4,1,2.2,1.3c0.9,0.2,1.8,0.4,2.8,0.4c1.3,0,2.7-0.3,4-0.8c1.4-0.6,2.3-1.1,2.9-1.6h0.2v3.6
		c-1.1,0.5-2.3,0.9-3.4,1.2c-1.2,0.3-2.4,0.5-3.7,0.5c-3.3,0-5.8-0.9-7.6-2.7c-1.9-1.8-2.8-4.3-2.8-7.5c0-3.2,0.9-5.8,2.7-7.7
		s4.1-2.9,7-2.9C428.6,12.4,430.7,13.2,432.2,14.7z M429.8,16.6c-0.9-1-2.2-1.5-4-1.5c-1.8,0-3.2,0.5-4.2,1.6
		c-1.1,1.1-1.7,2.4-1.8,3.9H431C431,18.9,430.6,17.6,429.8,16.6z M411,6.4v26.4h-3.5V10l-7.4,15.5H398L390.8,10v22.7h-3.3V6.4h4.8
		l7,14.7L406,6.4H411z M381.2,13.8c0.6,1.7,0.8,3.7,0.8,5.8c0,2.2-0.3,4.1-0.8,5.9c-0.6,1.7-1.4,3.1-2.5,4.3
		c-1.1,1.2-2.4,2.1-3.9,2.7c-1.5,0.6-3.2,0.9-5.1,0.9c-1.9,0-3.5-0.3-5-0.9c-1.5-0.6-2.8-1.5-3.9-2.7c-1.1-1.1-1.9-2.5-2.4-4.3
		c-0.6-1.7-0.9-3.7-0.9-5.9c0-2.1,0.3-4,0.9-5.8c0.6-1.7,1.4-3.2,2.4-4.4c1-1.2,2.3-2,3.9-2.6s3.2-0.9,5-0.9c1.9,0,3.6,0.3,5.1,0.9
		c1.5,0.6,2.8,1.5,3.9,2.6C379.8,10.6,380.6,12,381.2,13.8z M369.8,8.9c-2.7,0-4.8,0.9-6.3,2.8s-2.3,4.5-2.3,7.9
		c0,3.5,0.8,6.1,2.3,8s3.7,2.8,6.3,2.8c2.6,0,4.7-0.9,6.2-2.8c1.6-1.8,2.3-4.5,2.3-8c0-3.4-0.8-6-2.3-7.9S372.4,8.9,369.8,8.9z
		 M439,368.8c1.9,0,3.6,0.3,5.1,1c1.5,0.6,2.8,1.5,3.9,2.6c1.1,1.2,1.9,2.6,2.5,4.4c0.6,1.7,0.8,3.6,0.8,5.8c0,2.2-0.3,4.1-0.8,5.8
		c-0.6,1.7-1.4,3.1-2.5,4.3c-1.1,1.2-2.4,2.1-3.9,2.7c-1.5,0.6-3.2,0.9-5.1,0.9c-1.9,0-3.5-0.3-5-0.9c-1.5-0.6-2.8-1.5-3.9-2.7
		c-1.1-1.2-1.9-2.6-2.4-4.3c-0.6-1.7-0.9-3.6-0.9-5.8c0-2.1,0.3-4,0.9-5.7c0.6-1.7,1.4-3.2,2.4-4.4c1-1.2,2.3-2.1,3.9-2.7
		C435.5,369,437.2,368.8,439,368.8z M439,371.8c-2.7,0-4.8,1-6.3,2.8c-1.5,1.8-2.3,4.5-2.3,7.9c0,3.5,0.8,6.1,2.3,8
		c1.5,1.8,3.6,2.7,6.3,2.7c2.6,0,4.7-0.9,6.2-2.7c1.6-1.9,2.3-4.5,2.3-8c0-3.4-0.8-6-2.3-7.9C443.8,372.7,441.7,371.8,439,371.8z
		 M192.5,89v26.4H189V92.6l-7.4,15.5h-2.1l-7.3-15.5v22.7H169V89h4.8l7,14.7l6.8-14.7H192.5z M223,92c1-1.2,2.3-2,3.8-2.6
		c1.5-0.6,3.2-0.9,5.1-0.9c1.9,0,3.6,0.3,5.1,1c1.5,0.6,2.8,1.5,3.8,2.6c1.1,1.2,1.9,2.7,2.5,4.4c0.6,1.7,0.9,3.7,0.9,5.8
		c0,2.2-0.3,4.1-0.9,5.8c-0.6,1.7-1.4,3.1-2.5,4.3c-1.1,1.2-2.4,2.1-3.8,2.7c-1.5,0.6-3.2,0.9-5.1,0.9c-1.9,0-3.6-0.3-5.1-0.9
		c-1.5-0.6-2.8-1.5-3.8-2.7c-1.1-1.1-1.9-2.5-2.5-4.3c-0.6-1.7-0.9-3.7-0.9-5.8c0-2.1,0.3-4.1,0.9-5.8C221.1,94.8,221.9,93.3,223,92
		z M213.7,97.4c1.4,1.6,2.1,3.8,2.1,6.6v1.9h-14.6c0,1.2,0.2,2.3,0.5,3.1c0.4,0.9,0.9,1.7,1.5,2.3c0.6,0.6,1.4,1,2.2,1.3
		c0.9,0.2,1.8,0.4,2.8,0.4c1.3,0,2.7-0.3,4.1-0.8c1.4-0.6,2.3-1.1,2.9-1.6h0.2v3.7c-1.1,0.5-2.3,0.8-3.4,1.1
		c-1.2,0.3-2.4,0.5-3.7,0.5c-3.3,0-5.9-0.9-7.6-2.6c-1.9-1.8-2.8-4.3-2.8-7.6c0-3.2,0.9-5.8,2.6-7.7c1.8-1.9,4.1-2.9,7-2.9
		C210.2,95,212.2,95.8,213.7,97.4z M225.6,94.3c-1.5,1.9-2.3,4.5-2.3,7.9c0,3.5,0.8,6.1,2.4,8c1.5,1.8,3.6,2.7,6.3,2.7
		c2.6,0,4.7-0.9,6.2-2.7c1.6-1.9,2.4-4.5,2.4-8c0-3.4-0.8-6-2.4-7.9c-1.5-1.9-3.6-2.8-6.3-2.8C229.2,91.5,227.1,92.4,225.6,94.3z
		 M211.3,99.3c-0.9-1-2.2-1.5-4-1.5c-1.8,0-3.2,0.5-4.2,1.6c-1.1,1.1-1.7,2.4-1.9,3.9h11.3C212.5,101.5,212.1,100.2,211.3,99.3z"/>
	
		<path fill-rule="evenodd" clip-rule="evenodd" fill="none" stroke="#000000" stroke-linecap="round" stroke-linejoin="round" stroke-miterlimit="3" d="
		M371.8,38.4v62.2l-69.9,39.2V220l70.4,40.5v-0.2l66.8-38.5v-82.5l-62.5-36.8 M367.8,344.2l55.2,32.5 M301.9,220L232,259.6v0.6v80.9
		l69.5,39.6l70.8-39.9v-80.3 M373,334.5l54.8,31.6 M431.8,147v66.8 M301.2,139.3l-52.6-30.1 M232,260.2l-69.6-40.4L92.3,260v81.1
		l71,39.8l68.8-39.8 M312.8,215.3l59,33.7 M310.7,145.4l58.5-33.1"/>
</g>
</svg>
