<?xml version="1.0" encoding="utf-8"?>
<!-- Generator: Adobe Illustrator 16.0.0, SVG Export Plug-In . SVG Version: 6.00 Build 0)  -->
<!DOCTYPE svg PUBLIC "-//W3C//DTD SVG 1.1//EN" "http://www.w3.org/Graphics/SVG/1.1/DTD/svg11.dtd">
<svg version="1.1" id="Layer_1" xmlns="http://www.w3.org/2000/svg" xmlns:xlink="http://www.w3.org/1999/xlink" x="0px" y="0px"
	 width="550px" height="400px" viewBox="0 0 550 400" enable-background="new 0 0 550 400" xml:space="preserve">
<g>
	<path fill-rule="evenodd" clip-rule="evenodd" d="M415.1,12.5c2.1,0.9,3.9,2.1,5.4,3.8s2.6,3.6,3.5,6c0.8,2.4,1.2,5.2,1.2,8.2
		s-0.4,5.8-1.2,8.2c-0.8,2.4-2,4.4-3.5,6c-1.5,1.7-3.3,2.9-5.4,3.8c-2.1,0.9-4.5,1.3-7.1,1.3c-2.6,0-5-0.4-7.1-1.3
		c-2.1-0.9-3.9-2.1-5.4-3.8c-1.5-1.6-2.6-3.6-3.4-6c-0.8-2.4-1.3-5.1-1.3-8.2c0-3,0.4-5.7,1.2-8.1c0.8-2.4,2-4.5,3.5-6.1
		c1.5-1.6,3.3-2.9,5.4-3.8c2.2-0.9,4.5-1.3,7.1-1.3C410.6,11.2,413,11.6,415.1,12.5z M407.9,15.5c-3.7,0-6.7,1.3-8.8,3.9
		c-2.2,2.6-3.3,6.3-3.3,11.1c0,4.9,1.1,8.6,3.3,11.1c2.2,2.6,5.1,3.9,8.8,3.9c3.7,0,6.6-1.3,8.8-3.9c2.2-2.6,3.3-6.3,3.3-11.1
		c0-4.8-1.1-8.5-3.3-11.1C414.6,16.8,411.7,15.5,407.9,15.5z M163,24.5h-4.5v8.2h4.9c1.2,0,2.1,0,2.8-0.1c0.7-0.1,1.3-0.4,1.9-0.8
		c0.6-0.4,1.1-0.9,1.3-1.5c0.2-0.6,0.3-1.3,0.3-2.1c0-0.7-0.1-1.3-0.3-1.8c-0.2-0.5-0.6-0.9-1.1-1.1c-0.6-0.3-1.3-0.5-2.2-0.6
		C165.4,24.5,164.4,24.5,163,24.5z M170.9,22.4c1.1,0.5,1.8,1.2,2.3,2.1c0.5,0.8,0.8,1.9,0.8,3.1c0,1.4-0.3,2.5-1,3.4
		c-0.7,1-1.7,1.7-2.8,2.3v0.1c1.9,0.4,3.5,1.3,4.6,2.5c1.1,1.3,1.6,2.9,1.6,4.9c0,1.4-0.3,2.7-0.8,3.8c-0.5,1-1.3,1.9-2.2,2.6
		c-1.1,0.8-2.3,1.4-3.5,1.8c-1.3,0.4-2.9,0.5-4.9,0.5h-10.1V21.2h8.5c2.1,0,3.7,0.1,4.7,0.3C168.9,21.6,169.9,21.9,170.9,22.4z
		 M167.7,36c-0.9-0.1-1.9-0.1-3.2-0.1h-6v10.6h5c1.7,0,3-0.1,4.1-0.3c1.1-0.2,1.9-0.5,2.6-1c0.7-0.5,1.3-1.1,1.5-1.7
		c0.3-0.7,0.5-1.5,0.5-2.5c0-1.1-0.2-2.1-0.5-2.8c-0.3-0.7-0.9-1.2-1.8-1.7C169.3,36.4,168.6,36.1,167.7,36z M193,32
		c-0.5-0.1-1.1-0.1-1.8-0.1c-1.1,0-2.2,0.3-3.2,0.8c-1,0.5-2,1.1-3,1.9v15.2h-3.6V28.4h3.6v3.1c1.4-1.1,2.6-1.9,3.8-2.4
		c1.1-0.5,2.2-0.7,3.4-0.7c0.6,0,1.1,0,1.4,0c0.3,0,0.7,0.1,1.3,0.1v3.7h-0.1C194,32.1,193.5,32.1,193,32z"/>
	
		<path fill-rule="evenodd" clip-rule="evenodd" fill="none" stroke="#000000" stroke-linecap="round" stroke-linejoin="round" stroke-miterlimit="3" d="
		M401.2,59.3v102.1l6.3-2.2l7.3,10V59.3 M414.7,169.1l68.5,92.5l-76.3,103.6l-119.4-38.5V199.3 M401.2,161.4L287.7,198l-113.4-62.5
		l-1.1,0.7v0.5 M172.9,62.6l0.3,73.6L64.9,197.8v129.1L177,389.8l109.6-63.1 M80.3,208.3v109.1 M177.5,371.1l93.4-52.5 M177.5,155.6
		l93.1,51.6"/>
</g>
</svg>
