<?xml version="1.0" encoding="utf-8"?>
<!-- Generator: Adobe Illustrator 16.0.0, SVG Export Plug-In . SVG Version: 6.00 Build 0)  -->
<!DOCTYPE svg PUBLIC "-//W3C//DTD SVG 1.1//EN" "http://www.w3.org/Graphics/SVG/1.1/DTD/svg11.dtd">
<svg version="1.1" id="Layer_1" xmlns="http://www.w3.org/2000/svg" xmlns:xlink="http://www.w3.org/1999/xlink" x="0px" y="0px"
	 width="550px" height="400px" viewBox="0 0 550 400" enable-background="new 0 0 550 400" xml:space="preserve">
<g>
	<path fill-rule="evenodd" clip-rule="evenodd" d="M488.2,172.9c0.6,0.5,1.1,1,1.5,1.6c0.4,0.6,0.5,1.4,0.5,2.3c0,1.1-0.4,2.1-1.2,3
		c-0.8,0.8-1.8,1.4-2.8,1.6v0.1c0.5,0.1,1,0.3,1.5,0.5c0.6,0.2,1,0.5,1.4,0.9c0.5,0.4,0.8,0.8,1.1,1.4c0.3,0.6,0.5,1.4,0.5,2.4
		c0,0.9-0.2,1.8-0.5,2.6c-0.4,0.8-0.9,1.5-1.5,2c-0.7,0.6-1.5,1.1-2.5,1.5c-0.9,0.3-2,0.5-3,0.5c-1.1,0-2.3-0.1-3.5-0.5
		c-1.1-0.3-2-0.5-2.7-0.9v-2.9h0.2c0.8,0.5,1.7,0.9,2.8,1.3c1.1,0.3,2.1,0.5,3.1,0.5c0.6,0,1.2-0.1,1.8-0.3c0.7-0.2,1.2-0.5,1.6-0.9
		c0.4-0.4,0.7-0.9,1-1.4c0.2-0.5,0.3-1.1,0.3-1.9c0-0.7-0.1-1.3-0.3-1.8c-0.2-0.5-0.5-0.9-1-1.2c-0.4-0.3-0.9-0.4-1.5-0.5
		c-0.6-0.1-1.3-0.2-2-0.2h-1.3v-2.3h1c1.4,0,2.5-0.3,3.4-0.9c0.8-0.6,1.3-1.5,1.3-2.6c0-0.5-0.1-1-0.4-1.3c-0.2-0.4-0.5-0.7-0.8-1
		c-0.4-0.2-0.9-0.4-1.3-0.4c-0.5-0.1-1-0.2-1.5-0.2c-0.9,0-1.8,0.1-2.8,0.5c-1,0.4-1.9,0.8-2.8,1.4h-0.1v-2.9c0.7-0.4,1.5-0.7,2.6-1
		c1.1-0.3,2.2-0.4,3.2-0.4s1.9,0.1,2.6,0.3C486.9,172.3,487.6,172.5,488.2,172.9z M387,164.2c-1.8,2.2-2.8,5.4-2.8,9.5
		c0,4.2,0.9,7.4,2.8,9.6c1.9,2.2,4.4,3.3,7.6,3.3c3.1,0,5.6-1.1,7.5-3.3c1.9-2.2,2.8-5.4,2.8-9.6c0-4.1-0.9-7.3-2.8-9.5
		c-1.8-2.3-4.3-3.4-7.5-3.4C391.4,160.8,388.8,161.9,387,164.2z M400.7,158.3c1.8,0.8,3.3,1.8,4.6,3.2c1.3,1.4,2.3,3.2,3,5.2
		c0.7,2.1,1,4.4,1,7s-0.3,5-1,7c-0.7,2.1-1.7,3.8-3,5.2c-1.3,1.4-2.9,2.5-4.7,3.3c-1.8,0.7-3.8,1.1-6,1.1c-2.2,0-4.2-0.4-6-1.1
		c-1.8-0.7-3.4-1.8-4.7-3.3c-1.3-1.4-2.3-3.1-2.9-5.2c-0.7-2-1.1-4.4-1.1-7c0-2.6,0.4-4.9,1.1-7c0.7-2,1.6-3.8,2.9-5.3
		c1.2-1.4,2.8-2.5,4.7-3.2c1.9-0.8,3.9-1.1,6-1.1C396.8,157.1,398.9,157.5,400.7,158.3z M429.3,160.9c-1.6,0-3,0.3-4.3,0.8
		c-1.3,0.5-2.5,1.3-3.5,2.4c-1,1.1-1.7,2.5-2.3,4.1c-0.6,1.6-0.8,3.5-0.8,5.6c0,2.2,0.3,4.1,0.9,5.8c0.6,1.6,1.4,3,2.4,4
		c1,1.1,2.1,1.9,3.5,2.4c1.3,0.5,2.7,0.7,4.2,0.7c2,0,3.9-0.3,5.7-1c1.8-0.7,3.4-1.8,5-3.2h0.3v4.9c-0.8,0.3-1.5,0.7-2.1,1
		c-0.7,0.3-1.5,0.6-2.5,1c-0.9,0.3-1.8,0.5-2.8,0.7c-1,0.2-2.1,0.3-3.4,0.3c-2.3,0-4.4-0.3-6.2-1c-1.9-0.6-3.6-1.6-5-3
		c-1.3-1.4-2.4-3.1-3.1-5.2c-0.8-2.1-1.2-4.5-1.2-7.3c0-2.6,0.4-5,1.1-7c0.7-2,1.8-3.8,3.1-5.2c1.4-1.4,3-2.4,4.9-3.1
		c1.9-0.7,4.1-1.1,6.4-1.1c1.7,0,3.4,0.2,5.1,0.6c1.7,0.4,3.5,1.1,5.6,2.2v5H440c-1.7-1.5-3.5-2.5-5.2-3.2
		C433.1,161.2,431.3,160.9,429.3,160.9z M470.5,157.9v31.8h-4.2V174h-15.8v15.6h-4.3v-31.8h4.3v12.4h15.8v-12.4H470.5z M244.3,29.8
		c-0.7,2.1-1.7,3.8-2.9,5.2c-1.3,1.4-2.9,2.5-4.6,3.2c-1.8,0.8-3.8,1.1-6.1,1.1c-2.2,0-4.2-0.4-6.1-1.1c-1.8-0.7-3.3-1.8-4.6-3.2
		c-1.3-1.4-2.3-3.2-2.9-5.2c-0.7-2-1.1-4.4-1.1-7c0-2.6,0.4-4.9,1.1-7c0.7-2,1.6-3.8,2.9-5.3c1.3-1.4,2.8-2.5,4.6-3.2
		c1.9-0.7,3.9-1.1,6.1-1.1c2.3,0,4.3,0.4,6.1,1.1c1.8,0.8,3.3,1.8,4.6,3.2c1.3,1.4,2.3,3.2,2.9,5.3c0.7,2,1.1,4.4,1.1,7
		C245.4,25.4,245,27.7,244.3,29.8z M238.1,13.2c-1.8-2.3-4.3-3.4-7.5-3.4c-3.2,0-5.8,1.1-7.5,3.4c-1.9,2.2-2.8,5.4-2.8,9.5
		c0,4.2,0.9,7.4,2.8,9.5c1.9,2.2,4.4,3.3,7.5,3.3c3.2,0,5.7-1.1,7.5-3.3c1.9-2.2,2.8-5.4,2.8-9.5C241,18.6,240,15.4,238.1,13.2z
		 M205,6.8h4.2v31.9H205V23h-15.8v15.6h-4.2V6.8h4.2v12.5H205V6.8z M163.7,10.6c-1.3,0.5-2.5,1.3-3.5,2.4c-1,1.1-1.7,2.5-2.3,4.1
		c-0.6,1.6-0.9,3.5-0.9,5.6c0,2.2,0.3,4.1,0.9,5.8c0.6,1.6,1.4,2.9,2.4,3.9c1,1.1,2.1,1.9,3.5,2.4c1.3,0.5,2.7,0.8,4.2,0.8
		c2,0,3.9-0.3,5.7-1c1.8-0.7,3.5-1.8,5-3.2h0.3v4.9c-0.8,0.3-1.5,0.7-2.1,1c-0.6,0.3-1.5,0.6-2.5,1c-0.9,0.3-1.8,0.5-2.9,0.6
		c-1,0.2-2.1,0.3-3.4,0.3c-2.3,0-4.3-0.3-6.2-1c-1.9-0.7-3.5-1.7-4.9-3c-1.4-1.4-2.4-3.1-3.2-5.2c-0.8-2.1-1.1-4.5-1.1-7.3
		c0-2.6,0.4-5,1.1-7c0.8-2.1,1.8-3.8,3.2-5.3c1.4-1.4,3-2.4,4.9-3.1c2-0.7,4.1-1.1,6.4-1.1c1.7,0,3.4,0.2,5.1,0.5
		C175.1,7.2,177,8,179,9v5h-0.3c-1.7-1.5-3.5-2.5-5.2-3.2c-1.7-0.7-3.6-1-5.5-1C166.4,9.9,165,10.1,163.7,10.6z"/>
	
		<path fill-rule="evenodd" clip-rule="evenodd" fill="none" stroke="#000000" stroke-linecap="round" stroke-linejoin="round" stroke-miterlimit="3" d="
		M168.3,145.8v1l0.8-0.5L168.3,145.8z M168.3,45.7v100 M170.1,393.5l1.4-0.9L62.5,330.3V207.6l105.8-60.9 M169,146.3L277.2,208v-0.9
		l95.7-23.8 M277.2,208v122.8l-105.7,61.8 M262.3,214.5v110 M80.5,322.8l88.4,51.9 M78.7,215.8l91.4-53.2"/>
</g>
</svg>
