<?xml version="1.0" encoding="utf-8"?>
<!-- Generator: Adobe Illustrator 16.0.0, SVG Export Plug-In . SVG Version: 6.00 Build 0)  -->
<!DOCTYPE svg PUBLIC "-//W3C//DTD SVG 1.1//EN" "http://www.w3.org/Graphics/SVG/1.1/DTD/svg11.dtd">
<svg version="1.1" id="Layer_1" xmlns="http://www.w3.org/2000/svg" xmlns:xlink="http://www.w3.org/1999/xlink" x="0px" y="0px"
	 width="550px" height="400px" viewBox="0 0 550 400" enable-background="new 0 0 550 400" xml:space="preserve">
<g>
	<path fill-rule="evenodd" clip-rule="evenodd" d="M330,367.7v22.9h-3v-11.2h-11.4v11.2h-3v-22.9h3v9H327v-9H330z M335.2,378.8
		c0.5-0.3,1.1-0.5,1.9-0.7c0.8-0.2,1.6-0.3,2.3-0.3s1.4,0,1.9,0.2c0.6,0.2,1.1,0.4,1.5,0.7c0.5,0.3,0.9,0.6,1.1,1.1
		c0.2,0.4,0.4,1,0.4,1.6c0,0.8-0.3,1.5-0.9,2.1c-0.6,0.6-1.3,1-2.1,1.2v0.1c0.3,0.1,0.7,0.2,1.1,0.4c0.4,0.1,0.8,0.3,1.1,0.6
		c0.3,0.3,0.6,0.7,0.8,1.1c0.2,0.4,0.3,0.9,0.3,1.6s-0.1,1.3-0.3,1.9c-0.2,0.5-0.6,1-1.1,1.5c-0.5,0.5-1.1,0.8-1.7,1
		c-0.7,0.2-1.5,0.3-2.3,0.3c-0.8,0-1.6-0.1-2.4-0.3c-0.8-0.2-1.5-0.4-2-0.6v-2.1h0.2c0.5,0.4,1.2,0.7,1.9,1c0.8,0.2,1.5,0.3,2.2,0.3
		c0.5,0,0.9-0.1,1.4-0.3c0.5-0.1,0.8-0.3,1.1-0.6c0.3-0.3,0.5-0.6,0.7-1c0.2-0.4,0.3-0.8,0.3-1.3c0-0.5-0.1-1-0.3-1.4
		c-0.2-0.3-0.4-0.6-0.7-0.8s-0.7-0.3-1.1-0.4c-0.4-0.1-0.9-0.1-1.4-0.1h-0.8v-1.7h0.6c1,0,1.8-0.2,2.4-0.6c0.6-0.4,1-1.1,1-1.9
		c0-0.3-0.1-0.6-0.3-1c-0.2-0.2-0.4-0.4-0.6-0.6c-0.3-0.1-0.6-0.2-0.9-0.3c-0.3-0.1-0.7-0.2-1.1-0.2c-0.6,0-1.3,0.1-2,0.3
		c-0.7,0.2-1.4,0.6-2,1h-0.1V378.8z M306.8,6.1V29h-3V17.8h-11.4V29h-3V6.1h3v9h11.4v-9H306.8z M313.8,16.5c0.8-0.2,1.6-0.3,2.3-0.3
		s1.4,0,1.9,0.1c0.6,0.1,1.1,0.4,1.5,0.6c0.5,0.3,0.8,0.7,1.1,1.1c0.2,0.5,0.4,1,0.4,1.6c0,0.8-0.3,1.5-0.9,2.1
		c-0.6,0.6-1.3,1-2.1,1.1v0.2c0.3,0.1,0.7,0.2,1.1,0.3c0.4,0.2,0.8,0.4,1.1,0.6c0.3,0.3,0.6,0.7,0.8,1.1s0.3,1,0.3,1.7
		c0,0.7-0.1,1.3-0.3,1.8c-0.2,0.6-0.6,1.1-1.1,1.5c-0.5,0.4-1.1,0.8-1.8,1.1c-0.7,0.2-1.4,0.3-2.3,0.3c-0.8,0-1.6-0.1-2.4-0.3
		c-0.8-0.2-1.5-0.4-2-0.6v-2.1h0.1c0.6,0.4,1.2,0.7,2,0.9c0.8,0.2,1.5,0.4,2.2,0.4c0.4,0,0.9-0.1,1.4-0.2c0.5-0.1,0.8-0.3,1.1-0.6
		c0.3-0.3,0.5-0.6,0.7-1c0.1-0.4,0.2-0.8,0.2-1.4c0-0.5-0.1-0.9-0.2-1.3c-0.2-0.3-0.4-0.6-0.7-0.9c-0.3-0.2-0.7-0.3-1.1-0.4
		c-0.5-0.1-0.9-0.1-1.4-0.1h-0.9v-1.6h0.7c1,0,1.8-0.2,2.4-0.7c0.6-0.4,1-1,1-1.8c0-0.3-0.1-0.7-0.3-1c-0.1-0.3-0.3-0.5-0.6-0.6
		c-0.3-0.2-0.6-0.3-0.9-0.4c-0.3-0.1-0.7-0.1-1.1-0.1c-0.6,0-1.3,0.1-2,0.3c-0.7,0.2-1.4,0.5-2,0.9h-0.1v-2
		C312.4,16.9,313,16.6,313.8,16.5z M284.9,23.8v3.5c-0.6,0.3-1.1,0.5-1.5,0.7c-0.5,0.2-1.1,0.5-1.8,0.8c-0.6,0.2-1.3,0.3-2,0.5
		c-0.7,0.1-1.5,0.2-2.5,0.2c-1.6,0-3.1-0.2-4.5-0.7c-1.4-0.5-2.6-1.2-3.6-2.2c-1-1-1.7-2.2-2.3-3.7s-0.9-3.3-0.9-5.3
		c0-1.9,0.3-3.5,0.9-5c0.5-1.5,1.3-2.7,2.3-3.8c1-1,2.2-1.8,3.5-2.3c1.4-0.6,2.9-0.9,4.6-0.9c1.2,0,2.4,0.1,3.6,0.5
		c1.3,0.3,2.6,0.9,4.1,1.6v3.5h-0.3c-1.2-1-2.5-1.8-3.8-2.3c-1.2-0.5-2.6-0.8-4-0.8c-1.2,0-2.2,0.2-3.2,0.6
		c-0.9,0.4-1.7,0.9-2.4,1.7c-0.7,0.8-1.3,1.8-1.7,3c-0.4,1.2-0.6,2.5-0.6,4c0,1.6,0.2,3,0.7,4.2c0.4,1.2,1,2.1,1.7,2.8
		c0.7,0.8,1.5,1.3,2.5,1.7c1,0.4,2,0.5,3,0.5c1.4,0,2.8-0.3,4.1-0.8c1.3-0.5,2.5-1.3,3.6-2.3H284.9z M279.5,368
		c1.3,0.6,2.4,1.3,3.3,2.3c0.9,1,1.7,2.3,2.2,3.8c0.5,1.5,0.8,3.2,0.8,5.1c0,1.9-0.3,3.5-0.8,5c-0.5,1.5-1.3,2.7-2.2,3.7
		c-0.9,1-2,1.8-3.3,2.3c-1.3,0.6-2.8,0.8-4.5,0.8c-1.6,0-3.1-0.3-4.4-0.8c-1.3-0.5-2.4-1.3-3.4-2.3c-0.9-1-1.6-2.3-2.1-3.8
		c-0.5-1.5-0.8-3.1-0.8-5c0-1.9,0.2-3.6,0.7-5c0.5-1.5,1.2-2.8,2.1-3.8c0.9-1,2.1-1.8,3.4-2.3c1.3-0.6,2.8-0.8,4.3-0.8
		C276.7,367.2,278.2,367.5,279.5,368z M280.5,372.3c-1.3-1.6-3.2-2.5-5.5-2.5c-2.3,0-4.1,0.8-5.4,2.5c-1.3,1.6-2,3.9-2,6.9
		c0,3,0.7,5.3,2,6.8c1.4,1.6,3.2,2.4,5.4,2.4c2.3,0,4.1-0.8,5.5-2.4c1.3-1.6,2-3.9,2-6.8C282.5,376.2,281.8,373.9,280.5,372.3z
		 M308.2,369.3v3.6h-0.3c-1.2-1-2.5-1.8-3.7-2.3c-1.3-0.5-2.6-0.8-4-0.8c-1.2,0-2.2,0.2-3.2,0.7c-0.9,0.4-1.7,0.9-2.5,1.7
		c-0.7,0.8-1.3,1.7-1.6,2.9c-0.4,1.2-0.6,2.5-0.6,4.1c0,1.6,0.2,3,0.7,4.1c0.4,1.2,1,2.2,1.7,2.9c0.7,0.8,1.5,1.3,2.5,1.7
		c0.9,0.4,1.9,0.6,3,0.6c1.4,0,2.8-0.3,4.1-0.8c1.3-0.5,2.5-1.2,3.6-2.3h0.3v3.6c-0.6,0.3-1.1,0.5-1.5,0.6c-0.5,0.2-1.1,0.5-1.8,0.7
		c-0.6,0.2-1.3,0.4-2,0.5c-0.7,0.2-1.5,0.3-2.5,0.3c-1.6,0-3.1-0.3-4.5-0.8c-1.4-0.5-2.5-1.2-3.5-2.2c-1-0.9-1.8-2.2-2.3-3.7
		c-0.5-1.5-0.8-3.2-0.8-5.2c0-1.9,0.3-3.6,0.8-5.1c0.5-1.5,1.3-2.7,2.3-3.8c1-1,2.2-1.7,3.5-2.3c1.4-0.5,3-0.8,4.7-0.8
		c1.2,0,2.4,0.1,3.6,0.4C305.3,368,306.7,368.6,308.2,369.3z"/>
	
		<path fill-rule="evenodd" clip-rule="evenodd" fill="none" stroke="#000000" stroke-linecap="round" stroke-linejoin="round" stroke-miterlimit="3" d="
		M274.6,284l77.8-44.1V151l-77.7-44.9l-1.5,0.8l-76,44.1v89.5l76,43.5v73.3 M341.2,155.9v77.7 M274.8,106.1l-1.5-0.6v1.3 M209,156.8
		l66.2-37.3 M273.3,105.5V35.4 M209,234.1l64.7,37.8"/>
</g>
</svg>
