<?xml version="1.0" encoding="utf-8"?>
<!-- Generator: Adobe Illustrator 16.0.0, SVG Export Plug-In . SVG Version: 6.00 Build 0)  -->
<!DOCTYPE svg PUBLIC "-//W3C//DTD SVG 1.1//EN" "http://www.w3.org/Graphics/SVG/1.1/DTD/svg11.dtd">
<svg version="1.1" id="Layer_1" xmlns="http://www.w3.org/2000/svg" xmlns:xlink="http://www.w3.org/1999/xlink" x="0px" y="0px"
	 width="550px" height="400px" viewBox="0 0 550 400" enable-background="new 0 0 550 400" xml:space="preserve">
<g>
	<path fill-rule="evenodd" clip-rule="evenodd" d="M490.7,115.1h6.5v2.7h-6.5v8.6c0,1,0,1.8,0,2.3c0.1,0.6,0.2,1.1,0.5,1.6
		c0.2,0.5,0.6,0.8,1,1c0.4,0.2,1.1,0.4,2,0.4c0.5,0,1.1-0.1,1.6-0.3c0.6-0.2,1-0.3,1.2-0.4h0.2v2.9c-0.6,0.1-1.3,0.3-2,0.3
		c-0.7,0.1-1.3,0.2-1.9,0.2c-1.9,0-3.4-0.5-4.4-1.6s-1.5-2.7-1.5-5v-10h-2.2v-2.7h2.2v-5.4h3.2V115.1z M401.8,121.5
		c0,1.8,0.2,3.3,0.7,4.6c0.5,1.3,1.1,2.3,1.8,3.1c0.8,0.8,1.7,1.4,2.8,1.8c1.1,0.4,2.2,0.6,3.3,0.6c1.6,0,3.1-0.3,4.5-0.8
		c1.4-0.6,2.7-1.4,4-2.5h0.3v3.9c-0.6,0.3-1.2,0.6-1.7,0.8c-0.5,0.2-1.1,0.5-2,0.8c-0.7,0.2-1.4,0.4-2.3,0.6
		c-0.8,0.1-1.7,0.2-2.7,0.2c-1.8,0-3.5-0.3-5-0.8c-1.5-0.5-2.8-1.3-3.9-2.4c-1.1-1.1-1.9-2.4-2.5-4.1c-0.6-1.7-0.9-3.6-0.9-5.8
		c0-2.1,0.3-3.9,0.9-5.5c0.6-1.7,1.4-3.1,2.5-4.2c1.1-1.1,2.4-1.9,3.9-2.5c1.5-0.6,3.2-0.9,5.1-0.9c1.3,0,2.7,0.2,4,0.5
		c1.3,0.3,2.8,0.9,4.5,1.7v4H419c-1.4-1.2-2.8-2-4.2-2.6c-1.4-0.5-2.8-0.8-4.4-0.8c-1.3,0-2.4,0.2-3.5,0.6c-1,0.4-2,1-2.8,1.9
		c-0.8,0.9-1.4,2-1.8,3.3C402,118.3,401.8,119.8,401.8,121.5z M469,118.8h13.3v3H469v9.4h13.3v3h-16.6v-25.3h16.6v3H469V118.8z
		 M458.7,121.1c1,0.8,1.5,1.9,1.5,3.3c0,0.6-0.1,1.2-0.3,1.8c-0.2,0.5-0.4,1-0.7,1.5c-0.3,0.5-0.6,0.9-1,1.4
		c-0.4,0.4-0.9,0.9-1.4,1.4c-0.8,0.8-1.6,1.5-2.5,2.3c-0.8,0.7-1.6,1.4-2.3,2h8.8v1.9h-11.1v-2.3c0.8-0.7,1.6-1.3,2.3-2
		c0.8-0.7,1.5-1.3,2.2-1.9c1.4-1.4,2.4-2.5,2.9-3.3c0.5-0.8,0.8-1.7,0.8-2.6c0-0.9-0.3-1.5-0.9-2c-0.6-0.5-1.3-0.8-2.3-0.8
		c-0.7,0-1.4,0.1-2.2,0.4c-0.8,0.2-1.5,0.6-2.3,1.1h-0.1V121c0.5-0.2,1.2-0.5,2.1-0.7c0.9-0.2,1.7-0.3,2.5-0.3
		C456.4,120,457.7,120.4,458.7,121.1z M434.3,108.4c1.8,0,3.5,0.3,4.9,0.9c1.4,0.6,2.6,1.4,3.6,2.5c1,1.1,1.8,2.5,2.4,4.1
		c0.5,1.6,0.8,3.5,0.8,5.6c0,2.1-0.3,3.9-0.8,5.6c-0.6,1.6-1.4,3-2.4,4.1c-1,1.1-2.3,2-3.6,2.5c-1.4,0.6-3.1,0.9-4.9,0.9
		c-1.8,0-3.4-0.3-4.8-0.9c-1.5-0.6-2.7-1.5-3.8-2.5c-1-1.1-1.8-2.5-2.3-4.2c-0.6-1.6-0.9-3.5-0.9-5.5s0.3-3.9,0.8-5.5
		c0.6-1.6,1.4-3,2.4-4.2c1-1.1,2.2-2,3.7-2.5C431,108.6,432.6,108.4,434.3,108.4z M426.1,121.5c0,3.3,0.8,5.8,2.3,7.6
		c1.5,1.8,3.5,2.6,6,2.6c2.5,0,4.5-0.9,6-2.6c1.5-1.8,2.2-4.3,2.2-7.6s-0.7-5.8-2.2-7.6c-1.5-1.8-3.5-2.6-6-2.6
		c-2.6,0-4.6,0.9-6,2.6S426.1,118.2,426.1,121.5z M300.5,24.7V50h-3.3V37.6h-12.6V50h-3.3V24.7h3.3v9.9h12.6v-9.9H300.5z M313,36
		c0.6,0.2,1.1,0.4,1.6,0.8c0.5,0.3,0.9,0.8,1.2,1.3s0.4,1.1,0.4,1.8c0,0.9-0.3,1.7-1,2.4c-0.6,0.7-1.4,1.1-2.3,1.3v0.1
		c0.4,0,0.8,0.1,1.3,0.4c0.4,0.2,0.8,0.4,1.1,0.7c0.3,0.3,0.6,0.7,0.9,1.2c0.2,0.5,0.3,1.1,0.3,1.9c0,0.7-0.1,1.4-0.4,2
		s-0.7,1.2-1.2,1.6c-0.3,0.2-0.5,0.4-0.8,0.6c-0.4,0.2-0.7,0.4-1.2,0.5c-0.7,0.2-1.5,0.4-2.5,0.4c-0.9,0-1.8-0.1-2.7-0.4
		c-0.7-0.2-1.3-0.3-1.8-0.5c-0.1,0-0.2-0.1-0.3-0.1v-2.3h0.2c0.6,0.4,1.4,0.8,2.2,1.1c0.9,0.3,1.7,0.4,2.5,0.4c0.5,0,1-0.1,1.5-0.3
		c0.5-0.2,0.9-0.4,1.3-0.7c0.3-0.3,0.6-0.6,0.8-1c0.2-0.4,0.3-0.9,0.3-1.5c0-0.6-0.1-1-0.3-1.5c-0.2-0.4-0.5-0.7-0.8-0.9
		s-0.7-0.4-1.2-0.4c-0.5-0.1-1-0.2-1.5-0.2h-1v-1.8h0.8c1.1,0,2-0.2,2.7-0.7c0.6-0.5,1-1.1,1-2c0-0.4-0.1-0.8-0.3-1
		c-0.2-0.3-0.4-0.6-0.7-0.8c-0.3-0.2-0.6-0.3-1-0.4c-0.4-0.1-0.8-0.1-1.2-0.1c-0.7,0-1.5,0.1-2.3,0.4c-0.8,0.2-1.5,0.6-2.3,1h-0.1
		v-2.3c0.5-0.3,1.2-0.5,2.1-0.7c0.9-0.2,1.7-0.4,2.5-0.4C311.7,35.8,312.3,35.9,313,36z M262.8,25.1c1.5-0.6,3.2-0.9,5.1-0.9
		c1.3,0,2.7,0.2,4.1,0.5c1.3,0.3,2.8,0.9,4.5,1.7v4h-0.3c-1.4-1.2-2.8-2-4.2-2.6s-2.8-0.8-4.4-0.8c-1.3,0-2.4,0.2-3.4,0.6
		c-1,0.4-2,1-2.8,1.9c-0.8,0.9-1.4,2-1.8,3.3c-0.4,1.3-0.6,2.8-0.6,4.5c0,1.8,0.2,3.3,0.7,4.6c0.5,1.3,1.1,2.3,1.8,3.1
		c0.8,0.8,1.7,1.5,2.8,1.9c1.1,0.4,2.2,0.6,3.4,0.6c1.6,0,3.1-0.3,4.5-0.8c1.4-0.6,2.7-1.4,4-2.5h0.3v3.9c-0.6,0.3-1.2,0.6-1.7,0.8
		s-1.1,0.5-2,0.8c-0.7,0.2-1.4,0.4-2.3,0.6c-0.8,0.1-1.7,0.2-2.7,0.2c-1.8,0-3.5-0.3-5-0.8c-1.5-0.5-2.8-1.4-3.9-2.4
		c-1.1-1.1-1.9-2.4-2.6-4.1c-0.6-1.7-0.9-3.6-0.9-5.8c0-2.1,0.3-3.9,0.9-5.6c0.6-1.7,1.4-3.1,2.5-4.2
		C260,26.5,261.3,25.7,262.8,25.1z M140.4,24v26.4h-3.2V24H140.4z M132.4,30.9c-1.4-1.2-2.8-2-4.1-2.5s-2.8-0.8-4.4-0.8
		c-1.3,0-2.4,0.2-3.4,0.7c-1,0.4-2,1-2.8,1.9c-0.8,0.9-1.4,1.9-1.8,3.3c-0.4,1.3-0.6,2.8-0.6,4.4c0,1.8,0.2,3.3,0.7,4.6
		c0.5,1.3,1.1,2.3,1.9,3.1c0.8,0.8,1.7,1.5,2.8,1.9s2.2,0.6,3.4,0.6c1.6,0,3.1-0.3,4.5-0.8c1.4-0.6,2.7-1.4,4-2.5h0.3v3.9
		c-0.6,0.3-1.2,0.6-1.7,0.8s-1.1,0.5-1.9,0.8c-0.7,0.2-1.5,0.4-2.3,0.5c-0.8,0.1-1.7,0.2-2.7,0.2c-1.8,0-3.5-0.3-5-0.8
		c-1.5-0.5-2.8-1.4-3.9-2.5c-1.1-1.1-1.9-2.4-2.6-4c-0.6-1.7-0.9-3.6-0.9-5.8c0-2.1,0.3-3.9,0.9-5.5c0.6-1.7,1.4-3.1,2.5-4.2
		c1.1-1.1,2.4-1.9,3.9-2.5c1.5-0.6,3.2-0.8,5.1-0.8c1.3,0,2.7,0.2,4.1,0.5c1.3,0.3,2.8,0.9,4.5,1.7v4H132.4z M116.1,371.5
		c-0.6-1.6-0.9-3.5-0.9-5.5s0.3-3.9,0.8-5.5c0.6-1.6,1.4-3,2.4-4.2c1-1.1,2.2-2,3.7-2.5c1.5-0.6,3.1-0.9,4.8-0.9
		c1.8,0,3.5,0.3,4.9,0.9c1.4,0.6,2.6,1.4,3.6,2.5c1,1.1,1.8,2.5,2.4,4.1c0.5,1.6,0.8,3.5,0.8,5.6c0,2.1-0.3,3.9-0.9,5.6
		c-0.6,1.6-1.4,3-2.4,4.1c-1,1.1-2.3,2-3.6,2.5c-1.4,0.6-3.1,0.9-4.9,0.9c-1.8,0-3.4-0.3-4.8-0.9c-1.5-0.6-2.7-1.5-3.8-2.5
		C117.5,374.5,116.7,373.1,116.1,371.5z M118.8,366c0,3.3,0.8,5.8,2.3,7.6c1.5,1.8,3.5,2.7,6,2.7c2.5,0,4.5-0.9,6-2.7
		c1.5-1.8,2.2-4.3,2.2-7.6s-0.7-5.8-2.2-7.6c-1.5-1.8-3.5-2.6-6-2.6c-2.6,0-4.6,0.9-6,2.6S118.8,362.7,118.8,366z M160,353.3h3.4
		v25.3H160v-12.3h-12.6v12.3H144v-25.3h3.4v9.9H160V353.3z M265.9,355.7c-2.6,0-4.6,0.9-6,2.6s-2.2,4.3-2.2,7.6s0.8,5.8,2.3,7.6
		c1.5,1.8,3.5,2.7,6,2.7c2.5,0,4.5-0.9,6-2.7c1.5-1.8,2.2-4.3,2.2-7.6s-0.7-5.8-2.2-7.6S268.4,355.7,265.9,355.7z M274.4,356.2
		c1,1.1,1.8,2.5,2.4,4.1c0.5,1.6,0.8,3.5,0.8,5.6c0,2.1-0.3,3.9-0.8,5.6c-0.6,1.6-1.3,3-2.4,4.1c-1,1.1-2.3,2-3.6,2.5
		c-1.4,0.6-3.1,0.9-4.9,0.9c-1.8,0-3.4-0.3-4.8-0.9c-1.5-0.6-2.7-1.5-3.8-2.5c-1-1.1-1.8-2.5-2.3-4.2c-0.6-1.6-0.9-3.5-0.9-5.5
		s0.3-3.9,0.8-5.5c0.6-1.6,1.4-3,2.4-4.2c1-1.1,2.2-2,3.7-2.5c1.5-0.6,3.1-0.9,4.8-0.9c1.8,0,3.5,0.3,4.9,0.9
		C272.2,354.3,273.4,355.1,274.4,356.2z"/>
	
		<path fill-rule="evenodd" clip-rule="evenodd" fill="none" stroke="#000000" stroke-linecap="round" stroke-linejoin="round" stroke-miterlimit="3" d="
		M267.8,119.6L337,160h0.2l57.4-34.3 M196.6,242l65.2,37.6l5.3,2.9l5.4-2.9l64.5-36.3V160 M125.2,56.9v62l70.4,40.7l71.5-40.1V56.4
		 M125.2,118.9l-71.4,40.6v82.7l71.4,41.2v-0.3l70.4-40.9v-82.6 M65.5,164.5l58.3-32.8 M67,237.2l57.3,33.5 M125.2,283.4v61.7
		 M272.5,345.3v-65.6 M261.9,345.5v-65.9 M184.5,165.6v71.2"/>
</g>
</svg>
