<?xml version="1.0" encoding="utf-8"?>
<!-- Generator: Adobe Illustrator 16.0.0, SVG Export Plug-In . SVG Version: 6.00 Build 0)  -->
<!DOCTYPE svg PUBLIC "-//W3C//DTD SVG 1.1//EN" "http://www.w3.org/Graphics/SVG/1.1/DTD/svg11.dtd">
<svg version="1.1" id="Layer_1" xmlns="http://www.w3.org/2000/svg" xmlns:xlink="http://www.w3.org/1999/xlink" x="0px" y="0px"
	 width="550px" height="400px" viewBox="0 0 550 400" enable-background="new 0 0 550 400" xml:space="preserve">
<g>
	<path fill-rule="evenodd" clip-rule="evenodd" d="M432.3,12c1.2,1.3,2,2.8,2.6,4.6c0.6,1.8,0.9,3.9,0.9,6.1c0,2.3-0.3,4.3-0.9,6.1
		c-0.6,1.8-1.5,3.3-2.6,4.5s-2.5,2.2-4,2.8c-1.6,0.6-3.3,1-5.3,1c-1.9,0-3.7-0.3-5.3-1c-1.6-0.7-3-1.6-4.1-2.8
		c-1.2-1.2-2-2.8-2.6-4.6c-0.6-1.8-0.9-3.8-0.9-6.1c0-2.2,0.3-4.3,0.9-6.1c0.6-1.8,1.4-3.4,2.6-4.6c1.1-1.2,2.5-2.1,4.1-2.7
		c1.6-0.7,3.3-1,5.2-1c2,0,3.8,0.3,5.3,1C429.8,9.9,431.2,10.8,432.3,12z M429.5,14.4c-1.6-1.9-3.8-2.9-6.6-2.9c-2.8,0-5,1-6.6,2.9
		c-1.6,2-2.4,4.7-2.4,8.3c0,3.6,0.8,6.4,2.5,8.3C418,33,420.2,34,423,34c2.7,0,4.9-1,6.6-2.9c1.6-1.9,2.4-4.7,2.4-8.3
		C432,19.1,431.2,16.4,429.5,14.4z M100.9,278.7v3c1.4-1.1,2.6-1.9,3.6-2.4c1-0.5,2.1-0.7,3.2-0.7c0.6,0,1,0,1.4,0
		c0.2,0,0.6,0.1,1.2,0.1v3.6h-0.1c-0.6-0.1-1.1-0.2-1.5-0.3c-0.5,0-1-0.1-1.7-0.1c-1.1,0-2.2,0.3-3.1,0.8c-1,0.4-2,1-2.9,1.8v14.8
		h-3.5v-20.8H100.9z M89.4,275c0.5,0.8,0.7,1.8,0.7,3c0,1.4-0.3,2.5-1,3.4c-0.7,0.9-1.5,1.6-2.6,2.2v0.2c1.8,0.3,3.3,1.1,4.4,2.4
		c1.1,1.3,1.6,2.9,1.6,4.8c0,1.3-0.3,2.5-0.8,3.6c-0.5,1.1-1.2,1.9-2.1,2.6c-1,0.8-2.1,1.4-3.4,1.8c-1.2,0.4-2.8,0.6-4.8,0.6h-9.8
		v-27.7h8.2c2,0,3.5,0.1,4.5,0.2c1,0.1,1.9,0.5,2.9,1C88.2,273.4,88.9,274.1,89.4,275z M84.8,275.6c-0.6-0.3-1.3-0.5-2.1-0.6
		c-0.8-0.1-1.9-0.1-3.1-0.1h-4.4v7.9H80c1.2,0,2.1-0.1,2.8-0.2c0.7-0.1,1.3-0.3,1.9-0.7c0.6-0.4,1-0.9,1.3-1.5
		c0.2-0.6,0.3-1.3,0.3-2.1c0-0.6-0.1-1.2-0.3-1.7C85.7,276.3,85.3,275.9,84.8,275.6z M84.1,286c-0.9,0-1.9,0-3.1,0h-5.8v10.2h4.9
		c1.6,0,2.9,0,3.9-0.2c1-0.2,1.9-0.5,2.6-1c0.7-0.5,1.2-1,1.5-1.6c0.3-0.7,0.5-1.5,0.5-2.5c0-1.1-0.2-2-0.5-2.7
		c-0.3-0.7-0.9-1.2-1.8-1.6C85.7,286.4,84.9,286.2,84.1,286z M272,363.2v4.4h-0.3c-1.5-1.3-3-2.2-4.5-2.8c-1.5-0.6-3.1-0.9-4.9-0.9
		c-1.4,0-2.6,0.3-3.8,0.8c-1.1,0.4-2.1,1.1-3,2.1c-0.8,0.9-1.5,2.1-2,3.5c-0.5,1.4-0.7,3-0.7,4.9c0,1.9,0.3,3.6,0.8,5
		c0.5,1.4,1.2,2.5,2,3.4c0.9,1,1.9,1.7,3,2c1.2,0.5,2.4,0.7,3.7,0.7c1.8,0,3.5-0.3,5-0.9c1.5-0.6,3-1.6,4.3-2.8h0.3v4.3
		c-0.7,0.3-1.3,0.6-1.8,0.8c-0.5,0.3-1.3,0.5-2.2,0.8c-0.8,0.2-1.6,0.5-2.5,0.7c-0.9,0.1-1.8,0.2-2.9,0.2c-2,0-3.8-0.3-5.4-0.9
		c-1.7-0.6-3.1-1.5-4.3-2.6c-1.2-1.2-2.1-2.7-2.8-4.5c-0.6-1.8-1-3.9-1-6.3c0-2.3,0.3-4.3,0.9-6.1c0.7-1.8,1.6-3.3,2.9-4.5
		c1.2-1.2,2.6-2.1,4.3-2.8c1.6-0.6,3.5-0.9,5.6-0.9c1.5,0,2.9,0.2,4.4,0.5C268.6,361.7,270.3,362.3,272,363.2z M281,361.3v10.8h13.8
		v-10.8h3.7V389h-3.7v-13.5H281V389h-3.7v-27.7H281z M314.5,380.3c-0.7,0.7-1.5,1.2-2.5,1.4v0.2c0.4,0.1,0.9,0.2,1.4,0.4
		c0.5,0.2,0.9,0.5,1.3,0.8c0.4,0.3,0.7,0.7,0.9,1.3c0.3,0.5,0.4,1.2,0.4,2c0,0.8-0.2,1.6-0.5,2.3c-0.3,0.7-0.7,1.3-1.3,1.8
		c-0.6,0.6-1.3,1-2,1.3c-0.8,0.3-1.8,0.4-2.8,0.4c-1,0-2-0.1-3-0.4c-1-0.2-1.8-0.5-2.3-0.8v-2.5h0.1c0.7,0.5,1.5,0.9,2.5,1.1
		c0.9,0.3,1.8,0.5,2.7,0.5c0.5,0,1-0.1,1.6-0.3c0.6-0.1,1-0.4,1.4-0.7c0.4-0.4,0.7-0.8,0.8-1.1c0.2-0.4,0.3-1,0.3-1.7
		c0-0.6-0.1-1.2-0.3-1.6c-0.2-0.4-0.5-0.8-0.9-1c-0.3-0.2-0.8-0.4-1.3-0.5c-0.5-0.1-1.1-0.2-1.6-0.2h-1.1v-2h0.9
		c1.2,0,2.2-0.3,2.9-0.8c0.7-0.5,1.1-1.2,1.1-2.2c0-0.4-0.1-0.8-0.3-1.2c-0.2-0.3-0.4-0.6-0.7-0.8c-0.4-0.2-0.8-0.3-1.2-0.5
		c-0.4-0.1-0.8-0.1-1.3-0.1c-0.8,0-1.6,0.1-2.5,0.5c-0.8,0.3-1.7,0.7-2.5,1.2h-0.1v-2.5c0.6-0.3,1.3-0.6,2.3-0.8
		c0.9-0.3,1.9-0.4,2.8-0.4c0.9,0,1.6,0.1,2.3,0.3c0.7,0.1,1.3,0.4,1.9,0.8c0.5,0.4,0.9,0.8,1.3,1.3c0.3,0.6,0.4,1.2,0.4,2
		C315.6,378.8,315.2,379.6,314.5,380.3z"/>
	
		<path fill-rule="evenodd" clip-rule="evenodd" fill="none" stroke="#000000" stroke-linecap="round" stroke-linejoin="round" stroke-miterlimit="3" d="
		M418.1,43.6v72.5l5.6-1.8l5.9,8.4V43.6 M429.5,122.7l48.2,66.3l-55.2,72.5L337.8,235l-79.9,43.9v72 M114.5,271.8l64.6-37.6v-90.3
		l81-47.7l77.6,46l80.3-26.1 M337.8,235v-92.8 M326.3,149.6v78.2 M192.6,149l66.3-38.5 M179.1,234.2l0.4-0.2l77.6,44.7 M192.6,227.8
		l64.1,36.9"/>
</g>
</svg>
