<?xml version="1.0" encoding="utf-8"?>
<!-- Generator: Adobe Illustrator 16.0.0, SVG Export Plug-In . SVG Version: 6.00 Build 0)  -->
<!DOCTYPE svg PUBLIC "-//W3C//DTD SVG 1.1//EN" "http://www.w3.org/Graphics/SVG/1.1/DTD/svg11.dtd">
<svg version="1.1" id="Layer_1" xmlns="http://www.w3.org/2000/svg" xmlns:xlink="http://www.w3.org/1999/xlink" x="0px" y="0px"
	 width="550px" height="400px" viewBox="0 0 550 400" enable-background="new 0 0 550 400" xml:space="preserve">
<path fill-rule="evenodd" clip-rule="evenodd" fill="none" stroke="#000000" stroke-linecap="round" stroke-linejoin="round" stroke-miterlimit="3" d="
	M395.9,93.3l79.3-27.5l50.8,67.1l-52.8,71.2l-77.3-26v-0.3l-73.8,42.4l0.3,0.2v83l-77,42.1l-73.1-41.7l-75.8,43l-72.4-41.6v-87
	l73.9-42l74.6,43.8v-0.5l74.1-41.6v-0.5V92l73.8-42l75.3,43.3H395.9z M395.8,93.3l0.2,0v0 M395.9,177.9V93.3 M34.8,298.5L99,335.8
	 M172.4,303.8l0.3-83.8 M180.4,297.2L248,336 M309.6,228.8v68.5 M322.1,220.3l-75.3-42.9"/>
</svg>
