<?xml version="1.0" encoding="utf-8"?>
<!-- Generator: Adobe Illustrator 16.0.0, SVG Export Plug-In . SVG Version: 6.00 Build 0)  -->
<!DOCTYPE svg PUBLIC "-//W3C//DTD SVG 1.1//EN" "http://www.w3.org/Graphics/SVG/1.1/DTD/svg11.dtd">
<svg version="1.1" id="Layer_1" xmlns="http://www.w3.org/2000/svg" xmlns:xlink="http://www.w3.org/1999/xlink" x="0px" y="0px"
	 width="550px" height="400px" viewBox="0 0 550 400" enable-background="new 0 0 550 400" xml:space="preserve">
<path fill-rule="evenodd" clip-rule="evenodd" fill="none" stroke="#000000" stroke-linecap="round" stroke-linejoin="round" stroke-miterlimit="3" d="
	M519.1,146.1l-82.3-48l-0.4-0.2v95.8l1.1-0.6l81.7,49.6 M484.8,15.9l-48.1,82.3 M436.3,98l-80.4-46.8L273,98.1v93.4l0.8,0.7
	l81.2,47.5l0.3,0.3l81.1-46.1 M355,239.7v0.3l0.3-0.1 M273.8,192.2l-0.8,0.4l-80.5,46.6v0.8v94.6v0.4l81.8,47l80.7-47v-95
	 M344.5,247.6v80.3 M273,191.5v1.1 M285,104.4v84.9 M191,240l0.7-0.5l-79.9-46.9l-83.4,48.1v93.8l82.2,47.5l81.7-47.2l0.3-0.3
	 M38.8,327.1l73,41.6 M192.5,239.2l-0.8,0.3l0.8,0.5 M192.2,334.8l0.3,0.1 M205.8,329.2l67.9,38.8"/>
</svg>
