<?xml version="1.0" encoding="utf-8"?>
<!-- Generator: Adobe Illustrator 16.0.0, SVG Export Plug-In . SVG Version: 6.00 Build 0)  -->
<!DOCTYPE svg PUBLIC "-//W3C//DTD SVG 1.1//EN" "http://www.w3.org/Graphics/SVG/1.1/DTD/svg11.dtd">
<svg version="1.1" id="Layer_1" xmlns="http://www.w3.org/2000/svg" xmlns:xlink="http://www.w3.org/1999/xlink" x="0px" y="0px"
	 width="550px" height="400px" viewBox="0 0 550 400" enable-background="new 0 0 550 400" xml:space="preserve">
<g>
	<path fill-rule="evenodd" clip-rule="evenodd" d="M339.5,24.7c0.8,0.2,1.6,0.5,2.3,0.9c0.7,0.4,1.3,0.9,1.7,1.5
		c0.4,0.6,0.5,1.3,0.5,2.1c0,1.1-0.5,2.1-1.3,3c-0.9,0.8-1.9,1.4-3.2,1.6V34c0.5,0.1,1.1,0.2,1.7,0.5c0.6,0.3,1.1,0.6,1.6,0.9
		c0.5,0.4,0.9,0.9,1.2,1.4c0.3,0.6,0.5,1.4,0.5,2.4c0,0.9-0.2,1.7-0.6,2.5c-0.4,0.8-0.9,1.4-1.5,2c-0.8,0.6-1.7,1.1-2.8,1.4
		c-1,0.3-2.2,0.5-3.4,0.5c-1.3,0-2.5-0.1-3.8-0.4c-1.2-0.3-2.2-0.6-3-0.9v-2.9h0.3c0.9,0.5,1.9,0.9,3.1,1.3c1.1,0.3,2.3,0.5,3.4,0.5
		c0.6,0,1.3-0.1,2-0.3c0.7-0.2,1.3-0.5,1.7-0.9c0.5-0.4,0.9-0.8,1.1-1.3c0.2-0.5,0.4-1.1,0.4-1.9c0-0.7-0.1-1.3-0.4-1.8
		c-0.3-0.5-0.6-0.9-1.1-1.1c-0.4-0.3-1-0.5-1.7-0.6c-0.7-0.1-1.4-0.2-2.1-0.2h-1.5V33h1.1c1.6,0,2.8-0.3,3.8-0.9
		c0.9-0.6,1.4-1.4,1.4-2.5c0-0.5-0.1-0.9-0.3-1.3c-0.2-0.4-0.6-0.7-1-0.9c-0.5-0.2-0.9-0.4-1.4-0.5c-0.5-0.1-1.1-0.1-1.7-0.1
		c-1,0-2,0.1-3.2,0.4c-1.1,0.3-2.1,0.8-3.1,1.3h-0.2v-2.8c0.7-0.3,1.7-0.6,3-0.9c1.2-0.3,2.4-0.4,3.5-0.4
		C337.7,24.5,338.7,24.5,339.5,24.7z M339.5,370.7c0.8,0.2,1.6,0.5,2.3,0.9c0.7,0.4,1.3,1,1.7,1.6c0.4,0.6,0.5,1.3,0.5,2.1
		c0,1.1-0.5,2.1-1.3,3c-0.9,0.8-1.9,1.4-3.2,1.5v0.2c0.5,0.1,1.1,0.2,1.7,0.5c0.6,0.2,1.1,0.5,1.6,0.9c0.5,0.4,0.9,0.8,1.2,1.4
		c0.3,0.6,0.5,1.4,0.5,2.3c0,0.9-0.2,1.7-0.6,2.5c-0.4,0.8-0.9,1.5-1.5,2.1c-0.8,0.6-1.7,1.1-2.8,1.4c-1,0.3-2.2,0.5-3.4,0.5
		c-1.3,0-2.5-0.1-3.8-0.3c-1.2-0.3-2.2-0.6-3-0.9v-2.8h0.3c0.9,0.5,1.9,0.9,3.1,1.3c1.1,0.3,2.3,0.5,3.4,0.5c0.6,0,1.3-0.1,2-0.3
		c0.7-0.2,1.3-0.5,1.7-0.9c0.5-0.4,0.9-0.9,1.1-1.3c0.2-0.5,0.4-1.1,0.4-1.8s-0.1-1.3-0.4-1.8c-0.3-0.5-0.6-0.9-1.1-1.1
		c-0.4-0.3-1-0.4-1.7-0.5c-0.7-0.2-1.4-0.3-2.1-0.3h-1.5V379h1.1c1.6,0,2.8-0.3,3.8-0.9c0.9-0.5,1.4-1.4,1.4-2.5
		c0-0.5-0.1-0.9-0.3-1.3c-0.2-0.4-0.6-0.7-1-0.9c-0.5-0.2-0.9-0.4-1.4-0.5c-0.5-0.1-1.1-0.1-1.7-0.1c-1,0-2,0.2-3.2,0.5
		c-1.1,0.3-2.1,0.7-3.1,1.3h-0.2v-2.8c0.7-0.3,1.7-0.6,3-0.8c1.2-0.3,2.4-0.5,3.5-0.5C337.7,370.5,338.7,370.5,339.5,370.7z
		 M322.3,10.8v31.1h-4.8V26.6H300v15.2h-4.7V10.8h4.7V23h17.5V10.8H322.3z M288.7,17.8h-0.4c-2-1.4-3.9-2.5-5.8-3.1
		c-1.9-0.6-4-1-6.1-1c-1.8,0-3.4,0.3-4.8,0.8c-1.4,0.5-2.7,1.3-3.8,2.4c-1.1,1-1.9,2.3-2.5,3.9c-0.6,1.6-1,3.5-1,5.6
		c0,2.2,0.4,4.1,1.1,5.6c0.7,1.6,1.5,2.9,2.6,3.9c1.1,1,2.4,1.8,3.9,2.3c1.4,0.5,3,0.7,4.6,0.7c2.3,0,4.4-0.4,6.3-1.1
		c2-0.6,3.8-1.6,5.5-3h0.4v4.8c-0.9,0.4-1.7,0.7-2.4,0.9c-0.7,0.3-1.6,0.6-2.8,0.9c-1,0.3-2,0.5-3.1,0.8c-1,0.1-2.1,0.2-3.2,0.3
		c-0.2,0-0.4,0-0.5,0c-2.5,0-4.9-0.3-7-1c-2.1-0.6-3.9-1.6-5.5-3c-1.5-1.3-2.7-3-3.5-5c-0.8-2-1.3-4.4-1.3-7.1
		c0-2.6,0.4-4.9,1.2-6.9c0.8-2,2-3.7,3.5-5.1c1.5-1.4,3.3-2.4,5.4-3.1c2.1-0.7,4.5-1,7.1-1c1.9,0,3.8,0.2,5.7,0.6
		c1.9,0.4,3.9,1.1,6.3,2.2V17.8z M282.4,356.8c1.9,0.4,3.9,1.2,6.3,2.2v4.9h-0.4c-2-1.4-3.9-2.5-5.8-3.1c-1.9-0.7-4-1-6.1-1
		c-1.8,0-3.4,0.3-4.8,0.8c-1.4,0.5-2.7,1.3-3.8,2.4c-1.1,1-1.9,2.3-2.5,3.9c-0.6,1.6-1,3.4-1,5.5c0,2.2,0.4,4.1,1.1,5.7
		c0.7,1.6,1.5,2.9,2.6,3.8c1.1,1,2.4,1.8,3.9,2.3c1.4,0.5,3,0.8,4.6,0.8c2.3,0,4.4-0.4,6.3-1.1c2-0.7,3.8-1.7,5.5-3h0.4v4.9
		c-0.9,0.3-1.7,0.6-2.4,0.9c-0.7,0.3-1.6,0.6-2.8,0.9c-1,0.3-2,0.5-3.1,0.8c-1.2,0.2-2.4,0.3-3.8,0.3c-2.5,0-4.9-0.3-7-1
		c-2.1-0.6-3.9-1.6-5.5-3c-1.5-1.3-2.7-3-3.5-5s-1.3-4.4-1.3-7.2c0-2.6,0.4-4.9,1.2-6.9c0.8-2,2-3.7,3.5-5c1.5-1.4,3.3-2.4,5.4-3.1
		c2.1-0.7,4.5-1,7.1-1C278.6,356.3,280.5,356.4,282.4,356.8z M322.3,356.8v31.2h-4.8v-15.3H300v15.3h-4.7v-31.2h4.7V369h17.5v-12.3
		H322.3z"/>
	
		<path fill-rule="evenodd" clip-rule="evenodd" fill="none" stroke="#000000" stroke-linecap="round" stroke-linejoin="round" stroke-miterlimit="3" d="
		M277.3,45.5v68.9L197,156.5v82.6l80.3,40.9v68.2 M209.9,162.5l73.6-37.6 M208.3,232l75.2,40"/>
</g>
</svg>
