<?xml version="1.0" encoding="utf-8"?>
<!-- Generator: Adobe Illustrator 16.0.0, SVG Export Plug-In . SVG Version: 6.00 Build 0)  -->
<!DOCTYPE svg PUBLIC "-//W3C//DTD SVG 1.1//EN" "http://www.w3.org/Graphics/SVG/1.1/DTD/svg11.dtd">
<svg version="1.1" id="Layer_1" xmlns="http://www.w3.org/2000/svg" xmlns:xlink="http://www.w3.org/1999/xlink" x="0px" y="0px"
	 width="550px" height="400px" viewBox="0 0 550 400" enable-background="new 0 0 550 400" xml:space="preserve">
<path fill-rule="evenodd" clip-rule="evenodd" fill="none" stroke="#000000" stroke-linecap="round" stroke-linejoin="round" stroke-miterlimit="3" d="
	M245.8,176v0.3l78.1,44.3v90.6l-77.4,43.8l-78.7-44.3v-0.1L90.9,355l-80-45.6v-88.8l78.4-45.2l78.5,45.7L245.8,176V85.1l78.1-44.9
	l77.4,46.3l86.5-27.7l50.5,71.8l-54.5,72.9l-82.5-26.2v-0.5L325,220.3 M401.3,86.5v90.3 M255.4,92.5l67.9-39 M90.4,340l65.1-36
	 M167.7,221.1v89.4 M178.8,227.3l63.4-37.4"/>
</svg>
