<?xml version="1.0" encoding="utf-8"?>
<!-- Generator: Adobe Illustrator 16.0.0, SVG Export Plug-In . SVG Version: 6.00 Build 0)  -->
<!DOCTYPE svg PUBLIC "-//W3C//DTD SVG 1.1//EN" "http://www.w3.org/Graphics/SVG/1.1/DTD/svg11.dtd">
<svg version="1.1" id="Layer_1" xmlns="http://www.w3.org/2000/svg" xmlns:xlink="http://www.w3.org/1999/xlink" x="0px" y="0px"
	 width="550px" height="400px" viewBox="0 0 550 400" enable-background="new 0 0 550 400" xml:space="preserve">
<g>
	<path fill-rule="evenodd" clip-rule="evenodd" d="M491.1,34.6c0.5,0.9,0.8,2,0.8,3.4c0,1.8-0.5,3.3-1.5,4.5
		c-0.9,1.3-2.2,2.2-3.8,2.9l9.5,11.1h-4.3l-8.6-10.2h-4.8v10.2h-3.4V31h7.1c1.5,0,2.8,0.1,3.8,0.3c1,0.2,2,0.6,2.8,1.1
		C489.8,33,490.6,33.7,491.1,34.6z M486.7,34.8c-0.5-0.3-1.1-0.5-1.8-0.6c-0.7-0.2-1.5-0.3-2.4-0.3h-4v9.6h3.4c1.1,0,2-0.1,2.8-0.3
		c0.8-0.2,1.5-0.5,2-1c0.5-0.5,0.9-1.1,1.2-1.7c0.2-0.7,0.3-1.5,0.3-2.4c0-0.7-0.1-1.3-0.3-1.9C487.7,35.7,487.3,35.2,486.7,34.8z
		 M26.2,345.3c1.9,0,3.3,0,4.2,0.2c0.9,0.1,1.8,0.4,2.6,0.8c0.9,0.5,1.6,1.1,2.1,1.9c0.4,0.8,0.6,1.7,0.6,2.8c0,1.2-0.3,2.2-0.9,3
		c-0.6,0.8-1.5,1.5-2.5,2v0.1c1.7,0.4,3.1,1.1,4.1,2.3c1,1.1,1.5,2.6,1.5,4.3c0,1.3-0.2,2.4-0.6,3.4c-0.5,1-1.2,1.8-2,2.4
		c-0.9,0.7-2,1.3-3.1,1.6c-1.2,0.3-2.6,0.5-4.4,0.5h-9v-25.4H26.2z M30.9,348.8c-0.5-0.3-1.2-0.5-2-0.6c-0.7-0.1-1.7-0.1-2.8-0.1h-4
		v7.3h4.4c1,0,1.9,0,2.5-0.1c0.6-0.1,1.2-0.3,1.8-0.7c0.5-0.3,0.9-0.8,1.1-1.4c0.2-0.5,0.4-1.2,0.4-1.9c0-0.6-0.1-1.1-0.4-1.6
		C31.7,349.5,31.4,349.1,30.9,348.8z M22.1,358.3v9.5h4.4c1.5,0,2.7-0.1,3.6-0.3c1-0.1,1.8-0.4,2.4-0.8c0.6-0.4,1.1-0.9,1.4-1.5
		c0.3-0.6,0.5-1.3,0.5-2.2c0-1-0.1-1.8-0.5-2.5c-0.3-0.6-0.9-1.1-1.7-1.5c-0.5-0.3-1.2-0.5-2-0.5c-0.8-0.1-1.7-0.1-2.8-0.1H22.1z
		 M54.3,355.1h-0.1c-0.5-0.1-0.9-0.2-1.4-0.2c-0.5-0.1-1-0.1-1.6-0.1c-1,0-1.9,0.2-2.9,0.7c-0.9,0.4-1.8,1-2.6,1.7v13.5h-3.2v-19.1
		h3.2v2.9c1.3-1,2.4-1.8,3.4-2.2s2-0.7,3-0.7c0.6,0,1,0,1.2,0.1c0.3,0,0.6,0.1,1.1,0.2V355.1z"/>
	
		<path fill-rule="evenodd" clip-rule="evenodd" fill="none" stroke="#000000" stroke-linecap="round" stroke-linejoin="round" stroke-miterlimit="3" d="
		M484.5,118.1l-66.8,20.8l-0.5-0.3v72v0.7l67,21.3l41.9-57.8l-41-56.9L484.5,118.1z M484.5,59v59.1 M417.3,61.9v76.7l-62-33.5
		l-61.2,33.4v72.3l-61.9,34.9l29.9,17.4 M417.3,210.6l-0.8,0.4l0.8,0.3 M416.5,211L355,246.5l-0.4-0.3v72.3l-62,34l-59.7-35.2
		l-1.6,0.9l-62,33.8l-1.3,0.5 M231.3,318.3V245l-60.8-35.6l-63,37.6v71l1-0.6l60.7,34.6 M55.5,347.5l52-29.5 M232.2,245.5l-1-0.5
		v-78.4 M232.9,317.3l-1-0.6 M241.5,312.6l50.8,29.4 M118.2,312.2l50.4,29.3 M354.6,246.2l-59.4-35.3"/>
</g>
</svg>
