<?xml version="1.0" encoding="utf-8"?>
<!-- Generator: Adobe Illustrator 16.0.0, SVG Export Plug-In . SVG Version: 6.00 Build 0)  -->
<!DOCTYPE svg PUBLIC "-//W3C//DTD SVG 1.1//EN" "http://www.w3.org/Graphics/SVG/1.1/DTD/svg11.dtd">
<svg version="1.1" id="Layer_1" xmlns="http://www.w3.org/2000/svg" xmlns:xlink="http://www.w3.org/1999/xlink" x="0px" y="0px"
	 width="550px" height="400px" viewBox="0 0 550 400" enable-background="new 0 0 550 400" xml:space="preserve">
<g>
	<path fill-rule="evenodd" clip-rule="evenodd" d="M91,339.1c0,2.3-0.3,4.3-1,6.1c-0.6,1.8-1.5,3.3-2.7,4.5
		c-1.2,1.2-2.6,2.2-4.2,2.8c-1.6,0.6-3.5,0.9-5.6,0.9c-2,0-3.9-0.3-5.5-0.9c-1.7-0.7-3.1-1.6-4.3-2.8c-1.2-1.2-2.1-2.7-2.7-4.5
		c-0.6-1.8-0.9-3.8-0.9-6.1c0-2.2,0.3-4.2,0.9-6c0.6-1.8,1.5-3.3,2.7-4.6c1.1-1.2,2.5-2.1,4.2-2.8c1.7-0.6,3.5-0.9,5.5-0.9
		c2.1,0,3.9,0.3,5.6,1c1.6,0.6,3.1,1.5,4.2,2.7c1.2,1.2,2.1,2.8,2.7,4.6C90.7,334.8,91,336.8,91,339.1z M84.5,330.8
		c-1.7-1.9-4-2.9-6.9-2.9c-2.9,0-5.2,1-6.9,2.9c-1.7,1.9-2.5,4.7-2.5,8.3c0,3.6,0.9,6.4,2.6,8.3c1.7,1.9,4,2.9,6.9,2.9
		c2.9,0,5.2-1,6.9-2.9c1.7-1.9,2.6-4.7,2.6-8.3C87,335.5,86.2,332.8,84.5,330.8z M57,335.4c-1.2-0.5-2.3-0.7-3.5-0.7
		c-2.1,0-3.7,0.7-4.9,2c-1.2,1.3-1.8,3.3-1.8,5.9c0,2.5,0.6,4.4,1.8,5.8c1.2,1.3,2.8,2,4.9,2c0.7,0,1.5-0.1,2.2-0.3
		c0.8-0.2,1.5-0.4,2.1-0.7c0.5-0.3,1-0.5,1.5-0.8c0.5-0.3,0.8-0.5,1.1-0.8h0.2v3.8c-1.2,0.6-2.4,1-3.5,1.3c-1.1,0.3-2.3,0.4-3.5,0.4
		c-1.6,0-3-0.2-4.3-0.6c-1.3-0.5-2.4-1.2-3.3-2c-1-0.9-1.7-2-2.2-3.4c-0.5-1.4-0.8-2.9-0.8-4.7c0-3.4,1-6.1,3-8
		c1.9-1.9,4.5-2.9,7.7-2.9c1.2,0,2.5,0.2,3.7,0.5c1.2,0.3,2.3,0.8,3.3,1.3v3.8h-0.2C59.4,336.5,58.2,335.9,57,335.4z M22.2,342.1
		h10.1l-5-13.5L22.2,342.1z M30,325.3l10.6,27.6h-4.1l-2.9-7.7H21l-2.8,7.7h-3.9l10.6-27.6H30z"/>
	
		<path fill-rule="evenodd" clip-rule="evenodd" fill="none" stroke="#000000" stroke-linecap="round" stroke-linejoin="round" stroke-miterlimit="3" d="
		M306.2,124.9v87.2l0.5,0.2l74.8-42.2l0.7-0.4V86.4l76.5-41.5l75,42.1v82.3L459,210.2v0.7v81.9l-76,42.7l-76.8-41.2v-0.6l-75.5,41.2
		l-75.2-39.1l-1.3-0.7l-60.7,33.3 M381.6,170l0.7,0.3v-0.7 M459,210.2l-0.7,0.3l0.7,0.4 M458.3,210.5l-76.1-40.2 M155.5,295.8v-1.4
		l-1.3,0.7 M155.5,294.4v-84.9l73.7-39.9l77,42.5v81.6 M165.7,218.2v70.6 M383.6,324.8l63.9-36.6 M232.1,323.5l64.5-34.7"/>
</g>
</svg>
