<?xml version="1.0" encoding="utf-8"?>
<!-- Generator: Adobe Illustrator 16.0.0, SVG Export Plug-In . SVG Version: 6.00 Build 0)  -->
<!DOCTYPE svg PUBLIC "-//W3C//DTD SVG 1.1//EN" "http://www.w3.org/Graphics/SVG/1.1/DTD/svg11.dtd">
<svg version="1.1" id="Layer_1" xmlns="http://www.w3.org/2000/svg" xmlns:xlink="http://www.w3.org/1999/xlink" x="0px" y="0px"
	 width="550px" height="400px" viewBox="0 0 550 400" enable-background="new 0 0 550 400" xml:space="preserve">
<g>
	<path fill-rule="evenodd" clip-rule="evenodd" d="M453,338.3c-1.3,1.7-2,4-2,7.1s0.7,5.4,2.1,7c1.4,1.6,3.2,2.5,5.5,2.5
		c2.3,0,4.2-0.8,5.6-2.5c1.4-1.6,2-4,2-7s-0.7-5.4-2-7.1c-1.4-1.7-3.2-2.5-5.6-2.5C456.3,335.8,454.4,336.7,453,338.3z M448.5,340.3
		c0.5-1.5,1.2-2.8,2.2-3.9c0.9-1,2.1-1.8,3.5-2.4c1.3-0.5,2.8-0.8,4.5-0.8c1.7,0,3.2,0.3,4.5,0.8c1.3,0.5,2.5,1.3,3.4,2.3
		c1,1.1,1.7,2.4,2.3,3.9c0.5,1.5,0.7,3.3,0.7,5.3c0,1.9-0.3,3.6-0.8,5.1c-0.5,1.5-1.3,2.8-2.2,3.9c-1,1.1-2.1,1.9-3.5,2.4
		c-1.3,0.5-2.8,0.8-4.5,0.8c-1.7,0-3.2-0.3-4.5-0.8c-1.3-0.6-2.5-1.4-3.4-2.4c-0.9-1.1-1.7-2.4-2.2-3.9c-0.5-1.5-0.8-3.2-0.8-5.1
		S448,341.8,448.5,340.3z M35.5,257.7c0.5,1.5,0.7,3.3,0.7,5.3c0,1.9-0.3,3.6-0.8,5.1c-0.5,1.6-1.3,2.9-2.2,3.9
		c-1,1-2.1,1.8-3.4,2.3c-1.3,0.5-2.8,0.8-4.5,0.8c-1.7,0-3.2-0.3-4.5-0.8c-1.4-0.6-2.5-1.3-3.5-2.3c-0.9-1.1-1.7-2.4-2.2-3.9
		c-0.5-1.5-0.8-3.2-0.8-5.1c0-1.9,0.3-3.7,0.8-5.2c0.5-1.5,1.2-2.8,2.2-3.9c0.9-1,2.1-1.8,3.5-2.3c1.3-0.6,2.8-0.9,4.5-0.9
		c1.7,0,3.2,0.3,4.5,0.9c1.3,0.5,2.5,1.3,3.4,2.3C34.3,254.9,35,256.2,35.5,257.7z M33,262.9c0-3.1-0.7-5.4-2-7.1
		c-1.3-1.7-3.2-2.5-5.6-2.5s-4.3,0.9-5.6,2.5c-1.4,1.6-2,4-2,7.1c0,3.1,0.7,5.4,2.1,7c1.4,1.6,3.3,2.5,5.6,2.5
		c2.3,0,4.2-0.8,5.6-2.5C32.3,268.3,33,266,33,262.9z"/>
	
		<path fill-rule="evenodd" clip-rule="evenodd" fill="none" stroke="#000000" stroke-linecap="round" stroke-linejoin="round" stroke-miterlimit="3" d="
		M242.6,41.9V130L314,90.3l72.9,41.9V215l66.3,39.7l5.4,3.2l5.5-3.2l68.6-39.8 M453.2,254.7V325 M464.1,254.7V325 M168.7,91.3
		L97.8,132v83.5l5.9,3.4l66.3,38l0.3,0.3h0.2l0.1,0l72-41.8V130L168.7,91.3z M41.8,253.5l62-34.6 M36,244.1l61.3-33.9 M243.3,215.8
		l70.5,40.8l73.1-41.5 M170,244.7l62.7-35.6 M170.5,257.2v85.8"/>
</g>
</svg>
