<?xml version="1.0" encoding="utf-8"?>
<!-- Generator: Adobe Illustrator 16.0.0, SVG Export Plug-In . SVG Version: 6.00 Build 0)  -->
<!DOCTYPE svg PUBLIC "-//W3C//DTD SVG 1.1//EN" "http://www.w3.org/Graphics/SVG/1.1/DTD/svg11.dtd">
<svg version="1.1" id="Layer_1" xmlns="http://www.w3.org/2000/svg" xmlns:xlink="http://www.w3.org/1999/xlink" x="0px" y="0px"
	 width="550px" height="400px" viewBox="0 0 550 400" enable-background="new 0 0 550 400" xml:space="preserve">
<g>
	<path fill-rule="evenodd" clip-rule="evenodd" d="M381.2,83.3c1.6,0,3,0.3,4.3,0.8c1.3,0.5,2.4,1.3,3.3,2.3c0.9,1,1.6,2.2,2.1,3.7
		c0.5,1.4,0.8,3.1,0.8,5c0,1.8-0.3,3.5-0.8,5c-0.5,1.4-1.2,2.6-2.1,3.6c-0.9,1-2,1.8-3.3,2.3s-2.7,0.8-4.3,0.8c-1.6,0-3-0.3-4.2-0.8
		c-1.3-0.5-2.4-1.3-3.3-2.3c-0.9-1-1.6-2.2-2.1-3.6c-0.5-1.5-0.8-3.1-0.8-5s0.3-3.5,0.8-4.9c0.5-1.5,1.2-2.7,2.1-3.8
		c0.9-1,2-1.7,3.3-2.3C378.3,83.6,379.7,83.3,381.2,83.3z M375.9,88.3c-1.3,1.6-1.9,3.8-1.9,6.8s0.6,5.2,1.9,6.8
		c1.3,1.5,3.1,2.3,5.3,2.3s4-0.8,5.3-2.3c1.3-1.6,2-3.8,2-6.8s-0.7-5.2-2-6.8c-1.3-1.6-3-2.4-5.3-2.4S377.2,86.7,375.9,88.3z"/>
	
		<path fill-rule="evenodd" clip-rule="evenodd" fill="none" stroke="#000000" stroke-linecap="round" stroke-linejoin="round" stroke-miterlimit="3" d="
		M162.9,386.2l67-40.1l5.9-3.5v-82.6l-1-0.6l-71.9-40.2V134l72.9-44V9.5 M173.7,140.5l60.3-37.4 M362.3,96.5l-60.1,34.3l5,3v4.9
		l61.3-34.2 M236.6,90.4l65.6,40.4 M307.2,138.7v80l-71.5,40.2v1 M235.7,258.9l-1,0.4 M235.7,342.5l3.8-2.3l-0.5-0.4 M314.2,383.5
		l-74.7-43.3 M306.7,391.5L229.9,346"/>
</g>
</svg>
