<?xml version="1.0" encoding="utf-8"?>
<!-- Generator: Adobe Illustrator 16.0.0, SVG Export Plug-In . SVG Version: 6.00 Build 0)  -->
<!DOCTYPE svg PUBLIC "-//W3C//DTD SVG 1.1//EN" "http://www.w3.org/Graphics/SVG/1.1/DTD/svg11.dtd">
<svg version="1.1" id="Layer_1" xmlns="http://www.w3.org/2000/svg" xmlns:xlink="http://www.w3.org/1999/xlink" x="0px" y="0px"
	 width="550px" height="400px" viewBox="0 0 550 400" enable-background="new 0 0 550 400" xml:space="preserve">
<g>
	<path fill-rule="evenodd" clip-rule="evenodd" d="M42.7,334.2c0-3-0.7-5.3-2.1-6.9c-1.3-1.6-3.2-2.5-5.5-2.5
		c-2.3,0-4.2,0.8-5.5,2.5c-1.3,1.6-2,3.9-2,6.9c0,3,0.7,5.4,2,7c1.4,1.6,3.2,2.4,5.5,2.4c2.3,0,4.1-0.8,5.5-2.4
		C42,339.5,42.7,337.2,42.7,334.2z M43,343c-0.9,1-2.1,1.8-3.4,2.4c-1.3,0.5-2.8,0.8-4.5,0.8c-1.6,0-3.1-0.3-4.4-0.9
		c-1.3-0.5-2.5-1.3-3.4-2.3c-0.9-1-1.6-2.3-2.1-3.8c-0.5-1.5-0.8-3.2-0.8-5.1c0-1.9,0.3-3.6,0.8-5.1c0.5-1.5,1.2-2.8,2.1-3.8
		c0.9-1,2-1.8,3.4-2.3c1.3-0.5,2.8-0.8,4.4-0.8c1.7,0,3.1,0.3,4.5,0.8c1.3,0.5,2.4,1.3,3.4,2.3c0.9,1,1.7,2.3,2.2,3.8
		c0.5,1.5,0.8,3.2,0.8,5.1c0,1.9-0.3,3.6-0.8,5.1C44.6,340.8,43.9,342,43,343z"/>
	
		<path fill-rule="evenodd" clip-rule="evenodd" fill="none" stroke="#000000" stroke-linecap="round" stroke-linejoin="round" stroke-miterlimit="3" d="
		M453,88.3l-69-38.7l-69.6,40.6v79.5h0.1l70.6,38.9h0.1l68.4-37.5V171V88.5l79.6-42.8 M385.2,208.6l0.1,0.1v-0.1 M314.5,169.7
		L314.5,169.7l-68,38v81.5h-0.1l67.3,40.3l71.5-38.7v-82.1 M453.7,171l79.6,44 M314.5,169.7L314.5,169.7 M246.5,207.7v-0.6l-70.4-38
		l-69.3,40.5v73.6v7l5.3,3.2l61.6,36.6l72.7-40.8 M56.5,323.8l55.6-30.4 M51.1,315.6l55.7-32.4 M176.2,317l56.4-31.8 M246.5,207.1
		v-77.6 M315.5,316.5l59.8-32"/>
</g>
</svg>
