<?xml version="1.0" encoding="utf-8"?>
<!-- Generator: Adobe Illustrator 16.0.0, SVG Export Plug-In . SVG Version: 6.00 Build 0)  -->
<!DOCTYPE svg PUBLIC "-//W3C//DTD SVG 1.1//EN" "http://www.w3.org/Graphics/SVG/1.1/DTD/svg11.dtd">
<svg version="1.1" id="Layer_1" xmlns="http://www.w3.org/2000/svg" xmlns:xlink="http://www.w3.org/1999/xlink" x="0px" y="0px"
	 width="550px" height="400px" viewBox="0 0 550 400" enable-background="new 0 0 550 400" xml:space="preserve">
<g>
	<path fill-rule="evenodd" clip-rule="evenodd" d="M308.7,353.7c1.8,0,3.4,0.3,4.8,0.9c1.4,0.6,2.7,1.4,3.7,2.5
		c1,1.1,1.8,2.5,2.3,4.1c0.5,1.6,0.8,3.5,0.8,5.5c0,2.1-0.3,3.9-0.8,5.5c-0.5,1.6-1.3,3-2.3,4c-1,1.1-2.3,2-3.7,2.5
		c-1.4,0.6-3,0.9-4.8,0.9c-1.8,0-3.4-0.3-4.8-0.9c-1.4-0.6-2.7-1.4-3.7-2.5c-1-1.1-1.8-2.5-2.3-4c-0.5-1.6-0.8-3.5-0.8-5.5
		c0-2,0.3-3.9,0.8-5.5c0.5-1.6,1.3-3,2.3-4.2c1-1.1,2.2-1.9,3.7-2.5C305.4,354,307,353.7,308.7,353.7z M314.7,359.2
		c-1.5-1.8-3.5-2.7-6-2.7c-2.5,0-4.5,0.9-6,2.7c-1.4,1.8-2.2,4.3-2.2,7.5c0,3.3,0.7,5.8,2.2,7.5s3.5,2.6,6,2.6c2.5,0,4.5-0.9,6-2.6
		c1.5-1.7,2.2-4.3,2.2-7.5C316.8,363.5,316.1,361,314.7,359.2z"/>
	
		<path fill-rule="evenodd" clip-rule="evenodd" fill="none" stroke="#000000" stroke-linecap="round" stroke-linejoin="round" stroke-miterlimit="3" d="
		M384.5,148.1l-74.1-41.5v0.1l-73.6,40.8l-0.4,0.3v87.9l67.6,37.3l6.3,3.4l5.4-3.2l68.8-39.1v-85.7V148.1z M460.7,106.1l-76.1,42.3
		 M236.9,147.5l-0.4-0.1v0.4 M310.5,20.9v85.8 M236.5,147.4L161.9,106l-74.5,41.9v87l74,42.3l75.1-41.5v0 M304.1,272.9v68.8
		 M315.8,273.2v68.5 M98.5,153.7v75 M161.4,265.3l64.5-36.5"/>
</g>
</svg>
