<?xml version="1.0" encoding="utf-8"?>
<!-- Generator: Adobe Illustrator 16.0.0, SVG Export Plug-In . SVG Version: 6.00 Build 0)  -->
<!DOCTYPE svg PUBLIC "-//W3C//DTD SVG 1.1//EN" "http://www.w3.org/Graphics/SVG/1.1/DTD/svg11.dtd">
<svg version="1.1" id="Layer_1" xmlns="http://www.w3.org/2000/svg" xmlns:xlink="http://www.w3.org/1999/xlink" x="0px" y="0px"
	 width="550px" height="400px" viewBox="0 0 550 400" enable-background="new 0 0 550 400" xml:space="preserve">
<g>
	<path fill-rule="evenodd" clip-rule="evenodd" d="M446.4,335.5c-1.5,1.8-2.2,4.3-2.2,7.5c0,3.3,0.8,5.8,2.3,7.6
		c1.5,1.8,3.5,2.6,6,2.6c2.5,0,4.5-0.9,6-2.6c1.5-1.7,2.2-4.3,2.2-7.6c0-3.3-0.7-5.8-2.2-7.5c-1.4-1.8-3.4-2.7-6-2.7
		C449.9,332.8,447.9,333.8,446.4,335.5z M452.4,330c1.8,0,3.4,0.3,4.8,0.9c1.5,0.6,2.7,1.5,3.7,2.6c1,1.1,1.8,2.5,2.3,4.1
		c0.5,1.6,0.8,3.5,0.8,5.5c0,2.1-0.3,3.9-0.8,5.6c-0.5,1.7-1.3,3-2.3,4.1c-1,1.2-2.3,2-3.7,2.6c-1.4,0.6-3,0.9-4.8,0.9
		c-1.7,0-3.4-0.3-4.9-0.9c-1.4-0.6-2.6-1.4-3.6-2.5c-1-1.1-1.8-2.5-2.4-4.1c-0.6-1.6-0.8-3.5-0.8-5.6c0-2,0.3-3.9,0.8-5.5
		c0.5-1.6,1.3-3,2.4-4.1c1-1.1,2.2-2,3.7-2.6C449.1,330.3,450.7,330,452.4,330z M39.6,253.5c1,1.1,1.8,2.5,2.4,4.2
		c0.5,1.6,0.8,3.5,0.8,5.5c0,2-0.3,3.9-0.9,5.5c-0.5,1.7-1.3,3-2.3,4.1c-1.1,1.2-2.3,2-3.7,2.6c-1.4,0.6-3,0.8-4.9,0.8
		c-1.8,0-3.4-0.3-4.8-0.9c-1.4-0.6-2.7-1.5-3.7-2.5c-1-1.1-1.8-2.5-2.4-4.1c-0.5-1.6-0.8-3.5-0.8-5.5s0.3-3.9,0.8-5.5
		c0.6-1.6,1.4-3,2.4-4.2c1-1.1,2.2-2,3.7-2.5c1.4-0.6,3-0.9,4.8-0.9c1.8,0,3.4,0.3,4.9,0.9C37.4,251.6,38.6,252.4,39.6,253.5z
		 M31,253c-2.5,0-4.5,0.9-6,2.7c-1.5,1.8-2.2,4.3-2.2,7.5c0,3.3,0.8,5.8,2.3,7.5c1.5,1.8,3.4,2.7,5.9,2.7c2.5,0,4.5-0.9,6-2.7
		c1.5-1.7,2.2-4.3,2.2-7.5c0-3.3-0.7-5.8-2.2-7.5C35.6,253.9,33.6,253,31,253z"/>
	
		<path fill-rule="evenodd" clip-rule="evenodd" fill="none" stroke="#000000" stroke-linecap="round" stroke-linejoin="round" stroke-miterlimit="3" d="
		M242.9,47v88.2l68.3-40.1l70.2,41.4v80.1l66.3,37.7l5.4,3l5.9-3.5l68.4-41.6 M381.3,216.7v0.4l-68.4,41.3l-70-41v0.3L173.6,257v0.3
		v93.9 M447.3,320l0.3-65.7 M458.9,253.8l0.3,66.3 M242.9,217.3v-82.1l-70.7-38.5L101.6,135v76.5v6l5.3,2.8l66.7,37 M101.6,211.5
		l-53.8,31 M106.9,220.3L52.8,252 M112,141.8l60.6-33.4"/>
</g>
</svg>
