<?xml version="1.0" encoding="utf-8"?>
<!-- Generator: Adobe Illustrator 16.0.0, SVG Export Plug-In . SVG Version: 6.00 Build 0)  -->
<!DOCTYPE svg PUBLIC "-//W3C//DTD SVG 1.1//EN" "http://www.w3.org/Graphics/SVG/1.1/DTD/svg11.dtd">
<svg version="1.1" id="Layer_1" xmlns="http://www.w3.org/2000/svg" xmlns:xlink="http://www.w3.org/1999/xlink" x="0px" y="0px"
	 width="550px" height="400px" viewBox="0 0 550 400" enable-background="new 0 0 550 400" xml:space="preserve">
<g>
	<path fill-rule="evenodd" clip-rule="evenodd" d="M37.8,320.6c1.1,1.2,1.9,2.6,2.5,4.4c0.6,1.7,0.9,3.7,0.9,5.8
		c0,2.2-0.3,4.1-0.9,5.9c-0.6,1.7-1.4,3.1-2.5,4.3c-1.1,1.2-2.3,2-3.8,2.6c-1.5,0.6-3.2,1-5.1,1c-1.8,0-3.5-0.3-5-1
		c-1.5-0.6-2.8-1.5-3.9-2.6c-1.1-1.2-1.9-2.7-2.5-4.4c-0.6-1.7-0.9-3.6-0.9-5.8c0-2.2,0.3-4.1,0.8-5.8c0.6-1.7,1.4-3.2,2.5-4.4
		c1-1.2,2.3-2,3.9-2.6c1.5-0.6,3.2-1,5-1c1.9,0,3.6,0.3,5.1,1C35.5,318.6,36.8,319.5,37.8,320.6z M35.2,322.8
		c-1.5-1.9-3.7-2.8-6.4-2.8c-2.6,0-4.7,0.9-6.3,2.8c-1.5,1.9-2.3,4.5-2.3,8s0.8,6.1,2.3,8c1.6,1.8,3.6,2.8,6.3,2.8
		c2.7,0,4.8-0.9,6.3-2.8c1.6-1.9,2.4-4.5,2.4-8S36.7,324.7,35.2,322.8z"/>
	
		<path fill-rule="evenodd" clip-rule="evenodd" fill="none" stroke="#000000" stroke-linecap="round" stroke-linejoin="round" stroke-miterlimit="3" d="
		M353.6,49.3v92l-80.2,44.4v0.9v93.2l-81.4,46l-81.3-47V274l-63.6,36 M354.4,141.7l80.2,46.1l95.6-27.4 M434.6,187.9v90.2
		l-83.3,47.8L274,280 M273.4,186.5l-0.7-0.5l-80.3-45L110.8,185v89 M273.4,185.6l-0.7,0.4 M51,320.6l63.7-38.1 M192.6,311.7
		l67.1-37.7 M123.4,192l71.1-37.7"/>
</g>
</svg>
