<?xml version="1.0" encoding="utf-8"?>
<!-- Generator: Adobe Illustrator 16.0.0, SVG Export Plug-In . SVG Version: 6.00 Build 0)  -->
<!DOCTYPE svg PUBLIC "-//W3C//DTD SVG 1.1//EN" "http://www.w3.org/Graphics/SVG/1.1/DTD/svg11.dtd">
<svg version="1.1" id="Layer_1" xmlns="http://www.w3.org/2000/svg" xmlns:xlink="http://www.w3.org/1999/xlink" x="0px" y="0px"
	 width="550px" height="400px" viewBox="0 0 550 400" enable-background="new 0 0 550 400" xml:space="preserve">
<g>
	<path fill-rule="evenodd" clip-rule="evenodd" d="M328.3,22.1c-2.1-2.6-5-3.9-8.7-3.9c-3.7,0-6.6,1.3-8.7,3.9
		c-2.1,2.6-3.2,6.2-3.2,10.9c0,4.8,1.1,8.4,3.3,11c2.1,2.6,5,3.9,8.6,3.9c3.6,0,6.5-1.3,8.7-3.9c2.1-2.5,3.2-6.2,3.2-11
		C331.5,28.4,330.4,24.7,328.3,22.1z M336.5,33c0,3-0.4,5.7-1.3,8.1c-0.8,2.4-1.9,4.4-3.3,5.9c-1.5,1.7-3.3,2.9-5.4,3.7
		c-2,0.9-4.4,1.3-7,1.3c-2.5,0-4.8-0.4-7-1.3c-2.1-0.8-3.9-2.1-5.3-3.7c-1.5-1.6-2.6-3.5-3.3-5.9c-0.8-2.4-1.2-5.1-1.2-8.1
		c0-3,0.4-5.6,1.1-7.9c0.8-2.4,1.9-4.4,3.5-6.1c1.4-1.6,3.2-2.8,5.4-3.7c2.1-0.8,4.4-1.3,6.9-1.3c2.6,0,5,0.4,7,1.3
		c2.1,0.9,3.8,2.1,5.3,3.6c1.5,1.6,2.6,3.6,3.4,6C336.1,27.4,336.5,30,336.5,33z"/>
	
		<path fill-rule="evenodd" clip-rule="evenodd" fill="none" stroke="#000000" stroke-linecap="round" stroke-linejoin="round" stroke-miterlimit="3" d="
		M117.5,387.5l99.1-62.2V206.2l104.8-60.4l8.2,4.6v-95 M329.6,150.4l99,56.1 M313.7,56v92.6 M231.9,213v105.2 M119.4,147.7
		l95.6,57.9 M217.9,325.3l109.4,62.2"/>
</g>
</svg>
