<?xml version="1.0" encoding="utf-8"?>
<!-- Generator: Adobe Illustrator 16.0.0, SVG Export Plug-In . SVG Version: 6.00 Build 0)  -->
<!DOCTYPE svg PUBLIC "-//W3C//DTD SVG 1.1//EN" "http://www.w3.org/Graphics/SVG/1.1/DTD/svg11.dtd">
<svg version="1.1" id="Layer_1" xmlns="http://www.w3.org/2000/svg" xmlns:xlink="http://www.w3.org/1999/xlink" x="0px" y="0px"
	 width="550px" height="400px" viewBox="0 0 550 400" enable-background="new 0 0 550 400" xml:space="preserve">
<g>
	<path fill-rule="evenodd" clip-rule="evenodd" d="M148.1,22.9c1.4,1.6,2.4,3.5,3.2,5.8c0.8,2.3,1.2,4.8,1.2,7.8
		c0,2.9-0.4,5.5-1.2,7.8c-0.8,2.3-1.8,4.2-3.2,5.7c-1.4,1.6-3.1,2.8-5.1,3.6c-1.9,0.8-4.1,1.2-6.6,1.2c-2.4,0-4.6-0.4-6.5-1.2
		c-2-0.8-3.7-2-5.1-3.6c-1.4-1.5-2.5-3.5-3.2-5.8c-0.8-2.2-1.1-4.8-1.1-7.8c0-2.9,0.4-5.4,1.1-7.7c0.8-2.3,1.9-4.3,3.3-5.9
		c1.3-1.5,3-2.7,5.1-3.5c2-0.8,4.2-1.2,6.5-1.2c2.5,0,4.7,0.4,6.7,1.3C145.1,20.2,146.7,21.4,148.1,22.9z M128.3,47.1
		c2,2.4,4.8,3.6,8.2,3.6c3.4,0,6.1-1.2,8.1-3.6c2-2.5,3-6,3-10.6c0-4.6-1-8.1-3-10.6c-2-2.5-4.7-3.8-8.2-3.8c-3.5,0-6.3,1.3-8.3,3.8
		c-2,2.5-3,6-3,10.6C125.3,41.1,126.3,44.6,128.3,47.1z M91.5,36.9V54h-4.6V18.9h4.6v13.8h17.2V18.9h4.6V54h-4.6V36.9H91.5z
		 M109.5,351.2c-3.5,0-6.3,1.3-8.3,3.8c-2,2.5-2.9,6-2.9,10.5c0,4.6,1,8.2,3,10.7c2,2.4,4.7,3.6,8.2,3.6c3.4,0,6.1-1.2,8.1-3.6
		c2-2.5,3.1-6,3.1-10.7c0-4.6-1-8.1-3-10.5C115.6,352.5,112.9,351.2,109.5,351.2z M109.4,347.2c2.5,0,4.7,0.4,6.7,1.3
		c2,0.8,3.6,2,5,3.5c1.4,1.6,2.4,3.5,3.2,5.8c0.8,2.3,1.1,4.9,1.1,7.8s-0.4,5.5-1.1,7.8s-1.8,4.2-3.2,5.7c-1.4,1.6-3.1,2.8-5,3.6
		c-1.9,0.8-4.1,1.2-6.6,1.2c-2.4,0-4.6-0.4-6.6-1.2c-2-0.8-3.7-2-5-3.6c-1.4-1.5-2.5-3.5-3.2-5.8c-0.8-2.2-1.1-4.8-1.1-7.8
		c0-2.9,0.4-5.4,1.1-7.7c0.8-2.3,1.9-4.3,3.3-5.8c1.3-1.5,3-2.7,5-3.5C104.8,347.6,107,347.2,109.4,347.2z"/>
	
		<path fill-rule="evenodd" clip-rule="evenodd" fill="none" stroke="#000000" stroke-linecap="round" stroke-linejoin="round" stroke-miterlimit="3" d="
		M157.6,54l82,81.1v0.9l136.2-44.2l87,118.3l-86,120.4l-126.3-43.2l-105,62.5 M250.5,287.3l-10.9-3.6v-11.3l-100.5,59.2
		 M239.6,272.4V135.9 M257,148.9l109.3-34.3"/>
</g>
</svg>
