<?xml version="1.0" encoding="utf-8"?>
<!-- Generator: Adobe Illustrator 16.0.0, SVG Export Plug-In . SVG Version: 6.00 Build 0)  -->
<!DOCTYPE svg PUBLIC "-//W3C//DTD SVG 1.1//EN" "http://www.w3.org/Graphics/SVG/1.1/DTD/svg11.dtd">
<svg version="1.1" id="Layer_1" xmlns="http://www.w3.org/2000/svg" xmlns:xlink="http://www.w3.org/1999/xlink" x="0px" y="0px"
	 width="550px" height="400px" viewBox="0 0 550 400" enable-background="new 0 0 550 400" xml:space="preserve">
<g>
	<path fill-rule="evenodd" clip-rule="evenodd" d="M353.7,20.5c1.3,1.5,2.4,3.4,3.1,5.5c0.7,2.2,1.1,4.6,1.1,7.4
		c0,2.8-0.4,5.2-1.1,7.4c-0.8,2.2-1.8,4-3.1,5.5c-1.4,1.5-3,2.6-4.9,3.4c-1.9,0.7-4.1,1.1-6.5,1.1c-2.4,0-4.5-0.4-6.4-1.1
		c-2-0.8-3.6-1.9-5-3.4c-1.3-1.5-2.4-3.3-3.1-5.5c-0.7-2.2-1.1-4.6-1.1-7.4c0-2.7,0.4-5.2,1.1-7.4c0.7-2.2,1.8-4.1,3.2-5.6
		c1.3-1.5,2.9-2.6,4.9-3.4c1.9-0.8,4.1-1.1,6.4-1.1c2.4,0,4.6,0.4,6.5,1.3C350.7,18,352.3,19.1,353.7,20.5z M334.3,23.4
		c-2,2.4-3,5.7-3,10.1c0,4.4,1,7.8,3,10.1c2,2.3,4.7,3.5,8,3.5c3.3,0,6-1.2,8-3.5c2-2.3,3-5.7,3-10.1c0-4.4-1-7.7-3-10.1
		c-1.9-2.4-4.6-3.6-8-3.6S336.2,21,334.3,23.4z M470.3,212.5h18v-14.2h4.8v36.2h-4.8v-17.7h-18v17.7h-4.8v-36.2h4.8V212.5z
		 M452.3,203c-2-0.7-4.1-1.1-6.3-1.1c-1.8,0-3.5,0.3-4.9,0.9c-1.5,0.6-2.8,1.5-4,2.8c-1.1,1.2-2,2.8-2.6,4.6c-0.7,1.8-1,4-1,6.4
		c0,2.6,0.4,4.8,1.1,6.5c0.7,1.8,1.6,3.3,2.7,4.5c1.1,1.2,2.4,2.1,4,2.7c1.5,0.6,3.1,0.8,4.8,0.8c2.3,0,4.5-0.4,6.5-1.3
		c2-0.8,3.9-2,5.7-3.5h0.4v5.7c-0.9,0.4-1.7,0.8-2.5,1.1s-1.7,0.7-2.8,1c-1,0.3-2.1,0.6-3.2,0.9c-1.2,0.2-2.5,0.3-3.9,0.3
		c-2.6,0-5-0.4-7.1-1.1c-2.2-0.7-4-1.9-5.6-3.5c-1.6-1.5-2.8-3.5-3.6-5.8c-0.9-2.4-1.3-5.2-1.3-8.3c0-3,0.4-5.7,1.3-8
		c0.8-2.4,2-4.3,3.6-6c1.5-1.6,3.4-2.8,5.5-3.6c2.2-0.8,4.6-1.3,7.3-1.3c2,0,3.9,0.2,5.8,0.7c2,0.5,4.1,1.3,6.5,2.5v5.7h-0.4
		C456.3,205,454.3,203.7,452.3,203z M515.5,220c0,1.3-0.5,2.5-1.3,3.5c-0.9,0.9-2,1.5-3.3,1.8v0.3c0.5,0.1,1.1,0.3,1.8,0.5
		c0.7,0.3,1.2,0.6,1.6,1c0.5,0.4,0.9,1,1.3,1.7c0.3,0.7,0.5,1.6,0.5,2.6c0,1.1-0.2,2.1-0.6,3c-0.4,0.8-0.9,1.6-1.6,2.3
		c-0.8,0.7-1.7,1.3-2.8,1.6c-1.1,0.4-2.2,0.5-3.5,0.5c-1.3,0-2.6-0.2-3.8-0.5s-2.3-0.6-3.1-1V234h0.3c0.9,0.6,2,1,3.2,1.5
		c1.2,0.4,2.4,0.5,3.5,0.5c0.7,0,1.4-0.1,2.1-0.3c0.8-0.2,1.4-0.5,1.8-1c0.5-0.4,0.9-0.9,1.1-1.5s0.3-1.3,0.3-2.2
		c0-0.8-0.1-1.5-0.4-2.1c-0.3-0.5-0.6-1-1.1-1.3c-0.5-0.3-1.1-0.6-1.7-0.7c-0.7-0.1-1.4-0.2-2.2-0.2H506v-2.6h1.1
		c1.6,0,2.8-0.3,3.8-1c1-0.6,1.4-1.6,1.4-3c0-0.6-0.1-1-0.3-1.5c-0.3-0.4-0.6-0.8-1-1c-0.5-0.3-0.9-0.5-1.4-0.6
		c-0.5-0.1-1.1-0.1-1.8-0.1c-1,0-2,0.2-3.2,0.5c-1.2,0.4-2.2,0.9-3.2,1.5h-0.2v-3.3c0.7-0.4,1.7-0.7,3-1s2.5-0.5,3.6-0.5
		c1.2,0,2.2,0.1,3.1,0.3c0.8,0.2,1.6,0.6,2.3,1.1c0.8,0.5,1.3,1.1,1.7,1.8C515.3,218.2,515.5,219,515.5,220z"/>
	
		<path fill-rule="evenodd" clip-rule="evenodd" fill="none" stroke="#000000" stroke-linecap="round" stroke-linejoin="round" stroke-miterlimit="3" d="
		M334.4,55.5V149l7.8-4.3l7.5,4.4l0.3-93.5 M349.8,149l75.5,45 M334.4,149l-95.2,52.4v0.7v119.2l-103.7,61l-100.8-61V203.7
		L136.9,145l102.4,57 M227.3,215.3v98.8"/>
</g>
</svg>
