<?xml version="1.0" encoding="utf-8"?>
<!-- Generator: Adobe Illustrator 16.0.0, SVG Export Plug-In . SVG Version: 6.00 Build 0)  -->
<!DOCTYPE svg PUBLIC "-//W3C//DTD SVG 1.1//EN" "http://www.w3.org/Graphics/SVG/1.1/DTD/svg11.dtd">
<svg version="1.1" id="Layer_1" xmlns="http://www.w3.org/2000/svg" xmlns:xlink="http://www.w3.org/1999/xlink" x="0px" y="0px"
	 width="550px" height="400px" viewBox="0 0 550 400" enable-background="new 0 0 550 400" xml:space="preserve">
<g>
	<path fill-rule="evenodd" clip-rule="evenodd" d="M405.8,67.1c-1.6,2-2.4,4.9-2.4,8.6c0,3.8,0.8,6.6,2.5,8.6c1.7,2,3.9,3,6.8,3
		c2.8,0,5.1-1,6.8-3c1.7-2,2.5-4.9,2.5-8.6c0-3.7-0.8-6.6-2.5-8.6c-1.7-2-3.9-3-6.8-3C409.8,64.1,407.5,65.1,405.8,67.1z
		 M422.3,64.7c1.1,1.3,2,2.9,2.7,4.7c0.6,1.9,1,4,1,6.3c0,2.4-0.3,4.5-1,6.3c-0.6,1.8-1.5,3.4-2.7,4.7c-1.2,1.3-2.6,2.3-4.2,2.9
		c-1.6,0.6-3.4,1-5.5,1c-2,0-3.8-0.3-5.5-1c-1.6-0.7-3-1.6-4.2-2.9c-1.1-1.3-2-2.8-2.7-4.7c-0.6-1.9-0.9-4-0.9-6.3
		c0-2.3,0.3-4.4,0.9-6.3c0.6-1.8,1.5-3.4,2.7-4.8c1.1-1.3,2.5-2.2,4.2-2.9c1.7-0.7,3.5-1,5.5-1c2.1,0,3.9,0.3,5.5,1
		C419.8,62.5,421.2,63.5,422.3,64.7z"/>
	
		<path fill-rule="evenodd" clip-rule="evenodd" fill="none" stroke="#000000" stroke-linecap="round" stroke-linejoin="round" stroke-miterlimit="3" d="
		M406.3,95.1v83.4l7.7-4.6l93.3,55.2v106.3L413.5,387l-93.8-52.7v-105v-0.9l-93.5-50.7 M422.6,95.7V178 M225.5,68.8L136.1,15
		L41,67.5v107.2l93.6,54.1l90.9-50.8V68.8z M241,170.1l80.6,42.9 M319.8,229.3l86.5-50.9"/>
</g>
</svg>
