<?xml version="1.0" encoding="utf-8"?>
<!-- Generator: Adobe Illustrator 16.0.0, SVG Export Plug-In . SVG Version: 6.00 Build 0)  -->
<!DOCTYPE svg PUBLIC "-//W3C//DTD SVG 1.1//EN" "http://www.w3.org/Graphics/SVG/1.1/DTD/svg11.dtd">
<svg version="1.1" id="Layer_1" xmlns="http://www.w3.org/2000/svg" xmlns:xlink="http://www.w3.org/1999/xlink" x="0px" y="0px"
	 width="550px" height="400px" viewBox="0 0 550 400" enable-background="new 0 0 550 400" xml:space="preserve">
<g>
	<path fill-rule="evenodd" clip-rule="evenodd" d="M23.2,308.3c0,4.4,1,7.7,3,10.1c2,2.3,4.6,3.5,7.9,3.5s6-1.2,7.9-3.5
		c1.9-2.3,2.9-5.7,2.9-10.1c0-4.3-1-7.7-2.9-10c-1.9-2.3-4.6-3.5-7.9-3.5c-3.4,0-6,1.2-8,3.5C24.2,300.7,23.2,304,23.2,308.3z
		 M22.9,295.5c1.3-1.5,2.9-2.6,4.9-3.4s4.1-1.1,6.4-1.1c2.4,0,4.5,0.4,6.4,1.1c1.9,0.8,3.5,1.9,4.8,3.4c1.3,1.5,2.4,3.3,3.1,5.4
		c0.7,2.2,1.1,4.6,1.1,7.4c0,2.8-0.4,5.2-1.1,7.4c-0.8,2.1-1.8,3.9-3.1,5.4c-1.4,1.5-3,2.6-4.9,3.4c-1.9,0.8-4,1.1-6.4,1.1
		c-2.4,0-4.5-0.4-6.4-1.1c-1.9-0.8-3.6-1.9-4.9-3.4c-1.3-1.5-2.4-3.3-3.1-5.4c-0.7-2.1-1.1-4.6-1.1-7.4c0-2.7,0.3-5.1,1-7.3
		C20.4,298.9,21.5,297,22.9,295.5z"/>
	
		<path fill-rule="evenodd" clip-rule="evenodd" fill="none" stroke="#000000" stroke-linecap="round" stroke-linejoin="round" stroke-miterlimit="3" d="
		M329.9,247.8l96.8,55.7l99-58V135.1L428.6,77l-100.1,54.7V247l-97.9,54.9L134.8,250v0.6L60,296.2 M427.3,286l82.6-47.1 M134.8,250
		v-13.4l-75.6,44.6 M134.8,236.7V132.6L234,78.3l93.3,52.8 M232.6,285.6l82.2-45.6"/>
</g>
</svg>
