<?xml version="1.0" encoding="utf-8"?>
<!-- Generator: Adobe Illustrator 16.0.0, SVG Export Plug-In . SVG Version: 6.00 Build 0)  -->
<!DOCTYPE svg PUBLIC "-//W3C//DTD SVG 1.1//EN" "http://www.w3.org/Graphics/SVG/1.1/DTD/svg11.dtd">
<svg version="1.1" id="Layer_1" xmlns="http://www.w3.org/2000/svg" xmlns:xlink="http://www.w3.org/1999/xlink" x="0px" y="0px"
	 width="550px" height="400px" viewBox="0 0 550 400" enable-background="new 0 0 550 400" xml:space="preserve">
<g>
	<path fill-rule="evenodd" clip-rule="evenodd" d="M510.3,55.5c-4.8,0-8.5,1.7-11.3,5c-2.7,3.3-4.1,8-4.1,14.1s1.4,10.9,4.2,14.1
		c2.8,3.3,6.5,4.9,11.2,4.9c4.7,0,8.4-1.6,11.2-4.9c2.8-3.3,4.2-8,4.2-14.1s-1.4-10.9-4.2-14.1C518.8,57.2,515.1,55.5,510.3,55.5z
		 M526.3,56.5c1.9,2.1,3.4,4.7,4.4,7.8c1,3.1,1.5,6.5,1.5,10.4s-0.5,7.3-1.5,10.4c-1.1,3-2.5,5.6-4.4,7.7c-2,2.1-4.3,3.7-6.8,4.8
		c-2.7,1.1-5.7,1.6-9.1,1.6c-3.3,0-6.3-0.6-9-1.6c-2.7-1.1-5-2.7-6.9-4.8c-1.9-2.1-3.4-4.7-4.4-7.7c-1.1-3.1-1.6-6.5-1.6-10.4
		c0-3.8,0.5-7.3,1.5-10.4c1-3.1,2.5-5.7,4.5-7.8c1.8-2.1,4.1-3.7,6.9-4.8c2.7-1.1,5.7-1.6,9-1.6c3.4,0,6.4,0.5,9.1,1.6
		C522.1,52.9,524.3,54.4,526.3,56.5z"/>
	
		<path fill-rule="evenodd" clip-rule="evenodd" fill="none" stroke="#000000" stroke-linecap="round" stroke-linejoin="round" stroke-miterlimit="3" d="
		M332.2,179.9l3.3-1.8l4.3-13.4l-12.5-9L180.9,48.9L17.1,165.2l60.4,185.3h205l53-172.4l146.6-80.6 M475,76.3l-147.8,79.3 M48.5,171
		l128.4-93.2"/>
</g>
</svg>
